<svg width="44" height="32" viewBox="0 0 44 32" fill="none" xmlns="http://www.w3.org/2000/svg">
<path d="M17.8279 2.45053C17.4853 1.51358 17.1396 0.568898 17.1333 0.556529C16.9683 0.19319 16.5864 -0.0356364 16.1841 0.0045628C15.9296 0.0246624 9.90629 0.534883 6.04686 3.58847C4.02914 5.42217 0 16.143 0 25.412C0 25.5759 0.0424286 25.7351 0.125714 25.8774C2.90871 30.6858 10.4956 31.9443 12.2241 31.9985C12.2351 32 12.2446 32 12.254 32C12.5589 32 12.8449 31.8562 13.0271 31.6135L14.8971 29.1211C11.8077 28.6588 11.2499 28.0558 11.1194 27.9615C10.4217 27.4559 9.90629 26.7478 10.5317 25.8542C11.0126 25.16 12.0214 24.9311 12.7946 25.3223C13.5866 25.6856 15.7064 26.8545 22 26.8236C28.2496 26.805 30.9933 25.5171 31.0326 25.4893C32.0823 25.0239 32.901 25.2156 33.4117 25.9052C34.0199 26.8437 33.5861 27.4791 32.8916 27.9832C32.7611 28.0775 32.4453 28.3419 29.1264 29.1149L30.9729 31.6119C31.1536 31.8562 31.4411 31.9985 31.746 31.9985C31.757 31.9985 31.7664 31.9985 31.7759 31.9969C33.506 31.9428 41.0929 30.6842 43.8743 25.8758C43.9576 25.7336 44 25.5743 44 25.4104C44 16.143 39.9709 5.42217 37.9029 3.54827C34.0937 0.536429 28.0704 0.0262085 27.8159 0.0045628C27.4136 -0.0294519 27.0317 0.194736 26.8667 0.556529C26.8604 0.568898 26.5241 1.52904 26.1989 2.45517C26.1989 2.45517 23.6359 2.08564 22 2.08564C20.3641 2.08564 17.8279 2.45053 17.8279 2.45053ZM15.7143 22.1852C13.9779 22.1852 12.5714 20.1242 12.5714 17.5793C12.5714 15.0344 13.9779 12.9734 15.7143 12.9734C17.457 12.7183 18.8194 15.0344 18.8571 17.5793C18.8571 20.1242 17.4507 22.1852 15.7143 22.1852ZM28.2857 22.1852C26.5493 22.1852 25.1429 20.1103 25.1429 17.5515C25.1429 14.9927 26.5493 12.9178 28.2857 12.9178C30.0221 12.9178 31.4286 14.9927 31.4286 17.5515C31.4286 20.1103 30.0221 22.1852 28.2857 22.1852Z" fill="#FDF5E6"/>
</svg>
