<svg width="234" height="37" viewBox="0 0 234 37" fill="none" xmlns="http://www.w3.org/2000/svg">
<path d="M32.759 10.418C32.8707 10.418 32.9795 10.4534 33.07 10.5191C33.1605 10.5848 33.228 10.6776 33.263 10.7841C33.298 10.8907 33.2986 11.0056 33.2648 11.1125C33.231 11.2194 33.1645 11.3129 33.0747 11.3796L20.9381 20.4041L16.8573 23.4409V20.4041H0.530673C0.38993 20.4041 0.254951 20.3479 0.155431 20.248C0.0559101 20.148 0 20.0124 0 19.871L0 10.9511C0 10.8097 0.0559101 10.6741 0.155431 10.5741C0.254951 10.4741 0.38993 10.418 0.530673 10.418H32.759Z" fill="#FDF5E6"/>
<path d="M0.716819 36.4585C0.621861 36.4584 0.529354 36.4282 0.45244 36.3723C0.375526 36.3163 0.318116 36.2375 0.288367 36.1469C0.258617 36.0563 0.258041 35.9586 0.28672 35.8676C0.315399 35.7767 0.371875 35.6971 0.448124 35.6403L12.7762 26.4724L16.857 23.4355V26.4724H33.0644C33.1841 26.4728 33.2987 26.5208 33.3833 26.6058C33.468 26.6908 33.5157 26.806 33.5161 26.9262V36.0047C33.5157 36.1249 33.468 36.2401 33.3833 36.3251C33.2987 36.4101 33.1841 36.4581 33.0644 36.4585H0.716819Z" fill="#FDF5E6"/>
<path d="M73.7234 10.8164C78.0494 10.8164 80.1183 13.0839 80.1183 16.5307C80.1183 19.6013 78.4726 21.5921 75.8864 22.5302L61.6405 27.7249C60.8008 28.0623 60.3256 28.6224 60.3256 29.4255C60.3256 30.3703 60.9352 30.9439 62.2048 30.9439H79.6011V35.7624H61.926C57.6487 35.7624 55.5327 33.4948 55.5327 30.0463C55.5327 27.2609 56.8963 25.0406 59.7647 24.0013L74.0593 18.8455C75.0937 18.4676 75.3759 17.759 75.3759 17.0976C75.3759 16.1528 74.7646 15.6349 73.448 15.6349H56.4261V10.8164H73.7234Z" fill="#FDF5E6"/>
<path d="M101.654 10.8164C107.532 10.8164 110.023 13.6508 110.023 18.4676C110.023 23.0498 107.719 25.6463 101.607 25.6463H89.8066V27.4414C89.8066 29.4255 90.8881 30.8899 93.6137 30.8899H108.8V35.7556H93.6137C87.4001 35.7556 84.9634 32.2599 84.9634 27.5359V19.0344C84.9634 14.3105 87.4085 10.8164 93.6137 10.8164H101.654ZM89.8066 21.7271H101.466C104.153 21.7271 105.134 20.5933 105.134 18.751C105.134 16.8614 104.053 15.6349 101.607 15.6349H93.6137C90.8881 15.6349 89.8066 17.1533 89.8066 19.0817V21.7271Z" fill="#FDF5E6"/>
<path d="M121.118 2.50371V28.413C121.118 28.7417 121.054 29.0672 120.928 29.3709C120.803 29.6745 120.619 29.9504 120.388 30.1828C120.157 30.4152 119.882 30.5994 119.58 30.7251C119.277 30.8507 118.953 30.9152 118.626 30.915C117.965 30.915 117.332 30.6515 116.864 30.1823C116.397 29.7131 116.134 29.0767 116.134 28.413V2.50371C116.134 1.83968 116.396 1.20285 116.864 0.733319C117.331 0.263783 117.965 5.6926e-07 118.626 5.6926e-07C118.953 -0.000221255 119.277 0.0643876 119.58 0.190132C119.882 0.315876 120.157 0.500289 120.389 0.732824C120.62 0.965359 120.804 1.24145 120.929 1.54532C121.054 1.84918 121.118 2.17485 121.118 2.50371Z" fill="#FDF5E6"/>
<path d="M133.247 2.50371V28.413C133.247 28.7417 133.183 29.0672 133.058 29.3709C132.932 29.6745 132.749 29.9504 132.517 30.1828C132.286 30.4152 132.011 30.5994 131.709 30.7251C131.407 30.8507 131.083 30.9152 130.755 30.915C130.095 30.915 129.461 30.6515 128.994 30.1823C128.526 29.7131 128.264 29.0767 128.263 28.413V2.50371C128.263 1.83968 128.526 1.20285 128.993 0.733319C129.46 0.263783 130.094 5.6926e-07 130.755 5.6926e-07C131.083 -0.000221255 131.407 0.0643876 131.709 0.190132C132.012 0.315876 132.287 0.500289 132.518 0.732824C132.749 0.965359 132.933 1.24145 133.058 1.54532C133.183 1.84918 133.248 2.17485 133.247 2.50371Z" fill="#FDF5E6"/>
<path d="M145.284 10.8164V25.7425C145.284 28.6696 147.447 30.8899 151.395 30.8899H155.439C159.389 30.8899 161.505 28.6696 161.505 25.7425V10.8164H166.393V25.9297C166.393 31.693 162.725 35.7556 155.627 35.7556H151.019C143.92 35.7556 140.252 31.693 140.252 25.9297V10.8164H145.284Z" fill="#FDF5E6"/>
<path d="M178.382 2.50371V28.413C178.382 28.7417 178.317 29.0672 178.192 29.3709C178.067 29.6745 177.883 29.9504 177.652 30.1828C177.42 30.4152 177.145 30.5994 176.843 30.7251C176.541 30.8507 176.217 30.9152 175.889 30.915C175.229 30.915 174.595 30.6514 174.128 30.1822C173.661 29.713 173.399 29.0766 173.399 28.413V2.50371C173.399 2.17499 173.463 1.84946 173.588 1.54571C173.713 1.24195 173.896 0.965934 174.128 0.733421C174.359 0.500908 174.634 0.31646 174.936 0.190617C175.238 0.064773 175.562 4.94529e-07 175.889 5.6926e-07C176.217 -0.000221255 176.541 0.0643876 176.843 0.190132C177.146 0.315876 177.421 0.500289 177.652 0.732824C177.884 0.965359 178.067 1.24145 178.192 1.54532C178.317 1.84918 178.382 2.17485 178.382 2.50371Z" fill="#FDF5E6"/>
<path d="M201.419 10.8164C207.624 10.8164 210.069 14.3121 210.069 19.0344V30.7482C210.069 34.3384 209.129 35.7556 204.944 35.7556H193.333C187.455 35.7556 185.01 32.874 185.01 28.15C185.01 23.6167 187.267 20.9713 193.378 20.9713H205.179V19.0817C205.179 17.1448 204.099 15.6349 201.372 15.6349H186.515V10.8164H201.419ZM205.179 29.6144V24.9394H193.474C190.841 24.9394 189.901 26.0259 189.901 27.8666C189.901 29.7072 190.888 30.8899 193.378 30.8899H203.817C204.805 30.8899 205.179 30.512 205.179 29.6144Z" fill="#FDF5E6"/>
<path d="M234 10.8164V15.6349H225.256C223.046 15.6349 222.065 16.6724 222.065 18.8404V35.7556H217.081V18.0896C217.081 13.0839 218.916 10.8164 223.798 10.8164H234Z" fill="#FDF5E6"/>
</svg>
