<svg width="1902" height="842" viewBox="0 0 1902 842" fill="none" xmlns="http://www.w3.org/2000/svg">
<rect x="-1.75" y="1.25" width="1905.5" height="839.5" stroke="#92E6A7" stroke-width="2.5"/>
<g opacity="0.7">
<line x1="8.09082" y1="0.873047" x2="8.09078" y2="841.126" stroke="#92E6A7" stroke-width="0.5"/>
<line x1="695.312" y1="0.873047" x2="695.312" y2="841.126" stroke="#92E6A7" stroke-width="0.5"/>
<line x1="353.116" y1="0.873047" x2="353.116" y2="841.126" stroke="#92E6A7" stroke-width="0.5"/>
<line x1="1040.34" y1="0.873047" x2="1040.34" y2="841.126" stroke="#92E6A7" stroke-width="0.5"/>
<line x1="1448.52" y1="0.873047" x2="1448.52" y2="841.126" stroke="#92E6A7" stroke-width="0.5"/>
<line x1="181.545" y1="0.873047" x2="181.545" y2="841.126" stroke="#92E6A7" stroke-width="0.5"/>
<line x1="868.767" y1="0.873047" x2="868.767" y2="841.126" stroke="#92E6A7" stroke-width="0.5"/>
<line x1="524.685" y1="0.873047" x2="524.685" y2="841.126" stroke="#92E6A7" stroke-width="0.5"/>
<line x1="1211.91" y1="0.873047" x2="1211.91" y2="841.126" stroke="#92E6A7" stroke-width="0.5"/>
<line x1="1619.15" y1="0.873047" x2="1619.15" y2="841.126" stroke="#92E6A7" stroke-width="0.5"/>
<line x1="94.8186" y1="1.04523e-08" x2="94.8186" y2="841.127" stroke="#92E6A7" stroke-width="0.5"/>
<line x1="782.04" y1="0.873047" x2="782.04" y2="841.126" stroke="#92E6A7" stroke-width="0.5"/>
<line x1="439.842" y1="0.873047" x2="439.842" y2="841.126" stroke="#92E6A7" stroke-width="0.5"/>
<line x1="1125.18" y1="0.873047" x2="1125.18" y2="841.126" stroke="#92E6A7" stroke-width="0.5"/>
<line x1="1532.42" y1="0.873047" x2="1532.42" y2="841.126" stroke="#92E6A7" stroke-width="0.5"/>
<line x1="266.388" y1="0.873047" x2="266.388" y2="840.253" stroke="#92E6A7" stroke-width="0.5"/>
<line x1="953.61" y1="0.873047" x2="953.61" y2="841.126" stroke="#92E6A7" stroke-width="0.5"/>
<line x1="611.412" y1="0.873047" x2="611.412" y2="841.126" stroke="#92E6A7" stroke-width="0.5"/>
<line x1="1298.63" y1="0.873047" x2="1298.63" y2="841.126" stroke="#92E6A7" stroke-width="0.5"/>
<line x1="1705.88" y1="0.873047" x2="1705.88" y2="841.126" stroke="#92E6A7" stroke-width="0.5"/>
<line x1="1790.72" y1="0.873047" x2="1790.72" y2="841.126" stroke="#92E6A7" stroke-width="0.5"/>
<line x1="51.4546" y1="0.873047" x2="51.4545" y2="841.126" stroke="#92E6A7" stroke-width="0.5"/>
<line x1="738.676" y1="0.873047" x2="738.676" y2="841.126" stroke="#92E6A7" stroke-width="0.5"/>
<line x1="396.479" y1="0.873047" x2="396.479" y2="841.126" stroke="#92E6A7" stroke-width="0.5"/>
<line x1="1083.7" y1="0.873047" x2="1083.7" y2="841.126" stroke="#92E6A7" stroke-width="0.5"/>
<line x1="1491.89" y1="0.873047" x2="1491.89" y2="841.126" stroke="#92E6A7" stroke-width="0.5"/>
<line x1="224.909" y1="0.873047" x2="224.909" y2="841.126" stroke="#92E6A7" stroke-width="0.5"/>
<line x1="910.246" y1="0.873047" x2="910.246" y2="841.126" stroke="#92E6A7" stroke-width="0.5"/>
<line x1="568.049" y1="0.873047" x2="568.049" y2="841.126" stroke="#92E6A7" stroke-width="0.5"/>
<line x1="1255.27" y1="0.873047" x2="1255.27" y2="841.126" stroke="#92E6A7" stroke-width="0.5"/>
<line x1="1662.51" y1="0.873047" x2="1662.51" y2="841.126" stroke="#92E6A7" stroke-width="0.5"/>
<line x1="138.181" y1="0.873047" x2="138.181" y2="841.126" stroke="#92E6A7" stroke-width="0.5"/>
<line x1="825.403" y1="0.873047" x2="825.403" y2="841.126" stroke="#92E6A7" stroke-width="0.5"/>
<line x1="481.321" y1="0.873047" x2="481.321" y2="841.126" stroke="#92E6A7" stroke-width="0.5"/>
<line x1="1168.54" y1="0.873047" x2="1168.54" y2="841.126" stroke="#92E6A7" stroke-width="0.5"/>
<line x1="1575.79" y1="0.873047" x2="1575.79" y2="841.126" stroke="#92E6A7" stroke-width="0.5"/>
<line x1="309.751" y1="0.873047" x2="309.751" y2="840.253" stroke="#92E6A7" stroke-width="0.5"/>
<line x1="996.973" y1="0.873047" x2="996.973" y2="841.126" stroke="#92E6A7" stroke-width="0.5"/>
<line x1="1405.16" y1="0.873047" x2="1405.16" y2="841.126" stroke="#92E6A7" stroke-width="0.5"/>
<line x1="654.776" y1="0.873047" x2="654.776" y2="841.126" stroke="#92E6A7" stroke-width="0.5"/>
<line x1="1340.11" y1="0.873047" x2="1340.11" y2="841.126" stroke="#92E6A7" stroke-width="0.5"/>
<line x1="1747.36" y1="0.873047" x2="1747.36" y2="841.126" stroke="#92E6A7" stroke-width="0.5"/>
<line x1="1834.08" y1="0.873047" x2="1834.08" y2="841.126" stroke="#92E6A7" stroke-width="0.5"/>
<line x1="29.7725" y1="0.873047" x2="29.7724" y2="841.126" stroke="#92E6A7" stroke-width="0.5"/>
<line x1="716.994" y1="0.873047" x2="716.994" y2="841.126" stroke="#92E6A7" stroke-width="0.5"/>
<line x1="374.797" y1="0.873047" x2="374.797" y2="841.126" stroke="#92E6A7" stroke-width="0.5"/>
<line x1="1062.02" y1="0.873047" x2="1062.02" y2="841.126" stroke="#92E6A7" stroke-width="0.5"/>
<line x1="1470.2" y1="0.873047" x2="1470.2" y2="841.126" stroke="#92E6A7" stroke-width="0.5"/>
<line x1="203.228" y1="0.873047" x2="203.227" y2="841.126" stroke="#92E6A7" stroke-width="0.5"/>
<line x1="888.564" y1="0.873047" x2="888.564" y2="841.126" stroke="#92E6A7" stroke-width="0.5"/>
<line x1="546.367" y1="0.873047" x2="546.367" y2="841.126" stroke="#92E6A7" stroke-width="0.5"/>
<line x1="1233.59" y1="0.873047" x2="1233.59" y2="841.126" stroke="#92E6A7" stroke-width="0.5"/>
<line x1="1640.83" y1="0.873047" x2="1640.83" y2="841.126" stroke="#92E6A7" stroke-width="0.5"/>
<line x1="116.5" y1="1.04523e-08" x2="116.5" y2="841.127" stroke="#92E6A7" stroke-width="0.5"/>
<line x1="803.722" y1="0.873047" x2="803.722" y2="841.126" stroke="#92E6A7" stroke-width="0.5"/>
<line x1="461.525" y1="0.873047" x2="461.525" y2="841.126" stroke="#92E6A7" stroke-width="0.5"/>
<line x1="1146.86" y1="0.873047" x2="1146.86" y2="841.126" stroke="#92E6A7" stroke-width="0.5"/>
<line x1="1554.1" y1="0.873047" x2="1554.1" y2="841.126" stroke="#92E6A7" stroke-width="0.5"/>
<line x1="288.07" y1="0.873047" x2="288.07" y2="840.253" stroke="#92E6A7" stroke-width="0.5"/>
<line x1="975.291" y1="0.873047" x2="975.291" y2="841.126" stroke="#92E6A7" stroke-width="0.5"/>
<line x1="1383.48" y1="0.873047" x2="1383.48" y2="841.126" stroke="#92E6A7" stroke-width="0.5"/>
<line x1="633.094" y1="0.873047" x2="633.094" y2="841.126" stroke="#92E6A7" stroke-width="0.5"/>
<line x1="1318.43" y1="0.873047" x2="1318.43" y2="841.126" stroke="#92E6A7" stroke-width="0.5"/>
<line x1="1725.67" y1="0.873047" x2="1725.67" y2="841.126" stroke="#92E6A7" stroke-width="0.5"/>
<line x1="1812.4" y1="0.873047" x2="1812.4" y2="841.126" stroke="#92E6A7" stroke-width="0.5"/>
<line x1="73.1367" y1="0.873047" x2="73.1367" y2="841.126" stroke="#92E6A7" stroke-width="0.5"/>
<line x1="760.358" y1="0.873047" x2="760.358" y2="841.126" stroke="#92E6A7" stroke-width="0.5"/>
<line x1="418.16" y1="0.873047" x2="418.16" y2="841.126" stroke="#92E6A7" stroke-width="0.5"/>
<line x1="1103.5" y1="0.873047" x2="1103.5" y2="841.126" stroke="#92E6A7" stroke-width="0.5"/>
<line x1="1510.74" y1="0.873047" x2="1510.74" y2="841.126" stroke="#92E6A7" stroke-width="0.5"/>
<line x1="246.591" y1="0.873047" x2="246.591" y2="841.126" stroke="#92E6A7" stroke-width="0.5"/>
<line x1="931.928" y1="0.873047" x2="931.928" y2="841.126" stroke="#92E6A7" stroke-width="0.5"/>
<line x1="589.73" y1="0.873047" x2="589.73" y2="841.126" stroke="#92E6A7" stroke-width="0.5"/>
<line x1="1276.95" y1="0.873047" x2="1276.95" y2="841.126" stroke="#92E6A7" stroke-width="0.5"/>
<line x1="1684.2" y1="0.873047" x2="1684.2" y2="841.126" stroke="#92E6A7" stroke-width="0.5"/>
<line x1="159.863" y1="0.873047" x2="159.863" y2="841.126" stroke="#92E6A7" stroke-width="0.5"/>
<line x1="847.085" y1="0.873047" x2="847.085" y2="841.126" stroke="#92E6A7" stroke-width="0.5"/>
<line x1="503.003" y1="0.873047" x2="503.003" y2="841.126" stroke="#92E6A7" stroke-width="0.5"/>
<line x1="1190.23" y1="0.873047" x2="1190.23" y2="841.126" stroke="#92E6A7" stroke-width="0.5"/>
<line x1="1597.47" y1="0.873047" x2="1597.47" y2="841.126" stroke="#92E6A7" stroke-width="0.5"/>
<line x1="331.433" y1="0.873047" x2="331.434" y2="840.253" stroke="#92E6A7" stroke-width="0.5"/>
<line x1="1018.66" y1="0.873047" x2="1018.66" y2="841.126" stroke="#92E6A7" stroke-width="0.5"/>
<line x1="1426.84" y1="0.873047" x2="1426.84" y2="841.126" stroke="#92E6A7" stroke-width="0.5"/>
<line x1="676.458" y1="0.873047" x2="676.458" y2="841.126" stroke="#92E6A7" stroke-width="0.5"/>
<line x1="1361.79" y1="0.873047" x2="1361.79" y2="841.126" stroke="#92E6A7" stroke-width="0.5"/>
<line x1="1769.04" y1="0.873047" x2="1769.04" y2="841.126" stroke="#92E6A7" stroke-width="0.5"/>
<line x1="1855.76" y1="0.873047" x2="1855.76" y2="841.126" stroke="#92E6A7" stroke-width="0.5"/>
<line x1="18.9319" y1="0.873047" x2="18.9318" y2="841.126" stroke="#92E6A7" stroke-width="0.5"/>
<line x1="706.154" y1="0.873047" x2="706.154" y2="841.126" stroke="#92E6A7" stroke-width="0.5"/>
<line x1="363.956" y1="0.873047" x2="363.956" y2="841.126" stroke="#92E6A7" stroke-width="0.5"/>
<line x1="1051.18" y1="0.873047" x2="1051.18" y2="841.126" stroke="#92E6A7" stroke-width="0.5"/>
<line x1="1459.36" y1="0.873047" x2="1459.36" y2="841.126" stroke="#92E6A7" stroke-width="0.5"/>
<line x1="192.386" y1="0.873047" x2="192.386" y2="841.126" stroke="#92E6A7" stroke-width="0.5"/>
<line x1="879.608" y1="0.873047" x2="879.608" y2="841.126" stroke="#92E6A7" stroke-width="0.5"/>
<line x1="535.526" y1="0.873047" x2="535.526" y2="841.126" stroke="#92E6A7" stroke-width="0.5"/>
<line x1="1222.75" y1="0.873047" x2="1222.75" y2="841.126" stroke="#92E6A7" stroke-width="0.5"/>
<line x1="1629.99" y1="0.873047" x2="1629.99" y2="841.126" stroke="#92E6A7" stroke-width="0.5"/>
<line x1="105.659" y1="1.04523e-08" x2="105.659" y2="841.127" stroke="#92E6A7" stroke-width="0.5"/>
<line x1="792.881" y1="0.873047" x2="792.881" y2="841.126" stroke="#92E6A7" stroke-width="0.5"/>
<line x1="450.683" y1="0.873047" x2="450.683" y2="841.126" stroke="#92E6A7" stroke-width="0.5"/>
<line x1="1136.02" y1="0.873047" x2="1136.02" y2="841.126" stroke="#92E6A7" stroke-width="0.5"/>
<line x1="1543.26" y1="0.873047" x2="1543.26" y2="841.126" stroke="#92E6A7" stroke-width="0.5"/>
<line x1="277.229" y1="0.873047" x2="277.229" y2="840.253" stroke="#92E6A7" stroke-width="0.5"/>
<line x1="964.451" y1="0.873047" x2="964.451" y2="841.126" stroke="#92E6A7" stroke-width="0.5"/>
<line x1="622.253" y1="0.873047" x2="622.253" y2="841.126" stroke="#92E6A7" stroke-width="0.5"/>
<line x1="1307.59" y1="0.873047" x2="1307.59" y2="841.126" stroke="#92E6A7" stroke-width="0.5"/>
<line x1="1714.83" y1="0.873047" x2="1714.83" y2="841.126" stroke="#92E6A7" stroke-width="0.5"/>
<line x1="1801.56" y1="0.873047" x2="1801.56" y2="841.126" stroke="#92E6A7" stroke-width="0.5"/>
<line x1="62.2949" y1="0.873047" x2="62.2949" y2="841.126" stroke="#92E6A7" stroke-width="0.5"/>
<line x1="749.517" y1="0.873047" x2="749.517" y2="841.126" stroke="#92E6A7" stroke-width="0.5"/>
<line x1="407.32" y1="0.873047" x2="407.32" y2="841.126" stroke="#92E6A7" stroke-width="0.5"/>
<line x1="1092.66" y1="0.873047" x2="1092.66" y2="841.126" stroke="#92E6A7" stroke-width="0.5"/>
<line x1="1502.73" y1="0.873047" x2="1502.73" y2="841.126" stroke="#92E6A7" stroke-width="0.5"/>
<line x1="235.75" y1="0.873047" x2="235.75" y2="841.126" stroke="#92E6A7" stroke-width="0.5"/>
<line x1="921.087" y1="0.873047" x2="921.087" y2="841.126" stroke="#92E6A7" stroke-width="0.5"/>
<line x1="578.89" y1="0.873047" x2="578.89" y2="841.126" stroke="#92E6A7" stroke-width="0.5"/>
<line x1="1266.11" y1="0.873047" x2="1266.11" y2="841.126" stroke="#92E6A7" stroke-width="0.5"/>
<line x1="1673.35" y1="0.873047" x2="1673.35" y2="841.126" stroke="#92E6A7" stroke-width="0.5"/>
<line x1="149.023" y1="0.873047" x2="149.023" y2="841.126" stroke="#92E6A7" stroke-width="0.5"/>
<line x1="836.245" y1="0.873047" x2="836.245" y2="841.126" stroke="#92E6A7" stroke-width="0.5"/>
<line x1="492.162" y1="0.873047" x2="492.162" y2="841.126" stroke="#92E6A7" stroke-width="0.5"/>
<line x1="1179.38" y1="0.873047" x2="1179.38" y2="841.126" stroke="#92E6A7" stroke-width="0.5"/>
<line x1="1586.63" y1="0.873047" x2="1586.63" y2="841.126" stroke="#92E6A7" stroke-width="0.5"/>
<line x1="320.593" y1="0.873047" x2="320.593" y2="840.253" stroke="#92E6A7" stroke-width="0.5"/>
<line x1="1007.81" y1="0.873047" x2="1007.81" y2="841.126" stroke="#92E6A7" stroke-width="0.5"/>
<line x1="1416" y1="0.873047" x2="1416" y2="841.126" stroke="#92E6A7" stroke-width="0.5"/>
<line x1="665.617" y1="0.873047" x2="665.617" y2="841.126" stroke="#92E6A7" stroke-width="0.5"/>
<line x1="1350.95" y1="0.873047" x2="1350.95" y2="841.126" stroke="#92E6A7" stroke-width="0.5"/>
<line x1="1758.2" y1="0.873047" x2="1758.2" y2="841.126" stroke="#92E6A7" stroke-width="0.5"/>
<line x1="1844.92" y1="0.873047" x2="1844.92" y2="841.126" stroke="#92E6A7" stroke-width="0.5"/>
<line x1="40.6138" y1="0.873047" x2="40.6137" y2="841.126" stroke="#92E6A7" stroke-width="0.5"/>
<line x1="727.836" y1="0.873047" x2="727.836" y2="841.126" stroke="#92E6A7" stroke-width="0.5"/>
<line x1="385.638" y1="0.873047" x2="385.638" y2="841.126" stroke="#92E6A7" stroke-width="0.5"/>
<line x1="1072.86" y1="0.873047" x2="1072.86" y2="841.126" stroke="#92E6A7" stroke-width="0.5"/>
<line x1="1481.04" y1="0.873047" x2="1481.04" y2="841.126" stroke="#92E6A7" stroke-width="0.5"/>
<line x1="214.068" y1="0.873047" x2="214.068" y2="841.126" stroke="#92E6A7" stroke-width="0.5"/>
<line x1="899.406" y1="0.873047" x2="899.405" y2="841.126" stroke="#92E6A7" stroke-width="0.5"/>
<line x1="557.208" y1="0.873047" x2="557.208" y2="841.126" stroke="#92E6A7" stroke-width="0.5"/>
<line x1="1244.43" y1="0.873047" x2="1244.43" y2="841.126" stroke="#92E6A7" stroke-width="0.5"/>
<line x1="1651.67" y1="0.873047" x2="1651.67" y2="841.126" stroke="#92E6A7" stroke-width="0.5"/>
<line x1="127.341" y1="0.873047" x2="127.341" y2="841.126" stroke="#92E6A7" stroke-width="0.5"/>
<line x1="814.562" y1="0.873047" x2="814.562" y2="841.126" stroke="#92E6A7" stroke-width="0.5"/>
<line x1="470.48" y1="0.873047" x2="470.48" y2="841.126" stroke="#92E6A7" stroke-width="0.5"/>
<line x1="1157.7" y1="0.873047" x2="1157.7" y2="841.126" stroke="#92E6A7" stroke-width="0.5"/>
<line x1="1564.95" y1="0.873047" x2="1564.95" y2="841.126" stroke="#92E6A7" stroke-width="0.5"/>
<line x1="298.911" y1="0.873047" x2="298.911" y2="840.253" stroke="#92E6A7" stroke-width="0.5"/>
<line x1="986.133" y1="0.873047" x2="986.133" y2="841.126" stroke="#92E6A7" stroke-width="0.5"/>
<line x1="1394.32" y1="0.873047" x2="1394.32" y2="841.126" stroke="#92E6A7" stroke-width="0.5"/>
<line x1="643.935" y1="0.873047" x2="643.935" y2="841.126" stroke="#92E6A7" stroke-width="0.5"/>
<line x1="1329.27" y1="0.873047" x2="1329.27" y2="841.126" stroke="#92E6A7" stroke-width="0.5"/>
<line x1="1736.52" y1="0.873047" x2="1736.52" y2="841.126" stroke="#92E6A7" stroke-width="0.5"/>
<line x1="1823.24" y1="0.873047" x2="1823.24" y2="841.126" stroke="#92E6A7" stroke-width="0.5"/>
<line x1="83.9771" y1="0.873047" x2="83.977" y2="841.126" stroke="#92E6A7" stroke-width="0.5"/>
<line x1="771.199" y1="0.873047" x2="771.199" y2="841.126" stroke="#92E6A7" stroke-width="0.5"/>
<line x1="429.002" y1="0.873047" x2="429.002" y2="841.126" stroke="#92E6A7" stroke-width="0.5"/>
<line x1="1114.34" y1="0.873047" x2="1114.34" y2="841.126" stroke="#92E6A7" stroke-width="0.5"/>
<line x1="1521.58" y1="0.873047" x2="1521.58" y2="841.126" stroke="#92E6A7" stroke-width="0.5"/>
<line x1="257.432" y1="0.873047" x2="257.432" y2="841.126" stroke="#92E6A7" stroke-width="0.5"/>
<line x1="942.769" y1="0.873047" x2="942.769" y2="841.126" stroke="#92E6A7" stroke-width="0.5"/>
<line x1="600.572" y1="0.873047" x2="600.572" y2="841.126" stroke="#92E6A7" stroke-width="0.5"/>
<line x1="1287.79" y1="0.873047" x2="1287.79" y2="841.126" stroke="#92E6A7" stroke-width="0.5"/>
<line x1="1695.04" y1="0.873047" x2="1695.04" y2="841.126" stroke="#92E6A7" stroke-width="0.5"/>
<line x1="170.705" y1="0.873047" x2="170.705" y2="841.126" stroke="#92E6A7" stroke-width="0.5"/>
<line x1="857.927" y1="0.873047" x2="857.926" y2="841.126" stroke="#92E6A7" stroke-width="0.5"/>
<line x1="513.844" y1="0.873047" x2="513.844" y2="841.126" stroke="#92E6A7" stroke-width="0.5"/>
<line x1="1201.07" y1="0.873047" x2="1201.07" y2="841.126" stroke="#92E6A7" stroke-width="0.5"/>
<line x1="1608.31" y1="0.873047" x2="1608.31" y2="841.126" stroke="#92E6A7" stroke-width="0.5"/>
<line x1="342.274" y1="0.873047" x2="342.274" y2="840.253" stroke="#92E6A7" stroke-width="0.5"/>
<line x1="1029.5" y1="0.873047" x2="1029.5" y2="841.126" stroke="#92E6A7" stroke-width="0.5"/>
<line x1="1437.68" y1="0.873047" x2="1437.68" y2="841.126" stroke="#92E6A7" stroke-width="0.5"/>
<line x1="684.472" y1="0.873047" x2="684.472" y2="841.126" stroke="#92E6A7" stroke-width="0.5"/>
<line x1="1372.64" y1="0.873047" x2="1372.64" y2="841.126" stroke="#92E6A7" stroke-width="0.5"/>
<line x1="1779.88" y1="0.873047" x2="1779.88" y2="841.126" stroke="#92E6A7" stroke-width="0.5"/>
<line x1="1866.61" y1="0.873047" x2="1866.61" y2="841.126" stroke="#92E6A7" stroke-width="0.5"/>
<line x1="1877.45" y1="0.873047" x2="1877.45" y2="841.126" stroke="#92E6A7" stroke-width="0.5"/>
<line x1="1888.23" y1="1.04165e-08" x2="1888.23" y2="840.253" stroke="#92E6A7" stroke-width="0.5"/>
<line x1="1899.24" y1="1.04165e-08" x2="1899.24" y2="840.253" stroke="#92E6A7" stroke-width="0.5"/>
<line x1="-1.91553" y1="684.531" x2="1903.92" y2="684.531" stroke="#92E6A7" stroke-width="0.5"/>
<line x1="-1.91553" y1="356.115" x2="1903.92" y2="356.115" stroke="#92E6A7" stroke-width="0.5"/>
<line x1="-1.91553" y1="823.408" x2="1903.92" y2="823.408" stroke="#92E6A7" stroke-width="0.5"/>
<line x1="-1.91553" y1="546.527" x2="1903.92" y2="546.527" stroke="#92E6A7" stroke-width="0.5"/>
<line x1="-1.91553" y1="217.236" x2="1903.92" y2="217.236" stroke="#92E6A7" stroke-width="0.5"/>
<line x1="-1.91553" y1="615.529" x2="1903.92" y2="615.529" stroke="#92E6A7" stroke-width="0.5"/>
<line x1="-1.91553" y1="286.238" x2="1903.92" y2="286.238" stroke="#92E6A7" stroke-width="0.5"/>
<line x1="-1.91553" y1="754.404" x2="1903.92" y2="754.404" stroke="#92E6A7" stroke-width="0.5"/>
<line x1="-1.91553" y1="476.65" x2="1903.92" y2="476.65" stroke="#92E6A7" stroke-width="0.5"/>
<line x1="-1.91553" y1="148.236" x2="1903.92" y2="148.236" stroke="#92E6A7" stroke-width="0.5"/>
<line x1="-1.91553" y1="78.3594" x2="1903.92" y2="78.3594" stroke="#92E6A7" stroke-width="0.5"/>
<line x1="-1.91553" y1="650.467" x2="1903.92" y2="650.467" stroke="#92E6A7" stroke-width="0.5"/>
<line x1="-1.91553" y1="321.178" x2="1903.92" y2="321.178" stroke="#92E6A7" stroke-width="0.5"/>
<line x1="-1.91553" y1="788.469" x2="1903.92" y2="788.469" stroke="#92E6A7" stroke-width="0.5"/>
<line x1="-1.91553" y1="511.586" x2="1903.92" y2="511.586" stroke="#92E6A7" stroke-width="0.5"/>
<line x1="-1.91553" y1="182.299" x2="1903.92" y2="182.299" stroke="#92E6A7" stroke-width="0.5"/>
<line x1="-1.91553" y1="580.59" x2="1903.92" y2="580.59" stroke="#92E6A7" stroke-width="0.5"/>
<line x1="-1.91553" y1="252.174" x2="1903.92" y2="252.174" stroke="#92E6A7" stroke-width="0.5"/>
<line x1="-1.91553" y1="719.467" x2="1903.92" y2="719.467" stroke="#92E6A7" stroke-width="0.5"/>
<line x1="-1.91553" y1="390.18" x2="1903.92" y2="390.18" stroke="#92E6A7" stroke-width="0.5"/>
<line x1="-3" y1="442.586" x2="1903.92" y2="442.586" stroke="#92E6A7" stroke-width="0.5"/>
<line x1="-1.91553" y1="113.299" x2="1903.92" y2="113.299" stroke="#92E6A7" stroke-width="0.5"/>
<line x1="-1.91553" y1="44.2949" x2="1903.92" y2="44.295" stroke="#92E6A7" stroke-width="0.5"/>
<line x1="-1.91553" y1="667.936" x2="1903.92" y2="667.936" stroke="#92E6A7" stroke-width="0.5"/>
<line x1="-1.91553" y1="338.646" x2="1903.92" y2="338.647" stroke="#92E6A7" stroke-width="0.5"/>
<line x1="-1.91553" y1="805.939" x2="1903.92" y2="805.94" stroke="#92E6A7" stroke-width="0.5"/>
<line x1="-1.91553" y1="529.059" x2="1903.92" y2="529.059" stroke="#92E6A7" stroke-width="0.5"/>
<line x1="-1.91553" y1="199.77" x2="1903.92" y2="199.77" stroke="#92E6A7" stroke-width="0.5"/>
<line x1="-1.91553" y1="598.061" x2="1903.92" y2="598.061" stroke="#92E6A7" stroke-width="0.5"/>
<line x1="-1.91553" y1="268.77" x2="1903.92" y2="268.77" stroke="#92E6A7" stroke-width="0.5"/>
<line x1="-1.91553" y1="736.936" x2="1903.92" y2="736.936" stroke="#92E6A7" stroke-width="0.5"/>
<line x1="-1.91553" y1="407.648" x2="1903.92" y2="407.648" stroke="#92E6A7" stroke-width="0.5"/>
<line x1="-3" y1="460.055" x2="1903.92" y2="460.055" stroke="#92E6A7" stroke-width="0.5"/>
<line x1="-1.91553" y1="130.768" x2="1903.92" y2="130.768" stroke="#92E6A7" stroke-width="0.5"/>
<line x1="-1.91553" y1="60.8906" x2="1903.92" y2="60.8907" stroke="#92E6A7" stroke-width="0.5"/>
<line x1="-1.91553" y1="632.998" x2="1903.92" y2="632.998" stroke="#92E6A7" stroke-width="0.5"/>
<line x1="-1.91553" y1="303.709" x2="1903.92" y2="303.709" stroke="#92E6A7" stroke-width="0.5"/>
<line x1="-1.91553" y1="771.873" x2="1903.92" y2="771.873" stroke="#92E6A7" stroke-width="0.5"/>
<line x1="-1.91553" y1="494.119" x2="1903.92" y2="494.119" stroke="#92E6A7" stroke-width="0.5"/>
<line x1="-1.91553" y1="164.83" x2="1903.92" y2="164.83" stroke="#92E6A7" stroke-width="0.5"/>
<line x1="-1.91553" y1="563.996" x2="1903.92" y2="563.996" stroke="#92E6A7" stroke-width="0.5"/>
<line x1="-1.91553" y1="234.705" x2="1903.92" y2="234.705" stroke="#92E6A7" stroke-width="0.5"/>
<line x1="-1.91553" y1="702" x2="1903.92" y2="702" stroke="#92E6A7" stroke-width="0.5"/>
<line x1="-1.91553" y1="372.711" x2="1903.92" y2="372.711" stroke="#92E6A7" stroke-width="0.5"/>
<line x1="-3" y1="425.117" x2="1903.92" y2="425.117" stroke="#92E6A7" stroke-width="0.5"/>
<line x1="-1.91553" y1="95.8301" x2="1903.92" y2="95.8301" stroke="#92E6A7" stroke-width="0.5"/>
<line x1="-1.91553" y1="26.8281" x2="1903.92" y2="26.8282" stroke="#92E6A7" stroke-width="0.5"/>
<line x1="-1.91553" y1="676.67" x2="1903.92" y2="676.67" stroke="#92E6A7" stroke-width="0.5"/>
<line x1="-1.91553" y1="347.381" x2="1903.92" y2="347.381" stroke="#92E6A7" stroke-width="0.5"/>
<line x1="-1.91553" y1="814.672" x2="1903.92" y2="814.672" stroke="#92E6A7" stroke-width="0.5"/>
<line x1="-1.91553" y1="537.791" x2="1903.92" y2="537.791" stroke="#92E6A7" stroke-width="0.5"/>
<line x1="-1.91553" y1="208.502" x2="1903.92" y2="208.502" stroke="#92E6A7" stroke-width="0.5"/>
<line x1="-1.91553" y1="606.795" x2="1903.92" y2="606.795" stroke="#92E6A7" stroke-width="0.5"/>
<line x1="-1.91553" y1="277.504" x2="1903.92" y2="277.504" stroke="#92E6A7" stroke-width="0.5"/>
<line x1="-1.91553" y1="745.67" x2="1903.92" y2="745.67" stroke="#92E6A7" stroke-width="0.5"/>
<line x1="-3" y1="468.789" x2="1903.92" y2="468.789" stroke="#92E6A7" stroke-width="0.5"/>
<line x1="-1.91553" y1="139.5" x2="1903.92" y2="139.5" stroke="#92E6A7" stroke-width="0.5"/>
<line x1="-1.91553" y1="69.627" x2="1903.92" y2="69.627" stroke="#92E6A7" stroke-width="0.5"/>
<line x1="-1.91553" y1="641.73" x2="1903.92" y2="641.731" stroke="#92E6A7" stroke-width="0.5"/>
<line x1="-1.91553" y1="312.441" x2="1903.92" y2="312.441" stroke="#92E6A7" stroke-width="0.5"/>
<line x1="-1.91553" y1="780.609" x2="1903.92" y2="780.609" stroke="#92E6A7" stroke-width="0.5"/>
<line x1="-1.91553" y1="502.854" x2="1903.92" y2="502.854" stroke="#92E6A7" stroke-width="0.5"/>
<line x1="-1.91553" y1="173.564" x2="1903.92" y2="173.564" stroke="#92E6A7" stroke-width="0.5"/>
<line x1="-1.91553" y1="572.73" x2="1903.92" y2="572.731" stroke="#92E6A7" stroke-width="0.5"/>
<line x1="-1.91553" y1="243.441" x2="1903.92" y2="243.441" stroke="#92E6A7" stroke-width="0.5"/>
<line x1="-1.91553" y1="710.732" x2="1903.92" y2="710.732" stroke="#92E6A7" stroke-width="0.5"/>
<line x1="-1.91553" y1="381.445" x2="1903.92" y2="381.445" stroke="#92E6A7" stroke-width="0.5"/>
<line x1="-3" y1="433.852" x2="1903.92" y2="433.852" stroke="#92E6A7" stroke-width="0.5"/>
<line x1="-1.91553" y1="104.564" x2="1903.92" y2="104.565" stroke="#92E6A7" stroke-width="0.5"/>
<line x1="-1.91553" y1="35.5605" x2="1903.92" y2="35.5606" stroke="#92E6A7" stroke-width="0.5"/>
<line x1="-1.91553" y1="659.199" x2="1903.92" y2="659.199" stroke="#92E6A7" stroke-width="0.5"/>
<line x1="-1.91553" y1="329.912" x2="1903.92" y2="329.912" stroke="#92E6A7" stroke-width="0.5"/>
<line x1="-1.91553" y1="797.205" x2="1903.92" y2="797.205" stroke="#92E6A7" stroke-width="0.5"/>
<line x1="-1.91553" y1="520.322" x2="1903.92" y2="520.322" stroke="#92E6A7" stroke-width="0.5"/>
<line x1="-1.91553" y1="191.033" x2="1903.92" y2="191.033" stroke="#92E6A7" stroke-width="0.5"/>
<line x1="-1.91553" y1="589.326" x2="1903.92" y2="589.326" stroke="#92E6A7" stroke-width="0.5"/>
<line x1="-1.91553" y1="260.91" x2="1903.92" y2="260.91" stroke="#92E6A7" stroke-width="0.5"/>
<line x1="-1.91553" y1="728.201" x2="1903.92" y2="728.201" stroke="#92E6A7" stroke-width="0.5"/>
<line x1="-1.91553" y1="398.914" x2="1903.92" y2="398.914" stroke="#92E6A7" stroke-width="0.5"/>
<line x1="-3" y1="451.32" x2="1903.92" y2="451.32" stroke="#92E6A7" stroke-width="0.5"/>
<line x1="-1.91553" y1="122.033" x2="1903.92" y2="122.033" stroke="#92E6A7" stroke-width="0.5"/>
<line x1="-1.91553" y1="53.0312" x2="1903.92" y2="53.0313" stroke="#92E6A7" stroke-width="0.5"/>
<line x1="-1.91553" y1="624.264" x2="1903.92" y2="624.264" stroke="#92E6A7" stroke-width="0.5"/>
<line x1="-1.91553" y1="294.975" x2="1903.92" y2="294.975" stroke="#92E6A7" stroke-width="0.5"/>
<line x1="-1.91553" y1="763.141" x2="1903.92" y2="763.141" stroke="#92E6A7" stroke-width="0.5"/>
<line x1="-1.91553" y1="485.385" x2="1903.92" y2="485.385" stroke="#92E6A7" stroke-width="0.5"/>
<line x1="-1.91553" y1="156.969" x2="1903.92" y2="156.969" stroke="#92E6A7" stroke-width="0.5"/>
<line x1="-1.91553" y1="832.143" x2="1903.92" y2="832.143" stroke="#92E6A7" stroke-width="0.5"/>
<line x1="-1.91553" y1="555.262" x2="1903.92" y2="555.262" stroke="#92E6A7" stroke-width="0.5"/>
<line x1="-1.91553" y1="225.971" x2="1903.92" y2="225.971" stroke="#92E6A7" stroke-width="0.5"/>
<line x1="-1.91553" y1="693.264" x2="1903.92" y2="693.264" stroke="#92E6A7" stroke-width="0.5"/>
<line x1="-1.91553" y1="364.848" x2="1903.92" y2="364.848" stroke="#92E6A7" stroke-width="0.5"/>
<line x1="-3" y1="416.383" x2="1903.92" y2="416.383" stroke="#92E6A7" stroke-width="0.5"/>
<line x1="-1.91553" y1="87.0938" x2="1903.92" y2="87.0938" stroke="#92E6A7" stroke-width="0.5"/>
<line x1="-1.91553" y1="18.0918" x2="1903.92" y2="18.0919" stroke="#92E6A7" stroke-width="0.5"/>
<line x1="-1.91553" y1="9.35742" x2="1903.92" y2="9.35749" stroke="#92E6A7" stroke-width="0.5"/>
</g>
</svg>
