<svg width="86" height="18" viewBox="0 0 86 18" fill="none" xmlns="http://www.w3.org/2000/svg">
<path d="M9.12303 5.94922C11.1743 5.94922 12.1553 7.02239 12.1553 8.65371C12.1553 10.107 11.375 11.0492 10.1487 11.4931L3.39369 13.9517C2.99554 14.1114 2.77019 14.3765 2.77019 14.7566C2.77019 15.2037 3.05924 15.4752 3.66124 15.4752H11.9101V17.7557H3.52906C1.50089 17.7557 0.497559 16.6825 0.497559 15.0504C0.497559 13.7321 1.14415 12.6813 2.50422 12.1894L9.28229 9.74924C9.77281 9.57038 9.90659 9.23501 9.90659 8.922C9.90659 8.47485 9.61674 8.22971 8.99244 8.22971H0.921189V5.94922H9.12303Z" fill="#FDF5E6"/>
<path d="M22.367 5.94922C25.1541 5.94922 26.335 7.29068 26.335 9.57038C26.335 11.7391 25.2424 12.968 22.3447 12.968H16.7492V13.8175C16.7492 14.7566 17.262 15.4497 18.5544 15.4497H25.7553V17.7525H18.5544C15.6081 17.7525 14.4526 16.098 14.4526 13.8623V9.83867C14.4526 7.60289 15.612 5.94922 18.5544 5.94922H22.367ZM16.7492 11.1131H22.2778C23.5519 11.1131 24.0169 10.5765 24.0169 9.70452C24.0169 8.81021 23.5041 8.22971 22.3447 8.22971H18.5544C17.262 8.22971 16.7492 8.94835 16.7492 9.86103V11.1131Z" fill="#FDF5E6"/>
<path d="M31.5969 2.01504V14.2775C31.5969 14.433 31.5663 14.5871 31.5069 14.7308C31.4475 14.8745 31.3604 15.0051 31.2506 15.1151C31.1409 15.225 31.0105 15.3123 30.8671 15.3717C30.7237 15.4312 30.5701 15.4617 30.4149 15.4616C30.1015 15.4616 29.801 15.3369 29.5794 15.1148C29.3577 14.8928 29.2331 14.5916 29.2329 14.2775V2.01504C29.2329 1.70077 29.3574 1.39937 29.5791 1.17715C29.8008 0.954922 30.1014 0.830078 30.4149 0.830078C30.5701 0.829973 30.7239 0.860552 30.8673 0.920064C31.0108 0.979577 31.1411 1.06686 31.2509 1.17691C31.3607 1.28697 31.4477 1.41764 31.5071 1.56145C31.5665 1.70526 31.597 1.8594 31.5969 2.01504Z" fill="#FDF5E6"/>
<path d="M37.3473 2.01504V14.2775C37.3473 14.433 37.3168 14.5871 37.2574 14.7308C37.1979 14.8745 37.1109 15.0051 37.0011 15.1151C36.8913 15.225 36.761 15.3123 36.6176 15.3717C36.4742 15.4312 36.3205 15.4617 36.1654 15.4616C35.852 15.4616 35.5515 15.3369 35.3299 15.1148C35.1082 14.8928 34.9836 14.5916 34.9834 14.2775V2.01504C34.9834 1.70077 35.1079 1.39937 35.3296 1.17715C35.5512 0.954922 35.8519 0.830078 36.1654 0.830078C36.3206 0.829973 36.4744 0.860552 36.6178 0.920064C36.7613 0.979577 36.8916 1.06686 37.0014 1.17691C37.1112 1.28697 37.1982 1.41764 37.2576 1.56145C37.3169 1.70526 37.3474 1.8594 37.3473 2.01504Z" fill="#FDF5E6"/>
<path d="M43.0537 5.94922V13.0135C43.0537 14.3989 44.0793 15.4497 45.9514 15.4497H47.8689C49.7418 15.4497 50.7451 14.3989 50.7451 13.0135V5.94922H53.0631V13.1021C53.0631 15.8297 51.324 17.7525 47.9581 17.7525H45.773C42.4071 17.7525 40.668 15.8297 40.668 13.1021V5.94922H43.0537Z" fill="#FDF5E6"/>
<path d="M58.7499 2.01504V14.2775C58.7499 14.433 58.7193 14.5871 58.6599 14.7308C58.6005 14.8745 58.5134 15.0051 58.4036 15.1151C58.2939 15.225 58.1635 15.3123 58.0201 15.3717C57.8767 15.4312 57.7231 15.4617 57.5679 15.4616C57.2546 15.4616 56.9542 15.3369 56.7327 15.1148C56.5112 14.8927 56.3867 14.5915 56.3867 14.2775V2.01504C56.3866 1.85947 56.4171 1.7054 56.4764 1.56163C56.5357 1.41787 56.6227 1.28724 56.7324 1.17719C56.8421 1.06715 56.9723 0.979853 57.1157 0.920294C57.2591 0.860734 57.4127 0.830078 57.5679 0.830078C57.7231 0.829973 57.8769 0.860552 58.0203 0.920064C58.1638 0.979577 58.2941 1.06686 58.4039 1.17691C58.5137 1.28697 58.6007 1.41764 58.6601 1.56145C58.7195 1.70526 58.75 1.8594 58.7499 2.01504Z" fill="#FDF5E6"/>
<path d="M69.6727 5.94922C72.615 5.94922 73.7744 7.60369 73.7744 9.83867V15.3826C73.7744 17.0818 73.3285 17.7525 71.3441 17.7525H65.8385C63.0515 17.7525 61.8921 16.3887 61.8921 14.1529C61.8921 12.0074 62.9623 10.7553 65.86 10.7553H71.4556V9.86103C71.4556 8.94436 70.9436 8.22971 69.6504 8.22971H62.6056V5.94922H69.6727ZM71.4556 14.846V12.6334H65.9054C64.6568 12.6334 64.2109 13.1476 64.2109 14.0188C64.2109 14.8899 64.6791 15.4497 65.86 15.4497H70.8098C71.278 15.4497 71.4556 15.2708 71.4556 14.846Z" fill="#FDF5E6"/>
<path d="M85.1218 5.94922V8.22971H80.9755C79.9276 8.22971 79.4625 8.72078 79.4625 9.74684V17.7525H77.0991V9.39151C77.0991 7.02239 77.9695 5.94922 80.2843 5.94922H85.1218Z" fill="#FDF5E6"/>
</svg>
