<svg width="657" height="110" viewBox="0 0 657 110" fill="none" xmlns="http://www.w3.org/2000/svg">
<path d="M88.3855 32.999C88.6868 32.999 88.9804 33.1029 89.2245 33.2959C89.4687 33.4889 89.6509 33.7611 89.7453 34.0739C89.8396 34.3867 89.8413 34.724 89.7501 35.0379C89.6589 35.3518 89.4795 35.6263 89.2373 35.8222L56.492 62.3153L45.4818 71.2306V62.3153H1.43178C1.05205 62.3153 0.687871 62.1504 0.41936 61.8569C0.150848 61.5634 0 61.1653 0 60.7502L0 34.5641C0 34.1491 0.150848 33.751 0.41936 33.4574C0.687871 33.1639 1.05205 32.999 1.43178 32.999H88.3855Z" fill="#003A6C"/>
<path d="M1.93463 109.448C1.67843 109.448 1.42884 109.359 1.22132 109.195C1.0138 109.031 0.858909 108.799 0.778644 108.533C0.698378 108.267 0.696824 107.981 0.774201 107.714C0.851578 107.447 1.00395 107.213 1.20968 107.046L34.4715 80.132L45.4817 71.2168V80.132H89.21C89.5329 80.1334 89.8422 80.2741 90.0705 80.5237C90.2988 80.7733 90.4276 81.1114 90.4288 81.4644V108.116C90.4276 108.469 90.2988 108.807 90.0705 109.057C89.8422 109.306 89.5329 109.447 89.21 109.448H1.93463Z" fill="#003A6C"/>
<path d="M203.14 33.2695C215.369 33.2695 221.217 40.2441 221.217 50.8461C221.217 60.2908 216.565 66.4143 209.254 69.2996L168.983 85.2778C166.609 86.3157 165.266 88.0386 165.266 90.5087C165.266 93.4148 166.989 95.1792 170.578 95.1792H219.755V110H169.79C157.698 110 151.717 103.026 151.717 92.4184C151.717 83.8507 155.572 77.0214 163.68 73.8248L204.089 57.9659C207.013 56.8035 207.811 54.6239 207.811 52.5897C207.811 49.6836 206.083 48.0905 202.361 48.0905H154.242V33.2695H203.14Z" fill="#003A6C"/>
<path d="M282.09 33.2695C298.705 33.2695 305.746 41.9877 305.746 56.8035C305.746 70.8979 299.232 78.8844 281.957 78.8844H248.597V84.406C248.597 90.5087 251.655 95.0131 259.36 95.0131H302.29V109.979H259.36C241.795 109.979 234.906 99.2269 234.906 84.6966V58.5471C234.906 44.0168 241.818 33.2695 259.36 33.2695H282.09ZM248.597 66.8294H281.558C289.154 66.8294 291.926 63.3422 291.926 57.6753C291.926 51.8632 288.869 48.0905 281.957 48.0905H259.36C251.655 48.0905 248.597 52.761 248.597 58.6924V66.8294Z" fill="#003A6C"/>
<path d="M337.114 7.70108V87.3948C337.114 88.4059 336.932 89.4071 336.578 90.3411C336.224 91.2752 335.705 92.1238 335.051 92.8385C334.396 93.5532 333.62 94.1199 332.765 94.5064C331.91 94.8928 330.994 95.0914 330.069 95.0907C328.202 95.0907 326.411 94.2801 325.09 92.837C323.768 91.3938 323.026 89.4364 323.024 87.3948V7.70108C323.024 5.65863 323.767 3.69983 325.088 2.2556C326.409 0.811363 328.201 1.75097e-06 330.069 1.75097e-06C330.995 -0.000680551 331.911 0.198048 332.766 0.584822C333.621 0.971596 334.398 1.53883 335.052 2.25407C335.707 2.96932 336.226 3.81855 336.579 4.7532C336.933 5.68785 337.115 6.68957 337.114 7.70108Z" fill="#003A6C"/>
<path d="M371.412 7.70108V87.3948C371.412 88.4059 371.23 89.4071 370.876 90.3411C370.522 91.2752 370.003 92.1238 369.349 92.8385C368.694 93.5532 367.918 94.1199 367.063 94.5064C366.208 94.8928 365.292 95.0914 364.367 95.0907C362.5 95.0907 360.708 94.2801 359.387 92.837C358.066 91.3938 357.324 89.4364 357.322 87.3948V7.70108C357.322 5.65863 358.064 3.69983 359.386 2.2556C360.707 0.811363 362.499 1.75097e-06 364.367 1.75097e-06C365.293 -0.000680551 366.209 0.198048 367.064 0.584822C367.919 0.971596 368.696 1.53883 369.35 2.25407C370.005 2.96932 370.523 3.81855 370.877 4.7532C371.231 5.68785 371.413 6.68957 371.412 7.70108Z" fill="#003A6C"/>
<path d="M405.427 33.2695V79.1802C405.427 88.1839 411.542 95.0131 422.702 95.0131H434.134C445.3 95.0131 451.281 88.1839 451.281 79.1802V33.2695H465.101V79.7563C465.101 97.4833 454.733 109.979 434.666 109.979H421.639C401.572 109.979 391.204 97.4833 391.204 79.7563V33.2695H405.427Z" fill="#003A6C"/>
<path d="M498.988 7.70108V87.3948C498.988 88.4059 498.805 89.4071 498.451 90.3411C498.097 91.2752 497.578 92.1238 496.924 92.8385C496.27 93.5532 495.493 94.1199 494.638 94.5064C493.783 94.8928 492.868 95.0914 491.943 95.0907C490.075 95.0907 488.285 94.2799 486.964 92.8366C485.644 91.3934 484.902 89.4359 484.902 87.3948V7.70108C484.902 6.69001 485.083 5.68871 485.437 4.7544C485.79 3.82009 486.309 2.97109 486.963 2.25591C487.617 1.54073 488.393 0.973392 489.247 0.586313C490.102 0.199233 491.018 1.52111e-06 491.943 1.75097e-06C492.868 -0.000680551 493.784 0.198048 494.639 0.584822C495.494 0.971596 496.271 1.53883 496.926 2.25407C497.58 2.96932 498.099 3.81855 498.453 4.7532C498.806 5.68785 498.988 6.68957 498.988 7.70108Z" fill="#003A6C"/>
<path d="M564.111 33.2695C581.653 33.2695 588.565 44.022 588.565 58.5471V94.5772C588.565 105.62 585.906 109.979 574.076 109.979H541.253C524.638 109.979 517.726 101.116 517.726 86.5855C517.726 72.6416 524.106 64.5046 541.381 64.5046H574.741V58.6924C574.741 52.735 571.688 48.0905 563.979 48.0905H521.979V33.2695H564.111ZM574.741 91.0899V76.7101H541.652C534.208 76.7101 531.55 80.0521 531.55 85.7137C531.55 91.3753 534.341 95.0131 541.381 95.0131H570.891C573.682 95.0131 574.741 93.8507 574.741 91.0899Z" fill="#003A6C"/>
<path d="M656.221 33.2695V48.0905H631.501C625.254 48.0905 622.482 51.282 622.482 57.9504V109.979H608.392V55.6411C608.392 40.2441 613.58 33.2695 627.381 33.2695H656.221Z" fill="#003A6C"/>
</svg>
