<svg width="445" height="311" viewBox="0 0 445 311" fill="none" xmlns="http://www.w3.org/2000/svg">
<line x1="272.102" y1="158.279" x2="37.4158" y2="158.279" stroke="#003A6C"/>
<circle cx="18.3882" cy="17.4429" r="17.4429" fill="#003A6C"/>
<ellipse cx="224.927" cy="158.571" rx="17.0464" ry="17.4429" fill="#003A6C"/>
<circle cx="18.3882" cy="293.357" r="17.4429" fill="#003A6C"/>
<circle cx="23.939" cy="158.571" r="17.4429" fill="#003A6C"/>
<path d="M132.561 131.218L118.289 123.322V139.114L132.561 131.218Z" fill="#003A6C"/>
<rect x="119.08" y="153.021" width="11.1" height="11.1" fill="#003A6C"/>
<circle cx="125.423" cy="185.529" r="6.34286" fill="#003A6C"/>
<line y1="-0.5" x2="141.921" y2="-0.5" transform="matrix(1 0 0 -1 269.725 157.779)" stroke="#003A6C"/>
<circle cx="17.4429" cy="17.4429" r="17.4429" transform="matrix(-1 0 0 1 444.945 0)" fill="#003A6C"/>
<circle cx="17.4429" cy="17.4429" r="17.4429" transform="matrix(-1 0 0 1 444.945 275.914)" fill="#003A6C"/>
<circle cx="17.4429" cy="17.4429" r="17.4429" transform="matrix(-1 0 0 1 434.639 141.129)" fill="#003A6C"/>
<path d="M368.078 126.645L358.967 137.593L354.041 124.228L368.078 126.645Z" fill="#003A6C"/>
<path d="M368.83 158.175L356.343 165.385V150.965L368.83 158.175Z" fill="#003A6C"/>
<path d="M367.35 191.489L353.107 191.306L360.387 179.063L367.35 191.489Z" fill="#003A6C"/>
<rect width="10.36" height="11.1" transform="matrix(-1 0 0 1 305.402 153.021)" fill="#003A6C"/>
<rect width="11.1" height="11.1" transform="matrix(-1 0 0 1 306.195 179.186)" fill="#003A6C"/>
<rect width="11.1" height="11.1" transform="matrix(-1 0 0 1 306.195 125.271)" fill="#003A6C"/>
<circle cx="6.34286" cy="6.34286" r="6.34286" transform="matrix(-1 0 0 1 332.359 124.479)" fill="#003A6C"/>
<circle cx="6.34286" cy="6.34286" r="6.34286" transform="matrix(-1 0 0 1 332.359 152.229)" fill="#003A6C"/>
<circle cx="6.34286" cy="6.34286" r="6.34286" transform="matrix(-1 0 0 1 332.359 179.186)" fill="#003A6C"/>
<path d="M417.195 22.2C382.167 30.2691 385.712 41.9321 385.712 98.1447C383.086 130.896 354.01 130.896 354.01 130.896H267.764C267.764 130.896 243.741 132.625 241.181 158.358" stroke="#003A6C" stroke-miterlimit="10"/>
<path d="M417.195 294.528C382.167 286.458 385.712 274.795 385.712 218.583C383.086 185.832 354.01 185.832 354.01 185.832H267.764C267.764 185.832 243.741 184.103 241.181 158.37" stroke="#003A6C" stroke-miterlimit="10"/>
<path d="M32.6602 22.2C67.688 30.2691 64.1436 41.9321 64.1436 98.1447C66.7691 130.896 95.8459 130.896 95.8459 130.896H182.092C182.092 130.896 206.115 132.625 208.675 158.358" stroke="#003A6C" stroke-miterlimit="10"/>
<path d="M32.6602 294.528C67.688 286.458 64.1436 274.795 64.1436 218.583C66.7691 185.832 95.8459 185.832 95.8459 185.832H182.092C182.092 185.832 206.115 184.103 208.675 158.37" stroke="#003A6C" stroke-miterlimit="10"/>
</svg>
