<svg width="249" height="50" viewBox="0 0 249 50" fill="none" xmlns="http://www.w3.org/2000/svg">
<path d="M25.1563 15C31.1388 15 34 18.1814 34 23.0174C34 27.3255 31.724 30.1187 28.1475 31.4348L8.44658 38.7231C7.28538 39.1965 6.62814 39.9824 6.62814 41.1092C6.62814 42.4347 7.47118 43.2396 9.22692 43.2396H33.2847V50H8.8414C2.92623 50 0 46.8186 0 41.9802C0 38.0722 1.8858 34.9571 5.85246 33.4989L25.6208 26.265C27.0514 25.7348 27.4415 24.7406 27.4415 23.8127C27.4415 22.4871 26.5962 21.7604 24.7754 21.7604H1.23552V15H25.1563Z" fill="#FDF5E6"/>
<path d="M64.3122 15C72.5216 15 76 18.9778 76 25.7377C76 32.1685 72.7819 35.8125 64.2465 35.8125H47.7645V38.3318C47.7645 41.1162 49.275 43.1714 53.0818 43.1714H74.2924V50H53.0818C44.4034 50 41 45.094 41 38.4644V26.5333C41 19.9036 44.4151 15 53.0818 15H64.3122ZM47.7645 30.3122H64.0495C67.8024 30.3122 69.1722 28.7211 69.1722 26.1355C69.1722 23.4836 67.6616 21.7623 64.2465 21.7623H53.0818C49.275 21.7623 47.7645 23.8932 47.7645 26.5996V30.3122Z" fill="#FDF5E6"/>
<path d="M91 3.48243V39.5199C91 39.9771 90.9095 40.4299 90.7335 40.8522C90.5576 41.2746 90.2998 41.6584 89.9747 41.9815C89.6497 42.3047 89.2639 42.561 88.8392 42.7358C88.4146 42.9105 87.9595 43.0003 87.5 43C86.5722 43 85.6823 42.6334 85.026 41.9809C84.3697 41.3283 84.0006 40.4431 84 39.5199V3.48243C84 2.55883 84.3688 1.67306 85.0251 1.01998C85.6815 0.366898 86.5717 7.9179e-07 87.5 7.9179e-07C87.9597 -0.000307745 88.415 0.0895573 88.8398 0.264456C89.2646 0.439355 89.6505 0.695857 89.9756 1.01929C90.3006 1.34273 90.5584 1.72675 90.7342 2.1494C90.91 2.57204 91.0003 3.02502 91 3.48243Z" fill="#FDF5E6"/>
<path d="M108 3.48243V39.5199C108 39.9771 107.909 40.4299 107.734 40.8522C107.558 41.2746 107.3 41.6584 106.975 41.9815C106.65 42.3047 106.264 42.561 105.839 42.7358C105.415 42.9105 104.96 43.0003 104.5 43C103.572 43 102.682 42.6334 102.026 41.9809C101.37 41.3283 101.001 40.4431 101 39.5199V3.48243C101 2.55883 101.369 1.67306 102.025 1.01998C102.681 0.366898 103.572 7.9179e-07 104.5 7.9179e-07C104.96 -0.000307745 105.415 0.0895573 105.84 0.264456C106.265 0.439355 106.65 0.695857 106.976 1.01929C107.301 1.34273 107.558 1.72675 107.734 2.1494C107.91 2.57204 108 3.02502 108 3.48243Z" fill="#FDF5E6"/>
<path d="M125.121 15V35.9474C125.121 40.0555 128.183 43.1714 133.771 43.1714H139.495C145.086 43.1714 148.081 40.0555 148.081 35.9474V15H155V36.2103C155 44.2985 149.809 50 139.761 50H133.239C123.191 50 118 44.2985 118 36.2103V15H125.121Z" fill="#FDF5E6"/>
<path d="M171 3.48243V39.5199C171 39.9771 170.909 40.4299 170.733 40.8522C170.557 41.2746 170.3 41.6584 169.974 41.9815C169.649 42.3047 169.263 42.561 168.838 42.7358C168.414 42.9105 167.958 43.0003 167.499 43C166.571 43 165.681 42.6334 165.025 41.9807C164.369 41.3281 164 40.4429 164 39.5199V3.48243C164 3.02522 164.09 2.57243 164.266 2.14994C164.441 1.72744 164.699 1.34353 165.024 1.02012C165.349 0.696718 165.735 0.440168 166.159 0.26513C166.584 0.0900933 167.039 6.87845e-07 167.499 7.9179e-07C167.959 -0.000307745 168.414 0.0895573 168.839 0.264456C169.264 0.439355 169.65 0.695857 169.975 1.01929C170.3 1.34273 170.558 1.72675 170.734 2.1494C170.91 2.57204 171 3.02502 171 3.48243Z" fill="#FDF5E6"/>
<path d="M203.918 15C212.585 15 216 19.906 216 26.5333V42.9725C216 48.0111 214.686 50 208.841 50H192.624C184.415 50 181 45.9559 181 39.3262C181 32.9641 184.152 29.2515 192.688 29.2515H209.17V26.5996C209.17 23.8814 207.662 21.7623 203.852 21.7623H183.102V15H203.918ZM209.17 41.3814V34.8204H192.821C189.144 34.8204 187.83 36.3452 187.83 38.9284C187.83 41.5116 189.209 43.1714 192.688 43.1714H207.268C208.647 43.1714 209.17 42.6411 209.17 41.3814Z" fill="#FDF5E6"/>
<path d="M249 15V21.7623H236.596C233.461 21.7623 232.07 23.2184 232.07 26.261V50H225V25.2073C225 18.1822 227.604 15 234.529 15H249Z" fill="#FDF5E6"/>
</svg>
