<svg width="431" height="944" viewBox="0 0 431 944" fill="none" xmlns="http://www.w3.org/2000/svg">
<circle cx="6" cy="6" r="6" fill="#92E6A7"/>
<circle cx="38" cy="6" r="6" fill="#92E6A7"/>
<circle cx="58" cy="6" r="6" fill="#92E6A7"/>
<circle cx="58" cy="26" r="6" fill="#92E6A7"/>
<circle cx="78" cy="26" r="6" fill="#92E6A7"/>
<circle cx="78" cy="6" r="6" fill="#92E6A7"/>
<circle cx="78" cy="46" r="6" fill="#92E6A7"/>
<circle cx="58" cy="46" r="6" fill="#92E6A7"/>
<circle cx="58" cy="65" r="6" fill="#92E6A7"/>
<circle cx="6" cy="65" r="6" fill="#92E6A7"/>
<circle cx="78" cy="125" r="6" fill="#92E6A7"/>
<circle cx="104" cy="125" r="6" fill="#92E6A7"/>
<circle cx="78" cy="79" r="6" fill="#92E6A7"/>
<circle cx="104" cy="65" r="6" fill="#92E6A7"/>
<circle cx="124" cy="6" r="6" fill="#92E6A7"/>
<circle cx="158" cy="6" r="6" fill="#92E6A7"/>
<circle cx="158" cy="23" r="6" fill="#92E6A7"/>
<circle cx="158" cy="40" r="6" fill="#92E6A7"/>
<circle cx="158" cy="65" r="6" fill="#92E6A7"/>
<circle cx="184" cy="6" r="6" fill="#92E6A7"/>
<circle cx="204" cy="6" r="6" fill="#92E6A7"/>
<circle cx="218" cy="6" r="6" fill="#92E6A7"/>
<circle cx="218" cy="26" r="6" fill="#92E6A7"/>
<circle cx="218" cy="40" r="6" fill="#92E6A7"/>
<circle cx="218" cy="65" r="6" fill="#92E6A7"/>
<circle cx="218" cy="105" r="6" fill="#92E6A7"/>
<circle cx="218" cy="125" r="6" fill="#92E6A7"/>
<circle cx="178" cy="125" r="6" fill="#92E6A7"/>
<circle cx="178" cy="141" r="6" fill="#92E6A7"/>
<circle cx="178" cy="165" r="6" fill="#92E6A7"/>
<circle cx="206" cy="165" r="6" fill="#92E6A7"/>
<circle cx="218" cy="141" r="6" fill="#92E6A7"/>
<circle cx="258" cy="184" r="6" fill="#92E6A7"/>
<circle cx="278" cy="165" r="6" fill="#92E6A7"/>
<circle cx="358" cy="151" r="6" fill="#92E6A7"/>
<circle cx="358" cy="200" r="6" fill="#92E6A7"/>
<circle cx="384" cy="184" r="6" fill="#92E6A7"/>
<circle cx="424" cy="184" r="6" fill="#92E6A7"/>
<circle cx="404" cy="184" r="6" fill="#92E6A7"/>
<circle cx="278" cy="139" r="6" fill="#92E6A7"/>
<circle cx="278" cy="125" r="6" fill="#92E6A7"/>
<circle cx="118" cy="139" r="6" fill="#92E6A7"/>
<circle cx="118" cy="165" r="6" fill="#92E6A7"/>
<circle cx="118" cy="184" r="6" fill="#92E6A7"/>
<circle cx="258" cy="6" r="6" fill="#92E6A7"/>
<circle cx="258" cy="23" r="6" fill="#92E6A7"/>
<circle cx="258" cy="40" r="6" fill="#92E6A7"/>
<circle cx="258" cy="65" r="6" fill="#92E6A7"/>
<circle cx="278" cy="6" r="6" fill="#92E6A7"/>
<circle cx="278" cy="23" r="6" fill="#92E6A7"/>
<circle cx="278" cy="40" r="6" fill="#92E6A7"/>
<circle cx="278" cy="65" r="6" fill="#92E6A7"/>
<circle cx="278" cy="82" r="6" fill="#92E6A7"/>
<circle cx="278" cy="105" r="6" fill="#92E6A7"/>
<circle cx="303" cy="6" r="6" fill="#92E6A7"/>
<circle cx="324" cy="6" r="6" fill="#92E6A7"/>
<circle cx="344" cy="6" r="6" fill="#92E6A7"/>
<circle cx="358" cy="6" r="6" fill="#92E6A7"/>
<circle cx="385" cy="6" r="6" fill="#92E6A7"/>
<circle cx="404" cy="6" r="6" fill="#92E6A7"/>
<circle cx="425" cy="6" r="6" fill="#92E6A7"/>
<circle cx="425" cy="65" r="6" fill="#92E6A7"/>
<circle cx="404" cy="65" r="6" fill="#92E6A7"/>
<circle cx="385" cy="65" r="6" fill="#92E6A7"/>
<circle cx="358" cy="82" r="6" fill="#92E6A7"/>
<circle cx="358" cy="97" r="6" fill="#92E6A7"/>
<circle cx="301" cy="105" r="6" fill="#92E6A7"/>
<circle cx="318" cy="105" r="6" fill="#92E6A7"/>
<circle cx="318" cy="125" r="6" fill="#92E6A7"/>
<circle cx="358" cy="23" r="6" fill="#92E6A7"/>
<circle cx="358" cy="40" r="6" fill="#92E6A7"/>
<circle cx="358" cy="65" r="6" fill="#92E6A7"/>
<circle cx="158" cy="105" r="6" fill="#92E6A7"/>
<circle cx="158" cy="207" r="6" fill="#92E6A7"/>
<circle cx="178" cy="227" r="6" fill="#92E6A7"/>
<circle cx="178" cy="309" r="6" fill="#92E6A7"/>
<circle cx="178" cy="363" r="6" fill="#92E6A7"/>
<circle cx="178" cy="383" r="6" fill="#92E6A7"/>
<circle cx="159" cy="383" r="6" fill="#92E6A7"/>
<circle cx="139" cy="383" r="6" fill="#92E6A7"/>
<circle cx="118" cy="383" r="6" fill="#92E6A7"/>
<circle cx="78" cy="382" r="6" fill="#92E6A7"/>
<circle cx="78" cy="363" r="6" fill="#92E6A7"/>
<circle cx="219" cy="383" r="6" fill="#92E6A7"/>
<circle cx="219" cy="363" r="6" fill="#92E6A7"/>
<circle cx="218" cy="323" r="6" fill="#92E6A7"/>
<circle cx="258" cy="363" r="6" fill="#92E6A7"/>
<circle cx="258" cy="382" r="6" fill="#92E6A7"/>
<circle cx="278" cy="382" r="6" fill="#92E6A7"/>
<circle cx="278" cy="363" r="6" fill="#92E6A7"/>
<circle cx="298" cy="363" r="6" fill="#92E6A7"/>
<circle cx="318" cy="363" r="6" fill="#92E6A7"/>
<circle cx="299" cy="382" r="6" fill="#92E6A7"/>
<circle cx="278" cy="403" r="6" fill="#92E6A7"/>
<circle cx="258" cy="418" r="6" fill="#92E6A7"/>
<circle cx="218" cy="447" r="6" fill="#92E6A7"/>
<circle cx="194" cy="461" r="6" fill="#92E6A7"/>
<circle cx="178" cy="481" r="6" fill="#92E6A7"/>
<circle cx="158" cy="493" r="6" fill="#92E6A7"/>
<circle cx="138" cy="508" r="6" fill="#92E6A7"/>
<circle cx="118" cy="524" r="6" fill="#92E6A7"/>
<circle cx="78" cy="551" r="6" fill="#92E6A7"/>
<circle cx="66" cy="561" r="6" fill="#92E6A7"/>
<circle cx="78" cy="569" r="6" fill="#92E6A7"/>
<circle cx="118" cy="569" r="6" fill="#92E6A7"/>
<circle cx="138" cy="569" r="6" fill="#92E6A7"/>
<circle cx="158" cy="569" r="6" fill="#92E6A7"/>
<circle cx="179" cy="569" r="6" fill="#92E6A7"/>
<circle cx="218" cy="569" r="6" fill="#92E6A7"/>
<circle cx="258" cy="569" r="6" fill="#92E6A7"/>
<circle cx="278" cy="569" r="6" fill="#92E6A7"/>
<circle cx="298" cy="569" r="6" fill="#92E6A7"/>
<circle cx="318" cy="569" r="6" fill="#92E6A7"/>
<circle cx="318" cy="512" r="6" fill="#92E6A7"/>
<circle cx="318" cy="493" r="6" fill="#92E6A7"/>
<circle cx="298" cy="493" r="6" fill="#92E6A7"/>
<circle cx="278" cy="493" r="6" fill="#92E6A7"/>
<circle cx="258" cy="493" r="6" fill="#92E6A7"/>
<circle cx="218" cy="493" r="6" fill="#92E6A7"/>
<circle cx="118" cy="363" r="6" fill="#92E6A7"/>
<circle cx="139" cy="363" r="6" fill="#92E6A7"/>
<circle cx="158" cy="363" r="6" fill="#92E6A7"/>
<circle cx="58" cy="382" r="6" fill="#92E6A7"/>
<circle cx="78" cy="441" r="6" fill="#92E6A7"/>
<circle cx="118" cy="441" r="6" fill="#92E6A7"/>
<circle cx="138" cy="441" r="6" fill="#92E6A7"/>
<circle cx="138" cy="412" r="6" fill="#92E6A7"/>
<circle cx="178" cy="424" r="6" fill="#92E6A7"/>
<circle cx="219" cy="399" r="6" fill="#92E6A7"/>
<circle cx="178" cy="502" r="6" fill="#92E6A7"/>
<circle cx="158" cy="543" r="6" fill="#92E6A7"/>
<circle cx="218" cy="511" r="6" fill="#92E6A7"/>
<circle cx="278" cy="510" r="6" fill="#92E6A7"/>
<circle cx="278" cy="532" r="6" fill="#92E6A7"/>
<circle cx="318" cy="555" r="6" fill="#92E6A7"/>
<circle cx="218" cy="555" r="6" fill="#92E6A7"/>
<circle cx="139" cy="530" r="6" fill="#92E6A7"/>
<circle cx="118" cy="544" r="6" fill="#92E6A7"/>
<circle cx="158" cy="441" r="6" fill="#92E6A7"/>
<circle cx="178" cy="441" r="6" fill="#92E6A7"/>
<circle cx="58" cy="418" r="6" fill="#92E6A7"/>
<circle cx="58" cy="441" r="6" fill="#92E6A7"/>
<circle cx="58" cy="363" r="6" fill="#92E6A7"/>
<circle cx="218" cy="233" r="6" fill="#92E6A7"/>
<circle cx="218" cy="660" r="6" fill="#92E6A7"/>
<circle cx="178" cy="700" r="6" fill="#92E6A7"/>
<circle cx="178" cy="775" r="6" fill="#92E6A7"/>
<circle cx="178" cy="798" r="6" fill="#92E6A7"/>
<circle cx="160" cy="798" r="6" fill="#92E6A7"/>
<circle cx="138" cy="720" r="6" fill="#92E6A7"/>
<circle cx="118" cy="760" r="6" fill="#92E6A7"/>
<circle cx="101" cy="760" r="6" fill="#92E6A7"/>
<circle cx="118" cy="798" r="6" fill="#92E6A7"/>
<circle cx="118" cy="839" r="6" fill="#92E6A7"/>
<circle cx="58" cy="720" r="6" fill="#92E6A7"/>
<circle cx="44" cy="839" r="6" transform="rotate(0.998501 44 839)" fill="#92E6A7"/>
<circle cx="6.10547" cy="839.104" r="6" transform="rotate(0.998501 6.10547 839.104)" fill="#92E6A7"/>
<circle cx="6.10547" cy="862.104" r="6" transform="rotate(0.998501 6.10547 862.104)" fill="#92E6A7"/>
<circle cx="6.10547" cy="878.104" r="6" transform="rotate(0.998501 6.10547 878.104)" fill="#92E6A7"/>
<circle cx="6.10547" cy="898.104" r="6" transform="rotate(0.998501 6.10547 898.104)" fill="#92E6A7"/>
<circle cx="6.10547" cy="918.104" r="6" transform="rotate(0.998501 6.10547 918.104)" fill="#92E6A7"/>
<circle cx="6.10547" cy="936.104" r="6" transform="rotate(0.998501 6.10547 936.104)" fill="#92E6A7"/>
<circle cx="26.1055" cy="918.104" r="6" transform="rotate(0.998501 26.1055 918.104)" fill="#92E6A7"/>
<circle cx="41.1055" cy="918.104" r="6" transform="rotate(0.998501 41.1055 918.104)" fill="#92E6A7"/>
<circle cx="61.1055" cy="918.104" r="6" transform="rotate(0.998501 61.1055 918.104)" fill="#92E6A7"/>
<circle cx="81.1055" cy="918.104" r="6" transform="rotate(0.998501 81.1055 918.104)" fill="#92E6A7"/>
<circle cx="101.105" cy="918.104" r="6" transform="rotate(0.998501 101.105 918.104)" fill="#92E6A7"/>
<circle cx="118.105" cy="937.104" r="6" transform="rotate(0.998501 118.105 937.104)" fill="#92E6A7"/>
<circle cx="101.105" cy="898.104" r="6" transform="rotate(0.998501 101.105 898.104)" fill="#92E6A7"/>
<circle cx="81.1055" cy="898.104" r="6" transform="rotate(0.998501 81.1055 898.104)" fill="#92E6A7"/>
<circle cx="62.1055" cy="898.104" r="6" transform="rotate(0.998501 62.1055 898.104)" fill="#92E6A7"/>
<circle cx="40.1055" cy="898.104" r="6" transform="rotate(0.998501 40.1055 898.104)" fill="#92E6A7"/>
<circle cx="40.1055" cy="879.104" r="6" transform="rotate(0.998501 40.1055 879.104)" fill="#92E6A7"/>
<circle cx="62.1055" cy="878.104" r="6" transform="rotate(0.998501 62.1055 878.104)" fill="#92E6A7"/>
<circle cx="82.1055" cy="878.104" r="6" transform="rotate(0.998501 82.1055 878.104)" fill="#92E6A7"/>
<circle cx="101.105" cy="878.104" r="6" transform="rotate(0.998501 101.105 878.104)" fill="#92E6A7"/>
<circle cx="6.10547" cy="815.104" r="6" transform="rotate(0.998501 6.10547 815.104)" fill="#92E6A7"/>
<circle cx="6.10547" cy="781.104" r="6" transform="rotate(0.998501 6.10547 781.104)" fill="#92E6A7"/>
<circle cx="118" cy="855" r="6" fill="#92E6A7"/>
<circle cx="118" cy="879" r="6" fill="#92E6A7"/>
<circle cx="118" cy="898" r="6" fill="#92E6A7"/>
<circle cx="118" cy="918" r="6" fill="#92E6A7"/>
<circle cx="158" cy="918" r="6" fill="#92E6A7"/>
<circle cx="158" cy="898" r="6" fill="#92E6A7"/>
<circle cx="158" cy="879" r="6" fill="#92E6A7"/>
<circle cx="218" cy="856" r="6" fill="#92E6A7"/>
<circle cx="218" cy="879" r="6" fill="#92E6A7"/>
<circle cx="201" cy="879" r="6" fill="#92E6A7"/>
<circle cx="201" cy="898" r="6" fill="#92E6A7"/>
<circle cx="218" cy="898" r="6" fill="#92E6A7"/>
<circle cx="218" cy="918" r="6" fill="#92E6A7"/>
<circle cx="201" cy="918" r="6" fill="#92E6A7"/>
<circle cx="218" cy="936" r="6" fill="#92E6A7"/>
<circle cx="241" cy="918" r="6" fill="#92E6A7"/>
<circle cx="258" cy="918" r="6" fill="#92E6A7"/>
<circle cx="258" cy="898" r="6" fill="#92E6A7"/>
<circle cx="258" cy="878" r="6" fill="#92E6A7"/>
<circle cx="258" cy="856" r="6" fill="#92E6A7"/>
<circle cx="278" cy="856" r="6" fill="#92E6A7"/>
<circle cx="278" cy="835" r="6" fill="#92E6A7"/>
<circle cx="278" cy="799" r="6" fill="#92E6A7"/>
<circle cx="278" cy="764" r="6" fill="#92E6A7"/>
<circle cx="298" cy="716" r="6" fill="#92E6A7"/>
<circle cx="298" cy="755" r="6" fill="#92E6A7"/>
<circle cx="318" cy="755" r="6" fill="#92E6A7"/>
<circle cx="318" cy="775" r="6" fill="#92E6A7"/>
<circle cx="341" cy="799" r="6" fill="#92E6A7"/>
<circle cx="298" cy="815" r="6" fill="#92E6A7"/>
<circle cx="298" cy="835" r="6" fill="#92E6A7"/>
<circle cx="298" cy="856" r="6" fill="#92E6A7"/>
<circle cx="298" cy="876" r="6" fill="#92E6A7"/>
<circle cx="298" cy="894" r="6" fill="#92E6A7"/>
<circle cx="298" cy="918" r="6" fill="#92E6A7"/>
<circle cx="323" cy="918" r="6" fill="#92E6A7"/>
<circle cx="341" cy="918" r="6" fill="#92E6A7"/>
<circle cx="358" cy="918" r="6" fill="#92E6A7"/>
<circle cx="358" cy="896" r="6" fill="#92E6A7"/>
<circle cx="358" cy="874" r="6" fill="#92E6A7"/>
<circle cx="358" cy="856" r="6" fill="#92E6A7"/>
<circle cx="358" cy="834" r="6" fill="#92E6A7"/>
<circle cx="358" cy="775" r="6" fill="#92E6A7"/>
<circle cx="358" cy="733" r="6" fill="#92E6A7"/>
<circle cx="358" cy="696" r="6" fill="#92E6A7"/>
<circle cx="398" cy="677" r="6" fill="#92E6A7"/>
<circle cx="398" cy="694" r="6" fill="#92E6A7"/>
<circle cx="398" cy="714" r="6" fill="#92E6A7"/>
<circle cx="398" cy="755" r="6" fill="#92E6A7"/>
<circle cx="398" cy="769" r="6" fill="#92E6A7"/>
<circle cx="398" cy="799" r="6" fill="#92E6A7"/>
<circle cx="421" cy="799" r="6" fill="#92E6A7"/>
<circle cx="383" cy="918" r="6" fill="#92E6A7"/>
<circle cx="358" cy="934" r="6" fill="#92E6A7"/>
<circle cx="401" cy="918" r="6" fill="#92E6A7"/>
<circle cx="421" cy="918" r="6" fill="#92E6A7"/>
<circle cx="358" cy="654" r="6" fill="#92E6A7"/>
<circle cx="298" cy="934" r="6" fill="#92E6A7"/>
<circle cx="278" cy="918" r="6" fill="#92E6A7"/>
<circle cx="278" cy="894" r="6" fill="#92E6A7"/>
<circle cx="278" cy="875" r="6" fill="#92E6A7"/>
<circle cx="278" cy="934" r="6" fill="#92E6A7"/>
<circle cx="138" cy="853" r="6" fill="#92E6A7"/>
<circle cx="138" cy="879" r="6" fill="#92E6A7"/>
<circle cx="158" cy="936" r="6" fill="#92E6A7"/>
<circle cx="138" cy="839" r="6" fill="#92E6A7"/>
<circle cx="139" cy="815" r="6" fill="#92E6A7"/>
<circle cx="161" cy="839" r="6" fill="#92E6A7"/>
<circle cx="178" cy="839" r="6" fill="#92E6A7"/>
<circle cx="218" cy="835" r="6" fill="#92E6A7"/>
<circle cx="218" cy="799" r="6" fill="#92E6A7"/>
<circle cx="218" cy="754" r="6" fill="#92E6A7"/>
<circle cx="241" cy="798" r="6" fill="#92E6A7"/>
<circle cx="139" cy="660" r="6" fill="#92E6A7"/>
<circle cx="118" cy="687" r="6" fill="#92E6A7"/>
<circle cx="398" cy="284" r="6" fill="#92E6A7"/>
<circle cx="118" cy="284" r="6" fill="#92E6A7"/>
<circle cx="138" cy="245" r="6" fill="#92E6A7"/>
<circle cx="158" cy="85" r="6" fill="#92E6A7"/>
<circle cx="143" cy="105" r="6" fill="#92E6A7"/>
<circle cx="118" cy="105" r="6" fill="#92E6A7"/>
<circle cx="104" cy="6" r="6" fill="#92E6A7"/>
<circle cx="38" cy="46" r="6" fill="#92E6A7"/>
<circle cx="38" cy="26" r="6" fill="#92E6A7"/>
<circle cx="6" cy="26" r="6" fill="#92E6A7"/>
</svg>
