<svg width="504" height="239" viewBox="0 0 504 239" fill="none" xmlns="http://www.w3.org/2000/svg">
<rect width="504" height="239" fill="#AECACD"/>
<path d="M226.785 142.441C227.533 142.441 228.061 142.578 228.371 142.852C228.681 143.125 228.836 143.581 228.836 144.219V150.508C228.836 151.146 228.681 151.602 228.371 151.875C228.061 152.148 227.533 152.285 226.785 152.285C226.092 152.285 225.618 152.048 225.363 151.574C224.488 149.915 223.258 148.658 221.672 147.801C220.086 146.926 218.281 146.488 216.258 146.488C214.253 146.488 212.694 146.953 211.582 147.883C210.488 148.812 209.941 150.061 209.941 151.629C209.941 152.376 210.133 153.005 210.516 153.516C210.898 154.026 211.445 154.464 212.156 154.828C212.794 155.156 213.542 155.43 214.398 155.648C215.255 155.849 216.404 156.086 217.844 156.359C219.411 156.669 220.651 156.934 221.562 157.152C222.492 157.353 223.404 157.635 224.297 158C226.12 158.747 227.542 159.796 228.562 161.145C229.602 162.475 230.121 164.28 230.121 166.559C230.121 168.454 229.674 170.122 228.781 171.562C227.888 172.984 226.566 174.096 224.816 174.898C223.085 175.701 220.997 176.102 218.555 176.102C216.732 176.102 215.036 175.773 213.469 175.117C211.919 174.443 210.57 173.467 209.422 172.191V174.324C209.422 174.962 209.267 175.418 208.957 175.691C208.647 175.965 208.118 176.102 207.371 176.102C206.624 176.102 206.095 175.965 205.785 175.691C205.475 175.418 205.32 174.962 205.32 174.324V166.121C205.32 165.483 205.475 165.027 205.785 164.754C206.095 164.48 206.624 164.344 207.371 164.344C208.155 164.344 208.684 164.727 208.957 165.492C209.704 167.607 210.889 169.229 212.512 170.359C214.152 171.49 216.167 172.055 218.555 172.055C220.888 172.055 222.674 171.553 223.914 170.551C225.172 169.548 225.801 168.217 225.801 166.559C225.801 165.41 225.509 164.48 224.926 163.77C224.361 163.04 223.531 162.439 222.438 161.965C221.745 161.655 220.988 161.409 220.168 161.227C219.348 161.026 218.227 160.78 216.805 160.488C215.31 160.197 214.052 159.923 213.031 159.668C212.029 159.413 211.099 159.094 210.242 158.711C208.784 158.055 207.645 157.171 206.824 156.059C206.022 154.928 205.621 153.452 205.621 151.629C205.621 149.751 206.068 148.12 206.961 146.734C207.872 145.349 209.13 144.292 210.734 143.562C212.357 142.815 214.198 142.441 216.258 142.441C217.862 142.441 219.411 142.751 220.906 143.371C222.401 143.991 223.677 144.829 224.734 145.887V144.219C224.734 143.581 224.889 143.125 225.199 142.852C225.509 142.578 226.038 142.441 226.785 142.441ZM251.367 143.043C254.229 143.043 256.745 143.699 258.914 145.012C261.083 146.306 262.76 148.184 263.945 150.645C265.148 153.087 265.75 155.967 265.75 159.285C265.75 162.603 265.148 165.483 263.945 167.926C262.76 170.368 261.083 172.246 258.914 173.559C256.745 174.853 254.229 175.5 251.367 175.5H238.488C237.868 175.5 237.422 175.363 237.148 175.09C236.893 174.798 236.766 174.315 236.766 173.641C236.766 172.966 236.893 172.492 237.148 172.219C237.422 171.927 237.868 171.781 238.488 171.781H241.551V146.762H238.488C237.868 146.762 237.422 146.625 237.148 146.352C236.893 146.06 236.766 145.577 236.766 144.902C236.766 144.228 236.893 143.754 237.148 143.48C237.422 143.189 237.868 143.043 238.488 143.043H251.367ZM245.652 171.781H250.738C252.908 171.781 254.794 171.307 256.398 170.359C258.003 169.393 259.242 167.98 260.117 166.121C260.992 164.243 261.43 161.965 261.43 159.285C261.43 156.605 260.992 154.336 260.117 152.477C259.242 150.599 258.003 149.177 256.398 148.211C254.794 147.245 252.908 146.762 250.738 146.762H245.652V171.781ZM298.098 143.043C298.717 143.043 299.155 143.189 299.41 143.48C299.684 143.754 299.82 144.228 299.82 144.902C299.82 145.577 299.684 146.06 299.41 146.352C299.155 146.625 298.717 146.762 298.098 146.762H296.43L284.973 157.836C285.118 157.818 285.337 157.809 285.629 157.809C288.017 157.809 289.922 158.72 291.344 160.543C291.909 161.272 292.401 162.092 292.82 163.004C293.258 163.915 293.732 165.055 294.242 166.422C294.315 166.604 294.497 167.087 294.789 167.871C295.099 168.637 295.4 169.284 295.691 169.812C296.402 171.125 297.223 171.781 298.152 171.781H298.918C299.538 171.781 299.975 171.927 300.23 172.219C300.504 172.492 300.641 172.966 300.641 173.641C300.641 174.315 300.504 174.798 300.23 175.09C299.975 175.363 299.538 175.5 298.918 175.5H296.676C294.835 175.5 293.267 174.233 291.973 171.699C291.517 170.788 290.979 169.539 290.359 167.953C289.94 166.841 289.557 165.902 289.211 165.137C288.865 164.371 288.482 163.688 288.062 163.086C287.625 162.466 287.069 161.992 286.395 161.664C285.738 161.336 284.991 161.172 284.152 161.172C283.387 161.172 282.648 161.309 281.938 161.582C281.227 161.855 280.598 162.257 280.051 162.785L279.23 163.578V171.781H283.66C284.28 171.781 284.717 171.927 284.973 172.219C285.246 172.492 285.383 172.966 285.383 173.641C285.383 174.315 285.246 174.798 284.973 175.09C284.717 175.363 284.28 175.5 283.66 175.5H272.066C271.447 175.5 271 175.363 270.727 175.09C270.471 174.798 270.344 174.315 270.344 173.641C270.344 172.966 270.471 172.492 270.727 172.219C271 171.927 271.447 171.781 272.066 171.781H275.129V146.762H272.066C271.447 146.762 271 146.625 270.727 146.352C270.471 146.06 270.344 145.577 270.344 144.902C270.344 144.228 270.471 143.754 270.727 143.48C271 143.189 271.447 143.043 272.066 143.043H281.746C282.366 143.043 282.803 143.189 283.059 143.48C283.332 143.754 283.469 144.228 283.469 144.902C283.469 145.577 283.332 146.06 283.059 146.352C282.803 146.625 282.366 146.762 281.746 146.762H279.23V158.492L291.207 146.762H289.238C288.618 146.762 288.172 146.625 287.898 146.352C287.643 146.06 287.516 145.577 287.516 144.902C287.516 144.228 287.643 143.754 287.898 143.48C288.172 143.189 288.618 143.043 289.238 143.043H298.098Z" fill="#003A6C"/>
<path fill-rule="evenodd" clip-rule="evenodd" d="M252.807 44.132C252.279 43.956 251.708 43.956 251.179 44.132L213.049 56.8401C212.477 57.0308 212.005 57.4097 211.695 57.8943L201.543 70.9246C201.03 71.584 200.868 72.4514 201.11 73.2513C201.352 74.0512 201.967 74.6841 202.76 74.9482L211.311 77.7981L211.318 100.013C211.319 103.336 213.446 106.285 216.598 107.336L251.039 118.816C251.343 118.938 251.668 119 251.995 119C252.326 119.001 252.654 118.939 252.962 118.816L287.401 107.336C290.554 106.285 292.681 103.335 292.681 100.012L292.682 77.8004L301.24 74.9482C302.033 74.6841 302.648 74.0512 302.89 73.2513C303.132 72.4514 302.97 71.584 302.457 70.9246L292.173 57.725C291.867 57.3217 291.441 57.0082 290.937 56.8401L252.807 44.132ZM214.786 62.3024L247.736 73.284L240.792 82.1976L207.842 71.216L214.786 62.3024ZM252 69.2749L281.983 59.2818L251.993 49.2867L222.009 59.2795L252 69.2749ZM216.466 100.012L216.459 79.514L240.89 87.6562C241.925 88.0011 243.064 87.6565 243.734 86.7964L249.42 79.498L249.42 112.851L218.225 102.453C217.175 102.102 216.466 101.119 216.466 100.012ZM287.535 79.5158L263.11 87.6562C262.075 88.0011 260.936 87.6565 260.266 86.7964L254.57 79.4857L254.579 112.851L285.773 102.453C286.825 102.103 287.533 101.119 287.533 100.011L287.535 79.5158ZM263.208 82.1976L256.261 73.2806L289.211 62.299L296.158 71.216L263.208 82.1976Z" fill="#003A6C"/>
</svg>
