<svg width="374" height="107" viewBox="0 0 374 107" fill="none" xmlns="http://www.w3.org/2000/svg">
<circle cx="3" cy="63.6621" r="3" fill="#92E6A7"/>
<circle cx="54" cy="63.6621" r="3" fill="#92E6A7"/>
<circle cx="3" cy="73.7344" r="3" fill="#92E6A7"/>
<circle cx="54" cy="73.7344" r="3" fill="#92E6A7"/>
<circle cx="3" cy="53.5879" r="3" fill="#92E6A7"/>
<circle cx="54" cy="53.5879" r="3" fill="#92E6A7"/>
<circle cx="3" cy="93.8828" r="3" fill="#92E6A7"/>
<circle cx="54" cy="93.8828" r="3" fill="#92E6A7"/>
<circle cx="3" cy="103.955" r="3" fill="#92E6A7"/>
<circle cx="3" cy="83.8086" r="3" fill="#92E6A7"/>
<circle cx="54" cy="83.8086" r="3" fill="#92E6A7"/>
<circle cx="13" cy="63.6621" r="3" fill="#92E6A7"/>
<circle cx="64" cy="63.6621" r="3" fill="#92E6A7"/>
<circle cx="13" cy="73.7344" r="3" fill="#92E6A7"/>
<circle cx="13" cy="53.5879" r="3" fill="#92E6A7"/>
<circle cx="64" cy="53.5879" r="3" fill="#92E6A7"/>
<circle cx="13" cy="93.8828" r="3" fill="#92E6A7"/>
<circle cx="64" cy="93.8828" r="3" fill="#92E6A7"/>
<circle cx="13" cy="103.955" r="3" fill="#92E6A7"/>
<circle cx="64" cy="103.955" r="3" fill="#92E6A7"/>
<circle cx="13" cy="83.8086" r="3" fill="#92E6A7"/>
<circle cx="64" cy="83.8086" r="3" fill="#92E6A7"/>
<circle cx="33" cy="63.6621" r="3" fill="#92E6A7"/>
<circle cx="23" cy="63.6621" r="3" fill="#92E6A7"/>
<circle cx="74" cy="63.6621" r="3" fill="#92E6A7"/>
<circle cx="33" cy="73.7344" r="3" fill="#92E6A7"/>
<circle cx="23" cy="73.7344" r="3" fill="#92E6A7"/>
<circle cx="33" cy="53.5879" r="3" fill="#92E6A7"/>
<circle cx="23" cy="53.5879" r="3" fill="#92E6A7"/>
<circle cx="74" cy="53.5879" r="3" fill="#92E6A7"/>
<circle cx="33" cy="93.8828" r="3" fill="#92E6A7"/>
<circle cx="23" cy="93.8828" r="3" fill="#92E6A7"/>
<circle cx="33" cy="103.955" r="3" fill="#92E6A7"/>
<circle cx="23" cy="103.955" r="3" fill="#92E6A7"/>
<circle cx="33" cy="83.8086" r="3" fill="#92E6A7"/>
<circle cx="23" cy="83.8086" r="3" fill="#92E6A7"/>
<circle cx="74" cy="83.8086" r="3" fill="#92E6A7"/>
<circle cx="44" cy="63.6621" r="3" fill="#92E6A7"/>
<circle cx="95" cy="63.6621" r="3" fill="#92E6A7"/>
<circle cx="44" cy="73.7344" r="3" fill="#92E6A7"/>
<circle cx="44" cy="53.5879" r="3" fill="#92E6A7"/>
<circle cx="3" cy="43.5156" r="3" fill="#92E6A7"/>
<circle cx="54" cy="43.5156" r="3" fill="#92E6A7"/>
<circle cx="13" cy="43.5156" r="3" fill="#92E6A7"/>
<circle cx="64" cy="43.5156" r="3" fill="#92E6A7"/>
<circle cx="33" cy="43.5156" r="3" fill="#92E6A7"/>
<circle cx="23" cy="43.5156" r="3" fill="#92E6A7"/>
<circle cx="44" cy="43.5156" r="3" fill="#92E6A7"/>
<circle cx="95" cy="53.5879" r="3" fill="#92E6A7"/>
<circle cx="85" cy="93.8828" r="3" fill="#92E6A7"/>
<circle cx="44" cy="103.955" r="3" fill="#92E6A7"/>
<circle cx="44" cy="83.8086" r="3" fill="#92E6A7"/>
<circle cx="85" cy="83.8086" r="3" fill="#92E6A7"/>
<circle cx="3" cy="3" r="3" fill="#92E6A7"/>
<circle cx="54" cy="3" r="3" fill="#92E6A7"/>
<circle cx="3" cy="13.0742" r="3" fill="#92E6A7"/>
<circle cx="13" cy="3" r="3" fill="#92E6A7"/>
<circle cx="64" cy="3" r="3" fill="#92E6A7"/>
<circle cx="13" cy="13.0742" r="3" fill="#92E6A7"/>
<circle cx="64" cy="13.0742" r="3" fill="#92E6A7"/>
<circle cx="33" cy="3" r="3" fill="#92E6A7"/>
<circle cx="23" cy="3" r="3" fill="#92E6A7"/>
<circle cx="33" cy="13.0742" r="3" fill="#92E6A7"/>
<circle cx="23" cy="13.0742" r="3" fill="#92E6A7"/>
<circle cx="85" cy="3" r="3" fill="#92E6A7"/>
<circle cx="44" cy="13.0742" r="3" fill="#92E6A7"/>
<circle cx="3" cy="33.2207" r="3" fill="#92E6A7"/>
<circle cx="54" cy="33.2207" r="3" fill="#92E6A7"/>
<circle cx="13" cy="33.2207" r="3" fill="#92E6A7"/>
<circle cx="33" cy="33.2207" r="3" fill="#92E6A7"/>
<circle cx="23" cy="33.2207" r="3" fill="#92E6A7"/>
<circle cx="44" cy="33.2207" r="3" fill="#92E6A7"/>
<circle cx="3" cy="23.1465" r="3" fill="#92E6A7"/>
<circle cx="54" cy="23.1465" r="3" fill="#92E6A7"/>
<circle cx="13" cy="23.1465" r="3" fill="#92E6A7"/>
<circle cx="33" cy="23.1465" r="3" fill="#92E6A7"/>
<circle cx="23" cy="23.1465" r="3" fill="#92E6A7"/>
<circle cx="44" cy="23.1465" r="3" fill="#92E6A7"/>
<circle cx="340" cy="63.6621" r="3" fill="#92E6A7"/>
<circle cx="340" cy="73.7344" r="3" fill="#92E6A7"/>
<circle cx="299" cy="53.5879" r="3" fill="#92E6A7"/>
<circle cx="340" cy="53.5879" r="3" fill="#92E6A7"/>
<circle cx="299" cy="93.8828" r="3" fill="#92E6A7"/>
<circle cx="340" cy="93.8828" r="3" fill="#92E6A7"/>
<circle cx="299" cy="103.955" r="3" fill="#92E6A7"/>
<circle cx="340" cy="103.955" r="3" fill="#92E6A7"/>
<circle cx="299" cy="83.8086" r="3" fill="#92E6A7"/>
<circle cx="340" cy="83.8086" r="3" fill="#92E6A7"/>
<circle cx="350" cy="63.6621" r="3" fill="#92E6A7"/>
<circle cx="350" cy="73.7344" r="3" fill="#92E6A7"/>
<circle cx="309" cy="53.5879" r="3" fill="#92E6A7"/>
<circle cx="350" cy="53.5879" r="3" fill="#92E6A7"/>
<circle cx="309" cy="93.8828" r="3" fill="#92E6A7"/>
<circle cx="350" cy="93.8828" r="3" fill="#92E6A7"/>
<circle cx="309" cy="103.955" r="3" fill="#92E6A7"/>
<circle cx="350" cy="103.955" r="3" fill="#92E6A7"/>
<circle cx="309" cy="83.8086" r="3" fill="#92E6A7"/>
<circle cx="350" cy="83.8086" r="3" fill="#92E6A7"/>
<circle cx="319" cy="63.6621" r="3" fill="#92E6A7"/>
<circle cx="360" cy="63.6621" r="3" fill="#92E6A7"/>
<circle cx="360" cy="73.7344" r="3" fill="#92E6A7"/>
<circle cx="319" cy="53.5879" r="3" fill="#92E6A7"/>
<circle cx="360" cy="53.5879" r="3" fill="#92E6A7"/>
<circle cx="319" cy="93.8828" r="3" fill="#92E6A7"/>
<circle cx="360" cy="93.8828" r="3" fill="#92E6A7"/>
<circle cx="319" cy="103.955" r="3" fill="#92E6A7"/>
<circle cx="360" cy="103.955" r="3" fill="#92E6A7"/>
<circle cx="319" cy="83.8086" r="3" fill="#92E6A7"/>
<circle cx="360" cy="83.8086" r="3" fill="#92E6A7"/>
<circle cx="330" cy="63.6621" r="3" fill="#92E6A7"/>
<circle cx="371" cy="63.6621" r="3" fill="#92E6A7"/>
<circle cx="371" cy="73.7344" r="3" fill="#92E6A7"/>
<circle cx="371" cy="53.5879" r="3" fill="#92E6A7"/>
<circle cx="330" cy="93.8828" r="3" fill="#92E6A7"/>
<circle cx="371" cy="93.8828" r="3" fill="#92E6A7"/>
<circle cx="330" cy="103.955" r="3" fill="#92E6A7"/>
<circle cx="371" cy="103.955" r="3" fill="#92E6A7"/>
<circle cx="330" cy="83.8086" r="3" fill="#92E6A7"/>
<circle cx="371" cy="83.8086" r="3" fill="#92E6A7"/>
<circle cx="299" cy="3" r="3" fill="#92E6A7"/>
<circle cx="340" cy="3" r="3" fill="#92E6A7"/>
<circle cx="299" cy="13.0742" r="3" fill="#92E6A7"/>
<circle cx="340" cy="13.0742" r="3" fill="#92E6A7"/>
<circle cx="309" cy="3" r="3" fill="#92E6A7"/>
<circle cx="350" cy="3" r="3" fill="#92E6A7"/>
<circle cx="309" cy="13.0742" r="3" fill="#92E6A7"/>
<circle cx="350" cy="13.0742" r="3" fill="#92E6A7"/>
<circle cx="319" cy="3" r="3" fill="#92E6A7"/>
<circle cx="360" cy="3" r="3" fill="#92E6A7"/>
<circle cx="319" cy="13.0742" r="3" fill="#92E6A7"/>
<circle cx="319" cy="23" r="3" fill="#92E6A7"/>
<circle cx="309" cy="23" r="3" fill="#92E6A7"/>
<circle cx="360" cy="13.0742" r="3" fill="#92E6A7"/>
<circle cx="330" cy="3" r="3" fill="#92E6A7"/>
<circle cx="371" cy="3" r="3" fill="#92E6A7"/>
<circle cx="330" cy="13.0742" r="3" fill="#92E6A7"/>
<circle cx="371" cy="13.0742" r="3" fill="#92E6A7"/>
<circle cx="340" cy="43.5156" r="3" fill="#92E6A7"/>
<circle cx="350" cy="43.5156" r="3" fill="#92E6A7"/>
<circle cx="360" cy="43.5156" r="3" fill="#92E6A7"/>
<circle cx="371" cy="43.5156" r="3" fill="#92E6A7"/>
<circle cx="340" cy="33.2207" r="3" fill="#92E6A7"/>
<circle cx="340" cy="23.1465" r="3" fill="#92E6A7"/>
<circle cx="350" cy="33.2207" r="3" fill="#92E6A7"/>
<circle cx="350" cy="23.1465" r="3" fill="#92E6A7"/>
<circle cx="360" cy="33.2207" r="3" fill="#92E6A7"/>
<circle cx="360" cy="23.1465" r="3" fill="#92E6A7"/>
<circle cx="371" cy="33.2207" r="3" fill="#92E6A7"/>
<circle cx="371" cy="23.1465" r="3" fill="#92E6A7"/>
<circle cx="188.847" cy="3" r="3" fill="#92E6A7"/>
<circle cx="188.847" cy="12.2148" r="3" fill="#92E6A7"/>
<circle cx="179.53" cy="12.2148" r="3" fill="#92E6A7"/>
<circle cx="169.722" cy="12.2148" r="3" fill="#92E6A7"/>
<circle cx="159.424" cy="12.2148" r="3" fill="#92E6A7"/>
<circle cx="139.808" cy="11.7227" r="3" fill="#92E6A7"/>
<circle cx="139.808" cy="3" r="3" fill="#92E6A7"/>
<circle cx="208.953" cy="12.2148" r="3" fill="#92E6A7"/>
<circle cx="208.953" cy="3" r="3" fill="#92E6A7"/>
<circle cx="228.079" cy="3" r="3" fill="#92E6A7"/>
<circle cx="228.079" cy="11.7227" r="3" fill="#92E6A7"/>
<circle cx="237.886" cy="11.7227" r="3" fill="#92E6A7"/>
<circle cx="237.886" cy="3" r="3" fill="#92E6A7"/>
<circle cx="247.694" cy="3" r="3" fill="#92E6A7"/>
<circle cx="259.877" cy="3" r="3" fill="#92E6A7"/>
<circle cx="248.185" cy="11.7227" r="3" fill="#92E6A7"/>
<circle cx="233.729" cy="22.0215" r="3" fill="#92E6A7"/>
<circle cx="223.921" cy="29.377" r="3" fill="#92E6A7"/>
<circle cx="204.305" cy="43.5996" r="3" fill="#92E6A7"/>
<circle cx="196.693" cy="50.4648" r="3" fill="#92E6A7"/>
<circle cx="188.847" cy="60.2734" r="3" fill="#92E6A7"/>
<circle cx="179.039" cy="66.1582" r="3" fill="#92E6A7"/>
<circle cx="169.231" cy="73.5137" r="3" fill="#92E6A7"/>
<circle cx="159.424" cy="81.3594" r="3" fill="#92E6A7"/>
<circle cx="139.808" cy="94.5996" r="3" fill="#92E6A7"/>
<circle cx="133.923" cy="101.504" r="3" fill="#92E6A7"/>
<circle cx="147" cy="101" r="3" fill="#92E6A7"/>
<circle cx="159.424" cy="101.086" r="3" fill="#92E6A7"/>
<circle cx="169.231" cy="101.086" r="3" fill="#92E6A7"/>
<circle cx="179.039" cy="101.086" r="3" fill="#92E6A7"/>
<circle cx="189.337" cy="101.086" r="3" fill="#92E6A7"/>
<circle cx="208.462" cy="102.867" r="3" fill="#92E6A7"/>
<circle cx="228.079" cy="102.867" r="3" fill="#92E6A7"/>
<circle cx="237.886" cy="102.867" r="3" fill="#92E6A7"/>
<circle cx="247.694" cy="102.867" r="3" fill="#92E6A7"/>
<circle cx="257.502" cy="102.867" r="3" fill="#92E6A7"/>
<circle cx="257.502" cy="77.2559" r="3" fill="#92E6A7"/>
<circle cx="257.502" cy="67.9395" r="3" fill="#92E6A7"/>
<circle cx="247.694" cy="67.9395" r="3" fill="#92E6A7"/>
<circle cx="237.886" cy="67.9395" r="3" fill="#92E6A7"/>
<circle cx="228.079" cy="67.9395" r="3" fill="#92E6A7"/>
<circle cx="208.462" cy="67.9395" r="3" fill="#92E6A7"/>
<circle cx="159.424" cy="3" r="3" fill="#92E6A7"/>
<circle cx="169.722" cy="3" r="3" fill="#92E6A7"/>
<circle cx="179.039" cy="3" r="3" fill="#92E6A7"/>
<circle cx="130" cy="11.7227" r="3" fill="#92E6A7"/>
<circle cx="139.808" cy="38.875" r="3" fill="#92E6A7"/>
<circle cx="149.005" cy="88.5234" r="3" fill="#92E6A7"/>
<circle cx="159.424" cy="38.875" r="3" fill="#92E6A7"/>
<circle cx="169.231" cy="38.875" r="3" fill="#92E6A7"/>
<circle cx="169.231" cy="26.4355" r="3" fill="#92E6A7"/>
<circle cx="188.847" cy="31.7266" r="3" fill="#92E6A7"/>
<circle cx="208.953" cy="20.0605" r="3" fill="#92E6A7"/>
<circle cx="196.519" cy="67.7363" r="3" fill="#92E6A7"/>
<circle cx="179.039" cy="90.6758" r="3" fill="#92E6A7"/>
<circle cx="208.462" cy="76.7656" r="3" fill="#92E6A7"/>
<circle cx="237.886" cy="76.2754" r="3" fill="#92E6A7"/>
<circle cx="237.886" cy="87.0645" r="3" fill="#92E6A7"/>
<circle cx="257.502" cy="96" r="3" fill="#92E6A7"/>
<circle cx="208.462" cy="96" r="3" fill="#92E6A7"/>
<circle cx="169.722" cy="84.3027" r="3" fill="#92E6A7"/>
<circle cx="159.424" cy="91.166" r="3" fill="#92E6A7"/>
<circle cx="179.039" cy="38.875" r="3" fill="#92E6A7"/>
<circle cx="188.847" cy="38.875" r="3" fill="#92E6A7"/>
<circle cx="130" cy="29.377" r="3" fill="#92E6A7"/>
<circle cx="130" cy="38.875" r="3" fill="#92E6A7"/>
<circle cx="130" cy="3" r="3" fill="#92E6A7"/>
</svg>
