<svg width="713" height="182" viewBox="0 0 713 182" fill="none" xmlns="http://www.w3.org/2000/svg">
<ellipse cx="30" cy="123.986" rx="4" ry="4.00382" fill="#92E6A7"/>
<ellipse cx="4" cy="124.039" rx="4" ry="4.00382" fill="#92E6A7"/>
<ellipse cx="82.8247" cy="123.986" rx="4" ry="4.00382" fill="#92E6A7"/>
<ellipse cx="70" cy="123.986" rx="4" ry="4.00382" fill="#92E6A7"/>
<ellipse cx="137" cy="123.986" rx="4" ry="4.00382" fill="#92E6A7"/>
<ellipse cx="30" cy="137.213" rx="4" ry="4.00382" fill="#92E6A7"/>
<ellipse cx="4" cy="137.266" rx="4" ry="4.00382" fill="#92E6A7"/>
<ellipse cx="82.8247" cy="137.213" rx="4" ry="4.00382" fill="#92E6A7"/>
<ellipse cx="70" cy="137.213" rx="4" ry="4.00382" fill="#92E6A7"/>
<ellipse cx="137" cy="137.213" rx="4" ry="4.00382" fill="#92E6A7"/>
<ellipse cx="30" cy="110.762" rx="4" ry="4.00382" fill="#92E6A7"/>
<ellipse cx="4" cy="110.814" rx="4" ry="4.00382" fill="#92E6A7"/>
<ellipse cx="82.8247" cy="110.762" rx="4" ry="4.00382" fill="#92E6A7"/>
<ellipse cx="70" cy="110.762" rx="4" ry="4.00382" fill="#92E6A7"/>
<ellipse cx="137" cy="110.762" rx="4" ry="4.00382" fill="#92E6A7"/>
<ellipse cx="30" cy="163.664" rx="4" ry="4.00382" fill="#92E6A7"/>
<ellipse cx="4" cy="163.717" rx="4" ry="4.00382" fill="#92E6A7"/>
<ellipse cx="82.8247" cy="163.664" rx="4" ry="4.00382" fill="#92E6A7"/>
<ellipse cx="70" cy="163.664" rx="4" ry="4.00382" fill="#92E6A7"/>
<ellipse cx="137" cy="163.664" rx="4" ry="4.00382" fill="#92E6A7"/>
<ellipse cx="30" cy="176.891" rx="4" ry="4.00382" fill="#92E6A7"/>
<ellipse cx="4" cy="176.943" rx="4" ry="4.00382" fill="#92E6A7"/>
<ellipse cx="82.8247" cy="176.891" rx="4" ry="4.00382" fill="#92E6A7"/>
<ellipse cx="70" cy="176.891" rx="4" ry="4.00382" fill="#92E6A7"/>
<ellipse cx="30" cy="150.437" rx="4" ry="4.00382" fill="#92E6A7"/>
<ellipse cx="4" cy="150.49" rx="4" ry="4.00382" fill="#92E6A7"/>
<ellipse cx="82.8247" cy="150.437" rx="4" ry="4.00382" fill="#92E6A7"/>
<ellipse cx="70" cy="150.437" rx="4" ry="4.00382" fill="#92E6A7"/>
<ellipse cx="137" cy="150.437" rx="4" ry="4.00382" fill="#92E6A7"/>
<ellipse cx="43.2139" cy="123.986" rx="4" ry="4.00382" fill="#92E6A7"/>
<ellipse cx="17.2139" cy="124.039" rx="4" ry="4.00382" fill="#92E6A7"/>
<ellipse cx="96.0381" cy="123.986" rx="4" ry="4.00382" fill="#92E6A7"/>
<ellipse cx="150.213" cy="123.986" rx="4" ry="4.00382" fill="#92E6A7"/>
<ellipse cx="43.2139" cy="137.213" rx="4" ry="4.00382" fill="#92E6A7"/>
<ellipse cx="17.2139" cy="137.266" rx="4" ry="4.00382" fill="#92E6A7"/>
<ellipse cx="96.0381" cy="137.213" rx="4" ry="4.00382" fill="#92E6A7"/>
<ellipse cx="43.2139" cy="110.762" rx="4" ry="4.00382" fill="#92E6A7"/>
<ellipse cx="17.2139" cy="110.814" rx="4" ry="4.00382" fill="#92E6A7"/>
<ellipse cx="96.0381" cy="110.762" rx="4" ry="4.00382" fill="#92E6A7"/>
<ellipse cx="150.213" cy="110.762" rx="4" ry="4.00382" fill="#92E6A7"/>
<ellipse cx="43.2139" cy="163.664" rx="4" ry="4.00382" fill="#92E6A7"/>
<ellipse cx="17.2139" cy="163.717" rx="4" ry="4.00382" fill="#92E6A7"/>
<ellipse cx="96.0381" cy="163.664" rx="4" ry="4.00382" fill="#92E6A7"/>
<ellipse cx="150.213" cy="163.664" rx="4" ry="4.00382" fill="#92E6A7"/>
<ellipse cx="43.2139" cy="176.891" rx="4" ry="4.00382" fill="#92E6A7"/>
<ellipse cx="17.2139" cy="176.943" rx="4" ry="4.00382" fill="#92E6A7"/>
<ellipse cx="96.0381" cy="176.891" rx="4" ry="4.00382" fill="#92E6A7"/>
<ellipse cx="150.213" cy="176.891" rx="4" ry="4.00382" fill="#92E6A7"/>
<ellipse cx="43.2139" cy="150.437" rx="4" ry="4.00382" fill="#92E6A7"/>
<ellipse cx="17.2139" cy="150.49" rx="4" ry="4.00382" fill="#92E6A7"/>
<ellipse cx="96.0381" cy="150.437" rx="4" ry="4.00382" fill="#92E6A7"/>
<ellipse cx="150.213" cy="150.437" rx="4" ry="4.00382" fill="#92E6A7"/>
<ellipse cx="56.4272" cy="123.986" rx="4" ry="4.00382" fill="#92E6A7"/>
<ellipse cx="109.251" cy="123.986" rx="4" ry="4.00382" fill="#92E6A7"/>
<ellipse cx="163.426" cy="123.986" rx="4" ry="4.00382" fill="#92E6A7"/>
<ellipse cx="56.4272" cy="137.213" rx="4" ry="4.00382" fill="#92E6A7"/>
<ellipse cx="109.251" cy="137.213" rx="4" ry="4.00382" fill="#92E6A7"/>
<ellipse cx="56.4272" cy="110.762" rx="4" ry="4.00382" fill="#92E6A7"/>
<ellipse cx="109.251" cy="110.762" rx="4" ry="4.00382" fill="#92E6A7"/>
<ellipse cx="163.426" cy="110.762" rx="4" ry="4.00382" fill="#92E6A7"/>
<ellipse cx="56.4272" cy="163.664" rx="4" ry="4.00382" fill="#92E6A7"/>
<ellipse cx="109.251" cy="163.664" rx="4" ry="4.00382" fill="#92E6A7"/>
<ellipse cx="56.4272" cy="176.891" rx="4" ry="4.00382" fill="#92E6A7"/>
<ellipse cx="109.251" cy="176.891" rx="4" ry="4.00382" fill="#92E6A7"/>
<ellipse cx="56.4272" cy="150.437" rx="4" ry="4.00382" fill="#92E6A7"/>
<ellipse cx="109.251" cy="150.437" rx="4" ry="4.00382" fill="#92E6A7"/>
<ellipse cx="163.426" cy="150.437" rx="4" ry="4.00382" fill="#92E6A7"/>
<ellipse cx="123.786" cy="123.986" rx="4" ry="4.00382" fill="#92E6A7"/>
<ellipse cx="191.174" cy="123.986" rx="4" ry="4.00382" fill="#92E6A7"/>
<ellipse cx="123.786" cy="137.213" rx="4" ry="4.00382" fill="#92E6A7"/>
<ellipse cx="123.786" cy="110.762" rx="4" ry="4.00382" fill="#92E6A7"/>
<ellipse cx="30" cy="97.5312" rx="4" ry="4.00382" fill="#92E6A7"/>
<ellipse cx="4" cy="97.5839" rx="4" ry="4.00382" fill="#92E6A7"/>
<ellipse cx="30" cy="71.08" rx="4" ry="4.00382" fill="#92E6A7"/>
<ellipse cx="4" cy="71.1327" rx="4" ry="4.00382" fill="#92E6A7"/>
<ellipse cx="82.8247" cy="97.5312" rx="4" ry="4.00382" fill="#92E6A7"/>
<ellipse cx="82.8247" cy="71.08" rx="4" ry="4.00382" fill="#92E6A7"/>
<ellipse cx="70" cy="97.5312" rx="4" ry="4.00382" fill="#92E6A7"/>
<ellipse cx="70" cy="71.08" rx="4" ry="4.00382" fill="#92E6A7"/>
<ellipse cx="137" cy="97.5312" rx="4" ry="4.00382" fill="#92E6A7"/>
<ellipse cx="137" cy="71.08" rx="4" ry="4.00382" fill="#92E6A7"/>
<ellipse cx="43.2139" cy="97.5312" rx="4" ry="4.00382" fill="#92E6A7"/>
<ellipse cx="17.2139" cy="97.5839" rx="4" ry="4.00382" fill="#92E6A7"/>
<ellipse cx="43.2139" cy="71.08" rx="4" ry="4.00382" fill="#92E6A7"/>
<ellipse cx="17.2139" cy="71.1327" rx="4" ry="4.00382" fill="#92E6A7"/>
<ellipse cx="96.0381" cy="97.5312" rx="4" ry="4.00382" fill="#92E6A7"/>
<ellipse cx="96.0381" cy="71.08" rx="4" ry="4.00382" fill="#92E6A7"/>
<ellipse cx="150.213" cy="97.5312" rx="4" ry="4.00382" fill="#92E6A7"/>
<ellipse cx="56.4272" cy="97.5312" rx="4" ry="4.00382" fill="#92E6A7"/>
<ellipse cx="56.4272" cy="71.08" rx="4" ry="4.00382" fill="#92E6A7"/>
<ellipse cx="109.251" cy="97.5312" rx="4" ry="4.00382" fill="#92E6A7"/>
<ellipse cx="109.251" cy="71.08" rx="4" ry="4.00382" fill="#92E6A7"/>
<ellipse cx="123.786" cy="97.5312" rx="4" ry="4.00382" fill="#92E6A7"/>
<ellipse cx="123.786" cy="71.08" rx="4" ry="4.00382" fill="#92E6A7"/>
<ellipse cx="30" cy="84.3085" rx="4" ry="4.00382" fill="#92E6A7"/>
<ellipse cx="4" cy="84.3612" rx="4" ry="4.00382" fill="#92E6A7"/>
<ellipse cx="30" cy="57.8573" rx="4" ry="4.00382" fill="#92E6A7"/>
<ellipse cx="4" cy="57.9101" rx="4" ry="4.00382" fill="#92E6A7"/>
<ellipse cx="82.8247" cy="84.3085" rx="4" ry="4.00382" fill="#92E6A7"/>
<ellipse cx="82.8247" cy="57.8573" rx="4" ry="4.00382" fill="#92E6A7"/>
<ellipse cx="70" cy="84.3085" rx="4" ry="4.00382" fill="#92E6A7"/>
<ellipse cx="70" cy="57.8573" rx="4" ry="4.00382" fill="#92E6A7"/>
<ellipse cx="137" cy="84.3085" rx="4" ry="4.00382" fill="#92E6A7"/>
<ellipse cx="137" cy="57.8573" rx="4" ry="4.00382" fill="#92E6A7"/>
<ellipse cx="43.2139" cy="84.3085" rx="4" ry="4.00382" fill="#92E6A7"/>
<ellipse cx="17.2139" cy="84.3612" rx="4" ry="4.00382" fill="#92E6A7"/>
<ellipse cx="43.2139" cy="57.8573" rx="4" ry="4.00382" fill="#92E6A7"/>
<ellipse cx="17.2139" cy="57.9101" rx="4" ry="4.00382" fill="#92E6A7"/>
<ellipse cx="96.0381" cy="84.3085" rx="4" ry="4.00382" fill="#92E6A7"/>
<ellipse cx="96.0381" cy="57.8573" rx="4" ry="4.00382" fill="#92E6A7"/>
<ellipse cx="150.213" cy="84.3085" rx="4" ry="4.00382" fill="#92E6A7"/>
<ellipse cx="56.4272" cy="84.3085" rx="4" ry="4.00382" fill="#92E6A7"/>
<ellipse cx="56.4272" cy="57.8573" rx="4" ry="4.00382" fill="#92E6A7"/>
<ellipse cx="109.251" cy="84.3085" rx="4" ry="4.00382" fill="#92E6A7"/>
<ellipse cx="109.251" cy="57.8573" rx="4" ry="4.00382" fill="#92E6A7"/>
<ellipse cx="123.786" cy="84.3085" rx="4" ry="4.00382" fill="#92E6A7"/>
<ellipse cx="123.786" cy="57.8573" rx="4" ry="4.00382" fill="#92E6A7"/>
<ellipse cx="191.174" cy="110.762" rx="4" ry="4.00382" fill="#92E6A7"/>
<ellipse cx="177.961" cy="163.664" rx="4" ry="4.00382" fill="#92E6A7"/>
<ellipse cx="123.786" cy="176.891" rx="4" ry="4.00382" fill="#92E6A7"/>
<ellipse cx="123.786" cy="150.437" rx="4" ry="4.00382" fill="#92E6A7"/>
<ellipse cx="177.961" cy="150.437" rx="4" ry="4.00382" fill="#92E6A7"/>
<ellipse cx="30" cy="4.95109" rx="4" ry="4.00382" fill="#92E6A7"/>
<ellipse cx="4" cy="5.00382" rx="4" ry="4.00382" fill="#92E6A7"/>
<ellipse cx="82.8247" cy="4.95109" rx="4" ry="4.00382" fill="#92E6A7"/>
<ellipse cx="70" cy="4.95109" rx="4" ry="4.00382" fill="#92E6A7"/>
<ellipse cx="137" cy="4.95109" rx="4" ry="4.00382" fill="#92E6A7"/>
<ellipse cx="30" cy="18.1757" rx="4" ry="4.00382" fill="#92E6A7"/>
<ellipse cx="4" cy="18.2304" rx="4" ry="4.00382" fill="#92E6A7"/>
<ellipse cx="82.8247" cy="18.1757" rx="4" ry="4.00382" fill="#92E6A7"/>
<ellipse cx="70" cy="18.1757" rx="4" ry="4.00382" fill="#92E6A7"/>
<ellipse cx="43.2139" cy="4.95109" rx="4" ry="4.00382" fill="#92E6A7"/>
<ellipse cx="17.2139" cy="5.00382" rx="4" ry="4.00382" fill="#92E6A7"/>
<ellipse cx="96.0381" cy="4.95109" rx="4" ry="4.00382" fill="#92E6A7"/>
<ellipse cx="150.213" cy="4.95109" rx="4" ry="4.00382" fill="#92E6A7"/>
<ellipse cx="43.2139" cy="18.1757" rx="4" ry="4.00382" fill="#92E6A7"/>
<ellipse cx="17.2139" cy="18.2304" rx="4" ry="4.00382" fill="#92E6A7"/>
<ellipse cx="96.0381" cy="18.1757" rx="4" ry="4.00382" fill="#92E6A7"/>
<ellipse cx="150.213" cy="18.1757" rx="4" ry="4.00382" fill="#92E6A7"/>
<ellipse cx="56.4272" cy="4.95109" rx="4" ry="4.00382" fill="#92E6A7"/>
<ellipse cx="109.251" cy="4.95109" rx="4" ry="4.00382" fill="#92E6A7"/>
<ellipse cx="56.4272" cy="18.1757" rx="4" ry="4.00382" fill="#92E6A7"/>
<ellipse cx="109.251" cy="18.1757" rx="4" ry="4.00382" fill="#92E6A7"/>
<ellipse cx="177.961" cy="4.95109" rx="4" ry="4.00382" fill="#92E6A7"/>
<ellipse cx="123.786" cy="18.1757" rx="4" ry="4.00382" fill="#92E6A7"/>
<ellipse cx="30" cy="44.6269" rx="4" ry="4.00382" fill="#92E6A7"/>
<ellipse cx="4" cy="44.6796" rx="4" ry="4.00382" fill="#92E6A7"/>
<ellipse cx="82.8247" cy="44.6269" rx="4" ry="4.00382" fill="#92E6A7"/>
<ellipse cx="70" cy="44.6269" rx="4" ry="4.00382" fill="#92E6A7"/>
<ellipse cx="137" cy="44.6269" rx="4" ry="4.00382" fill="#92E6A7"/>
<ellipse cx="43.2139" cy="44.6269" rx="4" ry="4.00382" fill="#92E6A7"/>
<ellipse cx="17.2139" cy="44.6796" rx="4" ry="4.00382" fill="#92E6A7"/>
<ellipse cx="96.0381" cy="44.6269" rx="4" ry="4.00382" fill="#92E6A7"/>
<ellipse cx="56.4272" cy="44.6269" rx="4" ry="4.00382" fill="#92E6A7"/>
<ellipse cx="109.251" cy="44.6269" rx="4" ry="4.00382" fill="#92E6A7"/>
<ellipse cx="123.786" cy="44.6269" rx="4" ry="4.00382" fill="#92E6A7"/>
<ellipse cx="30" cy="31.4042" rx="4" ry="4.00382" fill="#92E6A7"/>
<ellipse cx="4" cy="31.4569" rx="4" ry="4.00382" fill="#92E6A7"/>
<ellipse cx="82.8247" cy="31.4042" rx="4" ry="4.00382" fill="#92E6A7"/>
<ellipse cx="70" cy="31.4042" rx="4" ry="4.00382" fill="#92E6A7"/>
<ellipse cx="137" cy="31.4042" rx="4" ry="4.00382" fill="#92E6A7"/>
<ellipse cx="43.2139" cy="31.4042" rx="4" ry="4.00382" fill="#92E6A7"/>
<ellipse cx="17.2139" cy="31.4569" rx="4" ry="4.00382" fill="#92E6A7"/>
<ellipse cx="96.0381" cy="31.4042" rx="4" ry="4.00382" fill="#92E6A7"/>
<ellipse cx="56.4272" cy="31.4042" rx="4" ry="4.00382" fill="#92E6A7"/>
<ellipse cx="109.251" cy="31.4042" rx="4" ry="4.00382" fill="#92E6A7"/>
<ellipse cx="123.786" cy="31.4042" rx="4" ry="4.00382" fill="#92E6A7"/>
<ellipse cx="615.054" cy="123.986" rx="3.99175" ry="4.00382" fill="#92E6A7"/>
<ellipse cx="615.054" cy="137.213" rx="3.99175" ry="4.00382" fill="#92E6A7"/>
<ellipse cx="560.992" cy="110.762" rx="3.99175" ry="4.00382" fill="#92E6A7"/>
<ellipse cx="615.054" cy="110.762" rx="3.99175" ry="4.00382" fill="#92E6A7"/>
<ellipse cx="560.992" cy="163.664" rx="3.99175" ry="4.00382" fill="#92E6A7"/>
<ellipse cx="615.054" cy="163.664" rx="3.99175" ry="4.00382" fill="#92E6A7"/>
<ellipse cx="560.992" cy="176.891" rx="3.99175" ry="4.00382" fill="#92E6A7"/>
<ellipse cx="615.054" cy="176.891" rx="3.99175" ry="4.00382" fill="#92E6A7"/>
<ellipse cx="560.992" cy="150.437" rx="3.99175" ry="4.00382" fill="#92E6A7"/>
<ellipse cx="615.054" cy="150.437" rx="3.99175" ry="4.00382" fill="#92E6A7"/>
<ellipse cx="641.241" cy="123.986" rx="3.99175" ry="4.00382" fill="#92E6A7"/>
<ellipse cx="627.992" cy="124.039" rx="3.99175" ry="4.00382" fill="#92E6A7"/>
<ellipse cx="680.813" cy="124.039" rx="3.99175" ry="4.00382" fill="#92E6A7"/>
<ellipse cx="641.241" cy="137.213" rx="3.99175" ry="4.00382" fill="#92E6A7"/>
<ellipse cx="627.992" cy="137.266" rx="3.99175" ry="4.00382" fill="#92E6A7"/>
<ellipse cx="680.813" cy="137.266" rx="3.99175" ry="4.00382" fill="#92E6A7"/>
<ellipse cx="574.177" cy="110.762" rx="3.99175" ry="4.00382" fill="#92E6A7"/>
<ellipse cx="641.241" cy="110.762" rx="3.99175" ry="4.00382" fill="#92E6A7"/>
<ellipse cx="627.992" cy="110.814" rx="3.99175" ry="4.00382" fill="#92E6A7"/>
<ellipse cx="680.813" cy="110.814" rx="3.99175" ry="4.00382" fill="#92E6A7"/>
<ellipse cx="574.177" cy="163.664" rx="3.99175" ry="4.00382" fill="#92E6A7"/>
<ellipse cx="641.241" cy="163.664" rx="3.99175" ry="4.00382" fill="#92E6A7"/>
<ellipse cx="627.992" cy="163.717" rx="3.99175" ry="4.00382" fill="#92E6A7"/>
<ellipse cx="680.813" cy="163.717" rx="3.99175" ry="4.00382" fill="#92E6A7"/>
<ellipse cx="574.177" cy="176.891" rx="3.99175" ry="4.00382" fill="#92E6A7"/>
<ellipse cx="641.241" cy="176.891" rx="3.99175" ry="4.00382" fill="#92E6A7"/>
<ellipse cx="627.992" cy="176.943" rx="3.99175" ry="4.00382" fill="#92E6A7"/>
<ellipse cx="680.813" cy="176.943" rx="3.99175" ry="4.00382" fill="#92E6A7"/>
<ellipse cx="574.177" cy="150.437" rx="3.99175" ry="4.00382" fill="#92E6A7"/>
<ellipse cx="641.241" cy="150.437" rx="3.99175" ry="4.00382" fill="#92E6A7"/>
<ellipse cx="627.992" cy="150.49" rx="3.99175" ry="4.00382" fill="#92E6A7"/>
<ellipse cx="680.813" cy="150.49" rx="3.99175" ry="4.00382" fill="#92E6A7"/>
<ellipse cx="587.364" cy="123.986" rx="3.99175" ry="4.00382" fill="#92E6A7"/>
<ellipse cx="654.427" cy="123.986" rx="3.99175" ry="4.00382" fill="#92E6A7"/>
<ellipse cx="693.999" cy="124.039" rx="3.99175" ry="4.00382" fill="#92E6A7"/>
<ellipse cx="654.427" cy="137.213" rx="3.99175" ry="4.00382" fill="#92E6A7"/>
<ellipse cx="693.999" cy="137.266" rx="3.99175" ry="4.00382" fill="#92E6A7"/>
<ellipse cx="587.364" cy="110.762" rx="3.99175" ry="4.00382" fill="#92E6A7"/>
<ellipse cx="654.427" cy="110.762" rx="3.99175" ry="4.00382" fill="#92E6A7"/>
<ellipse cx="693.999" cy="110.814" rx="3.99175" ry="4.00382" fill="#92E6A7"/>
<ellipse cx="587.364" cy="163.664" rx="3.99175" ry="4.00382" fill="#92E6A7"/>
<ellipse cx="654.427" cy="163.664" rx="3.99175" ry="4.00382" fill="#92E6A7"/>
<ellipse cx="693.999" cy="163.717" rx="3.99175" ry="4.00382" fill="#92E6A7"/>
<ellipse cx="587.364" cy="176.891" rx="3.99175" ry="4.00382" fill="#92E6A7"/>
<ellipse cx="654.427" cy="176.891" rx="3.99175" ry="4.00382" fill="#92E6A7"/>
<ellipse cx="693.999" cy="176.943" rx="3.99175" ry="4.00382" fill="#92E6A7"/>
<ellipse cx="587.364" cy="150.437" rx="3.99175" ry="4.00382" fill="#92E6A7"/>
<ellipse cx="654.427" cy="150.437" rx="3.99175" ry="4.00382" fill="#92E6A7"/>
<ellipse cx="693.999" cy="150.49" rx="3.99175" ry="4.00382" fill="#92E6A7"/>
<ellipse cx="601.869" cy="123.986" rx="3.99175" ry="4.00382" fill="#92E6A7"/>
<ellipse cx="667.627" cy="124.039" rx="3.99175" ry="4.00382" fill="#92E6A7"/>
<ellipse cx="708.503" cy="124.039" rx="3.99175" ry="4.00382" fill="#92E6A7"/>
<ellipse cx="667.627" cy="137.266" rx="3.99175" ry="4.00382" fill="#92E6A7"/>
<ellipse cx="708.503" cy="137.266" rx="3.99175" ry="4.00382" fill="#92E6A7"/>
<ellipse cx="667.627" cy="110.814" rx="3.99175" ry="4.00382" fill="#92E6A7"/>
<ellipse cx="708.503" cy="110.814" rx="3.99175" ry="4.00382" fill="#92E6A7"/>
<ellipse cx="601.869" cy="163.664" rx="3.99175" ry="4.00382" fill="#92E6A7"/>
<ellipse cx="667.627" cy="163.717" rx="3.99175" ry="4.00382" fill="#92E6A7"/>
<ellipse cx="708.503" cy="163.717" rx="3.99175" ry="4.00382" fill="#92E6A7"/>
<ellipse cx="601.869" cy="176.891" rx="3.99175" ry="4.00382" fill="#92E6A7"/>
<ellipse cx="667.627" cy="176.943" rx="3.99175" ry="4.00382" fill="#92E6A7"/>
<ellipse cx="708.503" cy="176.943" rx="3.99175" ry="4.00382" fill="#92E6A7"/>
<ellipse cx="601.869" cy="150.437" rx="3.99175" ry="4.00382" fill="#92E6A7"/>
<ellipse cx="667.627" cy="150.49" rx="3.99175" ry="4.00382" fill="#92E6A7"/>
<ellipse cx="708.503" cy="150.49" rx="3.99175" ry="4.00382" fill="#92E6A7"/>
<ellipse cx="560.992" cy="4.95109" rx="3.99175" ry="4.00382" fill="#92E6A7"/>
<ellipse cx="615.054" cy="4.95109" rx="3.99175" ry="4.00382" fill="#92E6A7"/>
<ellipse cx="560.992" cy="18.1757" rx="3.99175" ry="4.00382" fill="#92E6A7"/>
<ellipse cx="615.054" cy="18.1757" rx="3.99175" ry="4.00382" fill="#92E6A7"/>
<ellipse cx="574.177" cy="4.95109" rx="3.99175" ry="4.00382" fill="#92E6A7"/>
<ellipse cx="641.241" cy="4.95109" rx="3.99175" ry="4.00382" fill="#92E6A7"/>
<ellipse cx="627.992" cy="5.00382" rx="3.99175" ry="4.00382" fill="#92E6A7"/>
<ellipse cx="680.813" cy="5.00382" rx="3.99175" ry="4.00382" fill="#92E6A7"/>
<ellipse cx="574.177" cy="18.1757" rx="3.99175" ry="4.00382" fill="#92E6A7"/>
<ellipse cx="641.241" cy="18.1757" rx="3.99175" ry="4.00382" fill="#92E6A7"/>
<ellipse cx="627.992" cy="18.2284" rx="3.99175" ry="4.00382" fill="#92E6A7"/>
<ellipse cx="680.813" cy="18.2284" rx="3.99175" ry="4.00382" fill="#92E6A7"/>
<ellipse cx="587.364" cy="4.95109" rx="3.99175" ry="4.00382" fill="#92E6A7"/>
<ellipse cx="654.427" cy="4.95109" rx="3.99175" ry="4.00382" fill="#92E6A7"/>
<ellipse cx="693.999" cy="5.00382" rx="3.99175" ry="4.00382" fill="#92E6A7"/>
<ellipse cx="587.364" cy="18.1757" rx="3.99175" ry="4.00382" fill="#92E6A7"/>
<ellipse cx="654.427" cy="18.1757" rx="3.99175" ry="4.00382" fill="#92E6A7"/>
<ellipse cx="693.999" cy="18.2284" rx="3.99175" ry="4.00382" fill="#92E6A7"/>
<ellipse cx="601.869" cy="4.95109" rx="3.99175" ry="4.00382" fill="#92E6A7"/>
<ellipse cx="667.627" cy="5.00382" rx="3.99175" ry="4.00382" fill="#92E6A7"/>
<ellipse cx="708.503" cy="5.00382" rx="3.99175" ry="4.00382" fill="#92E6A7"/>
<ellipse cx="601.869" cy="18.1757" rx="3.99175" ry="4.00382" fill="#92E6A7"/>
<ellipse cx="667.627" cy="18.2284" rx="3.99175" ry="4.00382" fill="#92E6A7"/>
<ellipse cx="708.503" cy="18.2284" rx="3.99175" ry="4.00382" fill="#92E6A7"/>
<ellipse cx="585.992" cy="71.0038" rx="3.99175" ry="4.00382" fill="#92E6A7"/>
<ellipse cx="615.054" cy="84.3085" rx="3.99175" ry="4.00382" fill="#92E6A7"/>
<ellipse cx="573.992" cy="58.0038" rx="3.99175" ry="4.00382" fill="#92E6A7"/>
<ellipse cx="641.241" cy="97.5312" rx="3.99175" ry="4.00382" fill="#92E6A7"/>
<ellipse cx="627.992" cy="97.5839" rx="3.99175" ry="4.00382" fill="#92E6A7"/>
<ellipse cx="641.241" cy="71.08" rx="3.99175" ry="4.00382" fill="#92E6A7"/>
<ellipse cx="641.241" cy="84.3085" rx="3.99175" ry="4.00382" fill="#92E6A7"/>
<ellipse cx="627.992" cy="84.3612" rx="3.99175" ry="4.00382" fill="#92E6A7"/>
<ellipse cx="641.241" cy="57.8573" rx="3.99175" ry="4.00382" fill="#92E6A7"/>
<ellipse cx="627.992" cy="57.9101" rx="3.99175" ry="4.00382" fill="#92E6A7"/>
<ellipse cx="680.813" cy="97.5839" rx="3.99175" ry="4.00382" fill="#92E6A7"/>
<ellipse cx="680.813" cy="71.1327" rx="3.99175" ry="4.00382" fill="#92E6A7"/>
<ellipse cx="680.813" cy="84.3612" rx="3.99175" ry="4.00382" fill="#92E6A7"/>
<ellipse cx="680.813" cy="57.9101" rx="3.99175" ry="4.00382" fill="#92E6A7"/>
<ellipse cx="654.427" cy="97.5312" rx="3.99175" ry="4.00382" fill="#92E6A7"/>
<ellipse cx="654.427" cy="71.08" rx="3.99175" ry="4.00382" fill="#92E6A7"/>
<ellipse cx="654.427" cy="84.3085" rx="3.99175" ry="4.00382" fill="#92E6A7"/>
<ellipse cx="654.427" cy="57.8573" rx="3.99175" ry="4.00382" fill="#92E6A7"/>
<ellipse cx="693.999" cy="97.5839" rx="3.99175" ry="4.00382" fill="#92E6A7"/>
<ellipse cx="693.999" cy="71.1327" rx="3.99175" ry="4.00382" fill="#92E6A7"/>
<ellipse cx="693.999" cy="84.3612" rx="3.99175" ry="4.00382" fill="#92E6A7"/>
<ellipse cx="693.999" cy="57.9101" rx="3.99175" ry="4.00382" fill="#92E6A7"/>
<ellipse cx="667.627" cy="97.5839" rx="3.99175" ry="4.00382" fill="#92E6A7"/>
<ellipse cx="667.627" cy="71.1327" rx="3.99175" ry="4.00382" fill="#92E6A7"/>
<ellipse cx="667.627" cy="84.3612" rx="3.99175" ry="4.00382" fill="#92E6A7"/>
<ellipse cx="667.627" cy="57.9101" rx="3.99175" ry="4.00382" fill="#92E6A7"/>
<ellipse cx="708.503" cy="97.5839" rx="3.99175" ry="4.00382" fill="#92E6A7"/>
<ellipse cx="708.503" cy="71.1327" rx="3.99175" ry="4.00382" fill="#92E6A7"/>
<ellipse cx="708.503" cy="84.3612" rx="3.99175" ry="4.00382" fill="#92E6A7"/>
<ellipse cx="708.503" cy="57.9101" rx="3.99175" ry="4.00382" fill="#92E6A7"/>
<ellipse cx="615.054" cy="44.6269" rx="3.99175" ry="4.00382" fill="#92E6A7"/>
<ellipse cx="615.054" cy="31.4042" rx="3.99175" ry="4.00382" fill="#92E6A7"/>
<ellipse cx="641.241" cy="44.6269" rx="3.99175" ry="4.00382" fill="#92E6A7"/>
<ellipse cx="627.992" cy="44.6796" rx="3.99175" ry="4.00382" fill="#92E6A7"/>
<ellipse cx="641.241" cy="31.4042" rx="3.99175" ry="4.00382" fill="#92E6A7"/>
<ellipse cx="627.992" cy="31.4569" rx="3.99175" ry="4.00382" fill="#92E6A7"/>
<ellipse cx="680.813" cy="44.6796" rx="3.99175" ry="4.00382" fill="#92E6A7"/>
<ellipse cx="680.813" cy="31.4569" rx="3.99175" ry="4.00382" fill="#92E6A7"/>
<ellipse cx="654.427" cy="44.6269" rx="3.99175" ry="4.00382" fill="#92E6A7"/>
<ellipse cx="654.427" cy="31.4042" rx="3.99175" ry="4.00382" fill="#92E6A7"/>
<ellipse cx="693.999" cy="44.6796" rx="3.99175" ry="4.00382" fill="#92E6A7"/>
<ellipse cx="693.999" cy="31.4569" rx="3.99175" ry="4.00382" fill="#92E6A7"/>
<ellipse cx="667.627" cy="44.6796" rx="3.99175" ry="4.00382" fill="#92E6A7"/>
<ellipse cx="667.627" cy="31.4569" rx="3.99175" ry="4.00382" fill="#92E6A7"/>
<ellipse cx="708.503" cy="44.6796" rx="3.99175" ry="4.00382" fill="#92E6A7"/>
<ellipse cx="708.503" cy="31.4569" rx="3.99175" ry="4.00382" fill="#92E6A7"/>
<circle cx="397" cy="129.201" r="4" fill="#92E6A7"/>
<circle cx="397" cy="142" r="4" fill="#92E6A7"/>
<circle cx="397" cy="115" r="4" fill="#92E6A7"/>
<circle cx="348.083" cy="5" r="4" fill="#92E6A7"/>
<circle cx="348.083" cy="20.5137" r="4" fill="#92E6A7"/>
<circle cx="332.395" cy="20.5137" r="4" fill="#92E6A7"/>
<circle cx="315.881" cy="20.5137" r="4" fill="#92E6A7"/>
<circle cx="298.542" cy="20.5137" r="4" fill="#92E6A7"/>
<circle cx="265.514" cy="19.6875" r="4" fill="#92E6A7"/>
<circle cx="265.514" cy="5" r="4" fill="#92E6A7"/>
<circle cx="381.936" cy="20.5137" r="4" fill="#92E6A7"/>
<circle cx="381.936" cy="5" r="4" fill="#92E6A7"/>
<circle cx="414.138" cy="5" r="4" fill="#92E6A7"/>
<circle cx="414.138" cy="19.6875" r="4" fill="#92E6A7"/>
<circle cx="430.651" cy="19.6875" r="4" fill="#92E6A7"/>
<circle cx="430.651" cy="5" r="4" fill="#92E6A7"/>
<circle cx="447.165" cy="5" r="4" fill="#92E6A7"/>
<circle cx="467.679" cy="5" r="4" fill="#92E6A7"/>
<circle cx="447.991" cy="19.6875" r="4" fill="#92E6A7"/>
<circle cx="423.651" cy="37.0273" r="4" fill="#92E6A7"/>
<circle cx="407.138" cy="49.4121" r="4" fill="#92E6A7"/>
<circle cx="374.11" cy="73.3574" r="4" fill="#92E6A7"/>
<circle cx="361.293" cy="84.918" r="4" fill="#92E6A7"/>
<circle cx="348.083" cy="101.432" r="4" fill="#92E6A7"/>
<circle cx="331.569" cy="111.34" r="4" fill="#92E6A7"/>
<circle cx="315.055" cy="123.725" r="4" fill="#92E6A7"/>
<circle cx="298.542" cy="136.936" r="4" fill="#92E6A7"/>
<circle cx="265.514" cy="159.229" r="4" fill="#92E6A7"/>
<circle cx="255.605" cy="167.486" r="4" fill="#92E6A7"/>
<circle cx="265.514" cy="174.092" r="4" fill="#92E6A7"/>
<circle cx="298.542" cy="174.092" r="4" fill="#92E6A7"/>
<circle cx="315.055" cy="174.092" r="4" fill="#92E6A7"/>
<circle cx="331.569" cy="174.092" r="4" fill="#92E6A7"/>
<circle cx="348.908" cy="174.092" r="4" fill="#92E6A7"/>
<circle cx="381.11" cy="177.092" r="4" fill="#92E6A7"/>
<circle cx="414.138" cy="177.092" r="4" fill="#92E6A7"/>
<circle cx="430.651" cy="177.092" r="4" fill="#92E6A7"/>
<circle cx="447.165" cy="177.092" r="4" fill="#92E6A7"/>
<circle cx="463.679" cy="177.092" r="4" fill="#92E6A7"/>
<circle cx="463.679" cy="130.027" r="4" fill="#92E6A7"/>
<circle cx="463.679" cy="114.34" r="4" fill="#92E6A7"/>
<circle cx="447.165" cy="114.34" r="4" fill="#92E6A7"/>
<circle cx="430.651" cy="114.34" r="4" fill="#92E6A7"/>
<circle cx="414.138" cy="114.34" r="4" fill="#92E6A7"/>
<circle cx="381.11" cy="114.34" r="4" fill="#92E6A7"/>
<circle cx="298.542" cy="5" r="4" fill="#92E6A7"/>
<circle cx="315.881" cy="5" r="4" fill="#92E6A7"/>
<circle cx="331.569" cy="5" r="4" fill="#92E6A7"/>
<circle cx="249" cy="19.6875" r="4" fill="#92E6A7"/>
<circle cx="265.514" cy="65.4043" r="4" fill="#92E6A7"/>
<circle cx="281" cy="149" r="4" fill="#92E6A7"/>
<circle cx="298.542" cy="65.4043" r="4" fill="#92E6A7"/>
<circle cx="315.055" cy="65.4043" r="4" fill="#92E6A7"/>
<circle cx="315.055" cy="44.459" r="4" fill="#92E6A7"/>
<circle cx="348.083" cy="53.3672" r="4" fill="#92E6A7"/>
<circle cx="381.936" cy="33.7246" r="4" fill="#92E6A7"/>
<circle cx="361" cy="114" r="4" fill="#92E6A7"/>
<circle cx="331.569" cy="152.623" r="4" fill="#92E6A7"/>
<circle cx="381.11" cy="129.201" r="4" fill="#92E6A7"/>
<circle cx="430.651" cy="128.377" r="4" fill="#92E6A7"/>
<circle cx="430.651" cy="146.541" r="4" fill="#92E6A7"/>
<circle cx="463.679" cy="165.531" r="4" fill="#92E6A7"/>
<circle cx="381.11" cy="165.531" r="4" fill="#92E6A7"/>
<circle cx="315.881" cy="141.891" r="4" fill="#92E6A7"/>
<circle cx="298.542" cy="153.449" r="4" fill="#92E6A7"/>
<circle cx="331.569" cy="65.4043" r="4" fill="#92E6A7"/>
<circle cx="348.083" cy="65.4043" r="4" fill="#92E6A7"/>
<circle cx="249" cy="49.4121" r="4" fill="#92E6A7"/>
<circle cx="249" cy="65.4043" r="4" fill="#92E6A7"/>
<circle cx="249" cy="5" r="4" fill="#92E6A7"/>
</svg>
