<svg width="1760" height="964" viewBox="0 0 1760 964" fill="none" xmlns="http://www.w3.org/2000/svg">
<rect x="1.25" y="1.25" width="1757.5" height="961.5" fill="#003A6C" stroke="#003A6C" stroke-width="2.5"/>
<g opacity="0.7">
<line x1="20.25" y1="1" x2="20.25" y2="963" stroke="#FDF5E6" stroke-opacity="0.5" stroke-width="0.5"/>
<line x1="660.25" y1="1" x2="660.25" y2="794" stroke="#FDF5E6" stroke-opacity="0.5" stroke-width="0.5"/>
<line x1="340.25" y1="1" x2="340.25" y2="963" stroke="#FDF5E6" stroke-opacity="0.5" stroke-width="0.5"/>
<line x1="180.25" y1="1" x2="180.25" y2="963" stroke="#FDF5E6" stroke-opacity="0.5" stroke-width="0.5"/>
<line x1="820.25" y1="1" x2="820.25" y2="953" stroke="#FDF5E6" stroke-opacity="0.5" stroke-width="0.5"/>
<line x1="500.25" y1="1" x2="500.25" y2="963" stroke="#FDF5E6" stroke-opacity="0.5" stroke-width="0.5"/>
<line x1="100.25" y1="9.8497e-09" x2="100.25" y2="963" stroke="#FDF5E6" stroke-opacity="0.5" stroke-width="0.5"/>
<line x1="420.25" y1="1" x2="420.25" y2="963" stroke="#FDF5E6" stroke-opacity="0.5" stroke-width="0.5"/>
<line x1="1060.25" y1="140" x2="1060.25" y2="963" stroke="#FDF5E6" stroke-opacity="0.5" stroke-width="0.5"/>
<line x1="1440.25" y1="120" x2="1440.25" y2="963" stroke="#FDF5E6" stroke-opacity="0.5" stroke-width="0.5"/>
<line x1="260.25" y1="1" x2="260.25" y2="962" stroke="#FDF5E6" stroke-opacity="0.5" stroke-width="0.5"/>
<line x1="580.25" y1="1" x2="580.25" y2="963" stroke="#FDF5E6" stroke-opacity="0.5" stroke-width="0.5"/>
<line x1="1600.25" y1="1" x2="1600.25" y2="963" stroke="#FDF5E6" stroke-opacity="0.5" stroke-width="0.5"/>
<line x1="1680.25" y1="1" x2="1680.25" y2="963" stroke="#FDF5E6" stroke-opacity="0.5" stroke-width="0.5"/>
<line x1="60.25" y1="1" x2="60.25" y2="963" stroke="#FDF5E6" stroke-opacity="0.5" stroke-width="0.5"/>
<line x1="700.25" y1="1" x2="700.25" y2="854" stroke="#FDF5E6" stroke-opacity="0.5" stroke-width="0.5"/>
<line x1="380.25" y1="1" x2="380.25" y2="963" stroke="#FDF5E6" stroke-opacity="0.5" stroke-width="0.5"/>
<line x1="1400.25" y1="41" x2="1400.25" y2="775" stroke="#FDF5E6" stroke-opacity="0.5" stroke-width="0.5"/>
<line x1="220.25" y1="1" x2="220.25" y2="963" stroke="#FDF5E6" stroke-opacity="0.5" stroke-width="0.5"/>
<line x1="540.25" y1="1" x2="540.25" y2="963" stroke="#FDF5E6" stroke-opacity="0.5" stroke-width="0.5"/>
<line x1="140.25" y1="1" x2="140.25" y2="963" stroke="#FDF5E6" stroke-opacity="0.5" stroke-width="0.5"/>
<line x1="780.25" y1="61" x2="780.25" y2="874" stroke="#FDF5E6" stroke-opacity="0.5" stroke-width="0.5"/>
<line x1="460.25" y1="1" x2="460.25" y2="963" stroke="#FDF5E6" stroke-opacity="0.5" stroke-width="0.5"/>
<line x1="1100.25" y1="199" x2="1100.25" y2="775" stroke="#FDF5E6" stroke-opacity="0.5" stroke-width="0.5"/>
<line x1="1480.25" y1="1" x2="1480.25" y2="963" stroke="#FDF5E6" stroke-opacity="0.5" stroke-width="0.5"/>
<line x1="300.25" y1="1" x2="300.25" y2="962" stroke="#FDF5E6" stroke-opacity="0.5" stroke-width="0.5"/>
<path d="M940.25 140.5L940.25 814" stroke="#FDF5E6" stroke-opacity="0.5" stroke-width="0.5"/>
<line x1="620.25" y1="1" x2="620.25" y2="963" stroke="#FDF5E6" stroke-opacity="0.5" stroke-width="0.5"/>
<line x1="1260.25" y1="239" x2="1260.25" y2="556" stroke="#FDF5E6" stroke-opacity="0.5" stroke-width="0.5"/>
<line x1="1640.25" y1="120" x2="1640.25" y2="814" stroke="#FDF5E6" stroke-opacity="0.5" stroke-width="0.5"/>
<line x1="1720.25" y1="299" x2="1720.25" y2="814" stroke="#FDF5E6" stroke-opacity="0.5" stroke-width="0.5"/>
<line x1="40.25" y1="1" x2="40.25" y2="963" stroke="#FDF5E6" stroke-opacity="0.5" stroke-width="0.5"/>
<line x1="680.25" y1="120" x2="680.25" y2="963" stroke="#FDF5E6" stroke-opacity="0.5" stroke-width="0.5"/>
<line x1="360.25" y1="1" x2="360.25" y2="963" stroke="#FDF5E6" stroke-opacity="0.5" stroke-width="0.5"/>
<path d="M1380 199L1380 794" stroke="#FDF5E6" stroke-opacity="0.5" stroke-width="0.5"/>
<line x1="200.25" y1="1" x2="200.25" y2="963" stroke="#FDF5E6" stroke-opacity="0.5" stroke-width="0.5"/>
<line x1="840.25" y1="1" x2="840.25" y2="735" stroke="#FDF5E6" stroke-opacity="0.5" stroke-width="0.5"/>
<line x1="520.25" y1="1" x2="520.25" y2="963" stroke="#FDF5E6" stroke-opacity="0.5" stroke-width="0.5"/>
<line x1="1160.25" y1="1" x2="1160.25" y2="963" stroke="#FDF5E6" stroke-opacity="0.5" stroke-width="0.5"/>
<line x1="1540.25" y1="1" x2="1540.25" y2="963" stroke="#FDF5E6" stroke-opacity="0.5" stroke-width="0.5"/>
<line x1="120.25" y1="1" x2="120.25" y2="963" stroke="#FDF5E6" stroke-opacity="0.5" stroke-width="0.5"/>
<line x1="760.25" y1="1" x2="760.25" y2="933" stroke="#FDF5E6" stroke-opacity="0.5" stroke-width="0.5"/>
<line x1="440.25" y1="1" x2="440.25" y2="963" stroke="#FDF5E6" stroke-opacity="0.5" stroke-width="0.5"/>
<line x1="1080.25" y1="1" x2="1080.25" y2="814" stroke="#FDF5E6" stroke-opacity="0.5" stroke-width="0.5"/>
<line x1="1460.25" y1="239" x2="1460.25" y2="894" stroke="#FDF5E6" stroke-opacity="0.5" stroke-width="0.5"/>
<line x1="280.25" y1="1" x2="280.25" y2="962" stroke="#FDF5E6" stroke-opacity="0.5" stroke-width="0.5"/>
<line x1="920.25" y1="239" x2="920.25" y2="963" stroke="#FDF5E6" stroke-opacity="0.5" stroke-width="0.5"/>
<line x1="1300.25" y1="239" x2="1300.25" y2="616" stroke="#FDF5E6" stroke-opacity="0.5" stroke-width="0.5"/>
<line x1="600.25" y1="1" x2="600.25" y2="963" stroke="#FDF5E6" stroke-opacity="0.5" stroke-width="0.5"/>
<line x1="1240.25" y1="120" x2="1240.25" y2="893" stroke="#FDF5E6" stroke-opacity="0.5" stroke-width="0.5"/>
<line x1="1620.25" y1="299" x2="1620.25" y2="963" stroke="#FDF5E6" stroke-opacity="0.5" stroke-width="0.5"/>
<line x1="80.25" y1="1" x2="80.25" y2="963" stroke="#FDF5E6" stroke-opacity="0.5" stroke-width="0.5"/>
<line x1="400.25" y1="1" x2="400.25" y2="963" stroke="#FDF5E6" stroke-opacity="0.5" stroke-width="0.5"/>
<line x1="240.25" y1="1" x2="240.25" y2="963" stroke="#FDF5E6" stroke-opacity="0.5" stroke-width="0.5"/>
<line x1="880.25" y1="21" x2="880.25" y2="963" stroke="#FDF5E6" stroke-opacity="0.5" stroke-width="0.5"/>
<line x1="560.25" y1="1" x2="560.25" y2="963" stroke="#FDF5E6" stroke-opacity="0.5" stroke-width="0.5"/>
<line x1="1200.25" y1="1" x2="1200.25" y2="963" stroke="#FDF5E6" stroke-opacity="0.5" stroke-width="0.5"/>
<line x1="1580.25" y1="21" x2="1580.25" y2="913" stroke="#FDF5E6" stroke-opacity="0.5" stroke-width="0.5"/>
<line x1="160.25" y1="1" x2="160.25" y2="963" stroke="#FDF5E6" stroke-opacity="0.5" stroke-width="0.5"/>
<line x1="800.25" y1="1" x2="800.25" y2="963" stroke="#FDF5E6" stroke-opacity="0.5" stroke-width="0.5"/>
<line x1="480.25" y1="1" x2="480.25" y2="963" stroke="#FDF5E6" stroke-opacity="0.5" stroke-width="0.5"/>
<path d="M1120 61L1120 537" stroke="#FDF5E6" stroke-opacity="0.5" stroke-width="0.5"/>
<line x1="1500.25" y1="140" x2="1500.25" y2="854" stroke="#FDF5E6" stroke-opacity="0.5" stroke-width="0.5"/>
<line x1="320.25" y1="1" x2="320.25" y2="962" stroke="#FDF5E6" stroke-opacity="0.5" stroke-width="0.5"/>
<line x1="960.25" y1="100" x2="960.25" y2="933" stroke="#FDF5E6" stroke-opacity="0.5" stroke-width="0.5"/>
<line x1="1328.25" y1="80" x2="1328.25" y2="964" stroke="#FDF5E6" stroke-opacity="0.5" stroke-width="0.5"/>
<line x1="640.25" y1="1" x2="640.25" y2="963" stroke="#FDF5E6" stroke-opacity="0.5" stroke-width="0.5"/>
<line x1="1" y1="774.75" x2="1460" y2="774.75" stroke="#FDF5E6" stroke-opacity="0.5" stroke-width="0.5"/>
<line x1="1" y1="397.75" x2="1620" y2="397.75" stroke="#FDF5E6" stroke-opacity="0.5" stroke-width="0.5"/>
<line x1="1" y1="932.75" x2="1759" y2="932.75" stroke="#FDF5E6" stroke-opacity="0.5" stroke-width="0.5"/>
<line x1="1" y1="615.75" x2="1328" y2="615.75" stroke="#FDF5E6" stroke-opacity="0.5" stroke-width="0.5"/>
<line x1="1" y1="238.75" x2="1460" y2="238.75" stroke="#FDF5E6" stroke-opacity="0.5" stroke-width="0.5"/>
<line x1="1" y1="694.75" x2="960" y2="694.75" stroke="#FDF5E6" stroke-opacity="0.5" stroke-width="0.5"/>
<line x1="1" y1="317.75" x2="1460" y2="317.75" stroke="#FDF5E6" stroke-opacity="0.5" stroke-width="0.5"/>
<line x1="1" y1="853.75" x2="1500" y2="853.75" stroke="#FDF5E6" stroke-opacity="0.5" stroke-width="0.5"/>
<line x1="1.79666e-08" y1="536.75" x2="1060" y2="536.75" stroke="#FDF5E6" stroke-opacity="0.5" stroke-width="0.5"/>
<line x1="1" y1="159.75" x2="840" y2="159.75" stroke="#FDF5E6" stroke-opacity="0.5" stroke-width="0.5"/>
<line x1="1" y1="79.75" x2="1759" y2="79.7501" stroke="#FDF5E6" stroke-opacity="0.5" stroke-width="0.5"/>
<line x1="1" y1="734.75" x2="1460" y2="734.75" stroke="#FDF5E6" stroke-opacity="0.5" stroke-width="0.5"/>
<line x1="1" y1="357.75" x2="1759" y2="357.75" stroke="#FDF5E6" stroke-opacity="0.5" stroke-width="0.5"/>
<line x1="1" y1="893.75" x2="1540" y2="893.75" stroke="#FDF5E6" stroke-opacity="0.5" stroke-width="0.5"/>
<line x1="1" y1="575.75" x2="1540" y2="575.75" stroke="#FDF5E6" stroke-opacity="0.5" stroke-width="0.5"/>
<line x1="1" y1="198.75" x2="1759" y2="198.75" stroke="#FDF5E6" stroke-opacity="0.5" stroke-width="0.5"/>
<line x1="1" y1="655.75" x2="1480" y2="655.75" stroke="#FDF5E6" stroke-opacity="0.5" stroke-width="0.5"/>
<line x1="1" y1="278.75" x2="1080" y2="278.75" stroke="#FDF5E6" stroke-opacity="0.5" stroke-width="0.5"/>
<line x1="1" y1="813.75" x2="1759" y2="813.75" stroke="#FDF5E6" stroke-opacity="0.5" stroke-width="0.5"/>
<line x1="1" y1="436.75" x2="1120" y2="436.75" stroke="#FDF5E6" stroke-opacity="0.5" stroke-width="0.5"/>
<line x1="1.79666e-08" y1="496.75" x2="1200" y2="496.75" stroke="#FDF5E6" stroke-opacity="0.5" stroke-width="0.5"/>
<line x1="1" y1="119.75" x2="1640" y2="119.75" stroke="#FDF5E6" stroke-opacity="0.5" stroke-width="0.5"/>
<line x1="1" y1="40.75" x2="1400" y2="40.7501" stroke="#FDF5E6" stroke-opacity="0.5" stroke-width="0.5"/>
<line x1="1" y1="754.75" x2="940" y2="754.75" stroke="#FDF5E6" stroke-opacity="0.5" stroke-width="0.5"/>
<line x1="1" y1="377.75" x2="1260" y2="377.75" stroke="#FDF5E6" stroke-opacity="0.5" stroke-width="0.5"/>
<line x1="1" y1="912.75" x2="1580" y2="912.75" stroke="#FDF5E6" stroke-opacity="0.5" stroke-width="0.5"/>
<line x1="1" y1="595.75" x2="1620" y2="595.75" stroke="#FDF5E6" stroke-opacity="0.5" stroke-width="0.5"/>
<line x1="1" y1="218.75" x2="1200" y2="218.75" stroke="#FDF5E6" stroke-opacity="0.5" stroke-width="0.5"/>
<line x1="1" y1="674.75" x2="1620" y2="674.75" stroke="#FDF5E6" stroke-opacity="0.5" stroke-width="0.5"/>
<line x1="1" y1="298.75" x2="1759" y2="298.75" stroke="#FDF5E6" stroke-opacity="0.5" stroke-width="0.5"/>
<line x1="1" y1="833.75" x2="880" y2="833.75" stroke="#FDF5E6" stroke-opacity="0.5" stroke-width="0.5"/>
<line x1="1" y1="456.75" x2="880" y2="456.75" stroke="#FDF5E6" stroke-opacity="0.5" stroke-width="0.5"/>
<line x1="1.79666e-08" y1="516.75" x2="1759" y2="516.75" stroke="#FDF5E6" stroke-opacity="0.5" stroke-width="0.5"/>
<line x1="1" y1="139.75" x2="1600" y2="139.75" stroke="#FDF5E6" stroke-opacity="0.5" stroke-width="0.5"/>
<line x1="1" y1="60.75" x2="1400" y2="60.7501" stroke="#FDF5E6" stroke-opacity="0.5" stroke-width="0.5"/>
<line x1="1" y1="714.75" x2="1500" y2="714.75" stroke="#FDF5E6" stroke-opacity="0.5" stroke-width="0.5"/>
<line x1="1" y1="337.75" x2="1540" y2="337.75" stroke="#FDF5E6" stroke-opacity="0.5" stroke-width="0.5"/>
<line x1="1" y1="873.75" x2="780" y2="873.75" stroke="#FDF5E6" stroke-opacity="0.5" stroke-width="0.5"/>
<line x1="1" y1="555.75" x2="1300" y2="555.75" stroke="#FDF5E6" stroke-opacity="0.5" stroke-width="0.5"/>
<line x1="1" y1="179.75" x2="1640" y2="179.75" stroke="#FDF5E6" stroke-opacity="0.5" stroke-width="0.5"/>
<line x1="1" y1="952.75" x2="1060" y2="952.75" stroke="#FDF5E6" stroke-opacity="0.5" stroke-width="0.5"/>
<line x1="1" y1="635.75" x2="1080" y2="635.75" stroke="#FDF5E6" stroke-opacity="0.5" stroke-width="0.5"/>
<line x1="1" y1="258.75" x2="1500" y2="258.75" stroke="#FDF5E6" stroke-opacity="0.5" stroke-width="0.5"/>
<line x1="1" y1="793.75" x2="1380" y2="793.75" stroke="#FDF5E6" stroke-opacity="0.5" stroke-width="0.5"/>
<line x1="1" y1="417.75" x2="1328" y2="417.75" stroke="#FDF5E6" stroke-opacity="0.5" stroke-width="0.5"/>
<line x1="1.79666e-08" y1="476.75" x2="1680" y2="476.75" stroke="#FDF5E6" stroke-opacity="0.5" stroke-width="0.5"/>
<line x1="1" y1="99.75" x2="1160" y2="99.7501" stroke="#FDF5E6" stroke-opacity="0.5" stroke-width="0.5"/>
<line x1="1" y1="20.75" x2="1759" y2="20.7501" stroke="#FDF5E6" stroke-opacity="0.5" stroke-width="0.5"/>
</g>
</svg>
