<svg width="1920" height="1196" viewBox="0 0 1920 1196" fill="none" xmlns="http://www.w3.org/2000/svg">
<rect x="-130.534" y="1.25" width="2181.07" height="1193.5" fill="#003A6C" stroke="#003A6C" stroke-width="2.5"/>
<g opacity="0.7">
<line x1="687.304" y1="1.24023" x2="687.304" y2="985.087" stroke="#FDF5E6" stroke-opacity="0.5" stroke-width="0.5"/>
<line x1="290.292" y1="1.24023" x2="290.292" y2="1194.76" stroke="#FDF5E6" stroke-opacity="0.5" stroke-width="0.5"/>
<line x1="91.7852" y1="1.24023" x2="91.7851" y2="1194.76" stroke="#FDF5E6" stroke-opacity="0.5" stroke-width="0.5"/>
<line x1="885.81" y1="1.24023" x2="885.81" y2="1182.35" stroke="#FDF5E6" stroke-opacity="0.5" stroke-width="0.5"/>
<line x1="488.798" y1="1.24023" x2="488.798" y2="1194.76" stroke="#FDF5E6" stroke-opacity="0.5" stroke-width="0.5"/>
<line x1="389.544" y1="1.24023" x2="389.544" y2="1194.76" stroke="#FDF5E6" stroke-opacity="0.5" stroke-width="0.5"/>
<line x1="1183.57" y1="173.693" x2="1183.57" y2="1194.76" stroke="#FDF5E6" stroke-opacity="0.5" stroke-width="0.5"/>
<line x1="1655.02" y1="148.88" x2="1655.02" y2="1194.76" stroke="#FDF5E6" stroke-opacity="0.5" stroke-width="0.5"/>
<line x1="191.039" y1="1.24023" x2="191.039" y2="1193.52" stroke="#FDF5E6" stroke-opacity="0.5" stroke-width="0.5"/>
<line x1="588.051" y1="1.24023" x2="588.051" y2="1194.76" stroke="#FDF5E6" stroke-opacity="0.5" stroke-width="0.5"/>
<line x1="1853.53" y1="1.24023" x2="1853.53" y2="1194.76" stroke="#FDF5E6" stroke-opacity="0.5" stroke-width="0.5"/>
<line x1="736.931" y1="1.24023" x2="736.931" y2="1059.53" stroke="#FDF5E6" stroke-opacity="0.5" stroke-width="0.5"/>
<line x1="339.918" y1="1.24023" x2="339.918" y2="1194.76" stroke="#FDF5E6" stroke-opacity="0.5" stroke-width="0.5"/>
<line x1="1605.4" y1="50.8672" x2="1605.4" y2="961.514" stroke="#FDF5E6" stroke-opacity="0.5" stroke-width="0.5"/>
<line x1="141.412" y1="1.24023" x2="141.412" y2="1194.76" stroke="#FDF5E6" stroke-opacity="0.5" stroke-width="0.5"/>
<line x1="538.424" y1="1.24023" x2="538.424" y2="1194.76" stroke="#FDF5E6" stroke-opacity="0.5" stroke-width="0.5"/>
<line x1="42.1587" y1="1.24023" x2="42.1586" y2="1194.76" stroke="#FDF5E6" stroke-opacity="0.5" stroke-width="0.5"/>
<line x1="836.184" y1="75.6807" x2="836.184" y2="1084.34" stroke="#FDF5E6" stroke-opacity="0.5" stroke-width="0.5"/>
<line x1="439.171" y1="1.24023" x2="439.171" y2="1194.76" stroke="#FDF5E6" stroke-opacity="0.5" stroke-width="0.5"/>
<line x1="1233.2" y1="246.893" x2="1233.2" y2="961.515" stroke="#FDF5E6" stroke-opacity="0.5" stroke-width="0.5"/>
<line x1="1704.65" y1="1.24023" x2="1704.65" y2="1194.76" stroke="#FDF5E6" stroke-opacity="0.5" stroke-width="0.5"/>
<line x1="240.665" y1="1.24023" x2="240.665" y2="1193.52" stroke="#FDF5E6" stroke-opacity="0.5" stroke-width="0.5"/>
<path d="M1034.75 174.313L1034.75 1009.9" stroke="#FDF5E6" stroke-opacity="0.5" stroke-width="0.5"/>
<line x1="637.677" y1="1.24023" x2="637.677" y2="1194.76" stroke="#FDF5E6" stroke-opacity="0.5" stroke-width="0.5"/>
<line x1="1431.7" y1="296.519" x2="1431.7" y2="689.809" stroke="#FDF5E6" stroke-opacity="0.5" stroke-width="0.5"/>
<line x1="1903.15" y1="148.88" x2="1903.15" y2="1009.9" stroke="#FDF5E6" stroke-opacity="0.5" stroke-width="0.5"/>
<line x1="712.117" y1="148.88" x2="712.117" y2="1194.76" stroke="#FDF5E6" stroke-opacity="0.5" stroke-width="0.5"/>
<line x1="315.105" y1="1.24023" x2="315.105" y2="1194.76" stroke="#FDF5E6" stroke-opacity="0.5" stroke-width="0.5"/>
<path d="M1580.33 246.893L1580.33 985.088" stroke="#FDF5E6" stroke-opacity="0.5" stroke-width="0.5"/>
<line x1="116.599" y1="1.24023" x2="116.599" y2="1194.76" stroke="#FDF5E6" stroke-opacity="0.5" stroke-width="0.5"/>
<line x1="910.624" y1="1.24023" x2="910.623" y2="911.888" stroke="#FDF5E6" stroke-opacity="0.5" stroke-width="0.5"/>
<line x1="513.611" y1="1.24023" x2="513.611" y2="1194.76" stroke="#FDF5E6" stroke-opacity="0.5" stroke-width="0.5"/>
<line x1="1307.64" y1="1.24023" x2="1307.64" y2="1194.76" stroke="#FDF5E6" stroke-opacity="0.5" stroke-width="0.5"/>
<line x1="1779.09" y1="1.24023" x2="1779.09" y2="1194.76" stroke="#FDF5E6" stroke-opacity="0.5" stroke-width="0.5"/>
<line x1="17.3452" y1="1.24023" x2="17.3452" y2="1194.76" stroke="#FDF5E6" stroke-opacity="0.5" stroke-width="0.5"/>
<line x1="811.37" y1="1.24023" x2="811.37" y2="1157.54" stroke="#FDF5E6" stroke-opacity="0.5" stroke-width="0.5"/>
<line x1="414.358" y1="1.24023" x2="414.358" y2="1194.76" stroke="#FDF5E6" stroke-opacity="0.5" stroke-width="0.5"/>
<line x1="1208.38" y1="1.24023" x2="1208.38" y2="1009.9" stroke="#FDF5E6" stroke-opacity="0.5" stroke-width="0.5"/>
<line x1="1679.83" y1="296.519" x2="1679.83" y2="1109.15" stroke="#FDF5E6" stroke-opacity="0.5" stroke-width="0.5"/>
<line x1="215.852" y1="1.24023" x2="215.852" y2="1193.52" stroke="#FDF5E6" stroke-opacity="0.5" stroke-width="0.5"/>
<line x1="1009.88" y1="296.519" x2="1009.88" y2="1194.76" stroke="#FDF5E6" stroke-opacity="0.5" stroke-width="0.5"/>
<line x1="1481.33" y1="296.519" x2="1481.33" y2="764.249" stroke="#FDF5E6" stroke-opacity="0.5" stroke-width="0.5"/>
<line x1="612.864" y1="1.24023" x2="612.864" y2="1194.76" stroke="#FDF5E6" stroke-opacity="0.5" stroke-width="0.5"/>
<line x1="1406.89" y1="148.88" x2="1406.89" y2="1107.91" stroke="#FDF5E6" stroke-opacity="0.5" stroke-width="0.5"/>
<line x1="1878.34" y1="370.959" x2="1878.34" y2="1194.76" stroke="#FDF5E6" stroke-opacity="0.5" stroke-width="0.5"/>
<line x1="364.731" y1="1.24023" x2="364.732" y2="1194.76" stroke="#FDF5E6" stroke-opacity="0.5" stroke-width="0.5"/>
<line x1="166.225" y1="1.24023" x2="166.225" y2="1194.76" stroke="#FDF5E6" stroke-opacity="0.5" stroke-width="0.5"/>
<line x1="960.25" y1="26.0537" x2="960.25" y2="1194.76" stroke="#FDF5E6" stroke-opacity="0.5" stroke-width="0.5"/>
<line x1="563.237" y1="1.24023" x2="563.237" y2="1194.76" stroke="#FDF5E6" stroke-opacity="0.5" stroke-width="0.5"/>
<line x1="1357.26" y1="1.24023" x2="1357.26" y2="1194.76" stroke="#FDF5E6" stroke-opacity="0.5" stroke-width="0.5"/>
<line x1="1828.71" y1="26.0537" x2="1828.71" y2="1132.73" stroke="#FDF5E6" stroke-opacity="0.5" stroke-width="0.5"/>
<line x1="66.9722" y1="1.24023" x2="66.9721" y2="1194.76" stroke="#FDF5E6" stroke-opacity="0.5" stroke-width="0.5"/>
<line x1="860.997" y1="1.24023" x2="860.997" y2="1194.76" stroke="#FDF5E6" stroke-opacity="0.5" stroke-width="0.5"/>
<line x1="463.984" y1="1.24023" x2="463.984" y2="1194.76" stroke="#FDF5E6" stroke-opacity="0.5" stroke-width="0.5"/>
<path d="M1257.76 75.6807L1257.76 666.237" stroke="#FDF5E6" stroke-opacity="0.5" stroke-width="0.5"/>
<line x1="1729.46" y1="173.693" x2="1729.46" y2="1059.53" stroke="#FDF5E6" stroke-opacity="0.5" stroke-width="0.5"/>
<line x1="265.478" y1="1.24023" x2="265.478" y2="1193.52" stroke="#FDF5E6" stroke-opacity="0.5" stroke-width="0.5"/>
<line x1="1059.5" y1="124.066" x2="1059.5" y2="1157.54" stroke="#FDF5E6" stroke-opacity="0.5" stroke-width="0.5"/>
<line x1="1516.07" y1="99.2529" x2="1516.07" y2="1196" stroke="#FDF5E6" stroke-opacity="0.5" stroke-width="0.5"/>
<line x1="662.491" y1="1.24023" x2="662.491" y2="1194.76" stroke="#FDF5E6" stroke-opacity="0.5" stroke-width="0.5"/>
<line x1="-130.543" y1="961.265" x2="1679.59" y2="961.265" stroke="#FDF5E6" stroke-opacity="0.5" stroke-width="0.5"/>
<line x1="-130.543" y1="493.534" x2="1878.09" y2="493.534" stroke="#FDF5E6" stroke-opacity="0.5" stroke-width="0.5"/>
<line x1="-130.543" y1="1157.29" x2="2050.54" y2="1157.29" stroke="#FDF5E6" stroke-opacity="0.5" stroke-width="0.5"/>
<line x1="-130.543" y1="763.999" x2="1515.82" y2="763.999" stroke="#FDF5E6" stroke-opacity="0.5" stroke-width="0.5"/>
<line x1="-130.543" y1="296.269" x2="1679.59" y2="296.269" stroke="#FDF5E6" stroke-opacity="0.5" stroke-width="0.5"/>
<line x1="-130.543" y1="862.012" x2="1059.25" y2="862.012" stroke="#FDF5E6" stroke-opacity="0.5" stroke-width="0.5"/>
<line x1="-130.543" y1="394.281" x2="1679.59" y2="394.281" stroke="#FDF5E6" stroke-opacity="0.5" stroke-width="0.5"/>
<line x1="-130.543" y1="1059.28" x2="1729.21" y2="1059.28" stroke="#FDF5E6" stroke-opacity="0.5" stroke-width="0.5"/>
<line x1="-131.784" y1="665.986" x2="1183.32" y2="665.986" stroke="#FDF5E6" stroke-opacity="0.5" stroke-width="0.5"/>
<line x1="-130.543" y1="198.256" x2="910.374" y2="198.256" stroke="#FDF5E6" stroke-opacity="0.5" stroke-width="0.5"/>
<line x1="-130.543" y1="99.0029" x2="2050.54" y2="99.003" stroke="#FDF5E6" stroke-opacity="0.5" stroke-width="0.5"/>
<line x1="-130.543" y1="911.638" x2="1679.59" y2="911.638" stroke="#FDF5E6" stroke-opacity="0.5" stroke-width="0.5"/>
<line x1="-130.543" y1="443.907" x2="2050.54" y2="443.907" stroke="#FDF5E6" stroke-opacity="0.5" stroke-width="0.5"/>
<line x1="-130.543" y1="1108.9" x2="1778.84" y2="1108.9" stroke="#FDF5E6" stroke-opacity="0.5" stroke-width="0.5"/>
<line x1="-130.543" y1="714.372" x2="1778.84" y2="714.372" stroke="#FDF5E6" stroke-opacity="0.5" stroke-width="0.5"/>
<line x1="-130.543" y1="246.643" x2="2050.54" y2="246.643" stroke="#FDF5E6" stroke-opacity="0.5" stroke-width="0.5"/>
<line x1="-130.543" y1="813.625" x2="1704.4" y2="813.625" stroke="#FDF5E6" stroke-opacity="0.5" stroke-width="0.5"/>
<line x1="-130.543" y1="345.896" x2="1208.13" y2="345.896" stroke="#FDF5E6" stroke-opacity="0.5" stroke-width="0.5"/>
<line x1="-130.543" y1="1009.65" x2="2050.54" y2="1009.65" stroke="#FDF5E6" stroke-opacity="0.5" stroke-width="0.5"/>
<line x1="-130.543" y1="541.92" x2="1257.76" y2="541.92" stroke="#FDF5E6" stroke-opacity="0.5" stroke-width="0.5"/>
<line x1="-131.784" y1="616.36" x2="1357.01" y2="616.36" stroke="#FDF5E6" stroke-opacity="0.5" stroke-width="0.5"/>
<line x1="-130.543" y1="148.63" x2="1902.9" y2="148.63" stroke="#FDF5E6" stroke-opacity="0.5" stroke-width="0.5"/>
<line x1="-130.543" y1="50.6172" x2="1605.15" y2="50.6173" stroke="#FDF5E6" stroke-opacity="0.5" stroke-width="0.5"/>
<line x1="-130.543" y1="936.451" x2="1034.44" y2="936.451" stroke="#FDF5E6" stroke-opacity="0.5" stroke-width="0.5"/>
<line x1="-130.543" y1="468.721" x2="1431.45" y2="468.721" stroke="#FDF5E6" stroke-opacity="0.5" stroke-width="0.5"/>
<line x1="-130.543" y1="1132.48" x2="1828.46" y2="1132.48" stroke="#FDF5E6" stroke-opacity="0.5" stroke-width="0.5"/>
<line x1="-130.543" y1="739.186" x2="1878.09" y2="739.186" stroke="#FDF5E6" stroke-opacity="0.5" stroke-width="0.5"/>
<line x1="-130.543" y1="271.455" x2="1357.01" y2="271.455" stroke="#FDF5E6" stroke-opacity="0.5" stroke-width="0.5"/>
<line x1="-130.543" y1="837.198" x2="1878.09" y2="837.198" stroke="#FDF5E6" stroke-opacity="0.5" stroke-width="0.5"/>
<line x1="-130.543" y1="370.709" x2="2050.54" y2="370.709" stroke="#FDF5E6" stroke-opacity="0.5" stroke-width="0.5"/>
<line x1="-130.543" y1="1034.46" x2="960" y2="1034.46" stroke="#FDF5E6" stroke-opacity="0.5" stroke-width="0.5"/>
<line x1="-130.543" y1="566.733" x2="960" y2="566.733" stroke="#FDF5E6" stroke-opacity="0.5" stroke-width="0.5"/>
<line x1="-131.784" y1="641.173" x2="2050.54" y2="641.173" stroke="#FDF5E6" stroke-opacity="0.5" stroke-width="0.5"/>
<line x1="-130.543" y1="173.443" x2="1853.28" y2="173.443" stroke="#FDF5E6" stroke-opacity="0.5" stroke-width="0.5"/>
<line x1="-130.543" y1="75.4307" x2="1605.15" y2="75.4307" stroke="#FDF5E6" stroke-opacity="0.5" stroke-width="0.5"/>
<line x1="-130.543" y1="886.824" x2="1729.21" y2="886.824" stroke="#FDF5E6" stroke-opacity="0.5" stroke-width="0.5"/>
<line x1="-130.543" y1="419.095" x2="1778.84" y2="419.095" stroke="#FDF5E6" stroke-opacity="0.5" stroke-width="0.5"/>
<line x1="-130.543" y1="1084.09" x2="835.934" y2="1084.09" stroke="#FDF5E6" stroke-opacity="0.5" stroke-width="0.5"/>
<line x1="-130.543" y1="689.56" x2="1481.08" y2="689.56" stroke="#FDF5E6" stroke-opacity="0.5" stroke-width="0.5"/>
<line x1="-130.543" y1="223.069" x2="1902.9" y2="223.069" stroke="#FDF5E6" stroke-opacity="0.5" stroke-width="0.5"/>
<line x1="-130.543" y1="1182.1" x2="1183.32" y2="1182.1" stroke="#FDF5E6" stroke-opacity="0.5" stroke-width="0.5"/>
<line x1="-130.543" y1="788.812" x2="1208.13" y2="788.813" stroke="#FDF5E6" stroke-opacity="0.5" stroke-width="0.5"/>
<line x1="-130.543" y1="321.082" x2="1729.21" y2="321.082" stroke="#FDF5E6" stroke-opacity="0.5" stroke-width="0.5"/>
<line x1="-130.543" y1="984.837" x2="1580.33" y2="984.837" stroke="#FDF5E6" stroke-opacity="0.5" stroke-width="0.5"/>
<line x1="-130.543" y1="518.348" x2="1515.82" y2="518.348" stroke="#FDF5E6" stroke-opacity="0.5" stroke-width="0.5"/>
<line x1="-131.784" y1="591.547" x2="1952.53" y2="591.547" stroke="#FDF5E6" stroke-opacity="0.5" stroke-width="0.5"/>
<line x1="-130.543" y1="123.816" x2="1307.39" y2="123.816" stroke="#FDF5E6" stroke-opacity="0.5" stroke-width="0.5"/>
<line x1="-130.543" y1="25.8037" x2="2050.54" y2="25.8038" stroke="#FDF5E6" stroke-opacity="0.5" stroke-width="0.5"/>
</g>
</svg>
