<svg width="432" height="1170" viewBox="0 0 432 1170" fill="none" xmlns="http://www.w3.org/2000/svg">
<circle cx="7" cy="125" r="6" fill="#92E6A7"/>
<circle cx="39" cy="125" r="6" fill="#92E6A7"/>
<circle cx="59" cy="125" r="6" fill="#92E6A7"/>
<circle cx="79" cy="125" r="6" fill="#92E6A7"/>
<circle cx="125" cy="125" r="6" fill="#92E6A7"/>
<circle cx="159" cy="125" r="6" fill="#92E6A7"/>
<circle cx="185" cy="125" r="6" fill="#92E6A7"/>
<circle cx="205" cy="125" r="6" fill="#92E6A7"/>
<circle cx="219" cy="125" r="6" fill="#92E6A7"/>
<circle cx="259" cy="125" r="6" fill="#92E6A7"/>
<circle cx="279" cy="125" r="6" fill="#92E6A7"/>
<circle cx="304" cy="125" r="6" fill="#92E6A7"/>
<circle cx="325" cy="125" r="6" fill="#92E6A7"/>
<circle cx="345" cy="125" r="6" fill="#92E6A7"/>
<circle cx="359" cy="125" r="6" fill="#92E6A7"/>
<circle cx="386" cy="125" r="6" fill="#92E6A7"/>
<circle cx="405" cy="125" r="6" fill="#92E6A7"/>
<circle cx="426" cy="125" r="6" fill="#92E6A7"/>
<circle cx="105" cy="125" r="6" fill="#92E6A7"/>
<circle cx="6" cy="57" r="6" fill="#92E6A7"/>
<circle cx="7" cy="91" r="6" fill="#92E6A7"/>
<circle cx="6" cy="23" r="6" fill="#92E6A7"/>
<circle cx="7" cy="108" r="6" fill="#92E6A7"/>
<circle cx="6" cy="40" r="6" fill="#92E6A7"/>
<circle cx="7" cy="74" r="6" fill="#92E6A7"/>
<circle cx="6" cy="6" r="6" fill="#92E6A7"/>
<circle cx="38" cy="57" r="6" fill="#92E6A7"/>
<circle cx="39" cy="91" r="6" fill="#92E6A7"/>
<circle cx="38" cy="23" r="6" fill="#92E6A7"/>
<circle cx="39" cy="108" r="6" fill="#92E6A7"/>
<circle cx="38" cy="40" r="6" fill="#92E6A7"/>
<circle cx="39" cy="74" r="6" fill="#92E6A7"/>
<circle cx="38" cy="6" r="6" fill="#92E6A7"/>
<circle cx="58" cy="57" r="6" fill="#92E6A7"/>
<circle cx="59" cy="91" r="6" fill="#92E6A7"/>
<circle cx="58" cy="23" r="6" fill="#92E6A7"/>
<circle cx="59" cy="108" r="6" fill="#92E6A7"/>
<circle cx="58" cy="40" r="6" fill="#92E6A7"/>
<circle cx="59" cy="74" r="6" fill="#92E6A7"/>
<circle cx="58" cy="6" r="6" fill="#92E6A7"/>
<circle cx="78" cy="57" r="6" fill="#92E6A7"/>
<circle cx="79" cy="91" r="6" fill="#92E6A7"/>
<circle cx="78" cy="23" r="6" fill="#92E6A7"/>
<circle cx="79" cy="108" r="6" fill="#92E6A7"/>
<circle cx="78" cy="40" r="6" fill="#92E6A7"/>
<circle cx="79" cy="74" r="6" fill="#92E6A7"/>
<circle cx="78" cy="6" r="6" fill="#92E6A7"/>
<circle cx="124" cy="57" r="6" fill="#92E6A7"/>
<circle cx="125" cy="91" r="6" fill="#92E6A7"/>
<circle cx="124" cy="23" r="6" fill="#92E6A7"/>
<circle cx="125" cy="108" r="6" fill="#92E6A7"/>
<circle cx="124" cy="40" r="6" fill="#92E6A7"/>
<circle cx="125" cy="74" r="6" fill="#92E6A7"/>
<circle cx="124" cy="6" r="6" fill="#92E6A7"/>
<circle cx="158" cy="57" r="6" fill="#92E6A7"/>
<circle cx="159" cy="91" r="6" fill="#92E6A7"/>
<circle cx="158" cy="23" r="6" fill="#92E6A7"/>
<circle cx="159" cy="108" r="6" fill="#92E6A7"/>
<circle cx="158" cy="40" r="6" fill="#92E6A7"/>
<circle cx="159" cy="74" r="6" fill="#92E6A7"/>
<circle cx="158" cy="6" r="6" fill="#92E6A7"/>
<circle cx="184" cy="57" r="6" fill="#92E6A7"/>
<circle cx="185" cy="91" r="6" fill="#92E6A7"/>
<circle cx="184" cy="23" r="6" fill="#92E6A7"/>
<circle cx="185" cy="108" r="6" fill="#92E6A7"/>
<circle cx="184" cy="40" r="6" fill="#92E6A7"/>
<circle cx="185" cy="74" r="6" fill="#92E6A7"/>
<circle cx="184" cy="6" r="6" fill="#92E6A7"/>
<circle cx="204" cy="57" r="6" fill="#92E6A7"/>
<circle cx="205" cy="91" r="6" fill="#92E6A7"/>
<circle cx="204" cy="23" r="6" fill="#92E6A7"/>
<circle cx="205" cy="108" r="6" fill="#92E6A7"/>
<circle cx="204" cy="40" r="6" fill="#92E6A7"/>
<circle cx="205" cy="74" r="6" fill="#92E6A7"/>
<circle cx="204" cy="6" r="6" fill="#92E6A7"/>
<circle cx="218" cy="57" r="6" fill="#92E6A7"/>
<circle cx="219" cy="91" r="6" fill="#92E6A7"/>
<circle cx="218" cy="23" r="6" fill="#92E6A7"/>
<circle cx="219" cy="108" r="6" fill="#92E6A7"/>
<circle cx="218" cy="40" r="6" fill="#92E6A7"/>
<circle cx="219" cy="74" r="6" fill="#92E6A7"/>
<circle cx="218" cy="6" r="6" fill="#92E6A7"/>
<circle cx="258" cy="57" r="6" fill="#92E6A7"/>
<circle cx="259" cy="91" r="6" fill="#92E6A7"/>
<circle cx="258" cy="23" r="6" fill="#92E6A7"/>
<circle cx="259" cy="108" r="6" fill="#92E6A7"/>
<circle cx="258" cy="40" r="6" fill="#92E6A7"/>
<circle cx="259" cy="74" r="6" fill="#92E6A7"/>
<circle cx="258" cy="6" r="6" fill="#92E6A7"/>
<circle cx="278" cy="57" r="6" fill="#92E6A7"/>
<circle cx="279" cy="91" r="6" fill="#92E6A7"/>
<circle cx="278" cy="23" r="6" fill="#92E6A7"/>
<circle cx="279" cy="108" r="6" fill="#92E6A7"/>
<circle cx="278" cy="40" r="6" fill="#92E6A7"/>
<circle cx="279" cy="74" r="6" fill="#92E6A7"/>
<circle cx="278" cy="6" r="6" fill="#92E6A7"/>
<circle cx="303" cy="57" r="6" fill="#92E6A7"/>
<circle cx="304" cy="91" r="6" fill="#92E6A7"/>
<circle cx="303" cy="23" r="6" fill="#92E6A7"/>
<circle cx="304" cy="108" r="6" fill="#92E6A7"/>
<circle cx="303" cy="40" r="6" fill="#92E6A7"/>
<circle cx="304" cy="74" r="6" fill="#92E6A7"/>
<circle cx="303" cy="6" r="6" fill="#92E6A7"/>
<circle cx="324" cy="57" r="6" fill="#92E6A7"/>
<circle cx="325" cy="91" r="6" fill="#92E6A7"/>
<circle cx="324" cy="23" r="6" fill="#92E6A7"/>
<circle cx="325" cy="108" r="6" fill="#92E6A7"/>
<circle cx="324" cy="40" r="6" fill="#92E6A7"/>
<circle cx="325" cy="74" r="6" fill="#92E6A7"/>
<circle cx="324" cy="6" r="6" fill="#92E6A7"/>
<circle cx="344" cy="57" r="6" fill="#92E6A7"/>
<circle cx="345" cy="91" r="6" fill="#92E6A7"/>
<circle cx="344" cy="23" r="6" fill="#92E6A7"/>
<circle cx="345" cy="108" r="6" fill="#92E6A7"/>
<circle cx="344" cy="40" r="6" fill="#92E6A7"/>
<circle cx="345" cy="74" r="6" fill="#92E6A7"/>
<circle cx="344" cy="6" r="6" fill="#92E6A7"/>
<circle cx="358" cy="57" r="6" fill="#92E6A7"/>
<circle cx="359" cy="91" r="6" fill="#92E6A7"/>
<circle cx="358" cy="23" r="6" fill="#92E6A7"/>
<circle cx="359" cy="108" r="6" fill="#92E6A7"/>
<circle cx="358" cy="40" r="6" fill="#92E6A7"/>
<circle cx="359" cy="74" r="6" fill="#92E6A7"/>
<circle cx="358" cy="6" r="6" fill="#92E6A7"/>
<circle cx="385" cy="57" r="6" fill="#92E6A7"/>
<circle cx="386" cy="91" r="6" fill="#92E6A7"/>
<circle cx="385" cy="23" r="6" fill="#92E6A7"/>
<circle cx="386" cy="108" r="6" fill="#92E6A7"/>
<circle cx="385" cy="40" r="6" fill="#92E6A7"/>
<circle cx="386" cy="74" r="6" fill="#92E6A7"/>
<circle cx="385" cy="6" r="6" fill="#92E6A7"/>
<circle cx="404" cy="57" r="6" fill="#92E6A7"/>
<circle cx="405" cy="91" r="6" fill="#92E6A7"/>
<circle cx="404" cy="23" r="6" fill="#92E6A7"/>
<circle cx="405" cy="108" r="6" fill="#92E6A7"/>
<circle cx="404" cy="40" r="6" fill="#92E6A7"/>
<circle cx="405" cy="74" r="6" fill="#92E6A7"/>
<circle cx="404" cy="6" r="6" fill="#92E6A7"/>
<circle cx="425" cy="57" r="6" fill="#92E6A7"/>
<circle cx="426" cy="91" r="6" fill="#92E6A7"/>
<circle cx="425" cy="23" r="6" fill="#92E6A7"/>
<circle cx="426" cy="108" r="6" fill="#92E6A7"/>
<circle cx="425" cy="40" r="6" fill="#92E6A7"/>
<circle cx="426" cy="74" r="6" fill="#92E6A7"/>
<circle cx="425" cy="6" r="6" fill="#92E6A7"/>
<circle cx="104" cy="57" r="6" fill="#92E6A7"/>
<circle cx="105" cy="91" r="6" fill="#92E6A7"/>
<circle cx="104" cy="23" r="6" fill="#92E6A7"/>
<circle cx="105" cy="108" r="6" fill="#92E6A7"/>
<circle cx="104" cy="40" r="6" fill="#92E6A7"/>
<circle cx="105" cy="74" r="6" fill="#92E6A7"/>
<circle cx="104" cy="6" r="6" fill="#92E6A7"/>
<circle cx="6" cy="1130" r="6" fill="#92E6A7"/>
<circle cx="7" cy="1164" r="6" fill="#92E6A7"/>
<circle cx="6" cy="1096" r="6" fill="#92E6A7"/>
<circle cx="6" cy="1113" r="6" fill="#92E6A7"/>
<circle cx="7" cy="1147" r="6" fill="#92E6A7"/>
<circle cx="38" cy="1130" r="6" fill="#92E6A7"/>
<circle cx="39" cy="1164" r="6" fill="#92E6A7"/>
<circle cx="38" cy="1096" r="6" fill="#92E6A7"/>
<circle cx="38" cy="1113" r="6" fill="#92E6A7"/>
<circle cx="39" cy="1147" r="6" fill="#92E6A7"/>
<circle cx="58" cy="1130" r="6" fill="#92E6A7"/>
<circle cx="59" cy="1164" r="6" fill="#92E6A7"/>
<circle cx="58" cy="1096" r="6" fill="#92E6A7"/>
<circle cx="58" cy="1113" r="6" fill="#92E6A7"/>
<circle cx="59" cy="1147" r="6" fill="#92E6A7"/>
<circle cx="78" cy="1130" r="6" fill="#92E6A7"/>
<circle cx="79" cy="1164" r="6" fill="#92E6A7"/>
<circle cx="78" cy="1096" r="6" fill="#92E6A7"/>
<circle cx="78" cy="1113" r="6" fill="#92E6A7"/>
<circle cx="79" cy="1147" r="6" fill="#92E6A7"/>
<circle cx="124" cy="1130" r="6" fill="#92E6A7"/>
<circle cx="125" cy="1164" r="6" fill="#92E6A7"/>
<circle cx="124" cy="1096" r="6" fill="#92E6A7"/>
<circle cx="124" cy="1113" r="6" fill="#92E6A7"/>
<circle cx="125" cy="1147" r="6" fill="#92E6A7"/>
<circle cx="158" cy="1130" r="6" fill="#92E6A7"/>
<circle cx="159" cy="1164" r="6" fill="#92E6A7"/>
<circle cx="158" cy="1096" r="6" fill="#92E6A7"/>
<circle cx="158" cy="1113" r="6" fill="#92E6A7"/>
<circle cx="159" cy="1147" r="6" fill="#92E6A7"/>
<circle cx="184" cy="1130" r="6" fill="#92E6A7"/>
<circle cx="185" cy="1164" r="6" fill="#92E6A7"/>
<circle cx="184" cy="1096" r="6" fill="#92E6A7"/>
<circle cx="184" cy="1113" r="6" fill="#92E6A7"/>
<circle cx="185" cy="1147" r="6" fill="#92E6A7"/>
<circle cx="204" cy="1130" r="6" fill="#92E6A7"/>
<circle cx="205" cy="1164" r="6" fill="#92E6A7"/>
<circle cx="204" cy="1096" r="6" fill="#92E6A7"/>
<circle cx="204" cy="1113" r="6" fill="#92E6A7"/>
<circle cx="205" cy="1147" r="6" fill="#92E6A7"/>
<circle cx="218" cy="1130" r="6" fill="#92E6A7"/>
<circle cx="219" cy="1164" r="6" fill="#92E6A7"/>
<circle cx="218" cy="1096" r="6" fill="#92E6A7"/>
<circle cx="218" cy="1113" r="6" fill="#92E6A7"/>
<circle cx="219" cy="1147" r="6" fill="#92E6A7"/>
<circle cx="258" cy="1130" r="6" fill="#92E6A7"/>
<circle cx="259" cy="1164" r="6" fill="#92E6A7"/>
<circle cx="258" cy="1096" r="6" fill="#92E6A7"/>
<circle cx="258" cy="1113" r="6" fill="#92E6A7"/>
<circle cx="259" cy="1147" r="6" fill="#92E6A7"/>
<circle cx="278" cy="1130" r="6" fill="#92E6A7"/>
<circle cx="279" cy="1164" r="6" fill="#92E6A7"/>
<circle cx="278" cy="1096" r="6" fill="#92E6A7"/>
<circle cx="278" cy="1113" r="6" fill="#92E6A7"/>
<circle cx="279" cy="1147" r="6" fill="#92E6A7"/>
<circle cx="303" cy="1130" r="6" fill="#92E6A7"/>
<circle cx="304" cy="1164" r="6" fill="#92E6A7"/>
<circle cx="303" cy="1096" r="6" fill="#92E6A7"/>
<circle cx="303" cy="1113" r="6" fill="#92E6A7"/>
<circle cx="304" cy="1147" r="6" fill="#92E6A7"/>
<circle cx="324" cy="1130" r="6" fill="#92E6A7"/>
<circle cx="325" cy="1164" r="6" fill="#92E6A7"/>
<circle cx="324" cy="1096" r="6" fill="#92E6A7"/>
<circle cx="324" cy="1113" r="6" fill="#92E6A7"/>
<circle cx="325" cy="1147" r="6" fill="#92E6A7"/>
<circle cx="344" cy="1130" r="6" fill="#92E6A7"/>
<circle cx="345" cy="1164" r="6" fill="#92E6A7"/>
<circle cx="344" cy="1096" r="6" fill="#92E6A7"/>
<circle cx="344" cy="1113" r="6" fill="#92E6A7"/>
<circle cx="345" cy="1147" r="6" fill="#92E6A7"/>
<circle cx="358" cy="1130" r="6" fill="#92E6A7"/>
<circle cx="359" cy="1164" r="6" fill="#92E6A7"/>
<circle cx="358" cy="1096" r="6" fill="#92E6A7"/>
<circle cx="358" cy="1113" r="6" fill="#92E6A7"/>
<circle cx="359" cy="1147" r="6" fill="#92E6A7"/>
<circle cx="385" cy="1130" r="6" fill="#92E6A7"/>
<circle cx="386" cy="1164" r="6" fill="#92E6A7"/>
<circle cx="385" cy="1096" r="6" fill="#92E6A7"/>
<circle cx="385" cy="1113" r="6" fill="#92E6A7"/>
<circle cx="386" cy="1147" r="6" fill="#92E6A7"/>
<circle cx="404" cy="1130" r="6" fill="#92E6A7"/>
<circle cx="405" cy="1164" r="6" fill="#92E6A7"/>
<circle cx="404" cy="1096" r="6" fill="#92E6A7"/>
<circle cx="404" cy="1113" r="6" fill="#92E6A7"/>
<circle cx="405" cy="1147" r="6" fill="#92E6A7"/>
<circle cx="425" cy="1130" r="6" fill="#92E6A7"/>
<circle cx="426" cy="1164" r="6" fill="#92E6A7"/>
<circle cx="425" cy="1096" r="6" fill="#92E6A7"/>
<circle cx="425" cy="1113" r="6" fill="#92E6A7"/>
<circle cx="426" cy="1147" r="6" fill="#92E6A7"/>
<circle cx="104" cy="1130" r="6" fill="#92E6A7"/>
<circle cx="105" cy="1164" r="6" fill="#92E6A7"/>
<circle cx="104" cy="1096" r="6" fill="#92E6A7"/>
<circle cx="104" cy="1113" r="6" fill="#92E6A7"/>
<circle cx="105" cy="1147" r="6" fill="#92E6A7"/>
<circle cx="6" cy="140" r="6" fill="#92E6A7"/>
<circle cx="38" cy="140" r="6" fill="#92E6A7"/>
<circle cx="58" cy="140" r="6" fill="#92E6A7"/>
<circle cx="58" cy="160" r="6" fill="#92E6A7"/>
<circle cx="78" cy="160" r="6" fill="#92E6A7"/>
<circle cx="78" cy="140" r="6" fill="#92E6A7"/>
<circle cx="78" cy="180" r="6" fill="#92E6A7"/>
<circle cx="58" cy="180" r="6" fill="#92E6A7"/>
<circle cx="58" cy="199" r="6" fill="#92E6A7"/>
<circle cx="6" cy="199" r="6" fill="#92E6A7"/>
<circle cx="78" cy="259" r="6" fill="#92E6A7"/>
<circle cx="104" cy="259" r="6" fill="#92E6A7"/>
<circle cx="78" cy="213" r="6" fill="#92E6A7"/>
<circle cx="104" cy="199" r="6" fill="#92E6A7"/>
<circle cx="124" cy="140" r="6" fill="#92E6A7"/>
<circle cx="158" cy="140" r="6" fill="#92E6A7"/>
<circle cx="158" cy="157" r="6" fill="#92E6A7"/>
<circle cx="158" cy="174" r="6" fill="#92E6A7"/>
<circle cx="158" cy="199" r="6" fill="#92E6A7"/>
<circle cx="184" cy="140" r="6" fill="#92E6A7"/>
<circle cx="204" cy="140" r="6" fill="#92E6A7"/>
<circle cx="218" cy="140" r="6" fill="#92E6A7"/>
<circle cx="218" cy="160" r="6" fill="#92E6A7"/>
<circle cx="218" cy="174" r="6" fill="#92E6A7"/>
<circle cx="218" cy="199" r="6" fill="#92E6A7"/>
<circle cx="218" cy="239" r="6" fill="#92E6A7"/>
<circle cx="218" cy="259" r="6" fill="#92E6A7"/>
<circle cx="178" cy="259" r="6" fill="#92E6A7"/>
<circle cx="178" cy="275" r="6" fill="#92E6A7"/>
<circle cx="178" cy="299" r="6" fill="#92E6A7"/>
<circle cx="206" cy="299" r="6" fill="#92E6A7"/>
<circle cx="218" cy="275" r="6" fill="#92E6A7"/>
<circle cx="258" cy="318" r="6" fill="#92E6A7"/>
<circle cx="278" cy="299" r="6" fill="#92E6A7"/>
<circle cx="358" cy="285" r="6" fill="#92E6A7"/>
<circle cx="358" cy="334" r="6" fill="#92E6A7"/>
<circle cx="384" cy="318" r="6" fill="#92E6A7"/>
<circle cx="424" cy="318" r="6" fill="#92E6A7"/>
<circle cx="404" cy="318" r="6" fill="#92E6A7"/>
<circle cx="278" cy="273" r="6" fill="#92E6A7"/>
<circle cx="278" cy="259" r="6" fill="#92E6A7"/>
<circle cx="118" cy="273" r="6" fill="#92E6A7"/>
<circle cx="118" cy="299" r="6" fill="#92E6A7"/>
<circle cx="118" cy="318" r="6" fill="#92E6A7"/>
<circle cx="258" cy="140" r="6" fill="#92E6A7"/>
<circle cx="258" cy="157" r="6" fill="#92E6A7"/>
<circle cx="258" cy="174" r="6" fill="#92E6A7"/>
<circle cx="258" cy="199" r="6" fill="#92E6A7"/>
<circle cx="278" cy="140" r="6" fill="#92E6A7"/>
<circle cx="278" cy="157" r="6" fill="#92E6A7"/>
<circle cx="278" cy="174" r="6" fill="#92E6A7"/>
<circle cx="278" cy="199" r="6" fill="#92E6A7"/>
<circle cx="278" cy="216" r="6" fill="#92E6A7"/>
<circle cx="278" cy="239" r="6" fill="#92E6A7"/>
<circle cx="303" cy="140" r="6" fill="#92E6A7"/>
<circle cx="324" cy="140" r="6" fill="#92E6A7"/>
<circle cx="344" cy="140" r="6" fill="#92E6A7"/>
<circle cx="358" cy="140" r="6" fill="#92E6A7"/>
<circle cx="385" cy="140" r="6" fill="#92E6A7"/>
<circle cx="404" cy="140" r="6" fill="#92E6A7"/>
<circle cx="425" cy="140" r="6" fill="#92E6A7"/>
<circle cx="425" cy="199" r="6" fill="#92E6A7"/>
<circle cx="404" cy="199" r="6" fill="#92E6A7"/>
<circle cx="385" cy="199" r="6" fill="#92E6A7"/>
<circle cx="358" cy="216" r="6" fill="#92E6A7"/>
<circle cx="358" cy="231" r="6" fill="#92E6A7"/>
<circle cx="301" cy="239" r="6" fill="#92E6A7"/>
<circle cx="318" cy="239" r="6" fill="#92E6A7"/>
<circle cx="318" cy="259" r="6" fill="#92E6A7"/>
<circle cx="358" cy="157" r="6" fill="#92E6A7"/>
<circle cx="358" cy="174" r="6" fill="#92E6A7"/>
<circle cx="358" cy="199" r="6" fill="#92E6A7"/>
<circle cx="158" cy="239" r="6" fill="#92E6A7"/>
<circle cx="158" cy="341" r="6" fill="#92E6A7"/>
<circle cx="178" cy="361" r="6" fill="#92E6A7"/>
<circle cx="178" cy="380" r="6" fill="#92E6A7"/>
<circle cx="179" cy="399" r="6" fill="#92E6A7"/>
<circle cx="178" cy="438" r="6" fill="#92E6A7"/>
<circle cx="159" cy="775" r="6" fill="#92E6A7"/>
<circle cx="139" cy="361" r="6" fill="#92E6A7"/>
<circle cx="118" cy="438" r="6" fill="#92E6A7"/>
<circle cx="78" cy="443" r="6" fill="#92E6A7"/>
<circle cx="78" cy="379" r="6" fill="#92E6A7"/>
<circle cx="219" cy="463" r="6" fill="#92E6A7"/>
<circle cx="219" cy="437" r="6" fill="#92E6A7"/>
<circle cx="218" cy="399" r="6" fill="#92E6A7"/>
<circle cx="258" cy="340" r="6" fill="#92E6A7"/>
<circle cx="258" cy="385" r="6" fill="#92E6A7"/>
<circle cx="278" cy="361" r="6" fill="#92E6A7"/>
<circle cx="278" cy="339" r="6" fill="#92E6A7"/>
<circle cx="298" cy="419" r="6" fill="#92E6A7"/>
<circle cx="318" cy="299" r="6" fill="#92E6A7"/>
<circle cx="299" cy="516" r="6" fill="#92E6A7"/>
<circle cx="278" cy="418" r="6" fill="#92E6A7"/>
<circle cx="258" cy="534" r="6" fill="#92E6A7"/>
<circle cx="218" cy="518" r="6" fill="#92E6A7"/>
<circle cx="194" cy="548" r="6" fill="#92E6A7"/>
<circle cx="178" cy="750" r="6" fill="#92E6A7"/>
<circle cx="158" cy="811" r="6" fill="#92E6A7"/>
<circle cx="138" cy="690" r="6" fill="#92E6A7"/>
<circle cx="118" cy="751" r="6" fill="#92E6A7"/>
<circle cx="78" cy="895" r="6" fill="#92E6A7"/>
<circle cx="66" cy="695" r="6" fill="#92E6A7"/>
<circle cx="78" cy="992" r="6" fill="#92E6A7"/>
<circle cx="118" cy="855" r="6" fill="#92E6A7"/>
<circle cx="138" cy="748" r="6" fill="#92E6A7"/>
<circle cx="158" cy="910" r="6" fill="#92E6A7"/>
<circle cx="179" cy="811" r="6" fill="#92E6A7"/>
<circle cx="218" cy="794" r="6" fill="#92E6A7"/>
<circle cx="258" cy="703" r="6" fill="#92E6A7"/>
<circle cx="278" cy="877" r="6" fill="#92E6A7"/>
<circle cx="298" cy="703" r="6" fill="#92E6A7"/>
<circle cx="318" cy="865" r="6" fill="#92E6A7"/>
<circle cx="318" cy="787" r="6" fill="#92E6A7"/>
<circle cx="318" cy="497" r="6" fill="#92E6A7"/>
<circle cx="298" cy="627" r="6" fill="#92E6A7"/>
<circle cx="278" cy="457" r="6" fill="#92E6A7"/>
<circle cx="258" cy="627" r="6" fill="#92E6A7"/>
<circle cx="218" cy="667" r="6" fill="#92E6A7"/>
<circle cx="118" cy="399" r="6" fill="#92E6A7"/>
<circle cx="139" cy="341" r="6" fill="#92E6A7"/>
<circle cx="158" cy="497" r="6" fill="#92E6A7"/>
<circle cx="58" cy="299" r="6" fill="#92E6A7"/>
<circle cx="78" cy="518" r="6" fill="#92E6A7"/>
<circle cx="118" cy="554" r="6" fill="#92E6A7"/>
<circle cx="138" cy="637" r="6" fill="#92E6A7"/>
<circle cx="138" cy="401" r="6" fill="#92E6A7"/>
<circle cx="178" cy="518" r="6" fill="#92E6A7"/>
<circle cx="219" cy="498" r="6" fill="#92E6A7"/>
<circle cx="178" cy="793" r="6" fill="#92E6A7"/>
<circle cx="158" cy="855" r="6" fill="#92E6A7"/>
<circle cx="218" cy="716" r="6" fill="#92E6A7"/>
<circle cx="278" cy="795" r="6" fill="#92E6A7"/>
<circle cx="278" cy="849" r="6" fill="#92E6A7"/>
<circle cx="318" cy="811" r="6" fill="#92E6A7"/>
<circle cx="218" cy="773" r="6" fill="#92E6A7"/>
<circle cx="139" cy="714" r="6" fill="#92E6A7"/>
<circle cx="118" cy="834" r="6" fill="#92E6A7"/>
<circle cx="158" cy="793" r="6" fill="#92E6A7"/>
<circle cx="178" cy="596" r="6" fill="#92E6A7"/>
<circle cx="58" cy="341" r="6" fill="#92E6A7"/>
<circle cx="58" cy="399" r="6" fill="#92E6A7"/>
<circle cx="58" cy="220" r="6" fill="#92E6A7"/>
<circle cx="218" cy="367" r="6" fill="#92E6A7"/>
<circle cx="218" cy="868" r="6" fill="#92E6A7"/>
<circle cx="178" cy="834" r="6" fill="#92E6A7"/>
<circle cx="178" cy="909" r="6" fill="#92E6A7"/>
<circle cx="178" cy="932" r="6" fill="#92E6A7"/>
<circle cx="160" cy="932" r="6" fill="#92E6A7"/>
<circle cx="138" cy="854" r="6" fill="#92E6A7"/>
<circle cx="118" cy="894" r="6" fill="#92E6A7"/>
<circle cx="101" cy="894" r="6" fill="#92E6A7"/>
<circle cx="118" cy="932" r="6" fill="#92E6A7"/>
<circle cx="118" cy="973" r="6" fill="#92E6A7"/>
<circle cx="58" cy="854" r="6" fill="#92E6A7"/>
<circle cx="44" cy="973" r="6" transform="rotate(0.998501 44 973)" fill="#92E6A7"/>
<circle cx="6.10547" cy="973.104" r="6" transform="rotate(0.998501 6.10547 973.104)" fill="#92E6A7"/>
<circle cx="6.10547" cy="996.104" r="6" transform="rotate(0.998501 6.10547 996.104)" fill="#92E6A7"/>
<circle cx="6.10547" cy="1012.1" r="6" transform="rotate(0.998501 6.10547 1012.1)" fill="#92E6A7"/>
<circle cx="6.10547" cy="1032.1" r="6" transform="rotate(0.998501 6.10547 1032.1)" fill="#92E6A7"/>
<circle cx="6.10547" cy="1052.1" r="6" transform="rotate(0.998501 6.10547 1052.1)" fill="#92E6A7"/>
<circle cx="6.10547" cy="1070.1" r="6" transform="rotate(0.998501 6.10547 1070.1)" fill="#92E6A7"/>
<circle cx="26.1055" cy="1052.1" r="6" transform="rotate(0.998501 26.1055 1052.1)" fill="#92E6A7"/>
<circle cx="41.1055" cy="1052.1" r="6" transform="rotate(0.998501 41.1055 1052.1)" fill="#92E6A7"/>
<circle cx="61.1055" cy="1052.1" r="6" transform="rotate(0.998501 61.1055 1052.1)" fill="#92E6A7"/>
<circle cx="81.1055" cy="1052.1" r="6" transform="rotate(0.998501 81.1055 1052.1)" fill="#92E6A7"/>
<circle cx="101.105" cy="1052.1" r="6" transform="rotate(0.998501 101.105 1052.1)" fill="#92E6A7"/>
<circle cx="118.105" cy="1071.1" r="6" transform="rotate(0.998501 118.105 1071.1)" fill="#92E6A7"/>
<circle cx="101.105" cy="1032.1" r="6" transform="rotate(0.998501 101.105 1032.1)" fill="#92E6A7"/>
<circle cx="81.1055" cy="1032.1" r="6" transform="rotate(0.998501 81.1055 1032.1)" fill="#92E6A7"/>
<circle cx="62.1055" cy="1032.1" r="6" transform="rotate(0.998501 62.1055 1032.1)" fill="#92E6A7"/>
<circle cx="40.1055" cy="1032.1" r="6" transform="rotate(0.998501 40.1055 1032.1)" fill="#92E6A7"/>
<circle cx="40.1055" cy="1013.1" r="6" transform="rotate(0.998501 40.1055 1013.1)" fill="#92E6A7"/>
<circle cx="62.1055" cy="1012.1" r="6" transform="rotate(0.998501 62.1055 1012.1)" fill="#92E6A7"/>
<circle cx="82.1055" cy="1012.1" r="6" transform="rotate(0.998501 82.1055 1012.1)" fill="#92E6A7"/>
<circle cx="101.105" cy="1012.1" r="6" transform="rotate(0.998501 101.105 1012.1)" fill="#92E6A7"/>
<circle cx="6.10547" cy="949.104" r="6" transform="rotate(0.998501 6.10547 949.104)" fill="#92E6A7"/>
<circle cx="6.10547" cy="915.104" r="6" transform="rotate(0.998501 6.10547 915.104)" fill="#92E6A7"/>
<circle cx="118" cy="989" r="6" fill="#92E6A7"/>
<circle cx="118" cy="1013" r="6" fill="#92E6A7"/>
<circle cx="118" cy="1032" r="6" fill="#92E6A7"/>
<circle cx="118" cy="1052" r="6" fill="#92E6A7"/>
<circle cx="158" cy="1052" r="6" fill="#92E6A7"/>
<circle cx="158" cy="1032" r="6" fill="#92E6A7"/>
<circle cx="158" cy="1013" r="6" fill="#92E6A7"/>
<circle cx="218" cy="990" r="6" fill="#92E6A7"/>
<circle cx="218" cy="1013" r="6" fill="#92E6A7"/>
<circle cx="201" cy="1013" r="6" fill="#92E6A7"/>
<circle cx="201" cy="1032" r="6" fill="#92E6A7"/>
<circle cx="218" cy="1032" r="6" fill="#92E6A7"/>
<circle cx="218" cy="1052" r="6" fill="#92E6A7"/>
<circle cx="201" cy="1052" r="6" fill="#92E6A7"/>
<circle cx="218" cy="1070" r="6" fill="#92E6A7"/>
<circle cx="241" cy="1052" r="6" fill="#92E6A7"/>
<circle cx="258" cy="1052" r="6" fill="#92E6A7"/>
<circle cx="258" cy="1032" r="6" fill="#92E6A7"/>
<circle cx="258" cy="1012" r="6" fill="#92E6A7"/>
<circle cx="258" cy="990" r="6" fill="#92E6A7"/>
<circle cx="278" cy="990" r="6" fill="#92E6A7"/>
<circle cx="278" cy="969" r="6" fill="#92E6A7"/>
<circle cx="278" cy="933" r="6" fill="#92E6A7"/>
<circle cx="278" cy="898" r="6" fill="#92E6A7"/>
<circle cx="298" cy="850" r="6" fill="#92E6A7"/>
<circle cx="298" cy="889" r="6" fill="#92E6A7"/>
<circle cx="318" cy="889" r="6" fill="#92E6A7"/>
<circle cx="318" cy="909" r="6" fill="#92E6A7"/>
<circle cx="341" cy="933" r="6" fill="#92E6A7"/>
<circle cx="298" cy="949" r="6" fill="#92E6A7"/>
<circle cx="298" cy="969" r="6" fill="#92E6A7"/>
<circle cx="298" cy="990" r="6" fill="#92E6A7"/>
<circle cx="298" cy="1010" r="6" fill="#92E6A7"/>
<circle cx="298" cy="1028" r="6" fill="#92E6A7"/>
<circle cx="298" cy="1052" r="6" fill="#92E6A7"/>
<circle cx="323" cy="1052" r="6" fill="#92E6A7"/>
<circle cx="341" cy="1052" r="6" fill="#92E6A7"/>
<circle cx="358" cy="1052" r="6" fill="#92E6A7"/>
<circle cx="358" cy="1030" r="6" fill="#92E6A7"/>
<circle cx="358" cy="1008" r="6" fill="#92E6A7"/>
<circle cx="358" cy="990" r="6" fill="#92E6A7"/>
<circle cx="358" cy="968" r="6" fill="#92E6A7"/>
<circle cx="358" cy="909" r="6" fill="#92E6A7"/>
<circle cx="358" cy="867" r="6" fill="#92E6A7"/>
<circle cx="358" cy="830" r="6" fill="#92E6A7"/>
<circle cx="398" cy="811" r="6" fill="#92E6A7"/>
<circle cx="398" cy="828" r="6" fill="#92E6A7"/>
<circle cx="398" cy="848" r="6" fill="#92E6A7"/>
<circle cx="398" cy="889" r="6" fill="#92E6A7"/>
<circle cx="398" cy="903" r="6" fill="#92E6A7"/>
<circle cx="398" cy="933" r="6" fill="#92E6A7"/>
<circle cx="421" cy="933" r="6" fill="#92E6A7"/>
<circle cx="383" cy="1052" r="6" fill="#92E6A7"/>
<circle cx="358" cy="1068" r="6" fill="#92E6A7"/>
<circle cx="401" cy="1052" r="6" fill="#92E6A7"/>
<circle cx="421" cy="1052" r="6" fill="#92E6A7"/>
<circle cx="358" cy="788" r="6" fill="#92E6A7"/>
<circle cx="298" cy="1068" r="6" fill="#92E6A7"/>
<circle cx="278" cy="1052" r="6" fill="#92E6A7"/>
<circle cx="278" cy="1028" r="6" fill="#92E6A7"/>
<circle cx="278" cy="1009" r="6" fill="#92E6A7"/>
<circle cx="278" cy="1068" r="6" fill="#92E6A7"/>
<circle cx="138" cy="987" r="6" fill="#92E6A7"/>
<circle cx="138" cy="1013" r="6" fill="#92E6A7"/>
<circle cx="158" cy="1070" r="6" fill="#92E6A7"/>
<circle cx="138" cy="973" r="6" fill="#92E6A7"/>
<circle cx="139" cy="949" r="6" fill="#92E6A7"/>
<circle cx="161" cy="973" r="6" fill="#92E6A7"/>
<circle cx="178" cy="973" r="6" fill="#92E6A7"/>
<circle cx="218" cy="969" r="6" fill="#92E6A7"/>
<circle cx="218" cy="933" r="6" fill="#92E6A7"/>
<circle cx="218" cy="888" r="6" fill="#92E6A7"/>
<circle cx="241" cy="932" r="6" fill="#92E6A7"/>
<circle cx="139" cy="794" r="6" fill="#92E6A7"/>
<circle cx="118" cy="873" r="6" fill="#92E6A7"/>
<circle cx="398" cy="418" r="6" fill="#92E6A7"/>
<circle cx="118" cy="341" r="6" fill="#92E6A7"/>
<circle cx="138" cy="321" r="6" fill="#92E6A7"/>
<circle cx="158" cy="219" r="6" fill="#92E6A7"/>
<circle cx="143" cy="239" r="6" fill="#92E6A7"/>
<circle cx="118" cy="239" r="6" fill="#92E6A7"/>
<circle cx="104" cy="140" r="6" fill="#92E6A7"/>
<circle cx="38" cy="180" r="6" fill="#92E6A7"/>
<circle cx="38" cy="160" r="6" fill="#92E6A7"/>
<circle cx="6" cy="160" r="6" fill="#92E6A7"/>
</svg>
