<svg width="432" height="1170" viewBox="0 0 432 1170" fill="none" xmlns="http://www.w3.org/2000/svg">
<circle cx="7" cy="125" r="6" fill="#92E6A7"/>
<circle cx="6" cy="57" r="6" fill="#92E6A7"/>
<circle cx="7" cy="91" r="6" fill="#92E6A7"/>
<circle cx="6" cy="23" r="6" fill="#92E6A7"/>
<circle cx="7" cy="108" r="6" fill="#92E6A7"/>
<circle cx="6" cy="40" r="6" fill="#92E6A7"/>
<circle cx="7" cy="74" r="6" fill="#92E6A7"/>
<circle cx="6" cy="6" r="6" fill="#92E6A7"/>
<circle cx="39" cy="125" r="6" fill="#92E6A7"/>
<circle cx="38" cy="57" r="6" fill="#92E6A7"/>
<circle cx="39" cy="91" r="6" fill="#92E6A7"/>
<circle cx="38" cy="23" r="6" fill="#92E6A7"/>
<circle cx="39" cy="108" r="6" fill="#92E6A7"/>
<circle cx="38" cy="40" r="6" fill="#92E6A7"/>
<circle cx="39" cy="74" r="6" fill="#92E6A7"/>
<circle cx="38" cy="6" r="6" fill="#92E6A7"/>
<circle cx="59" cy="125" r="6" fill="#92E6A7"/>
<circle cx="58" cy="57" r="6" fill="#92E6A7"/>
<circle cx="59" cy="91" r="6" fill="#92E6A7"/>
<circle cx="58" cy="23" r="6" fill="#92E6A7"/>
<circle cx="59" cy="108" r="6" fill="#92E6A7"/>
<circle cx="58" cy="40" r="6" fill="#92E6A7"/>
<circle cx="59" cy="74" r="6" fill="#92E6A7"/>
<circle cx="58" cy="6" r="6" fill="#92E6A7"/>
<circle cx="59" cy="145" r="6" fill="#92E6A7"/>
<circle cx="79" cy="145" r="6" fill="#92E6A7"/>
<circle cx="79" cy="125" r="6" fill="#92E6A7"/>
<circle cx="78" cy="57" r="6" fill="#92E6A7"/>
<circle cx="79" cy="91" r="6" fill="#92E6A7"/>
<circle cx="78" cy="23" r="6" fill="#92E6A7"/>
<circle cx="79" cy="108" r="6" fill="#92E6A7"/>
<circle cx="78" cy="40" r="6" fill="#92E6A7"/>
<circle cx="79" cy="74" r="6" fill="#92E6A7"/>
<circle cx="78" cy="6" r="6" fill="#92E6A7"/>
<circle cx="79" cy="165" r="6" fill="#92E6A7"/>
<circle cx="59" cy="165" r="6" fill="#92E6A7"/>
<circle cx="59" cy="184" r="6" fill="#92E6A7"/>
<circle cx="7" cy="184" r="6" fill="#92E6A7"/>
<circle cx="79" cy="244" r="6" fill="#92E6A7"/>
<circle cx="105" cy="244" r="6" fill="#92E6A7"/>
<circle cx="79" cy="198" r="6" fill="#92E6A7"/>
<circle cx="105" cy="184" r="6" fill="#92E6A7"/>
<circle cx="125" cy="125" r="6" fill="#92E6A7"/>
<circle cx="124" cy="57" r="6" fill="#92E6A7"/>
<circle cx="125" cy="91" r="6" fill="#92E6A7"/>
<circle cx="124" cy="23" r="6" fill="#92E6A7"/>
<circle cx="125" cy="108" r="6" fill="#92E6A7"/>
<circle cx="124" cy="40" r="6" fill="#92E6A7"/>
<circle cx="125" cy="74" r="6" fill="#92E6A7"/>
<circle cx="124" cy="6" r="6" fill="#92E6A7"/>
<circle cx="159" cy="125" r="6" fill="#92E6A7"/>
<circle cx="158" cy="57" r="6" fill="#92E6A7"/>
<circle cx="159" cy="91" r="6" fill="#92E6A7"/>
<circle cx="158" cy="23" r="6" fill="#92E6A7"/>
<circle cx="159" cy="108" r="6" fill="#92E6A7"/>
<circle cx="158" cy="40" r="6" fill="#92E6A7"/>
<circle cx="159" cy="74" r="6" fill="#92E6A7"/>
<circle cx="158" cy="6" r="6" fill="#92E6A7"/>
<circle cx="159" cy="142" r="6" fill="#92E6A7"/>
<circle cx="159" cy="159" r="6" fill="#92E6A7"/>
<circle cx="159" cy="184" r="6" fill="#92E6A7"/>
<circle cx="185" cy="125" r="6" fill="#92E6A7"/>
<circle cx="184" cy="57" r="6" fill="#92E6A7"/>
<circle cx="185" cy="91" r="6" fill="#92E6A7"/>
<circle cx="184" cy="23" r="6" fill="#92E6A7"/>
<circle cx="185" cy="108" r="6" fill="#92E6A7"/>
<circle cx="184" cy="40" r="6" fill="#92E6A7"/>
<circle cx="185" cy="74" r="6" fill="#92E6A7"/>
<circle cx="184" cy="6" r="6" fill="#92E6A7"/>
<circle cx="205" cy="125" r="6" fill="#92E6A7"/>
<circle cx="204" cy="57" r="6" fill="#92E6A7"/>
<circle cx="205" cy="91" r="6" fill="#92E6A7"/>
<circle cx="204" cy="23" r="6" fill="#92E6A7"/>
<circle cx="205" cy="108" r="6" fill="#92E6A7"/>
<circle cx="204" cy="40" r="6" fill="#92E6A7"/>
<circle cx="205" cy="74" r="6" fill="#92E6A7"/>
<circle cx="204" cy="6" r="6" fill="#92E6A7"/>
<circle cx="219" cy="125" r="6" fill="#92E6A7"/>
<circle cx="218" cy="57" r="6" fill="#92E6A7"/>
<circle cx="219" cy="91" r="6" fill="#92E6A7"/>
<circle cx="218" cy="23" r="6" fill="#92E6A7"/>
<circle cx="219" cy="108" r="6" fill="#92E6A7"/>
<circle cx="218" cy="40" r="6" fill="#92E6A7"/>
<circle cx="219" cy="74" r="6" fill="#92E6A7"/>
<circle cx="218" cy="6" r="6" fill="#92E6A7"/>
<circle cx="219" cy="145" r="6" fill="#92E6A7"/>
<circle cx="219" cy="159" r="6" fill="#92E6A7"/>
<circle cx="219" cy="184" r="6" fill="#92E6A7"/>
<circle cx="219" cy="224" r="6" fill="#92E6A7"/>
<circle cx="219" cy="244" r="6" fill="#92E6A7"/>
<circle cx="179" cy="244" r="6" fill="#92E6A7"/>
<circle cx="179" cy="260" r="6" fill="#92E6A7"/>
<circle cx="179" cy="284" r="6" fill="#92E6A7"/>
<circle cx="207" cy="284" r="6" fill="#92E6A7"/>
<circle cx="219" cy="260" r="6" fill="#92E6A7"/>
<circle cx="259" cy="303" r="6" fill="#92E6A7"/>
<circle cx="279" cy="284" r="6" fill="#92E6A7"/>
<circle cx="359" cy="270" r="6" fill="#92E6A7"/>
<circle cx="359" cy="319" r="6" fill="#92E6A7"/>
<circle cx="385" cy="303" r="6" fill="#92E6A7"/>
<circle cx="425" cy="303" r="6" fill="#92E6A7"/>
<circle cx="405" cy="303" r="6" fill="#92E6A7"/>
<circle cx="279" cy="258" r="6" fill="#92E6A7"/>
<circle cx="279" cy="244" r="6" fill="#92E6A7"/>
<circle cx="119" cy="258" r="6" fill="#92E6A7"/>
<circle cx="119" cy="284" r="6" fill="#92E6A7"/>
<circle cx="119" cy="303" r="6" fill="#92E6A7"/>
<circle cx="259" cy="125" r="6" fill="#92E6A7"/>
<circle cx="258" cy="57" r="6" fill="#92E6A7"/>
<circle cx="259" cy="91" r="6" fill="#92E6A7"/>
<circle cx="258" cy="23" r="6" fill="#92E6A7"/>
<circle cx="259" cy="108" r="6" fill="#92E6A7"/>
<circle cx="258" cy="40" r="6" fill="#92E6A7"/>
<circle cx="259" cy="74" r="6" fill="#92E6A7"/>
<circle cx="258" cy="6" r="6" fill="#92E6A7"/>
<circle cx="259" cy="142" r="6" fill="#92E6A7"/>
<circle cx="259" cy="159" r="6" fill="#92E6A7"/>
<circle cx="259" cy="184" r="6" fill="#92E6A7"/>
<circle cx="279" cy="125" r="6" fill="#92E6A7"/>
<circle cx="278" cy="57" r="6" fill="#92E6A7"/>
<circle cx="279" cy="91" r="6" fill="#92E6A7"/>
<circle cx="278" cy="23" r="6" fill="#92E6A7"/>
<circle cx="279" cy="108" r="6" fill="#92E6A7"/>
<circle cx="278" cy="40" r="6" fill="#92E6A7"/>
<circle cx="279" cy="74" r="6" fill="#92E6A7"/>
<circle cx="278" cy="6" r="6" fill="#92E6A7"/>
<circle cx="279" cy="142" r="6" fill="#92E6A7"/>
<circle cx="279" cy="159" r="6" fill="#92E6A7"/>
<circle cx="279" cy="184" r="6" fill="#92E6A7"/>
<circle cx="279" cy="201" r="6" fill="#92E6A7"/>
<circle cx="279" cy="224" r="6" fill="#92E6A7"/>
<circle cx="304" cy="125" r="6" fill="#92E6A7"/>
<circle cx="303" cy="57" r="6" fill="#92E6A7"/>
<circle cx="304" cy="91" r="6" fill="#92E6A7"/>
<circle cx="303" cy="23" r="6" fill="#92E6A7"/>
<circle cx="304" cy="108" r="6" fill="#92E6A7"/>
<circle cx="303" cy="40" r="6" fill="#92E6A7"/>
<circle cx="304" cy="74" r="6" fill="#92E6A7"/>
<circle cx="303" cy="6" r="6" fill="#92E6A7"/>
<circle cx="325" cy="125" r="6" fill="#92E6A7"/>
<circle cx="324" cy="57" r="6" fill="#92E6A7"/>
<circle cx="325" cy="91" r="6" fill="#92E6A7"/>
<circle cx="324" cy="23" r="6" fill="#92E6A7"/>
<circle cx="325" cy="108" r="6" fill="#92E6A7"/>
<circle cx="324" cy="40" r="6" fill="#92E6A7"/>
<circle cx="325" cy="74" r="6" fill="#92E6A7"/>
<circle cx="324" cy="6" r="6" fill="#92E6A7"/>
<circle cx="345" cy="125" r="6" fill="#92E6A7"/>
<circle cx="344" cy="57" r="6" fill="#92E6A7"/>
<circle cx="345" cy="91" r="6" fill="#92E6A7"/>
<circle cx="344" cy="23" r="6" fill="#92E6A7"/>
<circle cx="345" cy="108" r="6" fill="#92E6A7"/>
<circle cx="344" cy="40" r="6" fill="#92E6A7"/>
<circle cx="345" cy="74" r="6" fill="#92E6A7"/>
<circle cx="344" cy="6" r="6" fill="#92E6A7"/>
<circle cx="359" cy="125" r="6" fill="#92E6A7"/>
<circle cx="358" cy="57" r="6" fill="#92E6A7"/>
<circle cx="359" cy="91" r="6" fill="#92E6A7"/>
<circle cx="358" cy="23" r="6" fill="#92E6A7"/>
<circle cx="359" cy="108" r="6" fill="#92E6A7"/>
<circle cx="358" cy="40" r="6" fill="#92E6A7"/>
<circle cx="359" cy="74" r="6" fill="#92E6A7"/>
<circle cx="358" cy="6" r="6" fill="#92E6A7"/>
<circle cx="386" cy="125" r="6" fill="#92E6A7"/>
<circle cx="385" cy="57" r="6" fill="#92E6A7"/>
<circle cx="386" cy="91" r="6" fill="#92E6A7"/>
<circle cx="385" cy="23" r="6" fill="#92E6A7"/>
<circle cx="386" cy="108" r="6" fill="#92E6A7"/>
<circle cx="385" cy="40" r="6" fill="#92E6A7"/>
<circle cx="386" cy="74" r="6" fill="#92E6A7"/>
<circle cx="385" cy="6" r="6" fill="#92E6A7"/>
<circle cx="405" cy="125" r="6" fill="#92E6A7"/>
<circle cx="404" cy="57" r="6" fill="#92E6A7"/>
<circle cx="405" cy="91" r="6" fill="#92E6A7"/>
<circle cx="404" cy="23" r="6" fill="#92E6A7"/>
<circle cx="405" cy="108" r="6" fill="#92E6A7"/>
<circle cx="404" cy="40" r="6" fill="#92E6A7"/>
<circle cx="405" cy="74" r="6" fill="#92E6A7"/>
<circle cx="404" cy="6" r="6" fill="#92E6A7"/>
<circle cx="426" cy="125" r="6" fill="#92E6A7"/>
<circle cx="425" cy="57" r="6" fill="#92E6A7"/>
<circle cx="426" cy="91" r="6" fill="#92E6A7"/>
<circle cx="425" cy="23" r="6" fill="#92E6A7"/>
<circle cx="426" cy="108" r="6" fill="#92E6A7"/>
<circle cx="425" cy="40" r="6" fill="#92E6A7"/>
<circle cx="426" cy="74" r="6" fill="#92E6A7"/>
<circle cx="425" cy="6" r="6" fill="#92E6A7"/>
<circle cx="426" cy="184" r="6" fill="#92E6A7"/>
<circle cx="405" cy="184" r="6" fill="#92E6A7"/>
<circle cx="386" cy="184" r="6" fill="#92E6A7"/>
<circle cx="359" cy="201" r="6" fill="#92E6A7"/>
<circle cx="359" cy="216" r="6" fill="#92E6A7"/>
<circle cx="302" cy="224" r="6" fill="#92E6A7"/>
<circle cx="319" cy="224" r="6" fill="#92E6A7"/>
<circle cx="319" cy="244" r="6" fill="#92E6A7"/>
<circle cx="359" cy="142" r="6" fill="#92E6A7"/>
<circle cx="359" cy="159" r="6" fill="#92E6A7"/>
<circle cx="359" cy="184" r="6" fill="#92E6A7"/>
<circle cx="159" cy="224" r="6" fill="#92E6A7"/>
<circle cx="159" cy="326" r="6" fill="#92E6A7"/>
<circle cx="179" cy="346" r="6" fill="#92E6A7"/>
<circle cx="179" cy="428" r="6" fill="#92E6A7"/>
<circle cx="179" cy="482" r="6" fill="#92E6A7"/>
<circle cx="179" cy="502" r="6" fill="#92E6A7"/>
<circle cx="160" cy="502" r="6" fill="#92E6A7"/>
<circle cx="140" cy="502" r="6" fill="#92E6A7"/>
<circle cx="119" cy="502" r="6" fill="#92E6A7"/>
<circle cx="79" cy="501" r="6" fill="#92E6A7"/>
<circle cx="79" cy="482" r="6" fill="#92E6A7"/>
<circle cx="220" cy="502" r="6" fill="#92E6A7"/>
<circle cx="220" cy="482" r="6" fill="#92E6A7"/>
<circle cx="219" cy="442" r="6" fill="#92E6A7"/>
<circle cx="259" cy="482" r="6" fill="#92E6A7"/>
<circle cx="259" cy="501" r="6" fill="#92E6A7"/>
<circle cx="279" cy="501" r="6" fill="#92E6A7"/>
<circle cx="279" cy="482" r="6" fill="#92E6A7"/>
<circle cx="299" cy="482" r="6" fill="#92E6A7"/>
<circle cx="319" cy="482" r="6" fill="#92E6A7"/>
<circle cx="300" cy="501" r="6" fill="#92E6A7"/>
<circle cx="279" cy="522" r="6" fill="#92E6A7"/>
<circle cx="259" cy="537" r="6" fill="#92E6A7"/>
<circle cx="219" cy="566" r="6" fill="#92E6A7"/>
<circle cx="195" cy="580" r="6" fill="#92E6A7"/>
<circle cx="179" cy="600" r="6" fill="#92E6A7"/>
<circle cx="159" cy="612" r="6" fill="#92E6A7"/>
<circle cx="139" cy="627" r="6" fill="#92E6A7"/>
<circle cx="119" cy="643" r="6" fill="#92E6A7"/>
<circle cx="79" cy="670" r="6" fill="#92E6A7"/>
<circle cx="67" cy="680" r="6" fill="#92E6A7"/>
<circle cx="79" cy="688" r="6" fill="#92E6A7"/>
<circle cx="119" cy="688" r="6" fill="#92E6A7"/>
<circle cx="139" cy="688" r="6" fill="#92E6A7"/>
<circle cx="159" cy="688" r="6" fill="#92E6A7"/>
<circle cx="180" cy="688" r="6" fill="#92E6A7"/>
<circle cx="219" cy="688" r="6" fill="#92E6A7"/>
<circle cx="259" cy="688" r="6" fill="#92E6A7"/>
<circle cx="279" cy="688" r="6" fill="#92E6A7"/>
<circle cx="299" cy="688" r="6" fill="#92E6A7"/>
<circle cx="319" cy="688" r="6" fill="#92E6A7"/>
<circle cx="319" cy="631" r="6" fill="#92E6A7"/>
<circle cx="319" cy="612" r="6" fill="#92E6A7"/>
<circle cx="299" cy="612" r="6" fill="#92E6A7"/>
<circle cx="279" cy="612" r="6" fill="#92E6A7"/>
<circle cx="259" cy="612" r="6" fill="#92E6A7"/>
<circle cx="219" cy="612" r="6" fill="#92E6A7"/>
<circle cx="119" cy="482" r="6" fill="#92E6A7"/>
<circle cx="140" cy="482" r="6" fill="#92E6A7"/>
<circle cx="159" cy="482" r="6" fill="#92E6A7"/>
<circle cx="59" cy="501" r="6" fill="#92E6A7"/>
<circle cx="79" cy="560" r="6" fill="#92E6A7"/>
<circle cx="119" cy="560" r="6" fill="#92E6A7"/>
<circle cx="139" cy="560" r="6" fill="#92E6A7"/>
<circle cx="139" cy="531" r="6" fill="#92E6A7"/>
<circle cx="179" cy="543" r="6" fill="#92E6A7"/>
<circle cx="220" cy="518" r="6" fill="#92E6A7"/>
<circle cx="179" cy="621" r="6" fill="#92E6A7"/>
<circle cx="159" cy="662" r="6" fill="#92E6A7"/>
<circle cx="219" cy="630" r="6" fill="#92E6A7"/>
<circle cx="279" cy="629" r="6" fill="#92E6A7"/>
<circle cx="279" cy="651" r="6" fill="#92E6A7"/>
<circle cx="319" cy="674" r="6" fill="#92E6A7"/>
<circle cx="219" cy="674" r="6" fill="#92E6A7"/>
<circle cx="140" cy="649" r="6" fill="#92E6A7"/>
<circle cx="119" cy="663" r="6" fill="#92E6A7"/>
<circle cx="159" cy="560" r="6" fill="#92E6A7"/>
<circle cx="179" cy="560" r="6" fill="#92E6A7"/>
<circle cx="59" cy="537" r="6" fill="#92E6A7"/>
<circle cx="59" cy="560" r="6" fill="#92E6A7"/>
<circle cx="59" cy="482" r="6" fill="#92E6A7"/>
<circle cx="219" cy="352" r="6" fill="#92E6A7"/>
<circle cx="219" cy="779" r="6" fill="#92E6A7"/>
<circle cx="179" cy="819" r="6" fill="#92E6A7"/>
<circle cx="179" cy="894" r="6" fill="#92E6A7"/>
<circle cx="179" cy="917" r="6" fill="#92E6A7"/>
<circle cx="161" cy="917" r="6" fill="#92E6A7"/>
<circle cx="139" cy="839" r="6" fill="#92E6A7"/>
<circle cx="119" cy="879" r="6" fill="#92E6A7"/>
<circle cx="102" cy="879" r="6" fill="#92E6A7"/>
<circle cx="119" cy="917" r="6" fill="#92E6A7"/>
<circle cx="119" cy="958" r="6" fill="#92E6A7"/>
<circle cx="59" cy="839" r="6" fill="#92E6A7"/>
<circle cx="45" cy="958" r="6" transform="rotate(0.998501 45 958)" fill="#92E6A7"/>
<circle cx="7.10547" cy="958.104" r="6" transform="rotate(0.998501 7.10547 958.104)" fill="#92E6A7"/>
<circle cx="7.10547" cy="981.104" r="6" transform="rotate(0.998501 7.10547 981.104)" fill="#92E6A7"/>
<circle cx="7.10547" cy="997.104" r="6" transform="rotate(0.998501 7.10547 997.104)" fill="#92E6A7"/>
<circle cx="7.10547" cy="1017.1" r="6" transform="rotate(0.998501 7.10547 1017.1)" fill="#92E6A7"/>
<circle cx="7.10547" cy="1037.1" r="6" transform="rotate(0.998501 7.10547 1037.1)" fill="#92E6A7"/>
<circle cx="7.10547" cy="1055.1" r="6" transform="rotate(0.998501 7.10547 1055.1)" fill="#92E6A7"/>
<circle cx="27.1055" cy="1037.1" r="6" transform="rotate(0.998501 27.1055 1037.1)" fill="#92E6A7"/>
<circle cx="42.1055" cy="1037.1" r="6" transform="rotate(0.998501 42.1055 1037.1)" fill="#92E6A7"/>
<circle cx="62.1055" cy="1037.1" r="6" transform="rotate(0.998501 62.1055 1037.1)" fill="#92E6A7"/>
<circle cx="82.1055" cy="1037.1" r="6" transform="rotate(0.998501 82.1055 1037.1)" fill="#92E6A7"/>
<circle cx="102.105" cy="1037.1" r="6" transform="rotate(0.998501 102.105 1037.1)" fill="#92E6A7"/>
<circle cx="119.105" cy="1056.1" r="6" transform="rotate(0.998501 119.105 1056.1)" fill="#92E6A7"/>
<circle cx="102.105" cy="1017.1" r="6" transform="rotate(0.998501 102.105 1017.1)" fill="#92E6A7"/>
<circle cx="82.1055" cy="1017.1" r="6" transform="rotate(0.998501 82.1055 1017.1)" fill="#92E6A7"/>
<circle cx="63.1055" cy="1017.1" r="6" transform="rotate(0.998501 63.1055 1017.1)" fill="#92E6A7"/>
<circle cx="41.1055" cy="1017.1" r="6" transform="rotate(0.998501 41.1055 1017.1)" fill="#92E6A7"/>
<circle cx="41.1055" cy="998.104" r="6" transform="rotate(0.998501 41.1055 998.104)" fill="#92E6A7"/>
<circle cx="63.1055" cy="997.104" r="6" transform="rotate(0.998501 63.1055 997.104)" fill="#92E6A7"/>
<circle cx="83.1055" cy="997.104" r="6" transform="rotate(0.998501 83.1055 997.104)" fill="#92E6A7"/>
<circle cx="102.105" cy="997.104" r="6" transform="rotate(0.998501 102.105 997.104)" fill="#92E6A7"/>
<circle cx="7.10547" cy="934.104" r="6" transform="rotate(0.998501 7.10547 934.104)" fill="#92E6A7"/>
<circle cx="7.10547" cy="900.104" r="6" transform="rotate(0.998501 7.10547 900.104)" fill="#92E6A7"/>
<circle cx="119" cy="974" r="6" fill="#92E6A7"/>
<circle cx="119" cy="998" r="6" fill="#92E6A7"/>
<circle cx="119" cy="1017" r="6" fill="#92E6A7"/>
<circle cx="119" cy="1037" r="6" fill="#92E6A7"/>
<circle cx="159" cy="1037" r="6" fill="#92E6A7"/>
<circle cx="159" cy="1017" r="6" fill="#92E6A7"/>
<circle cx="159" cy="998" r="6" fill="#92E6A7"/>
<circle cx="219" cy="975" r="6" fill="#92E6A7"/>
<circle cx="219" cy="998" r="6" fill="#92E6A7"/>
<circle cx="202" cy="998" r="6" fill="#92E6A7"/>
<circle cx="202" cy="1017" r="6" fill="#92E6A7"/>
<circle cx="219" cy="1017" r="6" fill="#92E6A7"/>
<circle cx="219" cy="1037" r="6" fill="#92E6A7"/>
<circle cx="202" cy="1037" r="6" fill="#92E6A7"/>
<circle cx="219" cy="1055" r="6" fill="#92E6A7"/>
<circle cx="242" cy="1037" r="6" fill="#92E6A7"/>
<circle cx="259" cy="1037" r="6" fill="#92E6A7"/>
<circle cx="259" cy="1017" r="6" fill="#92E6A7"/>
<circle cx="259" cy="997" r="6" fill="#92E6A7"/>
<circle cx="259" cy="975" r="6" fill="#92E6A7"/>
<circle cx="279" cy="975" r="6" fill="#92E6A7"/>
<circle cx="279" cy="954" r="6" fill="#92E6A7"/>
<circle cx="279" cy="918" r="6" fill="#92E6A7"/>
<circle cx="279" cy="883" r="6" fill="#92E6A7"/>
<circle cx="299" cy="835" r="6" fill="#92E6A7"/>
<circle cx="299" cy="874" r="6" fill="#92E6A7"/>
<circle cx="319" cy="874" r="6" fill="#92E6A7"/>
<circle cx="319" cy="894" r="6" fill="#92E6A7"/>
<circle cx="342" cy="918" r="6" fill="#92E6A7"/>
<circle cx="299" cy="934" r="6" fill="#92E6A7"/>
<circle cx="299" cy="954" r="6" fill="#92E6A7"/>
<circle cx="299" cy="975" r="6" fill="#92E6A7"/>
<circle cx="299" cy="995" r="6" fill="#92E6A7"/>
<circle cx="299" cy="1013" r="6" fill="#92E6A7"/>
<circle cx="299" cy="1037" r="6" fill="#92E6A7"/>
<circle cx="324" cy="1037" r="6" fill="#92E6A7"/>
<circle cx="342" cy="1037" r="6" fill="#92E6A7"/>
<circle cx="359" cy="1037" r="6" fill="#92E6A7"/>
<circle cx="359" cy="1015" r="6" fill="#92E6A7"/>
<circle cx="359" cy="993" r="6" fill="#92E6A7"/>
<circle cx="359" cy="975" r="6" fill="#92E6A7"/>
<circle cx="359" cy="953" r="6" fill="#92E6A7"/>
<circle cx="359" cy="894" r="6" fill="#92E6A7"/>
<circle cx="359" cy="852" r="6" fill="#92E6A7"/>
<circle cx="359" cy="815" r="6" fill="#92E6A7"/>
<circle cx="399" cy="796" r="6" fill="#92E6A7"/>
<circle cx="399" cy="813" r="6" fill="#92E6A7"/>
<circle cx="399" cy="833" r="6" fill="#92E6A7"/>
<circle cx="399" cy="874" r="6" fill="#92E6A7"/>
<circle cx="399" cy="888" r="6" fill="#92E6A7"/>
<circle cx="399" cy="918" r="6" fill="#92E6A7"/>
<circle cx="422" cy="918" r="6" fill="#92E6A7"/>
<circle cx="384" cy="1037" r="6" fill="#92E6A7"/>
<circle cx="359" cy="1053" r="6" fill="#92E6A7"/>
<circle cx="402" cy="1037" r="6" fill="#92E6A7"/>
<circle cx="422" cy="1037" r="6" fill="#92E6A7"/>
<circle cx="359" cy="773" r="6" fill="#92E6A7"/>
<circle cx="299" cy="1053" r="6" fill="#92E6A7"/>
<circle cx="279" cy="1037" r="6" fill="#92E6A7"/>
<circle cx="279" cy="1013" r="6" fill="#92E6A7"/>
<circle cx="279" cy="994" r="6" fill="#92E6A7"/>
<circle cx="279" cy="1053" r="6" fill="#92E6A7"/>
<circle cx="139" cy="972" r="6" fill="#92E6A7"/>
<circle cx="139" cy="998" r="6" fill="#92E6A7"/>
<circle cx="159" cy="1055" r="6" fill="#92E6A7"/>
<circle cx="139" cy="958" r="6" fill="#92E6A7"/>
<circle cx="140" cy="934" r="6" fill="#92E6A7"/>
<circle cx="162" cy="958" r="6" fill="#92E6A7"/>
<circle cx="179" cy="958" r="6" fill="#92E6A7"/>
<circle cx="219" cy="954" r="6" fill="#92E6A7"/>
<circle cx="219" cy="918" r="6" fill="#92E6A7"/>
<circle cx="219" cy="873" r="6" fill="#92E6A7"/>
<circle cx="242" cy="917" r="6" fill="#92E6A7"/>
<circle cx="140" cy="779" r="6" fill="#92E6A7"/>
<circle cx="119" cy="806" r="6" fill="#92E6A7"/>
<circle cx="399" cy="403" r="6" fill="#92E6A7"/>
<circle cx="119" cy="403" r="6" fill="#92E6A7"/>
<circle cx="139" cy="364" r="6" fill="#92E6A7"/>
<circle cx="159" cy="204" r="6" fill="#92E6A7"/>
<circle cx="144" cy="224" r="6" fill="#92E6A7"/>
<circle cx="119" cy="224" r="6" fill="#92E6A7"/>
<circle cx="105" cy="125" r="6" fill="#92E6A7"/>
<circle cx="104" cy="57" r="6" fill="#92E6A7"/>
<circle cx="105" cy="91" r="6" fill="#92E6A7"/>
<circle cx="104" cy="23" r="6" fill="#92E6A7"/>
<circle cx="105" cy="108" r="6" fill="#92E6A7"/>
<circle cx="104" cy="40" r="6" fill="#92E6A7"/>
<circle cx="105" cy="74" r="6" fill="#92E6A7"/>
<circle cx="104" cy="6" r="6" fill="#92E6A7"/>
<circle cx="6" cy="1130" r="6" fill="#92E6A7"/>
<circle cx="7" cy="1164" r="6" fill="#92E6A7"/>
<circle cx="6" cy="1096" r="6" fill="#92E6A7"/>
<circle cx="6" cy="1113" r="6" fill="#92E6A7"/>
<circle cx="7" cy="1147" r="6" fill="#92E6A7"/>
<circle cx="6" cy="1079" r="6" fill="#92E6A7"/>
<circle cx="38" cy="1130" r="6" fill="#92E6A7"/>
<circle cx="39" cy="1164" r="6" fill="#92E6A7"/>
<circle cx="38" cy="1096" r="6" fill="#92E6A7"/>
<circle cx="38" cy="1113" r="6" fill="#92E6A7"/>
<circle cx="39" cy="1147" r="6" fill="#92E6A7"/>
<circle cx="38" cy="1079" r="6" fill="#92E6A7"/>
<circle cx="58" cy="1130" r="6" fill="#92E6A7"/>
<circle cx="59" cy="1164" r="6" fill="#92E6A7"/>
<circle cx="58" cy="1096" r="6" fill="#92E6A7"/>
<circle cx="58" cy="1113" r="6" fill="#92E6A7"/>
<circle cx="59" cy="1147" r="6" fill="#92E6A7"/>
<circle cx="58" cy="1079" r="6" fill="#92E6A7"/>
<circle cx="78" cy="1130" r="6" fill="#92E6A7"/>
<circle cx="79" cy="1164" r="6" fill="#92E6A7"/>
<circle cx="78" cy="1096" r="6" fill="#92E6A7"/>
<circle cx="78" cy="1113" r="6" fill="#92E6A7"/>
<circle cx="79" cy="1147" r="6" fill="#92E6A7"/>
<circle cx="78" cy="1079" r="6" fill="#92E6A7"/>
<circle cx="124" cy="1130" r="6" fill="#92E6A7"/>
<circle cx="125" cy="1164" r="6" fill="#92E6A7"/>
<circle cx="124" cy="1096" r="6" fill="#92E6A7"/>
<circle cx="124" cy="1113" r="6" fill="#92E6A7"/>
<circle cx="125" cy="1147" r="6" fill="#92E6A7"/>
<circle cx="124" cy="1079" r="6" fill="#92E6A7"/>
<circle cx="158" cy="1130" r="6" fill="#92E6A7"/>
<circle cx="159" cy="1164" r="6" fill="#92E6A7"/>
<circle cx="158" cy="1096" r="6" fill="#92E6A7"/>
<circle cx="158" cy="1113" r="6" fill="#92E6A7"/>
<circle cx="159" cy="1147" r="6" fill="#92E6A7"/>
<circle cx="158" cy="1079" r="6" fill="#92E6A7"/>
<circle cx="184" cy="1130" r="6" fill="#92E6A7"/>
<circle cx="185" cy="1164" r="6" fill="#92E6A7"/>
<circle cx="184" cy="1096" r="6" fill="#92E6A7"/>
<circle cx="184" cy="1113" r="6" fill="#92E6A7"/>
<circle cx="185" cy="1147" r="6" fill="#92E6A7"/>
<circle cx="184" cy="1079" r="6" fill="#92E6A7"/>
<circle cx="204" cy="1130" r="6" fill="#92E6A7"/>
<circle cx="205" cy="1164" r="6" fill="#92E6A7"/>
<circle cx="204" cy="1096" r="6" fill="#92E6A7"/>
<circle cx="204" cy="1113" r="6" fill="#92E6A7"/>
<circle cx="205" cy="1147" r="6" fill="#92E6A7"/>
<circle cx="204" cy="1079" r="6" fill="#92E6A7"/>
<circle cx="218" cy="1130" r="6" fill="#92E6A7"/>
<circle cx="219" cy="1164" r="6" fill="#92E6A7"/>
<circle cx="218" cy="1096" r="6" fill="#92E6A7"/>
<circle cx="218" cy="1113" r="6" fill="#92E6A7"/>
<circle cx="219" cy="1147" r="6" fill="#92E6A7"/>
<circle cx="218" cy="1079" r="6" fill="#92E6A7"/>
<circle cx="258" cy="1130" r="6" fill="#92E6A7"/>
<circle cx="259" cy="1164" r="6" fill="#92E6A7"/>
<circle cx="258" cy="1096" r="6" fill="#92E6A7"/>
<circle cx="258" cy="1113" r="6" fill="#92E6A7"/>
<circle cx="259" cy="1147" r="6" fill="#92E6A7"/>
<circle cx="258" cy="1079" r="6" fill="#92E6A7"/>
<circle cx="278" cy="1130" r="6" fill="#92E6A7"/>
<circle cx="279" cy="1164" r="6" fill="#92E6A7"/>
<circle cx="278" cy="1096" r="6" fill="#92E6A7"/>
<circle cx="278" cy="1113" r="6" fill="#92E6A7"/>
<circle cx="279" cy="1147" r="6" fill="#92E6A7"/>
<circle cx="278" cy="1079" r="6" fill="#92E6A7"/>
<circle cx="303" cy="1130" r="6" fill="#92E6A7"/>
<circle cx="304" cy="1164" r="6" fill="#92E6A7"/>
<circle cx="303" cy="1096" r="6" fill="#92E6A7"/>
<circle cx="303" cy="1113" r="6" fill="#92E6A7"/>
<circle cx="304" cy="1147" r="6" fill="#92E6A7"/>
<circle cx="303" cy="1079" r="6" fill="#92E6A7"/>
<circle cx="324" cy="1130" r="6" fill="#92E6A7"/>
<circle cx="325" cy="1164" r="6" fill="#92E6A7"/>
<circle cx="324" cy="1096" r="6" fill="#92E6A7"/>
<circle cx="324" cy="1113" r="6" fill="#92E6A7"/>
<circle cx="325" cy="1147" r="6" fill="#92E6A7"/>
<circle cx="324" cy="1079" r="6" fill="#92E6A7"/>
<circle cx="344" cy="1130" r="6" fill="#92E6A7"/>
<circle cx="345" cy="1164" r="6" fill="#92E6A7"/>
<circle cx="344" cy="1096" r="6" fill="#92E6A7"/>
<circle cx="344" cy="1113" r="6" fill="#92E6A7"/>
<circle cx="345" cy="1147" r="6" fill="#92E6A7"/>
<circle cx="344" cy="1079" r="6" fill="#92E6A7"/>
<circle cx="358" cy="1130" r="6" fill="#92E6A7"/>
<circle cx="359" cy="1164" r="6" fill="#92E6A7"/>
<circle cx="358" cy="1096" r="6" fill="#92E6A7"/>
<circle cx="358" cy="1113" r="6" fill="#92E6A7"/>
<circle cx="359" cy="1147" r="6" fill="#92E6A7"/>
<circle cx="358" cy="1079" r="6" fill="#92E6A7"/>
<circle cx="385" cy="1130" r="6" fill="#92E6A7"/>
<circle cx="386" cy="1164" r="6" fill="#92E6A7"/>
<circle cx="385" cy="1096" r="6" fill="#92E6A7"/>
<circle cx="385" cy="1113" r="6" fill="#92E6A7"/>
<circle cx="386" cy="1147" r="6" fill="#92E6A7"/>
<circle cx="385" cy="1079" r="6" fill="#92E6A7"/>
<circle cx="404" cy="1130" r="6" fill="#92E6A7"/>
<circle cx="405" cy="1164" r="6" fill="#92E6A7"/>
<circle cx="404" cy="1096" r="6" fill="#92E6A7"/>
<circle cx="404" cy="1113" r="6" fill="#92E6A7"/>
<circle cx="405" cy="1147" r="6" fill="#92E6A7"/>
<circle cx="404" cy="1079" r="6" fill="#92E6A7"/>
<circle cx="425" cy="1130" r="6" fill="#92E6A7"/>
<circle cx="426" cy="1164" r="6" fill="#92E6A7"/>
<circle cx="425" cy="1096" r="6" fill="#92E6A7"/>
<circle cx="425" cy="1113" r="6" fill="#92E6A7"/>
<circle cx="426" cy="1147" r="6" fill="#92E6A7"/>
<circle cx="425" cy="1079" r="6" fill="#92E6A7"/>
<circle cx="104" cy="1130" r="6" fill="#92E6A7"/>
<circle cx="105" cy="1164" r="6" fill="#92E6A7"/>
<circle cx="104" cy="1096" r="6" fill="#92E6A7"/>
<circle cx="104" cy="1113" r="6" fill="#92E6A7"/>
<circle cx="105" cy="1147" r="6" fill="#92E6A7"/>
<circle cx="104" cy="1079" r="6" fill="#92E6A7"/>
<circle cx="39" cy="165" r="6" fill="#92E6A7"/>
<circle cx="39" cy="145" r="6" fill="#92E6A7"/>
<circle cx="7" cy="145" r="6" fill="#92E6A7"/>
</svg>
