<svg width="45" height="26" viewBox="0 0 45 26" fill="none" xmlns="http://www.w3.org/2000/svg">
<path d="M26.3199 5.73839C26.0848 5.1021 25.8476 4.46056 25.8433 4.45216C25.7301 4.20542 25.4681 4.05002 25.192 4.07732C25.0174 4.09097 20.8845 4.43746 18.2364 6.51118C16.852 7.75646 14.0874 15.037 14.0874 21.3317C14.0874 21.443 14.1165 21.5511 14.1737 21.6477C16.0832 24.9132 21.2889 25.7679 22.4749 25.8046C22.4825 25.8057 22.4889 25.8057 22.4954 25.8057C22.7046 25.8057 22.9008 25.708 23.0259 25.5432L24.309 23.8506C22.1892 23.5366 21.8064 23.1272 21.7169 23.0631C21.2382 22.7198 20.8845 22.2389 21.3137 21.632C21.6436 21.1605 22.3358 21.0051 22.8663 21.2708C23.4097 21.5175 24.8643 22.3113 29.1826 22.2903C33.4707 22.2777 35.3532 21.4031 35.3802 21.3842C36.1005 21.0681 36.6622 21.1983 37.0126 21.6666C37.4299 22.304 37.1323 22.7355 36.6557 23.0778C36.5662 23.1419 36.3495 23.3214 34.0723 23.8464L35.3392 25.5421C35.4632 25.708 35.6605 25.8046 35.8697 25.8046C35.8773 25.8046 35.8837 25.8046 35.8902 25.8036C37.0773 25.7668 42.283 24.9121 44.1915 21.6467C44.2486 21.5501 44.2777 21.4419 44.2777 21.3306C44.2777 15.037 41.5131 7.75646 40.0942 6.48388C37.4806 4.43851 33.3477 4.09202 33.1731 4.07732C32.897 4.05422 32.635 4.20647 32.5218 4.45216C32.5175 4.46056 32.2868 5.1126 32.0636 5.74154C32.0636 5.74154 30.305 5.49059 29.1826 5.49059C28.0601 5.49059 26.3199 5.73839 26.3199 5.73839ZM24.8697 19.1404C23.6782 19.1404 22.7132 17.7407 22.7132 16.0125C22.7132 14.2842 23.6782 12.8846 24.8697 12.8846C26.0654 12.7113 27.0002 14.2842 27.0261 16.0125C27.0261 17.7407 26.0611 19.1404 24.8697 19.1404ZM33.4955 19.1404C32.304 19.1404 31.339 17.7313 31.339 15.9936C31.339 14.2558 32.304 12.8468 33.4955 12.8468C34.6869 12.8468 35.6519 14.2558 35.6519 15.9936C35.6519 17.7313 34.6869 19.1404 33.4955 19.1404Z" fill="#92E6A7"/>
</svg>
