<svg width="642" height="110" viewBox="0 0 642 110" fill="none" xmlns="http://www.w3.org/2000/svg">
<path d="M47.3742 72C47.5357 72 47.6931 72.0509 47.8239 72.1454C47.9548 72.24 48.0525 72.3734 48.103 72.5266C48.1536 72.6798 48.1545 72.8451 48.1057 72.9988C48.0568 73.1526 47.9606 73.2871 47.8308 73.383L30.2795 86.3619L24.378 90.7294V86.3619H0.76743C0.563895 86.3619 0.368696 86.2811 0.224775 86.1373C0.080854 85.9935 0 85.7985 0 85.5951L0 72.7667C0 72.5634 0.080854 72.3684 0.224775 72.2246C0.368696 72.0808 0.563895 72 0.76743 72H47.3742Z" fill="#003A6C"/>
<path d="M1.03677 109.452C0.899445 109.452 0.765667 109.409 0.654438 109.328C0.54321 109.248 0.460187 109.134 0.417165 109.004C0.374143 108.874 0.37331 108.733 0.414784 108.602C0.456258 108.472 0.53793 108.357 0.648196 108.275L18.4764 95.0903L24.3778 90.7227V95.0903H47.816C47.989 95.0909 48.1548 95.1599 48.2772 95.2822C48.3996 95.4044 48.4686 95.5701 48.4692 95.743V108.799C48.4686 108.972 48.3996 109.138 48.2772 109.26C48.1548 109.383 47.989 109.452 47.816 109.452H1.03677Z" fill="#003A6C"/>
<path d="M146.264 33.2706C159.644 33.2706 166.043 40.2454 166.043 50.8477C166.043 60.2928 160.953 66.4165 152.954 69.3019L108.891 85.2807C106.294 86.3186 104.824 88.0415 104.824 90.5118C104.824 93.4179 106.71 95.1824 110.637 95.1824H164.444V110.004H109.774C96.5447 110.004 90 103.029 90 92.4215C90 83.8535 94.2177 77.024 103.089 73.8272L147.303 57.9678C150.502 56.8054 151.375 54.6257 151.375 52.5914C151.375 49.6852 149.484 48.092 145.412 48.092H92.7633V33.2706H146.264Z" fill="#003A6C"/>
<path d="M232.647 33.2706C250.827 33.2706 258.53 41.9891 258.53 56.8054C258.53 70.9003 251.404 78.8871 232.502 78.8871H196.002V84.4088C196.002 90.5117 199.347 95.0163 207.777 95.0163H254.749V109.983H207.777C188.559 109.983 181.022 99.2303 181.022 84.6994V58.5491C181.022 44.0182 188.585 33.2706 207.777 33.2706H232.647ZM196.002 66.8316H232.065C240.376 66.8316 243.41 63.3442 243.41 57.6772C243.41 51.8649 240.065 48.092 232.502 48.092H207.777C199.347 48.092 196.002 52.7627 196.002 58.6944V66.8316Z" fill="#003A6C"/>
<path d="M292.852 7.70135V87.3979C292.852 88.409 292.652 89.4102 292.265 90.3443C291.877 91.2784 291.309 92.127 290.594 92.8417C289.878 93.5564 289.028 94.1232 288.093 94.5097C287.158 94.8962 286.155 95.0947 285.143 95.094C283.1 95.094 281.14 94.2834 279.695 92.8402C278.249 91.397 277.436 89.4395 277.435 87.3979V7.70135C277.435 5.65883 278.247 3.69996 279.693 2.25568C281.138 0.811392 283.099 1.75103e-06 285.143 1.75103e-06C286.156 -0.000680575 287.158 0.198055 288.094 0.584843C289.029 0.97163 289.879 1.53888 290.595 2.25415C291.311 2.96943 291.879 3.81869 292.266 4.75337C292.653 5.68805 292.852 6.68981 292.852 7.70135Z" fill="#003A6C"/>
<path d="M330.379 7.70135V87.3979C330.379 88.409 330.179 89.4102 329.792 90.3443C329.405 91.2784 328.837 92.127 328.121 92.8417C327.405 93.5564 326.555 94.1232 325.62 94.5097C324.685 94.8962 323.683 95.0947 322.671 95.094C320.627 95.094 318.667 94.2834 317.222 92.8402C315.776 91.397 314.964 89.4395 314.962 87.3979V7.70135C314.962 5.65883 315.774 3.69996 317.22 2.25568C318.666 0.811392 320.626 1.75103e-06 322.671 1.75103e-06C323.683 -0.000680575 324.686 0.198055 325.621 0.584843C326.557 0.97163 327.407 1.53888 328.123 2.25415C328.839 2.96943 329.406 3.81869 329.794 4.75337C330.181 5.68805 330.38 6.68981 330.379 7.70135Z" fill="#003A6C"/>
<path d="M367.596 33.2706V79.1829C367.596 88.1868 374.286 95.0163 386.497 95.0163H399.005C411.222 95.0163 417.767 88.1868 417.767 79.1829V33.2706H432.887V79.7589C432.887 97.4866 421.543 109.983 399.587 109.983H385.334C363.378 109.983 352.034 97.4866 352.034 79.7589V33.2706H367.596Z" fill="#003A6C"/>
<path d="M469.963 7.70135V87.3979C469.963 88.409 469.764 89.4102 469.376 90.3443C468.989 91.2784 468.421 92.127 467.705 92.8417C466.989 93.5564 466.14 94.1232 465.204 94.5097C464.269 94.8962 463.267 95.0947 462.255 95.094C460.212 95.094 458.253 94.2832 456.808 92.8399C455.364 91.3966 454.552 89.439 454.552 87.3979V7.70135C454.551 6.69024 454.75 5.68891 455.137 4.75457C455.524 3.82023 456.091 2.97119 456.806 2.25599C457.522 1.54079 458.371 0.973426 459.306 0.586333C460.241 0.19924 461.243 1.52116e-06 462.255 1.75103e-06C463.267 -0.000680575 464.27 0.198055 465.206 0.584843C466.141 0.97163 466.991 1.53888 467.707 2.25415C468.423 2.96943 468.991 3.81869 469.378 4.75337C469.765 5.68805 469.964 6.68981 469.963 7.70135Z" fill="#003A6C"/>
<path d="M541.219 33.2706C560.412 33.2706 567.975 44.0234 567.975 58.5491V94.5804C567.975 105.624 565.066 109.983 552.122 109.983H516.209C498.029 109.983 490.467 101.119 490.467 86.5884C490.467 72.644 497.448 64.5067 516.349 64.5067H552.849V58.6944C552.849 52.7367 549.509 48.092 541.074 48.092H495.121V33.2706H541.219ZM552.849 91.093V76.7126H516.645C508.501 76.7126 505.592 80.0547 505.592 85.7166C505.592 91.3784 508.646 95.0163 516.349 95.0163H548.637C551.691 95.0163 552.849 93.8538 552.849 91.093Z" fill="#003A6C"/>
<path d="M642 33.2706V48.092H614.954C608.118 48.092 605.085 51.2836 605.085 57.9523V109.983H589.668V55.6429C589.668 40.2454 595.346 33.2706 610.445 33.2706H642Z" fill="#003A6C"/>
</svg>
