<svg width="504" height="240" viewBox="0 0 504 240" fill="none" xmlns="http://www.w3.org/2000/svg">
<rect width="504" height="240" fill="#AECACD"/>
<path d="M142.949 108.754C143.314 108.572 143.651 108.48 143.961 108.48C144.562 108.48 145.064 108.872 145.465 109.656C145.684 110.094 145.793 110.477 145.793 110.805C145.793 111.406 145.419 111.889 144.672 112.254L126.297 121.059L144.672 129.863C145.419 130.228 145.793 130.711 145.793 131.312C145.793 131.641 145.684 132.023 145.465 132.461C145.064 133.245 144.562 133.637 143.961 133.637C143.651 133.637 143.314 133.546 142.949 133.363L121.703 122.945C121.247 122.727 120.919 122.471 120.719 122.18C120.518 121.888 120.418 121.514 120.418 121.059C120.418 120.603 120.518 120.229 120.719 119.938C120.919 119.646 121.247 119.391 121.703 119.172L142.949 108.754ZM176.227 98.8828C176.956 98.8828 177.557 99.0195 178.031 99.293C178.505 99.5664 178.742 99.9128 178.742 100.332C178.742 100.478 178.715 100.633 178.66 100.797L160.285 145.723C160.158 146.014 159.93 146.251 159.602 146.434C159.292 146.616 158.927 146.707 158.508 146.707C157.779 146.707 157.177 146.57 156.703 146.297C156.229 146.023 155.992 145.677 155.992 145.258C155.992 145.112 156.02 144.957 156.074 144.793L174.449 99.8672C174.577 99.5755 174.796 99.3385 175.105 99.1562C175.434 98.974 175.807 98.8828 176.227 98.8828ZM213.031 119.172C213.487 119.391 213.815 119.646 214.016 119.938C214.216 120.229 214.316 120.603 214.316 121.059C214.316 121.514 214.216 121.888 214.016 122.18C213.815 122.471 213.487 122.727 213.031 122.945L191.785 133.363C191.421 133.546 191.083 133.637 190.773 133.637C190.172 133.637 189.671 133.245 189.27 132.461C189.051 132.023 188.941 131.641 188.941 131.312C188.941 130.711 189.315 130.228 190.062 129.863L208.438 121.059L190.062 112.254C189.315 111.889 188.941 111.406 188.941 110.805C188.941 110.477 189.051 110.094 189.27 109.656C189.671 108.872 190.172 108.48 190.773 108.48C191.083 108.48 191.421 108.572 191.785 108.754L213.031 119.172ZM268.102 104.543C270.964 104.543 273.479 105.199 275.648 106.512C277.818 107.806 279.495 109.684 280.68 112.145C281.883 114.587 282.484 117.467 282.484 120.785C282.484 124.103 281.883 126.983 280.68 129.426C279.495 131.868 277.818 133.746 275.648 135.059C273.479 136.353 270.964 137 268.102 137H255.223C254.603 137 254.156 136.863 253.883 136.59C253.628 136.298 253.5 135.815 253.5 135.141C253.5 134.466 253.628 133.992 253.883 133.719C254.156 133.427 254.603 133.281 255.223 133.281H258.285V108.262H255.223C254.603 108.262 254.156 108.125 253.883 107.852C253.628 107.56 253.5 107.077 253.5 106.402C253.5 105.728 253.628 105.254 253.883 104.98C254.156 104.689 254.603 104.543 255.223 104.543H268.102ZM262.387 133.281H267.473C269.642 133.281 271.529 132.807 273.133 131.859C274.737 130.893 275.977 129.48 276.852 127.621C277.727 125.743 278.164 123.465 278.164 120.785C278.164 118.105 277.727 115.836 276.852 113.977C275.977 112.099 274.737 110.677 273.133 109.711C271.529 108.745 269.642 108.262 267.473 108.262H262.387V133.281ZM301.68 111.133C304.177 111.133 306.428 111.698 308.434 112.828C310.439 113.958 312.007 115.535 313.137 117.559C314.285 119.564 314.859 121.833 314.859 124.367C314.859 126.901 314.285 129.18 313.137 131.203C312.007 133.208 310.439 134.776 308.434 135.906C306.428 137.036 304.177 137.602 301.68 137.602C299.182 137.602 296.931 137.036 294.926 135.906C292.921 134.776 291.344 133.208 290.195 131.203C289.065 129.18 288.5 126.901 288.5 124.367C288.5 121.833 289.065 119.564 290.195 117.559C291.344 115.535 292.921 113.958 294.926 112.828C296.931 111.698 299.182 111.133 301.68 111.133ZM301.68 115.18C299.911 115.18 298.353 115.572 297.004 116.355C295.673 117.121 294.643 118.206 293.914 119.609C293.185 120.995 292.82 122.581 292.82 124.367C292.82 126.154 293.185 127.749 293.914 129.152C294.643 130.538 295.673 131.622 297.004 132.406C298.353 133.172 299.911 133.555 301.68 133.555C303.448 133.555 304.997 133.172 306.328 132.406C307.677 131.622 308.716 130.538 309.445 129.152C310.174 127.749 310.539 126.154 310.539 124.367C310.539 122.581 310.174 120.995 309.445 119.609C308.716 118.206 307.677 117.121 306.328 116.355C304.997 115.572 303.448 115.18 301.68 115.18ZM345.102 111.133C345.849 111.133 346.378 111.27 346.688 111.543C346.997 111.816 347.152 112.272 347.152 112.91V120.84C347.152 121.478 346.997 121.934 346.688 122.207C346.378 122.48 345.849 122.617 345.102 122.617C344.354 122.617 343.826 122.48 343.516 122.207C343.206 121.934 343.051 121.478 343.051 120.84C343.051 119.728 342.759 118.743 342.176 117.887C341.592 117.03 340.717 116.365 339.551 115.891C338.402 115.417 337.017 115.18 335.395 115.18C333.645 115.18 332.077 115.572 330.691 116.355C329.306 117.139 328.221 118.233 327.438 119.637C326.654 121.04 326.262 122.617 326.262 124.367C326.262 126.135 326.626 127.721 327.355 129.125C328.103 130.51 329.142 131.595 330.473 132.379C331.822 133.163 333.371 133.555 335.121 133.555C336.798 133.555 338.421 133.299 339.988 132.789C341.574 132.26 343.014 131.504 344.309 130.52C344.691 130.228 345.047 130.082 345.375 130.082C345.904 130.082 346.396 130.456 346.852 131.203C347.125 131.659 347.262 132.096 347.262 132.516C347.262 133.154 346.97 133.682 346.387 134.102C344.928 135.195 343.206 136.052 341.219 136.672C339.232 137.292 337.199 137.602 335.121 137.602C332.514 137.602 330.208 137.027 328.203 135.879C326.216 134.73 324.676 133.154 323.582 131.148C322.488 129.143 321.941 126.883 321.941 124.367C321.941 121.852 322.497 119.591 323.609 117.586C324.721 115.581 326.271 114.004 328.258 112.855C330.263 111.707 332.551 111.133 335.121 111.133C336.743 111.133 338.229 111.434 339.578 112.035C340.945 112.618 342.103 113.457 343.051 114.551V112.91C343.051 112.272 343.206 111.816 343.516 111.543C343.826 111.27 344.354 111.133 345.102 111.133ZM377.449 111.133C378.197 111.133 378.725 111.27 379.035 111.543C379.345 111.816 379.5 112.272 379.5 112.91V118.105C379.5 118.743 379.345 119.199 379.035 119.473C378.725 119.746 378.197 119.883 377.449 119.883C376.829 119.883 376.392 119.646 376.137 119.172C375.353 117.677 374.214 116.629 372.719 116.027C371.224 115.408 369.328 115.098 367.031 115.098C365.263 115.098 363.878 115.417 362.875 116.055C361.891 116.674 361.398 117.549 361.398 118.68C361.398 119.263 361.581 119.737 361.945 120.102C362.328 120.466 362.884 120.767 363.613 121.004C364.215 121.204 364.908 121.359 365.691 121.469C366.493 121.578 367.523 121.697 368.781 121.824C370.549 122.025 371.971 122.216 373.047 122.398C374.141 122.562 375.171 122.818 376.137 123.164C377.595 123.693 378.725 124.458 379.527 125.461C380.348 126.464 380.758 127.785 380.758 129.426C380.758 131.066 380.339 132.507 379.5 133.746C378.68 134.967 377.467 135.915 375.863 136.59C374.277 137.264 372.372 137.602 370.148 137.602C368.18 137.602 366.448 137.328 364.953 136.781C363.458 136.234 362.155 135.405 361.043 134.293V135.824C361.043 136.462 360.888 136.918 360.578 137.191C360.268 137.465 359.74 137.602 358.992 137.602C358.245 137.602 357.716 137.465 357.406 137.191C357.096 136.918 356.941 136.462 356.941 135.824V129.262C356.941 128.624 357.096 128.168 357.406 127.895C357.716 127.621 358.245 127.484 358.992 127.484C359.375 127.484 359.676 127.576 359.895 127.758C360.113 127.922 360.305 128.204 360.469 128.605C361.125 130.355 362.219 131.632 363.75 132.434C365.281 133.236 367.323 133.637 369.875 133.637C371.99 133.637 373.612 133.254 374.742 132.488C375.872 131.723 376.438 130.702 376.438 129.426C376.438 128.806 376.237 128.296 375.836 127.895C375.435 127.493 374.861 127.165 374.113 126.91C373.475 126.71 372.737 126.546 371.898 126.418C371.078 126.272 370.03 126.135 368.754 126.008C367.04 125.826 365.609 125.634 364.461 125.434C363.312 125.233 362.255 124.941 361.289 124.559C359.958 124.03 358.919 123.301 358.172 122.371C357.443 121.423 357.078 120.193 357.078 118.68C357.078 117.094 357.488 115.736 358.309 114.605C359.147 113.457 360.296 112.591 361.754 112.008C363.23 111.424 364.898 111.133 366.758 111.133C368.526 111.133 370.139 111.397 371.598 111.926C373.074 112.454 374.341 113.193 375.398 114.141V112.91C375.398 112.272 375.553 111.816 375.863 111.543C376.173 111.27 376.702 111.133 377.449 111.133Z" fill="#003A6C"/>
</svg>
