<svg width="61" height="48" viewBox="0 0 61 48" fill="none" xmlns="http://www.w3.org/2000/svg">
<path d="M59.6225 5.47211e-10C59.8257 -6.83588e-06 60.0238 0.0640432 60.1885 0.183031C60.3531 0.30202 60.4761 0.469881 60.5397 0.662722C60.6034 0.855562 60.6045 1.06355 60.543 1.25709C60.4815 1.45062 60.3604 1.61983 60.1971 1.74063L38.108 18.0751L30.6808 23.5718V18.0751H0.965843C0.709685 18.0751 0.46402 17.9734 0.282889 17.7924C0.101758 17.6114 0 17.366 0 17.1101L0 0.964981C0 0.709053 0.101758 0.463604 0.282889 0.282636C0.46402 0.101667 0.709685 5.47208e-10 0.965843 5.47211e-10H59.6225Z" fill="#92E6A7"/>
<path d="M1.3041 47.1353C1.13127 47.135 0.962905 47.0804 0.822919 46.9792C0.682933 46.8779 0.578446 46.7351 0.524301 46.5711C0.470156 46.4072 0.469108 46.2303 0.521304 46.0657C0.573501 45.9011 0.676288 45.7571 0.815064 45.6542L23.2526 29.0602L30.6798 23.5635V29.0602H60.1777C60.3955 29.061 60.6042 29.1478 60.7582 29.3017C60.9122 29.4556 60.9991 29.664 60.9999 29.8817V46.3138C60.9991 46.5314 60.9122 46.7399 60.7582 46.8938C60.6042 47.0476 60.3955 47.1344 60.1777 47.1353H1.3041Z" fill="#92E6A7"/>
</svg>
