<svg width="1920" height="1109" viewBox="0 0 1920 1109" fill="none" xmlns="http://www.w3.org/2000/svg">
<rect x="-52.6953" y="1.25" width="2022.23" height="1106.5" stroke="#003A6C" stroke-width="2.5"/>
<g opacity="0.7">
<line x1="694.074" y1="1.15039" x2="694.074" y2="1107.85" stroke="#003A6C" stroke-opacity="0.5" stroke-width="0.5"/>
<line x1="325.942" y1="1.15039" x2="325.942" y2="1107.85" stroke="#003A6C" stroke-opacity="0.5" stroke-width="0.5"/>
<line x1="1062.21" y1="1.15039" x2="1062.21" y2="1107.85" stroke="#003A6C" stroke-opacity="0.5" stroke-width="0.5"/>
<line x1="1499.36" y1="1.15039" x2="1499.36" y2="1107.85" stroke="#003A6C" stroke-opacity="0.5" stroke-width="0.5"/>
<line x1="141.875" y1="1.15039" x2="141.875" y2="1107.85" stroke="#003A6C" stroke-opacity="0.5" stroke-width="0.5"/>
<line x1="878.141" y1="1.15039" x2="878.141" y2="1107.85" stroke="#003A6C" stroke-opacity="0.5" stroke-width="0.5"/>
<line x1="510.008" y1="1.15039" x2="510.008" y2="1107.85" stroke="#003A6C" stroke-opacity="0.5" stroke-width="0.5"/>
<line x1="1246.27" y1="1.15039" x2="1246.27" y2="1107.85" stroke="#003A6C" stroke-opacity="0.5" stroke-width="0.5"/>
<line x1="1683.43" y1="1.15039" x2="1683.43" y2="1107.85" stroke="#003A6C" stroke-opacity="0.5" stroke-width="0.5"/>
<line x1="49.8423" y1="9.8497e-09" x2="49.8422" y2="1107.85" stroke="#003A6C" stroke-opacity="0.5" stroke-width="0.5"/>
<line x1="786.107" y1="1.15039" x2="786.107" y2="1107.85" stroke="#003A6C" stroke-opacity="0.5" stroke-width="0.5"/>
<line x1="417.975" y1="1.15039" x2="417.975" y2="1107.85" stroke="#003A6C" stroke-opacity="0.5" stroke-width="0.5"/>
<line x1="1154.24" y1="1.15039" x2="1154.24" y2="1107.85" stroke="#003A6C" stroke-opacity="0.5" stroke-width="0.5"/>
<line x1="1591.4" y1="1.15039" x2="1591.4" y2="1107.85" stroke="#003A6C" stroke-opacity="0.5" stroke-width="0.5"/>
<line x1="233.908" y1="1.15039" x2="233.908" y2="1106.7" stroke="#003A6C" stroke-opacity="0.5" stroke-width="0.5"/>
<line x1="970.174" y1="1.15039" x2="970.174" y2="1107.85" stroke="#003A6C" stroke-opacity="0.5" stroke-width="0.5"/>
<line x1="602.041" y1="1.15039" x2="602.041" y2="1107.85" stroke="#003A6C" stroke-opacity="0.5" stroke-width="0.5"/>
<line x1="1338.31" y1="1.15039" x2="1338.31" y2="1107.85" stroke="#003A6C" stroke-opacity="0.5" stroke-width="0.5"/>
<line x1="1775.46" y1="1.15039" x2="1775.46" y2="1107.85" stroke="#003A6C" stroke-opacity="0.5" stroke-width="0.5"/>
<line x1="1867.5" y1="1.15039" x2="1867.5" y2="1107.85" stroke="#003A6C" stroke-opacity="0.5" stroke-width="0.5"/>
<line x1="3.8252" y1="1.15039" x2="3.82514" y2="1107.85" stroke="#003A6C" stroke-opacity="0.5" stroke-width="0.5"/>
<line x1="740.091" y1="1.15039" x2="740.091" y2="1107.85" stroke="#003A6C" stroke-opacity="0.5" stroke-width="0.5"/>
<line x1="371.958" y1="1.15039" x2="371.958" y2="1107.85" stroke="#003A6C" stroke-opacity="0.5" stroke-width="0.5"/>
<line x1="1108.22" y1="1.15039" x2="1108.22" y2="1107.85" stroke="#003A6C" stroke-opacity="0.5" stroke-width="0.5"/>
<line x1="1545.38" y1="1.15039" x2="1545.38" y2="1107.85" stroke="#003A6C" stroke-opacity="0.5" stroke-width="0.5"/>
<line x1="187.892" y1="1.15039" x2="187.892" y2="1107.85" stroke="#003A6C" stroke-opacity="0.5" stroke-width="0.5"/>
<line x1="924.157" y1="1.15039" x2="924.157" y2="1107.85" stroke="#003A6C" stroke-opacity="0.5" stroke-width="0.5"/>
<line x1="556.024" y1="1.15039" x2="556.024" y2="1107.85" stroke="#003A6C" stroke-opacity="0.5" stroke-width="0.5"/>
<line x1="1292.29" y1="1.15039" x2="1292.29" y2="1107.85" stroke="#003A6C" stroke-opacity="0.5" stroke-width="0.5"/>
<line x1="1729.45" y1="1.15039" x2="1729.45" y2="1107.85" stroke="#003A6C" stroke-opacity="0.5" stroke-width="0.5"/>
<line x1="95.8584" y1="1.15039" x2="95.8583" y2="1107.85" stroke="#003A6C" stroke-opacity="0.5" stroke-width="0.5"/>
<line x1="832.124" y1="1.15039" x2="832.124" y2="1107.85" stroke="#003A6C" stroke-opacity="0.5" stroke-width="0.5"/>
<line x1="463.991" y1="1.15039" x2="463.991" y2="1107.85" stroke="#003A6C" stroke-opacity="0.5" stroke-width="0.5"/>
<line x1="1200.26" y1="1.15039" x2="1200.26" y2="1107.85" stroke="#003A6C" stroke-opacity="0.5" stroke-width="0.5"/>
<line x1="1637.42" y1="1.15039" x2="1637.42" y2="1107.85" stroke="#003A6C" stroke-opacity="0.5" stroke-width="0.5"/>
<line x1="279.925" y1="1.15039" x2="279.925" y2="1106.7" stroke="#003A6C" stroke-opacity="0.5" stroke-width="0.5"/>
<line x1="1016.19" y1="1.15039" x2="1016.19" y2="1107.85" stroke="#003A6C" stroke-opacity="0.5" stroke-width="0.5"/>
<line x1="1453.35" y1="1.15039" x2="1453.35" y2="1107.85" stroke="#003A6C" stroke-opacity="0.5" stroke-width="0.5"/>
<line x1="648.058" y1="1.15039" x2="648.058" y2="1107.85" stroke="#003A6C" stroke-opacity="0.5" stroke-width="0.5"/>
<line x1="1384.32" y1="1.15039" x2="1384.32" y2="1107.85" stroke="#003A6C" stroke-opacity="0.5" stroke-width="0.5"/>
<line x1="1821.48" y1="1.15039" x2="1821.48" y2="1107.85" stroke="#003A6C" stroke-opacity="0.5" stroke-width="0.5"/>
<line x1="1913.51" y1="1.15039" x2="1913.51" y2="1107.85" stroke="#003A6C" stroke-opacity="0.5" stroke-width="0.5"/>
<line x1="717.083" y1="1.15039" x2="717.082" y2="1107.85" stroke="#003A6C" stroke-opacity="0.5" stroke-width="0.5"/>
<line x1="348.95" y1="1.15039" x2="348.95" y2="1107.85" stroke="#003A6C" stroke-opacity="0.5" stroke-width="0.5"/>
<line x1="1085.22" y1="1.15039" x2="1085.22" y2="1107.85" stroke="#003A6C" stroke-opacity="0.5" stroke-width="0.5"/>
<line x1="1522.37" y1="1.15039" x2="1522.37" y2="1107.85" stroke="#003A6C" stroke-opacity="0.5" stroke-width="0.5"/>
<line x1="164.884" y1="1.15039" x2="164.884" y2="1107.85" stroke="#003A6C" stroke-opacity="0.5" stroke-width="0.5"/>
<line x1="901.149" y1="1.15039" x2="901.149" y2="1107.85" stroke="#003A6C" stroke-opacity="0.5" stroke-width="0.5"/>
<line x1="533.016" y1="1.15039" x2="533.016" y2="1107.85" stroke="#003A6C" stroke-opacity="0.5" stroke-width="0.5"/>
<line x1="1269.28" y1="1.15039" x2="1269.28" y2="1107.85" stroke="#003A6C" stroke-opacity="0.5" stroke-width="0.5"/>
<line x1="1706.44" y1="1.15039" x2="1706.44" y2="1107.85" stroke="#003A6C" stroke-opacity="0.5" stroke-width="0.5"/>
<line x1="72.8501" y1="9.8497e-09" x2="72.85" y2="1107.85" stroke="#003A6C" stroke-opacity="0.5" stroke-width="0.5"/>
<line x1="809.116" y1="1.15039" x2="809.116" y2="1107.85" stroke="#003A6C" stroke-opacity="0.5" stroke-width="0.5"/>
<line x1="440.983" y1="1.15039" x2="440.983" y2="1107.85" stroke="#003A6C" stroke-opacity="0.5" stroke-width="0.5"/>
<line x1="1177.25" y1="1.15039" x2="1177.25" y2="1107.85" stroke="#003A6C" stroke-opacity="0.5" stroke-width="0.5"/>
<line x1="1614.41" y1="1.15039" x2="1614.41" y2="1107.85" stroke="#003A6C" stroke-opacity="0.5" stroke-width="0.5"/>
<line x1="256.917" y1="1.15039" x2="256.917" y2="1106.7" stroke="#003A6C" stroke-opacity="0.5" stroke-width="0.5"/>
<line x1="993.182" y1="1.15039" x2="993.182" y2="1107.85" stroke="#003A6C" stroke-opacity="0.5" stroke-width="0.5"/>
<line x1="1430.34" y1="1.15039" x2="1430.34" y2="1107.85" stroke="#003A6C" stroke-opacity="0.5" stroke-width="0.5"/>
<line x1="625.049" y1="1.15039" x2="625.049" y2="1107.85" stroke="#003A6C" stroke-opacity="0.5" stroke-width="0.5"/>
<line x1="1361.32" y1="1.15039" x2="1361.32" y2="1107.85" stroke="#003A6C" stroke-opacity="0.5" stroke-width="0.5"/>
<line x1="1798.47" y1="1.15039" x2="1798.47" y2="1107.85" stroke="#003A6C" stroke-opacity="0.5" stroke-width="0.5"/>
<line x1="1890.51" y1="1.15039" x2="1890.51" y2="1107.85" stroke="#003A6C" stroke-opacity="0.5" stroke-width="0.5"/>
<line x1="26.834" y1="1.15039" x2="26.8339" y2="1107.85" stroke="#003A6C" stroke-opacity="0.5" stroke-width="0.5"/>
<line x1="763.099" y1="1.15039" x2="763.099" y2="1107.85" stroke="#003A6C" stroke-opacity="0.5" stroke-width="0.5"/>
<line x1="394.966" y1="1.15039" x2="394.966" y2="1107.85" stroke="#003A6C" stroke-opacity="0.5" stroke-width="0.5"/>
<line x1="1131.23" y1="1.15039" x2="1131.23" y2="1107.85" stroke="#003A6C" stroke-opacity="0.5" stroke-width="0.5"/>
<line x1="1568.39" y1="1.15039" x2="1568.39" y2="1107.85" stroke="#003A6C" stroke-opacity="0.5" stroke-width="0.5"/>
<line x1="210.9" y1="1.15039" x2="210.9" y2="1107.85" stroke="#003A6C" stroke-opacity="0.5" stroke-width="0.5"/>
<line x1="947.166" y1="1.15039" x2="947.165" y2="1107.85" stroke="#003A6C" stroke-opacity="0.5" stroke-width="0.5"/>
<line x1="579.033" y1="1.15039" x2="579.033" y2="1107.85" stroke="#003A6C" stroke-opacity="0.5" stroke-width="0.5"/>
<line x1="1315.3" y1="1.15039" x2="1315.3" y2="1107.85" stroke="#003A6C" stroke-opacity="0.5" stroke-width="0.5"/>
<line x1="1752.46" y1="1.15039" x2="1752.46" y2="1107.85" stroke="#003A6C" stroke-opacity="0.5" stroke-width="0.5"/>
<line x1="118.867" y1="1.15039" x2="118.867" y2="1107.85" stroke="#003A6C" stroke-opacity="0.5" stroke-width="0.5"/>
<line x1="855.132" y1="1.15039" x2="855.132" y2="1107.85" stroke="#003A6C" stroke-opacity="0.5" stroke-width="0.5"/>
<line x1="487" y1="1.15039" x2="486.999" y2="1107.85" stroke="#003A6C" stroke-opacity="0.5" stroke-width="0.5"/>
<line x1="1223.27" y1="1.15039" x2="1223.27" y2="1107.85" stroke="#003A6C" stroke-opacity="0.5" stroke-width="0.5"/>
<line x1="1660.42" y1="1.15039" x2="1660.42" y2="1107.85" stroke="#003A6C" stroke-opacity="0.5" stroke-width="0.5"/>
<line x1="302.933" y1="1.15039" x2="302.933" y2="1106.7" stroke="#003A6C" stroke-opacity="0.5" stroke-width="0.5"/>
<line x1="1039.2" y1="1.15039" x2="1039.2" y2="1107.85" stroke="#003A6C" stroke-opacity="0.5" stroke-width="0.5"/>
<line x1="1476.36" y1="1.15039" x2="1476.36" y2="1107.85" stroke="#003A6C" stroke-opacity="0.5" stroke-width="0.5"/>
<line x1="671.066" y1="1.15039" x2="671.066" y2="1107.85" stroke="#003A6C" stroke-opacity="0.5" stroke-width="0.5"/>
<line x1="1407.33" y1="1.15039" x2="1407.33" y2="1107.85" stroke="#003A6C" stroke-opacity="0.5" stroke-width="0.5"/>
<line x1="1844.49" y1="1.15039" x2="1844.49" y2="1107.85" stroke="#003A6C" stroke-opacity="0.5" stroke-width="0.5"/>
<line x1="705.579" y1="1.15039" x2="705.579" y2="1107.85" stroke="#003A6C" stroke-opacity="0.5" stroke-width="0.5"/>
<line x1="337.446" y1="1.15039" x2="337.446" y2="1107.85" stroke="#003A6C" stroke-opacity="0.5" stroke-width="0.5"/>
<line x1="1073.71" y1="1.15039" x2="1073.71" y2="1107.85" stroke="#003A6C" stroke-opacity="0.5" stroke-width="0.5"/>
<line x1="1510.87" y1="1.15039" x2="1510.87" y2="1107.85" stroke="#003A6C" stroke-opacity="0.5" stroke-width="0.5"/>
<line x1="153.379" y1="1.15039" x2="153.379" y2="1107.85" stroke="#003A6C" stroke-opacity="0.5" stroke-width="0.5"/>
<line x1="889.645" y1="1.15039" x2="889.645" y2="1107.85" stroke="#003A6C" stroke-opacity="0.5" stroke-width="0.5"/>
<line x1="521.512" y1="1.15039" x2="521.512" y2="1107.85" stroke="#003A6C" stroke-opacity="0.5" stroke-width="0.5"/>
<line x1="1257.78" y1="1.15039" x2="1257.78" y2="1107.85" stroke="#003A6C" stroke-opacity="0.5" stroke-width="0.5"/>
<line x1="1694.94" y1="1.15039" x2="1694.94" y2="1107.85" stroke="#003A6C" stroke-opacity="0.5" stroke-width="0.5"/>
<line x1="61.3462" y1="9.8497e-09" x2="61.3461" y2="1107.85" stroke="#003A6C" stroke-opacity="0.5" stroke-width="0.5"/>
<line x1="797.612" y1="1.15039" x2="797.612" y2="1107.85" stroke="#003A6C" stroke-opacity="0.5" stroke-width="0.5"/>
<line x1="429.479" y1="1.15039" x2="429.479" y2="1107.85" stroke="#003A6C" stroke-opacity="0.5" stroke-width="0.5"/>
<line x1="1165.74" y1="1.15039" x2="1165.74" y2="1107.85" stroke="#003A6C" stroke-opacity="0.5" stroke-width="0.5"/>
<line x1="1602.9" y1="1.15039" x2="1602.9" y2="1107.85" stroke="#003A6C" stroke-opacity="0.5" stroke-width="0.5"/>
<line x1="245.413" y1="1.15039" x2="245.413" y2="1106.7" stroke="#003A6C" stroke-opacity="0.5" stroke-width="0.5"/>
<line x1="981.678" y1="1.15039" x2="981.678" y2="1107.85" stroke="#003A6C" stroke-opacity="0.5" stroke-width="0.5"/>
<line x1="613.545" y1="1.15039" x2="613.545" y2="1107.85" stroke="#003A6C" stroke-opacity="0.5" stroke-width="0.5"/>
<line x1="1349.81" y1="1.15039" x2="1349.81" y2="1107.85" stroke="#003A6C" stroke-opacity="0.5" stroke-width="0.5"/>
<line x1="1786.97" y1="1.15039" x2="1786.97" y2="1107.85" stroke="#003A6C" stroke-opacity="0.5" stroke-width="0.5"/>
<line x1="1879" y1="1.15039" x2="1879" y2="1107.85" stroke="#003A6C" stroke-opacity="0.5" stroke-width="0.5"/>
<line x1="15.3296" y1="1.15039" x2="15.3295" y2="1107.85" stroke="#003A6C" stroke-opacity="0.5" stroke-width="0.5"/>
<line x1="751.595" y1="1.15039" x2="751.595" y2="1107.85" stroke="#003A6C" stroke-opacity="0.5" stroke-width="0.5"/>
<line x1="383.462" y1="1.15039" x2="383.462" y2="1107.85" stroke="#003A6C" stroke-opacity="0.5" stroke-width="0.5"/>
<line x1="1119.73" y1="1.15039" x2="1119.73" y2="1107.85" stroke="#003A6C" stroke-opacity="0.5" stroke-width="0.5"/>
<line x1="1556.89" y1="1.15039" x2="1556.89" y2="1107.85" stroke="#003A6C" stroke-opacity="0.5" stroke-width="0.5"/>
<line x1="199.396" y1="1.15039" x2="199.396" y2="1107.85" stroke="#003A6C" stroke-opacity="0.5" stroke-width="0.5"/>
<line x1="935.662" y1="1.15039" x2="935.662" y2="1107.85" stroke="#003A6C" stroke-opacity="0.5" stroke-width="0.5"/>
<line x1="567.529" y1="1.15039" x2="567.529" y2="1107.85" stroke="#003A6C" stroke-opacity="0.5" stroke-width="0.5"/>
<line x1="1303.79" y1="1.15039" x2="1303.79" y2="1107.85" stroke="#003A6C" stroke-opacity="0.5" stroke-width="0.5"/>
<line x1="1740.95" y1="1.15039" x2="1740.95" y2="1107.85" stroke="#003A6C" stroke-opacity="0.5" stroke-width="0.5"/>
<line x1="107.363" y1="1.15039" x2="107.363" y2="1107.85" stroke="#003A6C" stroke-opacity="0.5" stroke-width="0.5"/>
<line x1="843.628" y1="1.15039" x2="843.628" y2="1107.85" stroke="#003A6C" stroke-opacity="0.5" stroke-width="0.5"/>
<line x1="475.496" y1="1.15039" x2="475.496" y2="1107.85" stroke="#003A6C" stroke-opacity="0.5" stroke-width="0.5"/>
<line x1="1211.76" y1="1.15039" x2="1211.76" y2="1107.85" stroke="#003A6C" stroke-opacity="0.5" stroke-width="0.5"/>
<line x1="1648.92" y1="1.15039" x2="1648.92" y2="1107.85" stroke="#003A6C" stroke-opacity="0.5" stroke-width="0.5"/>
<line x1="291.429" y1="1.15039" x2="291.429" y2="1106.7" stroke="#003A6C" stroke-opacity="0.5" stroke-width="0.5"/>
<line x1="1027.69" y1="1.15039" x2="1027.69" y2="1107.85" stroke="#003A6C" stroke-opacity="0.5" stroke-width="0.5"/>
<line x1="1464.85" y1="1.15039" x2="1464.85" y2="1107.85" stroke="#003A6C" stroke-opacity="0.5" stroke-width="0.5"/>
<line x1="659.562" y1="1.15039" x2="659.562" y2="1107.85" stroke="#003A6C" stroke-opacity="0.5" stroke-width="0.5"/>
<line x1="1395.83" y1="1.15039" x2="1395.83" y2="1107.85" stroke="#003A6C" stroke-opacity="0.5" stroke-width="0.5"/>
<line x1="1832.99" y1="1.15039" x2="1832.99" y2="1107.85" stroke="#003A6C" stroke-opacity="0.5" stroke-width="0.5"/>
<line x1="728.587" y1="1.15039" x2="728.587" y2="1107.85" stroke="#003A6C" stroke-opacity="0.5" stroke-width="0.5"/>
<line x1="360.454" y1="1.15039" x2="360.454" y2="1107.85" stroke="#003A6C" stroke-opacity="0.5" stroke-width="0.5"/>
<line x1="1096.72" y1="1.15039" x2="1096.72" y2="1107.85" stroke="#003A6C" stroke-opacity="0.5" stroke-width="0.5"/>
<line x1="1533.88" y1="1.15039" x2="1533.88" y2="1107.85" stroke="#003A6C" stroke-opacity="0.5" stroke-width="0.5"/>
<line x1="176.388" y1="1.15039" x2="176.388" y2="1107.85" stroke="#003A6C" stroke-opacity="0.5" stroke-width="0.5"/>
<line x1="912.653" y1="1.15039" x2="912.653" y2="1107.85" stroke="#003A6C" stroke-opacity="0.5" stroke-width="0.5"/>
<line x1="544.521" y1="1.15039" x2="544.52" y2="1107.85" stroke="#003A6C" stroke-opacity="0.5" stroke-width="0.5"/>
<line x1="1280.79" y1="1.15039" x2="1280.79" y2="1107.85" stroke="#003A6C" stroke-opacity="0.5" stroke-width="0.5"/>
<line x1="1717.94" y1="1.15039" x2="1717.94" y2="1107.85" stroke="#003A6C" stroke-opacity="0.5" stroke-width="0.5"/>
<line x1="84.3545" y1="1.15039" x2="84.3544" y2="1107.85" stroke="#003A6C" stroke-opacity="0.5" stroke-width="0.5"/>
<line x1="820.62" y1="1.15039" x2="820.62" y2="1107.85" stroke="#003A6C" stroke-opacity="0.5" stroke-width="0.5"/>
<line x1="452.487" y1="1.15039" x2="452.487" y2="1107.85" stroke="#003A6C" stroke-opacity="0.5" stroke-width="0.5"/>
<line x1="1188.75" y1="1.15039" x2="1188.75" y2="1107.85" stroke="#003A6C" stroke-opacity="0.5" stroke-width="0.5"/>
<line x1="1625.91" y1="1.15039" x2="1625.91" y2="1107.85" stroke="#003A6C" stroke-opacity="0.5" stroke-width="0.5"/>
<line x1="268.421" y1="1.15039" x2="268.421" y2="1106.7" stroke="#003A6C" stroke-opacity="0.5" stroke-width="0.5"/>
<line x1="1004.69" y1="1.15039" x2="1004.69" y2="1107.85" stroke="#003A6C" stroke-opacity="0.5" stroke-width="0.5"/>
<line x1="1441.84" y1="1.15039" x2="1441.84" y2="1107.85" stroke="#003A6C" stroke-opacity="0.5" stroke-width="0.5"/>
<line x1="636.554" y1="1.15039" x2="636.554" y2="1107.85" stroke="#003A6C" stroke-opacity="0.5" stroke-width="0.5"/>
<line x1="1372.82" y1="1.15039" x2="1372.82" y2="1107.85" stroke="#003A6C" stroke-opacity="0.5" stroke-width="0.5"/>
<line x1="1809.98" y1="1.15039" x2="1809.98" y2="1107.85" stroke="#003A6C" stroke-opacity="0.5" stroke-width="0.5"/>
<line x1="1902.01" y1="1.15039" x2="1902.01" y2="1107.85" stroke="#003A6C" stroke-opacity="0.5" stroke-width="0.5"/>
<line x1="38.3379" y1="1.15039" x2="38.3378" y2="1107.85" stroke="#003A6C" stroke-opacity="0.5" stroke-width="0.5"/>
<line x1="774.604" y1="1.15039" x2="774.603" y2="1107.85" stroke="#003A6C" stroke-opacity="0.5" stroke-width="0.5"/>
<line x1="406.471" y1="1.15039" x2="406.471" y2="1107.85" stroke="#003A6C" stroke-opacity="0.5" stroke-width="0.5"/>
<line x1="1142.74" y1="1.15039" x2="1142.74" y2="1107.85" stroke="#003A6C" stroke-opacity="0.5" stroke-width="0.5"/>
<line x1="1579.89" y1="1.15039" x2="1579.89" y2="1107.85" stroke="#003A6C" stroke-opacity="0.5" stroke-width="0.5"/>
<line x1="222.404" y1="1.15039" x2="222.404" y2="1107.85" stroke="#003A6C" stroke-opacity="0.5" stroke-width="0.5"/>
<line x1="958.67" y1="1.15039" x2="958.67" y2="1107.85" stroke="#003A6C" stroke-opacity="0.5" stroke-width="0.5"/>
<line x1="590.537" y1="1.15039" x2="590.537" y2="1107.85" stroke="#003A6C" stroke-opacity="0.5" stroke-width="0.5"/>
<line x1="1326.8" y1="1.15039" x2="1326.8" y2="1107.85" stroke="#003A6C" stroke-opacity="0.5" stroke-width="0.5"/>
<line x1="1763.96" y1="1.15039" x2="1763.96" y2="1107.85" stroke="#003A6C" stroke-opacity="0.5" stroke-width="0.5"/>
<line x1="130.371" y1="1.15039" x2="130.371" y2="1107.85" stroke="#003A6C" stroke-opacity="0.5" stroke-width="0.5"/>
<line x1="866.637" y1="1.15039" x2="866.637" y2="1107.85" stroke="#003A6C" stroke-opacity="0.5" stroke-width="0.5"/>
<line x1="498.504" y1="1.15039" x2="498.504" y2="1107.85" stroke="#003A6C" stroke-opacity="0.5" stroke-width="0.5"/>
<line x1="1234.77" y1="1.15039" x2="1234.77" y2="1107.85" stroke="#003A6C" stroke-opacity="0.5" stroke-width="0.5"/>
<line x1="1671.93" y1="1.15039" x2="1671.93" y2="1107.85" stroke="#003A6C" stroke-opacity="0.5" stroke-width="0.5"/>
<line x1="314.438" y1="1.15039" x2="314.438" y2="1106.7" stroke="#003A6C" stroke-opacity="0.5" stroke-width="0.5"/>
<line x1="1050.7" y1="1.15039" x2="1050.7" y2="1107.85" stroke="#003A6C" stroke-opacity="0.5" stroke-width="0.5"/>
<line x1="1487.86" y1="1.15039" x2="1487.86" y2="1107.85" stroke="#003A6C" stroke-opacity="0.5" stroke-width="0.5"/>
<line x1="682.57" y1="1.15039" x2="682.57" y2="1107.85" stroke="#003A6C" stroke-opacity="0.5" stroke-width="0.5"/>
<line x1="1418.84" y1="1.15039" x2="1418.84" y2="1107.85" stroke="#003A6C" stroke-opacity="0.5" stroke-width="0.5"/>
<line x1="1855.99" y1="1.15039" x2="1855.99" y2="1107.85" stroke="#003A6C" stroke-opacity="0.5" stroke-width="0.5"/>
<line x1="-52.7949" y1="901.675" x2="1969.63" y2="901.675" stroke="#003A6C" stroke-opacity="0.5" stroke-width="0.5"/>
<line x1="-52.7949" y1="469.119" x2="1969.63" y2="469.119" stroke="#003A6C" stroke-opacity="0.5" stroke-width="0.5"/>
<line x1="-52.7949" y1="1084.59" x2="1969.63" y2="1084.59" stroke="#003A6C" stroke-opacity="0.5" stroke-width="0.5"/>
<line x1="-52.7949" y1="719.91" x2="1969.63" y2="719.91" stroke="#003A6C" stroke-opacity="0.5" stroke-width="0.5"/>
<line x1="-52.7949" y1="286.203" x2="1969.63" y2="286.203" stroke="#003A6C" stroke-opacity="0.5" stroke-width="0.5"/>
<line x1="-52.7949" y1="810.793" x2="1969.63" y2="810.793" stroke="#003A6C" stroke-opacity="0.5" stroke-width="0.5"/>
<line x1="-52.7949" y1="377.086" x2="1969.63" y2="377.086" stroke="#003A6C" stroke-opacity="0.5" stroke-width="0.5"/>
<line x1="-52.7949" y1="993.709" x2="1969.63" y2="993.709" stroke="#003A6C" stroke-opacity="0.5" stroke-width="0.5"/>
<line x1="-52.7949" y1="627.877" x2="1969.63" y2="627.877" stroke="#003A6C" stroke-opacity="0.5" stroke-width="0.5"/>
<line x1="-52.7949" y1="195.32" x2="1969.63" y2="195.32" stroke="#003A6C" stroke-opacity="0.5" stroke-width="0.5"/>
<line x1="-52.7949" y1="103.287" x2="1969.63" y2="103.287" stroke="#003A6C" stroke-opacity="0.5" stroke-width="0.5"/>
<line x1="-52.7949" y1="856.809" x2="1969.63" y2="856.809" stroke="#003A6C" stroke-opacity="0.5" stroke-width="0.5"/>
<line x1="-52.7949" y1="423.103" x2="1969.63" y2="423.103" stroke="#003A6C" stroke-opacity="0.5" stroke-width="0.5"/>
<line x1="-52.7949" y1="1038.57" x2="1969.63" y2="1038.57" stroke="#003A6C" stroke-opacity="0.5" stroke-width="0.5"/>
<line x1="-52.7949" y1="673.893" x2="1969.63" y2="673.893" stroke="#003A6C" stroke-opacity="0.5" stroke-width="0.5"/>
<line x1="-52.7949" y1="240.187" x2="1969.63" y2="240.187" stroke="#003A6C" stroke-opacity="0.5" stroke-width="0.5"/>
<line x1="-52.7949" y1="764.776" x2="1969.63" y2="764.776" stroke="#003A6C" stroke-opacity="0.5" stroke-width="0.5"/>
<line x1="-52.7949" y1="332.22" x2="1969.63" y2="332.22" stroke="#003A6C" stroke-opacity="0.5" stroke-width="0.5"/>
<line x1="-52.7949" y1="947.692" x2="1969.63" y2="947.692" stroke="#003A6C" stroke-opacity="0.5" stroke-width="0.5"/>
<line x1="-52.7949" y1="513.985" x2="1969.63" y2="513.985" stroke="#003A6C" stroke-opacity="0.5" stroke-width="0.5"/>
<line x1="-53.9453" y1="583.011" x2="1969.63" y2="583.011" stroke="#003A6C" stroke-opacity="0.5" stroke-width="0.5"/>
<line x1="-52.7949" y1="149.304" x2="1969.63" y2="149.304" stroke="#003A6C" stroke-opacity="0.5" stroke-width="0.5"/>
<line x1="-52.7949" y1="58.4209" x2="1969.63" y2="58.421" stroke="#003A6C" stroke-opacity="0.5" stroke-width="0.5"/>
<line x1="-52.7949" y1="879.817" x2="1969.63" y2="879.817" stroke="#003A6C" stroke-opacity="0.5" stroke-width="0.5"/>
<line x1="-52.7949" y1="446.111" x2="1969.63" y2="446.111" stroke="#003A6C" stroke-opacity="0.5" stroke-width="0.5"/>
<line x1="-52.7949" y1="1061.58" x2="1969.63" y2="1061.58" stroke="#003A6C" stroke-opacity="0.5" stroke-width="0.5"/>
<line x1="-52.7949" y1="696.901" x2="1969.63" y2="696.901" stroke="#003A6C" stroke-opacity="0.5" stroke-width="0.5"/>
<line x1="-52.7949" y1="263.195" x2="1969.63" y2="263.195" stroke="#003A6C" stroke-opacity="0.5" stroke-width="0.5"/>
<line x1="-52.7949" y1="787.784" x2="1969.63" y2="787.784" stroke="#003A6C" stroke-opacity="0.5" stroke-width="0.5"/>
<line x1="-52.7949" y1="354.078" x2="1969.63" y2="354.078" stroke="#003A6C" stroke-opacity="0.5" stroke-width="0.5"/>
<line x1="-52.7949" y1="970.7" x2="1969.63" y2="970.7" stroke="#003A6C" stroke-opacity="0.5" stroke-width="0.5"/>
<line x1="-52.7949" y1="536.994" x2="1969.63" y2="536.994" stroke="#003A6C" stroke-opacity="0.5" stroke-width="0.5"/>
<line x1="-53.9453" y1="606.019" x2="1969.63" y2="606.019" stroke="#003A6C" stroke-opacity="0.5" stroke-width="0.5"/>
<line x1="-52.7949" y1="172.312" x2="1969.63" y2="172.313" stroke="#003A6C" stroke-opacity="0.5" stroke-width="0.5"/>
<line x1="-52.7949" y1="80.2793" x2="1969.63" y2="80.2794" stroke="#003A6C" stroke-opacity="0.5" stroke-width="0.5"/>
<line x1="-52.7949" y1="833.801" x2="1969.63" y2="833.801" stroke="#003A6C" stroke-opacity="0.5" stroke-width="0.5"/>
<line x1="-52.7949" y1="400.095" x2="1969.63" y2="400.095" stroke="#003A6C" stroke-opacity="0.5" stroke-width="0.5"/>
<line x1="-52.7949" y1="1016.72" x2="1969.63" y2="1016.72" stroke="#003A6C" stroke-opacity="0.5" stroke-width="0.5"/>
<line x1="-52.7949" y1="650.885" x2="1969.63" y2="650.885" stroke="#003A6C" stroke-opacity="0.5" stroke-width="0.5"/>
<line x1="-52.7949" y1="217.179" x2="1969.63" y2="217.179" stroke="#003A6C" stroke-opacity="0.5" stroke-width="0.5"/>
<line x1="-52.7949" y1="742.918" x2="1969.63" y2="742.918" stroke="#003A6C" stroke-opacity="0.5" stroke-width="0.5"/>
<line x1="-52.7949" y1="309.212" x2="1969.63" y2="309.212" stroke="#003A6C" stroke-opacity="0.5" stroke-width="0.5"/>
<line x1="-52.7949" y1="924.684" x2="1969.63" y2="924.684" stroke="#003A6C" stroke-opacity="0.5" stroke-width="0.5"/>
<line x1="-52.7949" y1="490.978" x2="1969.63" y2="490.978" stroke="#003A6C" stroke-opacity="0.5" stroke-width="0.5"/>
<line x1="-53.9453" y1="560.002" x2="1969.63" y2="560.002" stroke="#003A6C" stroke-opacity="0.5" stroke-width="0.5"/>
<line x1="-52.7949" y1="126.296" x2="1969.63" y2="126.296" stroke="#003A6C" stroke-opacity="0.5" stroke-width="0.5"/>
<line x1="-52.7949" y1="35.4131" x2="1969.63" y2="35.4132" stroke="#003A6C" stroke-opacity="0.5" stroke-width="0.5"/>
<line x1="-52.7949" y1="891.321" x2="1969.63" y2="891.321" stroke="#003A6C" stroke-opacity="0.5" stroke-width="0.5"/>
<line x1="-52.7949" y1="457.615" x2="1969.63" y2="457.615" stroke="#003A6C" stroke-opacity="0.5" stroke-width="0.5"/>
<line x1="-52.7949" y1="1073.09" x2="1969.63" y2="1073.09" stroke="#003A6C" stroke-opacity="0.5" stroke-width="0.5"/>
<line x1="-52.7949" y1="708.405" x2="1969.63" y2="708.405" stroke="#003A6C" stroke-opacity="0.5" stroke-width="0.5"/>
<line x1="-52.7949" y1="274.699" x2="1969.63" y2="274.699" stroke="#003A6C" stroke-opacity="0.5" stroke-width="0.5"/>
<line x1="-52.7949" y1="799.288" x2="1969.63" y2="799.288" stroke="#003A6C" stroke-opacity="0.5" stroke-width="0.5"/>
<line x1="-52.7949" y1="365.582" x2="1969.63" y2="365.582" stroke="#003A6C" stroke-opacity="0.5" stroke-width="0.5"/>
<line x1="-52.7949" y1="982.204" x2="1969.63" y2="982.204" stroke="#003A6C" stroke-opacity="0.5" stroke-width="0.5"/>
<line x1="-53.9453" y1="617.522" x2="1969.63" y2="617.523" stroke="#003A6C" stroke-opacity="0.5" stroke-width="0.5"/>
<line x1="-52.7949" y1="183.816" x2="1969.63" y2="183.816" stroke="#003A6C" stroke-opacity="0.5" stroke-width="0.5"/>
<line x1="-52.7949" y1="91.7832" x2="1969.63" y2="91.7833" stroke="#003A6C" stroke-opacity="0.5" stroke-width="0.5"/>
<line x1="-52.7949" y1="845.305" x2="1969.63" y2="845.305" stroke="#003A6C" stroke-opacity="0.5" stroke-width="0.5"/>
<line x1="-52.7949" y1="411.599" x2="1969.63" y2="411.599" stroke="#003A6C" stroke-opacity="0.5" stroke-width="0.5"/>
<line x1="-52.7949" y1="1028.22" x2="1969.63" y2="1028.22" stroke="#003A6C" stroke-opacity="0.5" stroke-width="0.5"/>
<line x1="-52.7949" y1="662.389" x2="1969.63" y2="662.389" stroke="#003A6C" stroke-opacity="0.5" stroke-width="0.5"/>
<line x1="-52.7949" y1="228.683" x2="1969.63" y2="228.683" stroke="#003A6C" stroke-opacity="0.5" stroke-width="0.5"/>
<line x1="-52.7949" y1="754.422" x2="1969.63" y2="754.422" stroke="#003A6C" stroke-opacity="0.5" stroke-width="0.5"/>
<line x1="-52.7949" y1="320.716" x2="1969.63" y2="320.716" stroke="#003A6C" stroke-opacity="0.5" stroke-width="0.5"/>
<line x1="-52.7949" y1="936.188" x2="1969.63" y2="936.188" stroke="#003A6C" stroke-opacity="0.5" stroke-width="0.5"/>
<line x1="-52.7949" y1="502.481" x2="1969.63" y2="502.482" stroke="#003A6C" stroke-opacity="0.5" stroke-width="0.5"/>
<line x1="-53.9453" y1="571.506" x2="1969.63" y2="571.506" stroke="#003A6C" stroke-opacity="0.5" stroke-width="0.5"/>
<line x1="-52.7949" y1="137.8" x2="1969.63" y2="137.8" stroke="#003A6C" stroke-opacity="0.5" stroke-width="0.5"/>
<line x1="-52.7949" y1="46.917" x2="1969.63" y2="46.9171" stroke="#003A6C" stroke-opacity="0.5" stroke-width="0.5"/>
<line x1="-52.7949" y1="868.313" x2="1969.63" y2="868.314" stroke="#003A6C" stroke-opacity="0.5" stroke-width="0.5"/>
<line x1="-52.7949" y1="434.606" x2="1969.63" y2="434.607" stroke="#003A6C" stroke-opacity="0.5" stroke-width="0.5"/>
<line x1="-52.7949" y1="1050.08" x2="1969.63" y2="1050.08" stroke="#003A6C" stroke-opacity="0.5" stroke-width="0.5"/>
<line x1="-52.7949" y1="685.397" x2="1969.63" y2="685.398" stroke="#003A6C" stroke-opacity="0.5" stroke-width="0.5"/>
<line x1="-52.7949" y1="251.691" x2="1969.63" y2="251.691" stroke="#003A6C" stroke-opacity="0.5" stroke-width="0.5"/>
<line x1="-52.7949" y1="776.28" x2="1969.63" y2="776.28" stroke="#003A6C" stroke-opacity="0.5" stroke-width="0.5"/>
<line x1="-52.7949" y1="343.724" x2="1969.63" y2="343.724" stroke="#003A6C" stroke-opacity="0.5" stroke-width="0.5"/>
<line x1="-52.7949" y1="959.196" x2="1969.63" y2="959.196" stroke="#003A6C" stroke-opacity="0.5" stroke-width="0.5"/>
<line x1="-52.7949" y1="525.489" x2="1969.63" y2="525.489" stroke="#003A6C" stroke-opacity="0.5" stroke-width="0.5"/>
<line x1="-53.9453" y1="594.515" x2="1969.63" y2="594.515" stroke="#003A6C" stroke-opacity="0.5" stroke-width="0.5"/>
<line x1="-52.7949" y1="160.808" x2="1969.63" y2="160.808" stroke="#003A6C" stroke-opacity="0.5" stroke-width="0.5"/>
<line x1="-52.7949" y1="69.9248" x2="1969.63" y2="69.9249" stroke="#003A6C" stroke-opacity="0.5" stroke-width="0.5"/>
<line x1="-52.7949" y1="822.297" x2="1969.63" y2="822.297" stroke="#003A6C" stroke-opacity="0.5" stroke-width="0.5"/>
<line x1="-52.7949" y1="388.59" x2="1969.63" y2="388.59" stroke="#003A6C" stroke-opacity="0.5" stroke-width="0.5"/>
<line x1="-52.7949" y1="1005.21" x2="1969.63" y2="1005.21" stroke="#003A6C" stroke-opacity="0.5" stroke-width="0.5"/>
<line x1="-52.7949" y1="639.381" x2="1969.63" y2="639.381" stroke="#003A6C" stroke-opacity="0.5" stroke-width="0.5"/>
<line x1="-52.7949" y1="206.825" x2="1969.63" y2="206.825" stroke="#003A6C" stroke-opacity="0.5" stroke-width="0.5"/>
<line x1="-52.7949" y1="1096.1" x2="1969.63" y2="1096.1" stroke="#003A6C" stroke-opacity="0.5" stroke-width="0.5"/>
<line x1="-52.7949" y1="731.414" x2="1969.63" y2="731.414" stroke="#003A6C" stroke-opacity="0.5" stroke-width="0.5"/>
<line x1="-52.7949" y1="297.707" x2="1969.63" y2="297.707" stroke="#003A6C" stroke-opacity="0.5" stroke-width="0.5"/>
<line x1="-52.7949" y1="913.18" x2="1969.63" y2="913.18" stroke="#003A6C" stroke-opacity="0.5" stroke-width="0.5"/>
<line x1="-52.7949" y1="480.623" x2="1969.63" y2="480.623" stroke="#003A6C" stroke-opacity="0.5" stroke-width="0.5"/>
<line x1="-53.9453" y1="548.498" x2="1969.63" y2="548.498" stroke="#003A6C" stroke-opacity="0.5" stroke-width="0.5"/>
<line x1="-52.7949" y1="114.791" x2="1969.63" y2="114.791" stroke="#003A6C" stroke-opacity="0.5" stroke-width="0.5"/>
<line x1="-52.7949" y1="23.9092" x2="1969.63" y2="23.9093" stroke="#003A6C" stroke-opacity="0.5" stroke-width="0.5"/>
<line x1="-52.7949" y1="12.4043" x2="1969.63" y2="12.4044" stroke="#003A6C" stroke-opacity="0.5" stroke-width="0.5"/>
</g>
</svg>
