<svg xmlns="http://www.w3.org/2000/svg" version="1.1" xmlns:xlink="http://www.w3.org/1999/xlink" xmlns:svgjs="http://svgjs.com/svgjs" width="61" height="48"><svg width="61" height="48" viewBox="0 0 61 48" fill="none" xmlns="http://www.w3.org/2000/svg">
<path d="M59.6225 5.47211e-10C59.8257 -6.83588e-06 60.0238 0.0640432 60.1885 0.183031C60.3531 0.30202 60.4761 0.469881 60.5397 0.662722C60.6034 0.855562 60.6045 1.06355 60.543 1.25709C60.4815 1.45062 60.3604 1.61983 60.1971 1.74063L38.108 18.0751L30.6808 23.5718V18.0751H0.965843C0.709685 18.0751 0.46402 17.9734 0.282889 17.7924C0.101758 17.6114 0 17.366 0 17.1101L0 0.964981C0 0.709053 0.101758 0.463604 0.282889 0.282636C0.46402 0.101667 0.709685 5.47208e-10 0.965843 5.47211e-10H59.6225Z" fill="#0D72E8"></path>
<path d="M0.821188 47.1431C0.648361 47.1429 0.479995 47.0882 0.340009 46.987C0.200023 46.8857 0.0955356 46.7429 0.0413908 46.579C-0.012754 46.415 -0.0138025 46.2381 0.0383941 46.0735C0.0905907 45.9089 0.193378 45.7649 0.332154 45.662L22.7697 29.068L30.1969 23.5713V29.068H59.6948C59.9126 29.0688 60.1213 29.1556 60.2753 29.3095C60.4293 29.4634 60.5162 29.6719 60.517 29.8895V46.3216C60.5162 46.5392 60.4293 46.7477 60.2753 46.9016C60.1213 47.0555 59.9126 47.1423 59.6948 47.1431H0.821188Z" fill="#0075FF"></path>
</svg><style>@media (prefers-color-scheme: light) { :root { filter: none; } }
</style></svg>