<svg width="26" height="26" viewBox="0 0 26 26" fill="none" xmlns="http://www.w3.org/2000/svg">
<g clip-path="url(#clip0_10458_1046)">
<path d="M11.7041 12.5288C11.3588 12.5775 11.1211 12.8903 11.1719 13.2255C11.1885 13.3461 11.24 13.4592 11.3201 13.5509C11.4003 13.6426 11.5055 13.7088 11.6228 13.7414C11.6228 13.7414 13.1402 14.2411 15.7219 14.4544C17.7958 14.627 20.15 14.3061 20.15 14.3061C20.4953 14.298 20.7655 14.0116 20.7573 13.6662C20.7554 13.5843 20.7372 13.5036 20.704 13.4286C20.6707 13.3537 20.623 13.2861 20.5636 13.2297C20.5041 13.1733 20.4341 13.1291 20.3576 13.0998C20.281 13.0705 20.1994 13.0566 20.1175 13.0589C20.0769 13.0589 20.0363 13.067 19.9936 13.0752C19.9936 13.0752 17.6902 13.3616 15.8194 13.2072C13.3514 13.0102 12.0067 12.5592 12.0067 12.5592C11.9092 12.5267 11.8016 12.5105 11.7041 12.5267V12.5288ZM11.7041 9.43719C11.3588 9.48594 11.1211 9.79875 11.1719 10.1339C11.1885 10.2545 11.24 10.3677 11.3201 10.4594C11.4003 10.551 11.5055 10.6173 11.6228 10.6498C11.6228 10.6498 13.1402 11.1495 15.7219 11.3628C17.7958 11.5355 20.15 11.2145 20.15 11.2145C20.4953 11.2064 20.7655 10.92 20.7573 10.5747C20.7554 10.4927 20.7372 10.412 20.704 10.3371C20.6707 10.2622 20.623 10.1946 20.5636 10.1381C20.5041 10.0817 20.4341 10.0376 20.3576 10.0083C20.281 9.97895 20.1994 9.96505 20.1175 9.96734C20.0769 9.96734 20.0363 9.97547 19.9936 9.98359C19.9936 9.98359 17.6902 10.27 15.8194 10.1156C13.3514 9.91859 12.0067 9.46766 12.0067 9.46766C11.9092 9.43516 11.8016 9.41891 11.7041 9.43516V9.43719ZM11.7041 6.34562C11.3588 6.39437 11.1211 6.70719 11.1719 7.04234C11.1885 7.16298 11.24 7.27612 11.3201 7.3678C11.4003 7.45948 11.5055 7.5257 11.6228 7.55828C11.6228 7.55828 13.1402 8.05797 15.7219 8.27125C17.7958 8.44391 20.15 8.12297 20.15 8.12297C20.4953 8.11484 20.7655 7.82844 20.7573 7.48313C20.7554 7.40118 20.7372 7.32044 20.704 7.24552C20.6707 7.17061 20.623 7.103 20.5636 7.04657C20.5041 6.99014 20.4341 6.946 20.3576 6.9167C20.281 6.88739 20.1994 6.87348 20.1175 6.87578C20.0769 6.87578 20.0363 6.88391 19.9936 6.89203C19.9936 6.89203 17.6902 7.17844 15.8194 7.02406C13.3514 6.82703 12.0067 6.37609 12.0067 6.37609C11.9092 6.34359 11.8016 6.33547 11.7041 6.34359V6.34562ZM11.7041 3.26219C11.3588 3.31094 11.1211 3.62375 11.1719 3.95891C11.1885 4.07954 11.24 4.19268 11.3201 4.28436C11.4003 4.37605 11.5055 4.44226 11.6228 4.47484C11.6228 4.47484 13.1402 4.97453 15.7219 5.18781C17.7958 5.36047 20.15 5.03953 20.15 5.03953C20.4953 5.03141 20.7655 4.745 20.7573 4.39969C20.7554 4.31775 20.7372 4.237 20.704 4.16209C20.6707 4.08717 20.623 4.01956 20.5636 3.96313C20.5041 3.9067 20.4341 3.86257 20.3576 3.83326C20.281 3.80395 20.1994 3.79005 20.1175 3.79234C20.0769 3.79234 20.0363 3.80047 19.9936 3.80859C19.9936 3.80859 17.6902 4.095 15.8194 3.94062C13.3514 3.74359 12.0067 3.29266 12.0067 3.29266C11.9108 3.25391 11.806 3.24265 11.7041 3.26016V3.26219ZM7.37547 0C4.12751 0.024375 2.92297 1.02578 2.92297 1.02578V25.2728C2.92297 25.2728 4.10313 24.2552 7.90766 24.4116C11.7122 24.568 12.4922 25.9045 17.1661 25.9939C21.84 26.0833 23.012 25.2728 23.012 25.2728L23.077 0.558594C23.077 0.558594 20.9788 1.15781 16.8777 1.19031C12.7867 1.22078 11.8036 0.148281 8.04782 0.024375C7.81829 0.008125 7.59688 0 7.37547 0ZM10.0892 1.58234C10.0892 1.58234 12.0575 2.23031 15.6894 2.41109C18.7647 2.5675 21.84 2.10844 21.84 2.10844V24.0764C21.84 24.0764 20.282 24.897 16.3881 24.6167C13.3697 24.4034 10.0506 23.2558 10.0506 23.2558L10.0913 1.58438L10.0892 1.58234ZM8.1961 2.15719C8.54141 2.15719 8.82782 2.43547 8.82782 2.78891C8.82782 3.14234 8.54954 3.42063 8.1961 3.42063C8.1961 3.42063 7.17844 3.42875 6.55688 3.48562C5.51485 3.59125 4.80188 3.96906 4.80188 3.96906C4.49922 4.13359 4.11329 4.00969 3.95688 3.70703C3.79235 3.40437 3.91625 3.01844 4.21891 2.86203C4.52157 2.70563 5.14516 2.37047 6.43297 2.24656C7.17844 2.16531 8.1961 2.15719 8.1961 2.15719ZM7.58875 5.25687C7.93407 5.24875 8.1961 5.25687 8.1961 5.25687C8.54141 5.2975 8.78719 5.61031 8.74454 5.95359C8.72813 6.09337 8.66508 6.22354 8.56556 6.32305C8.46604 6.42257 8.33588 6.48563 8.1961 6.50203C8.1961 6.50203 7.17844 6.51016 6.55688 6.56703C5.51485 6.67266 4.80188 7.05047 4.80188 7.05047C4.49922 7.215 4.11329 7.09109 3.95688 6.78844C3.79235 6.48578 3.91625 6.09984 4.21891 5.94344C4.21891 5.94344 5.14516 5.45187 6.43297 5.32797C6.81079 5.27922 7.24547 5.26297 7.58875 5.25484V5.25687ZM8.1961 8.34031C8.54141 8.34031 8.82782 8.61859 8.82782 8.97203C8.82782 9.32547 8.54954 9.60375 8.1961 9.60375C8.1961 9.60375 7.17844 9.59563 6.55688 9.66063C5.51485 9.76625 4.80188 10.1441 4.80188 10.1441C4.49922 10.3086 4.11329 10.1847 3.95688 9.88203C3.79235 9.57938 3.91625 9.19344 4.21891 9.03703C4.21891 9.03703 5.14516 8.54547 6.43297 8.42156C7.17844 8.33219 8.1961 8.34031 8.1961 8.34031Z" fill="#FDF5E6"/>
</g>
<defs>
<clipPath id="clip0_10458_1046">
<rect width="26" height="26" fill="white"/>
</clipPath>
</defs>
</svg>
