<svg width="34" height="23" viewBox="0 0 34 23" fill="none" xmlns="http://www.w3.org/2000/svg">
<path d="M15.3025 19.1746C15.4333 19.1748 15.5628 19.1991 15.6836 19.2463C15.8043 19.2934 15.914 19.3625 16.0063 19.4494C16.0987 19.5364 16.1719 19.6396 16.2218 19.7531C16.2717 19.8666 16.2972 19.9882 16.2971 20.111C16.2969 20.2338 16.2709 20.3554 16.2207 20.4687C16.1705 20.5821 16.097 20.6851 16.0043 20.7718C15.9117 20.8585 15.8018 20.9272 15.6809 20.9741C15.56 21.0209 15.4305 21.0449 15.2997 21.0447C15.0356 21.0444 14.7824 20.9455 14.5959 20.7699C14.4094 20.5943 14.3048 20.3563 14.3052 20.1083C14.3056 19.8603 14.4108 19.6227 14.5979 19.4475C14.7849 19.2724 15.0384 19.1743 15.3025 19.1746ZM30.9201 13.3926C30.7893 13.3925 30.6598 13.3683 30.539 13.3212C30.4182 13.2741 30.3085 13.2052 30.2161 13.1183C30.1237 13.0314 30.0504 12.9283 30.0004 12.8148C29.9505 12.7013 29.9248 12.5797 29.9249 12.4569C29.925 12.3341 29.9508 12.2125 30.001 12.0991C30.0511 11.9857 30.1245 11.8827 30.2171 11.7959C30.3096 11.7091 30.4195 11.6403 30.5404 11.5934C30.6612 11.5465 30.7907 11.5224 30.9215 11.5225C31.1857 11.5227 31.4389 11.6214 31.6256 11.7968C31.8122 11.9723 31.9169 12.2102 31.9168 12.4582C31.9166 12.7062 31.8115 12.944 31.6246 13.1192C31.4376 13.2945 31.1843 13.3928 30.9201 13.3926ZM30.9201 9.56723C30.1035 9.56793 29.3206 9.87282 28.7431 10.415C28.1657 10.9571 27.841 11.6922 27.8402 12.4589C27.8402 12.7688 27.8955 13.0774 28.0032 13.378L17.8299 18.463C17.5478 18.0784 17.1704 17.7641 16.7301 17.5469C16.2898 17.3298 15.7999 17.2165 15.3025 17.2167C14.1281 17.2167 13.0585 17.8485 12.54 18.8341L3.40093 14.3091C2.43474 13.8329 1.71223 12.3405 1.78873 10.9811C1.8284 10.2722 2.08907 9.72152 2.48716 9.5087C2.73933 9.37569 3.0425 9.38633 3.36551 9.54462L3.42501 9.57521C5.84755 10.7723 13.7725 14.6921 14.1068 14.8371C14.6211 15.0619 14.9073 15.1524 15.7856 14.7613L32.1682 6.76203C32.4091 6.6769 32.6896 6.46009 32.6896 6.13156C32.6896 5.67666 32.1881 5.4971 32.1866 5.4971C31.2545 5.07811 29.8222 4.44897 28.4253 3.83446C25.4389 2.52164 22.0545 1.03458 20.5684 0.303021C19.2848 -0.327451 18.2521 0.204593 18.0679 0.311002L17.7109 0.477265C11.0213 3.58307 2.06782 7.74631 1.55781 8.0376C0.646882 8.55901 0.0816231 9.59782 0.00795529 10.8867C-0.10538 12.9311 1.00389 15.0632 2.592 15.844L12.2567 20.5233C12.3631 21.2107 12.7294 21.8392 13.2887 22.2939C13.8479 22.7486 14.5627 22.9992 15.3025 23C16.1105 22.9987 16.8857 22.6998 17.4614 22.1675C18.0371 21.6352 18.3673 20.9121 18.381 20.1536L29.026 14.736C29.5643 15.1324 30.2344 15.3492 30.9201 15.3492C31.7367 15.3485 32.5197 15.0436 33.0971 14.5015C33.6745 13.9593 33.9992 13.2243 34 12.4576C33.9992 11.6909 33.6745 10.9558 33.0971 10.4136C32.5197 9.87148 31.7367 9.5666 30.9201 9.5659" fill="#FDF5E6"/>
</svg>
