<svg width="407" height="243" viewBox="0 0 407 243" fill="none" xmlns="http://www.w3.org/2000/svg">
<circle cx="135.247" cy="191.524" r="2.71291" transform="rotate(-12.8086 135.247 191.524)" fill="#003A6C"/>
<path d="M272.5 105C272.5 135.648 247.432 160.5 216.5 160.5C185.568 160.5 160.5 135.648 160.5 105C160.5 74.3524 185.568 49.5 216.5 49.5C247.432 49.5 272.5 74.3524 272.5 105Z" fill="#003A6C" stroke="#003A6C"/>
<path d="M222.766 100.144L222.766 100.144L217.997 103.673V100.546V100.046H217.497H195.227C195.168 100.046 195.111 100.022 195.069 99.9805C195.027 99.9386 195.004 99.8819 195.004 99.8229V87.7232C195.004 87.6641 195.027 87.6074 195.069 87.5655C195.111 87.5236 195.168 87.5 195.227 87.5H239.187C239.234 87.5 239.28 87.5149 239.318 87.5425C239.356 87.57 239.385 87.6089 239.399 87.6534C239.414 87.6979 239.414 87.7459 239.4 87.7906C239.386 87.8353 239.358 87.8745 239.32 87.9025L239.617 88.304L239.32 87.9025L222.766 100.144Z" fill="#FDF5E6" stroke="#FDF5E6"/>
<path d="M195.37 121.674C195.378 121.651 195.392 121.631 195.412 121.617C195.412 121.616 195.412 121.616 195.412 121.616L212.227 109.181L212.227 109.181L216.996 105.651V108.779V109.279H217.496H239.601C239.632 109.279 239.662 109.291 239.684 109.313L240.037 108.96L239.684 109.313C239.706 109.335 239.718 109.365 239.719 109.395C239.719 109.396 239.719 109.396 239.719 109.396V121.707C239.719 121.707 239.719 121.708 239.719 121.708C239.718 121.739 239.706 121.768 239.684 121.79C239.662 121.812 239.632 121.824 239.601 121.825H195.481C195.457 121.825 195.433 121.817 195.413 121.803C195.393 121.788 195.379 121.768 195.371 121.745C195.363 121.722 195.363 121.697 195.37 121.674Z" fill="#FDF5E6" stroke="#FDF5E6"/>
<path d="M6.02612 12.3156C5.88293 12.3156 5.84714 12.2441 5.91873 12.1367L6.67044 11.1702C6.74203 11.0628 6.92101 10.9912 7.06419 10.9912H19.8432C19.9864 10.9912 20.0222 11.0986 19.9506 11.206L19.3421 12.1367C19.2705 12.2441 19.0915 12.3514 18.9841 12.3514L6.02612 12.3156Z" fill="#2DBCAF"/>
<path d="M0.620966 15.6106C0.477784 15.6106 0.441987 15.539 0.513579 15.4316L1.26529 14.4651C1.33688 14.3577 1.51586 14.2861 1.65904 14.2861H17.9818C18.125 14.2861 18.1966 14.3935 18.1608 14.5009L17.8745 15.36C17.8387 15.5032 17.6955 15.5748 17.5523 15.5748L0.620966 15.6106Z" fill="#2DBCAF"/>
<path d="M9.28649 18.9016C9.14331 18.9016 9.10751 18.7942 9.17911 18.6868L9.68025 17.7919C9.75184 17.6845 9.89502 17.5771 10.0382 17.5771H17.1973C17.3405 17.5771 17.4121 17.6845 17.4121 17.8277L17.3405 18.6868C17.3405 18.83 17.1973 18.9374 17.0899 18.9374L9.28649 18.9016Z" fill="#2DBCAF"/>
<path d="M46.4437 11.6726C44.1886 12.2453 42.6494 12.6748 40.4301 13.2476C39.8931 13.3907 39.8573 13.4265 39.392 12.8896C38.855 12.2811 38.4613 11.8873 37.7096 11.5294C35.4545 10.4197 33.2709 10.7419 31.2306 12.0663C28.7965 13.6413 27.5436 15.968 27.5794 18.8675C27.6152 21.7311 29.584 24.0936 32.4118 24.4874C34.8459 24.8095 36.8863 23.9505 38.4971 22.1249C38.8193 21.7311 39.1056 21.3016 39.4636 20.8004C38.1749 20.8004 36.5641 20.8004 32.555 20.8004C31.8033 20.8004 31.6243 20.3351 31.8749 19.7266C32.3402 18.6169 33.1993 16.7555 33.7005 15.8248C33.8079 15.6101 34.0584 15.2521 34.5954 15.2521C36.4209 15.2521 43.1505 15.2521 47.625 15.2521C47.5534 16.2186 47.5534 17.1851 47.4102 18.1516C47.0165 20.7288 46.05 23.0914 44.475 25.1675C41.8977 28.5681 38.5329 30.68 34.2732 31.2528C30.7652 31.7181 27.5078 31.038 24.6442 28.8902C21.9953 26.8857 20.4919 24.2368 20.0981 20.9436C19.6328 17.0419 20.7783 13.5339 23.1408 10.4555C25.6823 7.12651 29.047 5.01456 33.1635 4.26286C36.5283 3.65433 39.7499 4.04808 42.6494 6.01684C44.5466 7.26969 45.9068 8.98788 46.8017 11.064C47.0165 11.3862 46.8733 11.5652 46.4437 11.6726Z" fill="#2DBCAF"/>
<path d="M58.2921 31.4681C55.0346 31.3965 52.0636 30.4658 49.5579 28.3181C47.446 26.4925 46.1215 24.1658 45.692 21.4095C45.0477 17.3646 46.1573 13.7851 48.5914 10.5993C51.2045 7.16287 54.3545 5.37309 58.6142 4.62138C62.2654 3.97706 65.7018 4.33502 68.816 6.44696C71.6438 8.37992 73.3978 10.993 73.8632 14.4294C74.4717 19.2618 73.0756 23.1993 69.7467 26.5641C67.3841 28.9624 64.4847 30.4658 61.1557 31.1459C60.1892 31.3249 59.2227 31.3607 58.2921 31.4681ZM66.8114 17.0067C66.7756 16.5413 66.7756 16.1834 66.704 15.8254C66.0597 12.2816 62.8023 10.2771 59.4017 11.0646C56.0727 11.8163 53.925 13.9282 53.1375 17.293C52.4932 20.0851 53.8534 22.9129 56.4307 24.0584C58.3994 24.9175 60.3682 24.8101 62.2654 23.8436C65.0932 22.376 66.6324 20.0851 66.8114 17.0067Z" fill="#2DBCAF"/>
<g clip-path="url(#clip0_9210_11131)">
<path fill-rule="evenodd" clip-rule="evenodd" d="M328 0H407V79H328V0Z" fill="#F7DF1E"/>
<path fill-rule="evenodd" clip-rule="evenodd" d="M348.772 66.0201L354.816 62.362C355.979 64.4321 357.04 66.1808 359.586 66.1808C362.022 66.1808 363.565 65.2293 363.565 61.5133V36.2665H370.991V61.6162C370.991 69.3053 366.484 72.8027 359.907 72.8027C353.967 72.8027 350.521 69.7297 348.772 66.0201ZM375.022 65.2229L381.065 61.7255C382.66 64.3228 384.723 66.2323 388.382 66.2323C391.455 66.2323 393.422 64.6957 393.422 62.5741C393.422 60.0282 391.41 59.1282 388.015 57.6431L386.157 56.8459C380.802 54.5636 377.246 51.7026 377.246 45.6593C377.246 40.0918 381.49 35.8486 388.118 35.8486C392.837 35.8486 396.231 37.4945 398.668 41.7891L392.888 45.4986C391.615 43.2163 390.24 42.3162 388.118 42.3162C385.945 42.3162 384.563 43.6921 384.563 45.4986C384.563 47.7231 385.938 48.6296 389.121 50.0054L390.979 50.8026C397.292 53.5092 400.841 56.2673 400.841 62.4713C400.841 69.151 395.588 72.8092 388.536 72.8092C381.65 72.8092 377.195 69.5175 375.022 65.2229Z" fill="black"/>
</g>
<circle cx="79.521" cy="29.3696" r="1" transform="rotate(-12.8086 79.521 29.3696)" fill="#003A6C"/>
<circle cx="81.9146" cy="30.8765" r="1" transform="rotate(-12.8086 81.9146 30.8765)" fill="#003A6C"/>
<circle cx="84.3081" cy="32.3833" r="1" transform="rotate(-12.8086 84.3081 32.3833)" fill="#003A6C"/>
<circle cx="86.7017" cy="33.8901" r="1" transform="rotate(-12.8086 86.7017 33.8901)" fill="#003A6C"/>
<circle cx="89.0952" cy="35.397" r="1" transform="rotate(-12.8086 89.0952 35.397)" fill="#003A6C"/>
<circle cx="92.0872" cy="37.2805" r="1.5" transform="rotate(-12.8086 92.0872 37.2805)" fill="#003A6C"/>
<circle cx="95.678" cy="39.5413" r="1.5" transform="rotate(-12.8086 95.678 39.5413)" fill="#003A6C"/>
<circle cx="99.8673" cy="42.1777" r="2" transform="rotate(-12.8086 99.8673 42.1777)" fill="#003A6C"/>
<circle cx="104.654" cy="45.1914" r="2" transform="rotate(-12.8086 104.654 45.1914)" fill="#003A6C"/>
<circle cx="110.04" cy="48.5818" r="2.5" transform="rotate(-12.8086 110.04 48.5818)" fill="#003A6C"/>
<circle cx="116.023" cy="52.3494" r="2.5" transform="rotate(-12.8086 116.023 52.3494)" fill="#003A6C"/>
<circle cx="122.606" cy="56.4927" r="3" transform="rotate(-12.8086 122.606 56.4927)" fill="#003A6C"/>
<circle cx="129.787" cy="61.0132" r="3" transform="rotate(-12.8086 129.787 61.0132)" fill="#003A6C"/>
<circle cx="137.567" cy="65.9104" r="3.5" transform="rotate(-12.8086 137.567 65.9104)" fill="#003A6C"/>
<circle cx="145.944" cy="71.1848" r="3.5" transform="rotate(-12.8086 145.944 71.1848)" fill="#003A6C"/>
<circle cx="155.518" cy="77.2117" r="4.5" transform="rotate(-12.8086 155.518 77.2117)" fill="#003A6C"/>
<circle cx="166.29" cy="83.9929" r="4.5" transform="rotate(-12.8086 166.29 83.9929)" fill="#003A6C"/>
<circle cx="156.95" cy="175.247" r="2.71291" transform="rotate(-12.8086 156.95 175.247)" fill="#003A6C"/>
<circle cx="163.032" cy="170.032" r="3.36874" transform="rotate(-12.8086 163.032 170.032)" fill="#003A6C"/>
<circle cx="169.731" cy="163.922" r="4.29641" transform="rotate(-12.8086 169.731 163.922)" fill="#003A6C"/>
<circle cx="178.937" cy="155.937" r="5.79603" transform="rotate(-12.8086 178.937 155.937)" fill="#003A6C"/>
<circle cx="276.937" cy="95.9372" r="5.79603" transform="rotate(-12.8086 276.937 95.9372)" fill="#003A6C"/>
<circle cx="288.937" cy="88.9372" r="5.79603" transform="rotate(-12.8086 288.937 88.9372)" fill="#003A6C"/>
<circle cx="301.937" cy="82.9372" r="5.79603" transform="rotate(-12.8086 301.937 82.9372)" fill="#003A6C"/>
<circle cx="315.937" cy="75.9372" r="5.79603" transform="rotate(-12.8086 315.937 75.9372)" fill="#003A6C"/>
<circle cx="151.524" cy="179.467" r="2.71291" transform="rotate(-12.8086 151.524 179.467)" fill="#003A6C"/>
<circle cx="146.098" cy="183.084" r="2.71291" transform="rotate(-12.8086 146.098 183.084)" fill="#003A6C"/>
<circle cx="140.673" cy="187.305" r="2.71291" transform="rotate(-12.8086 140.673 187.305)" fill="#003A6C"/>
<path d="M90.6542 181.169C88.1316 181.181 85.7229 181.396 83.6036 181.771C77.3599 182.874 76.2262 185.182 76.2262 189.439V195.062H90.981V196.935H70.6885C66.4005 196.935 62.6452 199.512 61.4709 204.414C60.116 210.033 60.056 213.539 61.4709 219.406C62.5198 223.773 65.0248 226.885 69.3127 226.885H74.386V220.146C74.386 215.277 78.5997 210.982 83.6036 210.982H98.3414C102.444 210.982 105.719 207.605 105.719 203.486V189.439C105.719 185.441 102.345 182.438 98.3414 181.771C95.8061 181.349 93.1768 181.157 90.6542 181.169ZM82.6747 185.691C84.1991 185.691 85.4433 186.956 85.4433 188.51C85.4433 190.06 84.1985 191.313 82.6747 191.313C81.1454 191.313 79.9061 190.06 79.9061 188.51C79.9061 186.956 81.1454 185.691 82.6747 185.691Z" fill="url(#paint0_linear_9210_11131)"/>
<path d="M111.765 196.935V203.485C111.765 208.563 107.458 212.837 102.547 212.837H87.8093C83.7722 212.837 80.4319 216.291 80.4319 220.333V234.38C80.4319 238.378 83.9087 240.729 87.8093 241.875C92.4797 243.249 96.9587 243.497 102.547 241.875C106.262 240.8 109.924 238.636 109.924 234.38V228.758H95.1867V226.884H117.302C121.59 226.884 123.188 223.893 124.679 219.405C126.22 214.785 126.155 210.341 124.679 204.413C123.619 200.146 121.595 196.935 117.302 196.935H111.765ZM103.475 232.506C105.005 232.506 106.244 233.758 106.244 235.308C106.244 236.863 105.005 238.128 103.475 238.128C101.951 238.128 100.707 236.863 100.707 235.308C100.707 233.759 101.952 232.506 103.475 232.506Z" fill="url(#paint1_linear_9210_11131)"/>
<defs>
<linearGradient id="paint0_linear_9210_11131" x1="58.9769" y1="182.925" x2="92.9938" y2="211.916" gradientUnits="userSpaceOnUse">
<stop stop-color="#5A9FD4"/>
<stop offset="1" stop-color="#306998"/>
</linearGradient>
<linearGradient id="paint1_linear_9210_11131" x1="109.974" y1="229.974" x2="97.7711" y2="212.871" gradientUnits="userSpaceOnUse">
<stop stop-color="#FFD43B"/>
<stop offset="1" stop-color="#FFE873"/>
</linearGradient>
<clipPath id="clip0_9210_11131">
<rect width="79" height="79" fill="white" transform="translate(328)"/>
</clipPath>
</defs>
</svg>
