<svg width="547" height="109" viewBox="0 0 547 109" fill="none" xmlns="http://www.w3.org/2000/svg">
<path d="M55.647 32.7002C68.8806 32.7002 75.2097 39.6356 75.2097 50.178C75.2097 59.5697 70.1752 65.6588 62.2638 68.5279L18.6843 84.4164C16.1156 85.4484 14.6618 87.1616 14.6618 89.6179C14.6618 92.5077 16.5266 94.2622 20.4104 94.2622H73.6274V109H19.5576C6.47297 109 0 102.064 0 91.5169C0 82.9973 4.17147 76.2064 12.9459 73.0277L56.6744 57.2579C59.839 56.102 60.702 53.9347 60.702 51.9119C60.702 49.0221 58.8321 47.4379 54.8044 47.4379H2.73303V32.7002H55.647Z" fill="#003A6C"/>
<path d="M141.291 32.7002C159.187 32.7002 166.77 41.3718 166.77 56.1083C166.77 70.1274 159.755 78.0712 141.148 78.0712H105.217V83.5632C105.217 89.6333 108.51 94.1137 116.809 94.1137H163.048V109H116.809C97.89 109 90.4707 98.3049 90.4707 83.8523V57.8427C90.4707 43.39 97.9156 32.7002 116.809 32.7002H141.291ZM105.217 66.0807H140.718C148.9 66.0807 151.886 62.612 151.886 56.9755C151.886 51.1944 148.593 47.4419 141.148 47.4419H116.809C108.51 47.4419 105.217 52.0874 105.217 57.9872V66.0807Z" fill="#003A6C"/>
<path d="M200.559 7.67994V87.1549C200.559 88.1632 200.361 89.1616 199.978 90.0931C199.594 91.0245 199.032 91.8708 198.324 92.5836C197.615 93.2963 196.774 93.8615 195.848 94.2469C194.923 94.6323 193.931 94.8303 192.929 94.8296C190.906 94.8296 188.966 94.0212 187.535 92.5821C186.105 91.1429 185.3 89.1908 185.299 87.1549V7.67994C185.299 5.64309 186.103 3.68967 187.534 2.2494C188.965 0.809136 190.905 1.74617e-06 192.929 1.74617e-06C193.931 -0.000678682 194.923 0.197504 195.849 0.583216C196.776 0.968928 197.617 1.5346 198.326 2.24789C199.034 2.96117 199.596 3.80807 199.979 4.74015C200.363 5.67223 200.559 6.6712 200.559 7.67994Z" fill="#003A6C"/>
<path d="M237.619 7.67994V87.1549C237.619 88.1632 237.422 89.1616 237.038 90.0931C236.655 91.0245 236.093 91.8708 235.384 92.5836C234.676 93.2963 233.834 93.8615 232.909 94.2469C231.983 94.6323 230.991 94.8303 229.989 94.8296C227.967 94.8296 226.027 94.0212 224.596 92.5821C223.165 91.1429 222.361 89.1908 222.359 87.1549V7.67994C222.359 5.64309 223.163 3.68967 224.594 2.2494C226.025 0.809136 227.966 1.74617e-06 229.989 1.74617e-06C230.991 -0.000678682 231.984 0.197504 232.91 0.583216C233.836 0.968928 234.677 1.5346 235.386 2.24789C236.095 2.96117 236.657 3.80807 237.04 4.74015C237.423 5.67223 237.62 6.6712 237.619 7.67994Z" fill="#003A6C"/>
<path d="M274.733 32.7002V78.3654C274.733 87.3209 281.317 94.1137 293.335 94.1137H305.644C317.667 94.1137 324.107 87.3209 324.107 78.3654V32.7002H338.988V78.9384C338.988 96.5706 327.824 109 306.216 109H292.189C270.582 109 259.418 96.5706 259.418 78.9384V32.7002H274.733Z" fill="#003A6C"/>
<path d="M376.049 7.67994V87.1549C376.049 88.1632 375.852 89.1616 375.468 90.0931C375.084 91.0245 374.522 91.8708 373.813 92.5836C373.104 93.2963 372.263 93.8615 371.337 94.2469C370.411 94.6323 369.419 94.8303 368.416 94.8296C366.394 94.8296 364.454 94.021 363.023 92.5817C361.593 91.1424 360.789 89.1903 360.789 87.1549V7.67994C360.788 6.67164 360.985 5.67309 361.368 4.74135C361.751 3.8096 362.313 2.96293 363.021 2.24972C363.73 1.5365 364.571 0.970719 365.496 0.584703C366.422 0.198686 367.414 1.51693e-06 368.416 1.74617e-06C369.419 -0.000678682 370.412 0.197504 371.338 0.583216C372.264 0.968928 373.106 1.5346 373.815 2.24789C374.524 2.96117 375.086 3.80807 375.469 4.74015C375.853 5.67223 376.05 6.6712 376.049 7.67994Z" fill="#003A6C"/>
<path d="M446.343 32.7002C465.506 32.7002 473.058 43.3952 473.058 57.8427V93.6801C473.058 104.664 470.153 109 457.229 109H421.371C403.219 109 395.668 100.184 395.668 85.7311C395.668 71.8617 402.638 63.7682 421.511 63.7682H457.955V57.9872C457.955 52.0616 454.62 47.4419 446.198 47.4419H400.315V32.7002H446.343ZM457.955 90.2114V75.9085H421.807C413.675 75.9085 410.77 79.2326 410.77 84.864C410.77 90.4953 413.82 94.1137 421.511 94.1137H453.749C456.799 94.1137 457.955 92.9574 457.955 90.2114Z" fill="#003A6C"/>
<path d="M546.087 32.7002V47.4419H519.047C512.213 47.4419 509.18 50.6163 509.18 57.2491V109H493.768V54.9521C493.768 39.6375 499.444 32.7002 514.54 32.7002H546.087Z" fill="#003A6C"/>
</svg>
