<svg width="392" height="240" viewBox="0 0 392 240" fill="none" xmlns="http://www.w3.org/2000/svg">
<ellipse cx="2.75507" cy="2.83674" rx="2.75507" ry="2.83674" transform="matrix(0.973516 -0.228619 0.214958 0.976623 82.1234 197.389)" fill="#003A6C"/>
<path d="M224.58 108.916C224.58 141.041 199.146 167.063 167.796 167.063C136.446 167.063 111.012 141.041 111.012 108.916C111.012 76.7915 136.446 50.7695 167.796 50.7695C199.146 50.7695 224.58 76.7915 224.58 108.916Z" fill="#003A6C" stroke="#003A6C"/>
<path d="M174.146 103.852L169.307 107.551V104.249V103.749H168.807H146.228C146.171 103.749 146.114 103.726 146.068 103.679C146.023 103.632 145.994 103.565 145.994 103.491V90.8199C145.994 90.7466 146.023 90.6794 146.068 90.6323C146.114 90.5857 146.171 90.5625 146.228 90.5625H190.797C190.843 90.5625 190.889 90.5772 190.928 90.6069C190.968 90.6368 191.001 90.6809 191.018 90.7349C191.035 90.7889 191.036 90.8477 191.019 90.9021C191.002 90.9563 190.97 91.0009 190.93 91.0313L191.233 91.4279L190.93 91.0313L174.146 103.851L174.146 103.852Z" fill="#FDF5E6" stroke="#FDF5E6"/>
<path d="M163.465 113.266L168.305 109.566V112.869V113.369H168.805H191.217C191.245 113.369 191.276 113.381 191.3 113.406C191.326 113.432 191.343 113.471 191.343 113.515C191.343 113.515 191.343 113.515 191.343 113.515V126.409C191.343 126.409 191.343 126.409 191.343 126.409C191.343 126.453 191.326 126.491 191.3 126.518C191.276 126.543 191.245 126.555 191.217 126.555H146.485C146.463 126.555 146.439 126.548 146.418 126.532C146.397 126.516 146.378 126.491 146.368 126.46C146.358 126.429 146.358 126.394 146.368 126.362C146.377 126.331 146.396 126.306 146.417 126.29L163.465 113.266L163.465 113.266Z" fill="#FDF5E6" stroke="#FDF5E6"/>
<path d="M233.925 35.6795C233.592 35.6795 233.508 35.5075 233.675 35.2495L235.423 32.928C235.59 32.67 236.006 32.498 236.339 32.498H266.056C266.389 32.498 266.473 32.756 266.306 33.014L264.891 35.2495C264.725 35.5075 264.308 35.7654 264.059 35.7654L233.925 35.6795Z" fill="#2DBCAF"/>
<path d="M221.357 43.5896C221.024 43.5896 220.941 43.4177 221.107 43.1597L222.855 40.8381C223.022 40.5802 223.438 40.4082 223.771 40.4082H261.73C262.063 40.4082 262.229 40.6662 262.146 40.9241L261.48 42.9877C261.397 43.3317 261.064 43.5036 260.731 43.5036L221.357 43.5896Z" fill="#2DBCAF"/>
<path d="M241.511 51.4978C241.178 51.4978 241.094 51.2399 241.261 50.9819L242.426 48.8323C242.593 48.5744 242.926 48.3164 243.259 48.3164H259.907C260.24 48.3164 260.407 48.5744 260.407 48.9183L260.24 50.9819C260.24 51.3259 259.907 51.5838 259.658 51.5838L241.511 51.4978Z" fill="#2DBCAF"/>
<path d="M327.91 34.1391C322.666 35.5149 319.087 36.5467 313.926 37.9224C312.677 38.2664 312.594 38.3524 311.512 37.0626C310.263 35.6009 309.347 34.655 307.599 33.7952C302.355 31.1297 297.277 31.9035 292.532 35.085C286.872 38.8683 283.958 44.4572 284.041 51.422C284.125 58.3007 288.703 63.9757 295.279 64.9215C300.94 65.6953 305.685 63.6317 309.431 59.2465C310.18 58.3007 310.846 57.2689 311.678 56.0651C308.681 56.0651 304.935 56.0651 295.612 56.0651C293.864 56.0651 293.448 54.9473 294.031 53.4856C295.113 50.8201 297.111 46.3489 298.276 44.1133C298.526 43.5974 299.108 42.7376 300.357 42.7376C304.602 42.7376 320.252 42.7376 330.657 42.7376C330.491 45.0591 330.491 47.3807 330.158 49.7023C329.242 55.8931 326.995 61.5681 323.332 66.5552C317.339 74.7237 309.514 79.7968 299.608 81.1725C291.45 82.2903 283.875 80.6566 277.216 75.4975C271.056 70.6824 267.559 64.3196 266.644 56.409C265.562 47.0368 268.225 38.6103 273.719 31.2157C279.63 23.2191 287.454 18.1461 297.027 16.3404C304.852 14.8787 312.344 15.8245 319.087 20.5536C323.499 23.5631 326.662 27.6903 328.743 32.6774C329.242 33.4513 328.909 33.8812 327.91 34.1391Z" fill="#2DBCAF"/>
<path d="M355.466 81.6852C347.891 81.5132 340.982 79.2776 335.155 74.1186C330.244 69.7334 327.164 64.1444 326.165 57.5236C324.667 47.8074 327.247 39.209 332.908 31.5564C338.984 23.3019 346.31 19.0027 356.216 17.197C364.706 15.6493 372.698 16.5091 379.94 21.5822C386.516 26.2253 390.595 32.5022 391.677 40.7567C393.092 52.3646 389.846 61.8228 382.104 69.9053C376.61 75.6663 369.867 79.2776 362.126 80.9113C359.878 81.3412 357.631 81.4272 355.466 81.6852ZM375.278 46.9475C375.195 45.8298 375.195 44.9699 375.029 44.1101C373.53 35.5976 365.955 30.7825 358.047 32.6742C350.305 34.4798 345.311 39.5529 343.479 47.6354C341.981 54.3422 345.144 61.1349 351.138 63.8864C355.716 65.9501 360.295 65.6921 364.706 63.3705C371.283 59.8452 374.862 54.3422 375.278 46.9475Z" fill="#2DBCAF"/>
<g opacity="0.6" clip-path="url(#clip0_10451_759)">
<path fill-rule="evenodd" clip-rule="evenodd" d="M0 0H27.3746V28.276H0V0Z" fill="#F7DF1E"/>
<path fill-rule="evenodd" clip-rule="evenodd" d="M7.19788 23.6292L9.29196 22.3199C9.69518 23.0608 10.0628 23.6867 10.9449 23.6867C11.7893 23.6867 12.3239 23.3462 12.3239 22.0161V12.9797H14.897V22.0529C14.897 24.8051 13.3353 26.0569 11.0563 26.0569C8.9979 26.0569 7.80382 24.9569 7.19788 23.6292ZM16.2938 23.3439L18.3879 22.092C18.9403 23.0217 19.6554 23.7051 20.923 23.7051C21.9879 23.7051 22.6696 23.1552 22.6696 22.3958C22.6696 21.4846 21.9723 21.1624 20.796 20.6308L20.1522 20.3455C18.2965 19.5286 17.0646 18.5046 17.0646 16.3416C17.0646 14.3488 18.5349 12.8301 20.8317 12.8301C22.4669 12.8301 23.6431 13.4192 24.4874 14.9563L22.4847 16.284C22.0436 15.4671 21.5668 15.145 20.8317 15.145C20.0787 15.145 19.5997 15.6374 19.5997 16.284C19.5997 17.0802 20.0765 17.4047 21.1792 17.8971L21.823 18.1825C24.0107 19.1512 25.2404 20.1384 25.2404 22.359C25.2404 24.7498 23.4203 26.0592 20.9765 26.0592C18.5906 26.0592 17.0467 24.881 16.2938 23.3439Z" fill="black"/>
</g>
<ellipse cx="1.01556" cy="1.04602" rx="1.01556" ry="1.04602" transform="matrix(0.973516 -0.228619 0.214958 0.976623 27.7035 28.9199)" fill="#003A6C"/>
<ellipse cx="1.01556" cy="1.04602" rx="1.01556" ry="1.04602" transform="matrix(0.973516 -0.228619 0.214958 0.976623 30.13 30.498)" fill="#003A6C"/>
<ellipse cx="1.01556" cy="1.04602" rx="1.01556" ry="1.04602" transform="matrix(0.973516 -0.228619 0.214958 0.976623 32.5568 32.0762)" fill="#003A6C"/>
<ellipse cx="1.01556" cy="1.04602" rx="1.01556" ry="1.04602" transform="matrix(0.973516 -0.228619 0.214958 0.976623 34.9835 33.6543)" fill="#003A6C"/>
<ellipse cx="1.01556" cy="1.04602" rx="1.01556" ry="1.04602" transform="matrix(0.973516 -0.228619 0.214958 0.976623 37.4104 35.2324)" fill="#003A6C"/>
<ellipse cx="1.52331" cy="1.56847" rx="1.52331" ry="1.56847" transform="matrix(0.973516 -0.228619 0.214958 0.976623 39.8369 36.8125)" fill="#003A6C"/>
<ellipse cx="1.52331" cy="1.56847" rx="1.52331" ry="1.56847" transform="matrix(0.973516 -0.228619 0.214958 0.976623 43.4774 39.1797)" fill="#003A6C"/>
<ellipse cx="2.03108" cy="2.09129" rx="2.03108" ry="2.09129" transform="matrix(0.973516 -0.228619 0.214958 0.976623 47.1183 41.5469)" fill="#003A6C"/>
<ellipse cx="2.03108" cy="2.09129" rx="2.03108" ry="2.09129" transform="matrix(0.973516 -0.228619 0.214958 0.976623 51.9718 44.7031)" fill="#003A6C"/>
<ellipse cx="2.53885" cy="2.61411" rx="2.53885" ry="2.61411" transform="matrix(0.973516 -0.228619 0.214958 0.976623 56.8252 47.8574)" fill="#003A6C"/>
<ellipse cx="2.53885" cy="2.61411" rx="2.53885" ry="2.61411" transform="matrix(0.973516 -0.228619 0.214958 0.976623 62.8918 51.8027)" fill="#003A6C"/>
<ellipse cx="3.04662" cy="3.13693" rx="3.04662" ry="3.13693" transform="matrix(0.973516 -0.228619 0.214958 0.976623 68.9594 55.748)" fill="#003A6C"/>
<ellipse cx="3.04662" cy="3.13693" rx="3.04662" ry="3.13693" transform="matrix(0.973516 -0.228619 0.214958 0.976623 76.2395 60.4824)" fill="#003A6C"/>
<ellipse cx="3.55439" cy="3.65976" rx="3.55439" ry="3.65976" transform="matrix(0.973516 -0.228619 0.214958 0.976623 83.5206 65.2148)" fill="#003A6C"/>
<ellipse cx="3.55439" cy="3.65976" rx="3.55439" ry="3.65976" transform="matrix(0.973516 -0.228619 0.214958 0.976623 92.0138 70.7402)" fill="#003A6C"/>
<ellipse cx="4.56993" cy="4.7054" rx="4.56993" ry="4.7054" transform="matrix(0.973516 -0.228619 0.214958 0.976623 100.508 76.2637)" fill="#003A6C"/>
<ellipse cx="4.56993" cy="4.7054" rx="4.56993" ry="4.7054" transform="matrix(0.973516 -0.228619 0.214958 0.976623 111.429 83.3652)" fill="#003A6C"/>
<ellipse cx="2.75507" cy="2.83674" rx="2.75507" ry="2.83674" transform="matrix(0.973516 -0.228619 0.214958 0.976623 104.128 180.344)" fill="#003A6C"/>
<ellipse cx="3.42109" cy="3.52251" rx="3.42109" ry="3.52251" transform="matrix(0.973516 -0.228619 0.214958 0.976623 109.498 174.363)" fill="#003A6C"/>
<ellipse cx="4.36317" cy="4.49252" rx="4.36317" ry="4.49252" transform="matrix(0.973516 -0.228619 0.214958 0.976623 115.164 167.23)" fill="#003A6C"/>
<ellipse cx="5.88609" cy="6.06059" rx="5.88609" ry="6.06059" transform="matrix(0.973516 -0.228619 0.214958 0.976623 122.679 157.686)" fill="#003A6C"/>
<ellipse cx="5.88609" cy="6.06059" rx="5.88609" ry="6.06059" transform="matrix(0.973516 -0.228619 0.214958 0.976623 222.038 94.8516)" fill="#003A6C"/>
<ellipse cx="5.88609" cy="6.06059" rx="5.88609" ry="6.06059" transform="matrix(0.973516 -0.228619 0.214958 0.976623 234.205 87.5195)" fill="#003A6C"/>
<ellipse cx="5.88609" cy="6.06059" rx="5.88609" ry="6.06059" transform="matrix(0.973516 -0.228619 0.214958 0.976623 247.385 81.2363)" fill="#003A6C"/>
<ellipse cx="5.88609" cy="6.06059" rx="5.88609" ry="6.06059" transform="matrix(0.973516 -0.228619 0.214958 0.976623 261.579 73.9062)" fill="#003A6C"/>
<ellipse cx="2.75507" cy="2.83674" rx="2.75507" ry="2.83674" transform="matrix(0.973516 -0.228619 0.214958 0.976623 98.6267 184.76)" fill="#003A6C"/>
<ellipse cx="2.75507" cy="2.83674" rx="2.75507" ry="2.83674" transform="matrix(0.973516 -0.228619 0.214958 0.976623 93.1261 188.547)" fill="#003A6C"/>
<ellipse cx="2.75507" cy="2.83674" rx="2.75507" ry="2.83674" transform="matrix(0.973516 -0.228619 0.214958 0.976623 87.6249 192.971)" fill="#003A6C"/>
<path d="M58.5874 165.465C55.6436 165.479 52.8327 165.739 50.3596 166.191C43.0733 167.521 41.7504 170.303 41.7504 175.434V182.211H58.9688V184.47H35.288C30.284 184.47 25.9017 187.576 24.5313 193.485C22.9502 200.258 22.8802 204.484 24.5313 211.556C25.7553 216.82 28.6786 220.571 33.6825 220.571H39.6029V212.447C39.6029 206.578 44.5202 201.402 50.3596 201.402H67.5581C72.3457 201.402 76.1674 197.331 76.1674 192.366V175.434C76.1674 170.615 72.2307 166.995 67.5581 166.19C64.5996 165.682 61.5312 165.451 58.5874 165.465ZM49.2756 170.915C51.0545 170.915 52.5064 172.44 52.5064 174.314C52.5064 176.182 51.0538 177.692 49.2756 177.692C47.4909 177.692 46.0447 176.182 46.0447 174.314C46.0447 172.44 47.4909 170.915 49.2756 170.915Z" fill="url(#paint0_linear_10451_759)"/>
<path d="M83.2224 184.471V192.366C83.2224 198.488 78.1966 203.64 72.4657 203.64H55.2672C50.5561 203.64 46.658 207.803 46.658 212.676V229.607C46.658 234.426 50.7153 237.26 55.2672 238.643C60.7175 240.298 65.9443 240.597 72.4657 238.643C76.8005 237.347 81.0749 234.738 81.0749 229.607V222.831H63.8764V220.572H89.6842C94.6888 220.572 96.553 216.967 98.2934 211.557C100.092 205.988 100.015 200.631 98.2934 193.486C97.0565 188.342 94.6945 184.471 89.6842 184.471H83.2224ZM73.5491 227.348C75.3337 227.348 76.78 228.858 76.78 230.726C76.78 232.6 75.3337 234.125 73.5491 234.125C71.7702 234.125 70.3182 232.6 70.3182 230.726C70.3182 228.859 71.7709 227.348 73.5491 227.348Z" fill="url(#paint1_linear_10451_759)"/>
<defs>
<linearGradient id="paint0_linear_10451_759" x1="21.6209" y1="167.582" x2="62.394" y2="201.223" gradientUnits="userSpaceOnUse">
<stop stop-color="#5A9FD4"/>
<stop offset="1" stop-color="#306998"/>
</linearGradient>
<linearGradient id="paint1_linear_10451_759" x1="81.1328" y1="224.297" x2="66.2745" y2="204.136" gradientUnits="userSpaceOnUse">
<stop stop-color="#FFD43B"/>
<stop offset="1" stop-color="#FFE873"/>
</linearGradient>
<clipPath id="clip0_10451_759">
<rect width="27.3746" height="28.276" fill="white"/>
</clipPath>
</defs>
</svg>
