<svg width="427" height="278" viewBox="0 0 427 278" fill="none" xmlns="http://www.w3.org/2000/svg">
<path d="M160.622 120.73L153.086 116.463L153.158 125.123L160.622 120.73ZM113.94 121.119L113.934 120.369L113.924 120.37L113.913 120.37L113.94 121.119ZM80.2081 95.3512L79.4591 95.3908L80.2081 95.3512ZM153.866 120.037L113.934 120.369L113.947 121.869L153.878 121.536L153.866 120.037ZM113.913 120.37C108.624 120.561 100.618 119.52 93.8217 115.804C87.0632 112.109 81.5096 105.782 80.957 95.3117L79.4591 95.3908C80.0438 106.469 85.9712 113.221 93.102 117.12C100.195 120.998 108.486 122.067 113.967 121.869L113.913 120.37ZM80.957 95.3117C80.6031 88.6051 80.9236 82.3196 80.949 76.3228C80.9743 70.358 80.7054 64.7096 79.1328 59.4461C75.9574 48.8179 67.5458 39.9972 46.4137 32.9445L45.9389 34.3673C66.8204 41.3364 74.7139 49.8955 77.6956 59.8755C79.2015 64.9161 79.4742 70.379 79.449 76.3164C79.424 82.2218 79.1023 88.6295 79.4591 95.3908L80.957 95.3117Z" fill="#13181B"/>
<path d="M161.01 164.874L153.474 169.142L153.546 160.482L161.01 164.874ZM114.328 164.485L114.322 165.235L114.311 165.235L114.301 165.235L114.328 164.485ZM80.5958 190.253L79.8468 190.214L80.5958 190.253ZM154.254 165.568L114.322 165.235L114.334 163.735L154.266 164.068L154.254 165.568ZM114.301 165.235C109.012 165.043 101.006 166.084 94.2094 169.8C87.4509 173.496 81.8973 179.823 81.3447 190.293L79.8468 190.214C80.4315 179.135 86.3589 172.383 93.4897 168.484C100.583 164.606 108.874 163.537 114.355 163.736L114.301 165.235ZM81.3447 190.293C80.9908 196.999 81.3113 203.285 81.3367 209.282C81.362 215.247 81.0931 220.895 79.5205 226.158C76.3451 236.787 67.9335 245.607 46.8014 252.66L46.3266 251.237C67.2081 244.268 75.1016 235.709 78.0833 225.729C79.5892 220.688 79.8619 215.225 79.8367 209.288C79.8117 203.383 79.49 196.975 79.8468 190.214L81.3447 190.293Z" fill="#13181B"/>
<path d="M160.647 143.812L153.147 139.481V148.142L160.647 143.812ZM153.897 143.062H46.1762V144.562H153.897V143.062Z" fill="#13181B"/>
<circle cx="203.508" cy="145.982" r="38.4777" fill="#794DEC"/>
<path d="M186.702 123.342H197.197V155.221H202.847V144.86H207.691V128.921H202.847V123.342H212.534V133.703H218.185V123.342H223.029V133.703H218.185V144.86H207.691V155.221H218.185V165.582H186.702V123.342Z" fill="#FDF5E6"/>
<path d="M292.758 121.119L292.764 120.369L292.775 120.37L292.785 120.37L292.758 121.119ZM326.49 95.3512L327.239 95.3908L326.49 95.3512ZM360.522 33.6559L354.966 40.2994L351.991 32.1664L360.522 33.6559ZM246.083 119.98L292.764 120.369L292.752 121.869L246.07 121.48L246.083 119.98ZM292.785 120.37C298.074 120.561 306.08 119.52 312.877 115.804C319.635 112.109 325.189 105.782 325.741 95.3117L327.239 95.3908C326.654 106.469 320.727 113.221 313.596 117.12C306.503 120.998 298.212 122.067 292.731 121.869L292.785 120.37ZM325.741 95.3117C326.076 88.9706 325.807 82.9949 325.756 77.2896C325.704 71.6097 325.869 66.2126 327.102 61.1589C328.339 56.0867 330.649 51.3663 334.871 47.0306C339.082 42.7044 345.166 38.7925 353.902 35.2796L354.462 36.6713C345.852 40.1333 339.968 43.945 335.945 48.077C331.932 52.1996 329.74 56.6724 328.559 61.5143C327.373 66.3749 327.204 71.6132 327.256 77.276C327.307 82.9135 327.577 88.988 327.239 95.3908L325.741 95.3117Z" fill="#13181B"/>
<path d="M292.393 164.485L292.399 165.235L292.409 165.235L292.42 165.235L292.393 164.485ZM326.125 190.253L326.874 190.214L326.125 190.253ZM360.157 251.949L354.601 245.305L351.626 253.438L360.157 251.949ZM245.717 165.624L292.399 165.235L292.386 163.735L245.705 164.124L245.717 165.624ZM292.42 165.235C297.709 165.043 305.715 166.084 312.511 169.8C319.27 173.496 324.823 179.823 325.376 190.293L326.874 190.214C326.289 179.135 320.362 172.383 313.231 168.484C306.138 164.606 297.847 163.537 292.366 163.736L292.42 165.235ZM325.376 190.293C325.711 196.634 325.442 202.61 325.391 208.315C325.339 213.995 325.504 219.392 326.736 224.446C327.974 229.518 330.284 234.238 334.505 238.574C338.717 242.9 344.8 246.812 353.537 250.325L354.097 248.933C345.487 245.471 339.603 241.66 335.58 237.528C331.566 233.405 329.375 228.932 328.194 224.09C327.008 219.23 326.839 213.991 326.89 208.328C326.941 202.691 327.212 196.616 326.874 190.214L325.376 190.293Z" fill="#13181B"/>
<path d="M360.042 143.812L352.542 148.142V139.481L360.042 143.812ZM244.15 143.062H353.292V144.562H244.15V143.062Z" fill="#13181B"/>
<circle cx="28.3773" cy="28.3773" r="28.3773" transform="matrix(-1 0 0 1 426.92 0)" fill="#13181B"/>
<circle cx="28.3773" cy="28.3773" r="27.8773" transform="matrix(-1 0 0 1 56.7549 0)" fill="#FDF5E6" stroke="#13181B"/>
<circle cx="28.3773" cy="28.3773" r="28.3773" transform="matrix(-1 0 0 1 426.92 220.285)" fill="#13181B"/>
<circle cx="28.3773" cy="28.3773" r="27.8773" transform="matrix(-1 0 0 1 56.7549 220.285)" fill="#FDF5E6" stroke="#13181B"/>
<circle cx="28.3773" cy="28.3773" r="28.3773" transform="matrix(-1 0 0 1 426.92 115.433)" fill="#13181B"/>
<circle cx="28.3773" cy="28.3773" r="27.8773" transform="matrix(-1 0 0 1 56.7549 115.433)" fill="#FDF5E6" stroke="#13181B"/>
<path d="M377.409 32.8047V26.8527H378.513L378.621 27.7407H378.681C378.841 27.4527 379.089 27.2087 379.425 27.0087C379.761 26.8087 380.149 26.7087 380.589 26.7087C381.317 26.7087 381.865 26.9287 382.233 27.3687C382.601 27.8087 382.785 28.4567 382.785 29.3127V32.8047H381.513V29.4687C381.513 28.9727 381.409 28.5887 381.201 28.3167C380.993 28.0447 380.665 27.9087 380.217 27.9087C379.777 27.9087 379.409 28.0567 379.113 28.3527C378.825 28.6487 378.681 29.0767 378.681 29.6367V32.8047H377.409ZM387.268 32.9487C386.7 32.9487 386.192 32.8207 385.744 32.5647C385.296 32.3087 384.944 31.9487 384.688 31.4847C384.432 31.0127 384.304 30.4607 384.304 29.8287C384.304 29.1967 384.432 28.6487 384.688 28.1847C384.944 27.7127 385.296 27.3487 385.744 27.0927C386.192 26.8367 386.704 26.7087 387.28 26.7087C387.856 26.7087 388.364 26.8367 388.804 27.0927C389.252 27.3487 389.6 27.7127 389.848 28.1847C390.104 28.6487 390.232 29.1967 390.232 29.8287C390.232 30.4607 390.104 31.0127 389.848 31.4847C389.592 31.9487 389.24 32.3087 388.792 32.5647C388.352 32.8207 387.844 32.9487 387.268 32.9487ZM387.268 31.7367C387.572 31.7367 387.852 31.6687 388.108 31.5327C388.364 31.3967 388.568 31.1887 388.72 30.9087C388.88 30.6207 388.96 30.2607 388.96 29.8287C388.96 29.3887 388.88 29.0287 388.72 28.7487C388.568 28.4687 388.364 28.2607 388.108 28.1247C387.86 27.9887 387.584 27.9207 387.28 27.9207C386.976 27.9207 386.696 27.9887 386.44 28.1247C386.184 28.2607 385.976 28.4687 385.816 28.7487C385.664 29.0287 385.588 29.3887 385.588 29.8287C385.588 30.4847 385.752 30.9687 386.08 31.2807C386.416 31.5847 386.812 31.7367 387.268 31.7367ZM394.139 32.9487C393.643 32.9487 393.199 32.8327 392.807 32.6007C392.415 32.3607 392.103 32.0087 391.871 31.5447C391.647 31.0807 391.535 30.5087 391.535 29.8287C391.535 29.1487 391.651 28.5767 391.883 28.1127C392.115 27.6487 392.427 27.3007 392.819 27.0687C393.219 26.8287 393.663 26.7087 394.151 26.7087C394.607 26.7087 394.983 26.7967 395.279 26.9727C395.575 27.1407 395.795 27.3567 395.939 27.6207V24.1647H397.211V32.8047H396.119L396.011 31.9287H395.939C395.779 32.2407 395.551 32.4887 395.255 32.6727C394.967 32.8567 394.595 32.9487 394.139 32.9487ZM394.403 31.7367C394.859 31.7367 395.235 31.5767 395.531 31.2567C395.835 30.9367 395.987 30.4607 395.987 29.8287C395.987 29.1887 395.835 28.7127 395.531 28.4007C395.235 28.0807 394.859 27.9207 394.403 27.9207C393.947 27.9207 393.567 28.0807 393.263 28.4007C392.967 28.7207 392.819 29.2007 392.819 29.8407C392.819 30.4727 392.967 30.9487 393.263 31.2687C393.567 31.5807 393.947 31.7367 394.403 31.7367ZM401.731 32.9487C401.155 32.9487 400.647 32.8207 400.207 32.5647C399.767 32.3007 399.423 31.9367 399.175 31.4727C398.927 31.0087 398.803 30.4687 398.803 29.8527C398.803 29.2287 398.923 28.6807 399.163 28.2087C399.411 27.7367 399.755 27.3687 400.195 27.1047C400.643 26.8407 401.159 26.7087 401.743 26.7087C402.319 26.7087 402.815 26.8407 403.231 27.1047C403.647 27.3607 403.967 27.7047 404.191 28.1367C404.423 28.5687 404.539 29.0447 404.539 29.5647C404.539 29.6447 404.539 29.7327 404.539 29.8287C404.539 29.9167 404.535 30.0167 404.527 30.1287H400.051C400.091 30.6807 400.271 31.1007 400.591 31.3887C400.911 31.6687 401.287 31.8087 401.719 31.8087C402.095 31.8087 402.391 31.7327 402.607 31.5807C402.831 31.4207 402.995 31.2047 403.099 30.9327H404.383C404.239 31.5007 403.939 31.9807 403.483 32.3727C403.027 32.7567 402.443 32.9487 401.731 32.9487ZM401.731 27.8127C401.339 27.8127 400.991 27.9327 400.687 28.1727C400.383 28.4047 400.187 28.7327 400.099 29.1567H403.267C403.235 28.7567 403.079 28.4327 402.799 28.1847C402.519 27.9367 402.163 27.8127 401.731 27.8127ZM413.241 32.8047V31.6647H415.317V25.9047L413.337 26.2647V25.2327L415.809 24.4047H416.589V31.6647H418.821V32.8047H413.241Z" fill="#FDF5E6"/>
<path d="M377.409 148.719V142.767H378.513L378.621 143.655H378.681C378.841 143.367 379.089 143.123 379.425 142.923C379.761 142.723 380.149 142.623 380.589 142.623C381.317 142.623 381.865 142.843 382.233 143.283C382.601 143.723 382.785 144.371 382.785 145.227V148.719H381.513V145.383C381.513 144.887 381.409 144.503 381.201 144.231C380.993 143.959 380.665 143.823 380.217 143.823C379.777 143.823 379.409 143.971 379.113 144.267C378.825 144.563 378.681 144.991 378.681 145.551V148.719H377.409ZM387.268 148.863C386.7 148.863 386.192 148.735 385.744 148.479C385.296 148.223 384.944 147.863 384.688 147.399C384.432 146.927 384.304 146.375 384.304 145.743C384.304 145.111 384.432 144.563 384.688 144.099C384.944 143.627 385.296 143.263 385.744 143.007C386.192 142.751 386.704 142.623 387.28 142.623C387.856 142.623 388.364 142.751 388.804 143.007C389.252 143.263 389.6 143.627 389.848 144.099C390.104 144.563 390.232 145.111 390.232 145.743C390.232 146.375 390.104 146.927 389.848 147.399C389.592 147.863 389.24 148.223 388.792 148.479C388.352 148.735 387.844 148.863 387.268 148.863ZM387.268 147.651C387.572 147.651 387.852 147.583 388.108 147.447C388.364 147.311 388.568 147.103 388.72 146.823C388.88 146.535 388.96 146.175 388.96 145.743C388.96 145.303 388.88 144.943 388.72 144.663C388.568 144.383 388.364 144.175 388.108 144.039C387.86 143.903 387.584 143.835 387.28 143.835C386.976 143.835 386.696 143.903 386.44 144.039C386.184 144.175 385.976 144.383 385.816 144.663C385.664 144.943 385.588 145.303 385.588 145.743C385.588 146.399 385.752 146.883 386.08 147.195C386.416 147.499 386.812 147.651 387.268 147.651ZM394.139 148.863C393.643 148.863 393.199 148.747 392.807 148.515C392.415 148.275 392.103 147.923 391.871 147.459C391.647 146.995 391.535 146.423 391.535 145.743C391.535 145.063 391.651 144.491 391.883 144.027C392.115 143.563 392.427 143.215 392.819 142.983C393.219 142.743 393.663 142.623 394.151 142.623C394.607 142.623 394.983 142.711 395.279 142.887C395.575 143.055 395.795 143.271 395.939 143.535V140.079H397.211V148.719H396.119L396.011 147.843H395.939C395.779 148.155 395.551 148.403 395.255 148.587C394.967 148.771 394.595 148.863 394.139 148.863ZM394.403 147.651C394.859 147.651 395.235 147.491 395.531 147.171C395.835 146.851 395.987 146.375 395.987 145.743C395.987 145.103 395.835 144.627 395.531 144.315C395.235 143.995 394.859 143.835 394.403 143.835C393.947 143.835 393.567 143.995 393.263 144.315C392.967 144.635 392.819 145.115 392.819 145.755C392.819 146.387 392.967 146.863 393.263 147.183C393.567 147.495 393.947 147.651 394.403 147.651ZM401.731 148.863C401.155 148.863 400.647 148.735 400.207 148.479C399.767 148.215 399.423 147.851 399.175 147.387C398.927 146.923 398.803 146.383 398.803 145.767C398.803 145.143 398.923 144.595 399.163 144.123C399.411 143.651 399.755 143.283 400.195 143.019C400.643 142.755 401.159 142.623 401.743 142.623C402.319 142.623 402.815 142.755 403.231 143.019C403.647 143.275 403.967 143.619 404.191 144.051C404.423 144.483 404.539 144.959 404.539 145.479C404.539 145.559 404.539 145.647 404.539 145.743C404.539 145.831 404.535 145.931 404.527 146.043H400.051C400.091 146.595 400.271 147.015 400.591 147.303C400.911 147.583 401.287 147.723 401.719 147.723C402.095 147.723 402.391 147.647 402.607 147.495C402.831 147.335 402.995 147.119 403.099 146.847H404.383C404.239 147.415 403.939 147.895 403.483 148.287C403.027 148.671 402.443 148.863 401.731 148.863ZM401.731 143.727C401.339 143.727 400.991 143.847 400.687 144.087C400.383 144.319 400.187 144.647 400.099 145.071H403.267C403.235 144.671 403.079 144.347 402.799 144.099C402.519 143.851 402.163 143.727 401.731 143.727ZM413.289 148.719V147.711C414.113 147.055 414.833 146.451 415.449 145.899C416.073 145.347 416.561 144.815 416.913 144.303C417.265 143.791 417.441 143.271 417.441 142.743C417.441 142.303 417.317 141.959 417.069 141.711C416.821 141.455 416.485 141.327 416.061 141.327C415.573 141.327 415.197 141.483 414.933 141.795C414.669 142.099 414.537 142.463 414.537 142.887H413.301C413.309 142.295 413.433 141.799 413.673 141.399C413.913 140.999 414.237 140.695 414.645 140.487C415.061 140.279 415.533 140.175 416.061 140.175C416.917 140.175 417.577 140.407 418.041 140.871C418.505 141.327 418.737 141.939 418.737 142.707C418.737 143.195 418.629 143.667 418.413 144.123C418.205 144.571 417.929 144.999 417.585 145.407C417.241 145.815 416.857 146.203 416.433 146.571C416.017 146.939 415.597 147.291 415.173 147.627H418.965V148.719H413.289Z" fill="#FDF5E6"/>
<path d="M377.409 252.744V246.792H378.513L378.621 247.68H378.681C378.841 247.392 379.089 247.148 379.425 246.948C379.761 246.748 380.149 246.648 380.589 246.648C381.317 246.648 381.865 246.868 382.233 247.308C382.601 247.748 382.785 248.396 382.785 249.252V252.744H381.513V249.408C381.513 248.912 381.409 248.528 381.201 248.256C380.993 247.984 380.665 247.848 380.217 247.848C379.777 247.848 379.409 247.996 379.113 248.292C378.825 248.588 378.681 249.016 378.681 249.576V252.744H377.409ZM387.268 252.888C386.7 252.888 386.192 252.76 385.744 252.504C385.296 252.248 384.944 251.888 384.688 251.424C384.432 250.952 384.304 250.4 384.304 249.768C384.304 249.136 384.432 248.588 384.688 248.124C384.944 247.652 385.296 247.288 385.744 247.032C386.192 246.776 386.704 246.648 387.28 246.648C387.856 246.648 388.364 246.776 388.804 247.032C389.252 247.288 389.6 247.652 389.848 248.124C390.104 248.588 390.232 249.136 390.232 249.768C390.232 250.4 390.104 250.952 389.848 251.424C389.592 251.888 389.24 252.248 388.792 252.504C388.352 252.76 387.844 252.888 387.268 252.888ZM387.268 251.676C387.572 251.676 387.852 251.608 388.108 251.472C388.364 251.336 388.568 251.128 388.72 250.848C388.88 250.56 388.96 250.2 388.96 249.768C388.96 249.328 388.88 248.968 388.72 248.688C388.568 248.408 388.364 248.2 388.108 248.064C387.86 247.928 387.584 247.86 387.28 247.86C386.976 247.86 386.696 247.928 386.44 248.064C386.184 248.2 385.976 248.408 385.816 248.688C385.664 248.968 385.588 249.328 385.588 249.768C385.588 250.424 385.752 250.908 386.08 251.22C386.416 251.524 386.812 251.676 387.268 251.676ZM394.139 252.888C393.643 252.888 393.199 252.772 392.807 252.54C392.415 252.3 392.103 251.948 391.871 251.484C391.647 251.02 391.535 250.448 391.535 249.768C391.535 249.088 391.651 248.516 391.883 248.052C392.115 247.588 392.427 247.24 392.819 247.008C393.219 246.768 393.663 246.648 394.151 246.648C394.607 246.648 394.983 246.736 395.279 246.912C395.575 247.08 395.795 247.296 395.939 247.56V244.104H397.211V252.744H396.119L396.011 251.868H395.939C395.779 252.18 395.551 252.428 395.255 252.612C394.967 252.796 394.595 252.888 394.139 252.888ZM394.403 251.676C394.859 251.676 395.235 251.516 395.531 251.196C395.835 250.876 395.987 250.4 395.987 249.768C395.987 249.128 395.835 248.652 395.531 248.34C395.235 248.02 394.859 247.86 394.403 247.86C393.947 247.86 393.567 248.02 393.263 248.34C392.967 248.66 392.819 249.14 392.819 249.78C392.819 250.412 392.967 250.888 393.263 251.208C393.567 251.52 393.947 251.676 394.403 251.676ZM401.731 252.888C401.155 252.888 400.647 252.76 400.207 252.504C399.767 252.24 399.423 251.876 399.175 251.412C398.927 250.948 398.803 250.408 398.803 249.792C398.803 249.168 398.923 248.62 399.163 248.148C399.411 247.676 399.755 247.308 400.195 247.044C400.643 246.78 401.159 246.648 401.743 246.648C402.319 246.648 402.815 246.78 403.231 247.044C403.647 247.3 403.967 247.644 404.191 248.076C404.423 248.508 404.539 248.984 404.539 249.504C404.539 249.584 404.539 249.672 404.539 249.768C404.539 249.856 404.535 249.956 404.527 250.068H400.051C400.091 250.62 400.271 251.04 400.591 251.328C400.911 251.608 401.287 251.748 401.719 251.748C402.095 251.748 402.391 251.672 402.607 251.52C402.831 251.36 402.995 251.144 403.099 250.872H404.383C404.239 251.44 403.939 251.92 403.483 252.312C403.027 252.696 402.443 252.888 401.731 252.888ZM401.731 247.752C401.339 247.752 400.991 247.872 400.687 248.112C400.383 248.344 400.187 248.672 400.099 249.096H403.267C403.235 248.696 403.079 248.372 402.799 248.124C402.519 247.876 402.163 247.752 401.731 247.752ZM416.109 252.888C415.557 252.888 415.057 252.784 414.609 252.576C414.161 252.368 413.805 252.064 413.541 251.664C413.277 251.256 413.133 250.764 413.109 250.188H414.381C414.405 250.628 414.565 250.992 414.861 251.28C415.165 251.568 415.581 251.712 416.109 251.712C416.629 251.712 417.037 251.584 417.333 251.328C417.629 251.072 417.777 250.72 417.777 250.272C417.777 249.776 417.597 249.412 417.237 249.18C416.877 248.948 416.437 248.832 415.917 248.832H415.173V247.704H415.809C416.281 247.704 416.669 247.608 416.973 247.416C417.277 247.224 417.429 246.924 417.429 246.516C417.429 246.164 417.313 245.888 417.081 245.688C416.849 245.48 416.521 245.376 416.097 245.376C415.665 245.376 415.321 245.492 415.065 245.724C414.809 245.956 414.665 246.252 414.633 246.612H413.373C413.397 246.132 413.525 245.712 413.757 245.352C413.989 244.992 414.305 244.712 414.705 244.512C415.105 244.304 415.569 244.2 416.097 244.2C416.673 244.2 417.153 244.3 417.537 244.5C417.921 244.692 418.209 244.952 418.401 245.28C418.593 245.608 418.689 245.976 418.689 246.384C418.689 246.8 418.565 247.16 418.317 247.464C418.077 247.76 417.785 247.976 417.441 248.112V248.184C417.905 248.312 418.285 248.552 418.581 248.904C418.885 249.248 419.037 249.712 419.037 250.296C419.037 250.768 418.921 251.204 418.689 251.604C418.465 251.996 418.133 252.308 417.693 252.54C417.261 252.772 416.733 252.888 416.109 252.888Z" fill="#FDF5E6"/>
<path d="M159.28 220V208.8H166.432V210.32H160.976V213.584H165.952V215.088H160.976V218.48H166.432V220H159.28ZM172.234 210.848C171.86 210.848 171.546 210.731 171.29 210.496C171.044 210.251 170.922 209.952 170.922 209.6C170.922 209.248 171.044 208.955 171.29 208.72C171.546 208.485 171.86 208.368 172.234 208.368C172.618 208.368 172.932 208.485 173.178 208.72C173.434 208.955 173.562 209.248 173.562 209.6C173.562 209.952 173.434 210.251 173.178 210.496C172.932 210.731 172.618 210.848 172.234 210.848ZM169.05 220V218.528H171.546V214.064C171.546 213.712 171.375 213.536 171.034 213.536H169.274V212.064H171.338C171.999 212.064 172.479 212.219 172.778 212.528C173.087 212.827 173.242 213.307 173.242 213.968V218.528H175.738V220H169.05ZM181.812 217.712C181.321 217.712 180.868 217.632 180.452 217.472L180.052 217.952C179.924 218.112 179.886 218.267 179.94 218.416C180.004 218.555 180.148 218.624 180.372 218.624H182.468C183.396 218.624 184.142 218.821 184.708 219.216C185.284 219.6 185.572 220.192 185.572 220.992C185.572 221.493 185.444 221.947 185.188 222.352C184.942 222.768 184.542 223.099 183.988 223.344C183.444 223.589 182.724 223.712 181.828 223.712C180.697 223.712 179.785 223.499 179.092 223.072C178.409 222.656 178.068 222.027 178.068 221.184C178.068 220.885 178.137 220.608 178.276 220.352C178.425 220.107 178.617 219.883 178.852 219.68C178.564 219.467 178.388 219.168 178.324 218.784C178.27 218.389 178.388 218.011 178.676 217.648L179.38 216.752C178.878 216.219 178.628 215.563 178.628 214.784C178.628 214.261 178.75 213.781 178.996 213.344C179.252 212.896 179.614 212.539 180.084 212.272C180.564 212.005 181.14 211.872 181.812 211.872C182.249 211.872 182.654 211.936 183.028 212.064H186.02V213.184L184.628 213.264V213.408C184.852 213.824 184.964 214.283 184.964 214.784C184.964 215.307 184.836 215.792 184.58 216.24C184.334 216.688 183.977 217.045 183.508 217.312C183.038 217.579 182.473 217.712 181.812 217.712ZM181.812 216.352C182.281 216.352 182.665 216.213 182.964 215.936C183.273 215.659 183.428 215.275 183.428 214.784C183.428 214.315 183.273 213.941 182.964 213.664C182.665 213.387 182.281 213.248 181.812 213.248C181.332 213.248 180.937 213.387 180.628 213.664C180.329 213.941 180.18 214.315 180.18 214.784C180.18 215.275 180.329 215.659 180.628 215.936C180.937 216.213 181.332 216.352 181.812 216.352ZM179.668 221.056C179.668 221.483 179.87 221.797 180.276 222C180.692 222.203 181.209 222.304 181.828 222.304C182.489 222.304 183.012 222.192 183.396 221.968C183.78 221.744 183.972 221.429 183.972 221.024C183.972 220.683 183.833 220.411 183.556 220.208C183.278 220.016 182.809 219.92 182.148 219.92H180.276C179.87 220.24 179.668 220.619 179.668 221.056ZM191.677 220.192C190.909 220.192 190.232 220.021 189.645 219.68C189.059 219.328 188.6 218.843 188.269 218.224C187.939 217.605 187.773 216.885 187.773 216.064C187.773 215.232 187.933 214.501 188.253 213.872C188.584 213.243 189.043 212.752 189.629 212.4C190.227 212.048 190.915 211.872 191.693 211.872C192.461 211.872 193.123 212.048 193.677 212.4C194.232 212.741 194.659 213.2 194.957 213.776C195.267 214.352 195.421 214.987 195.421 215.68C195.421 215.787 195.421 215.904 195.421 216.032C195.421 216.149 195.416 216.283 195.405 216.432H189.437C189.491 217.168 189.731 217.728 190.157 218.112C190.584 218.485 191.085 218.672 191.661 218.672C192.163 218.672 192.557 218.571 192.845 218.368C193.144 218.155 193.363 217.867 193.501 217.504H195.213C195.021 218.261 194.621 218.901 194.013 219.424C193.405 219.936 192.627 220.192 191.677 220.192ZM191.677 213.344C191.155 213.344 190.691 213.504 190.285 213.824C189.88 214.133 189.619 214.571 189.501 215.136H193.725C193.683 214.603 193.475 214.171 193.101 213.84C192.728 213.509 192.253 213.344 191.677 213.344ZM197.623 220V212.064H199.095L199.239 213.248H199.319C199.532 212.864 199.863 212.539 200.311 212.272C200.759 212.005 201.276 211.872 201.863 211.872C202.834 211.872 203.564 212.165 204.055 212.752C204.546 213.339 204.791 214.203 204.791 215.344V220H203.095V215.552C203.095 214.891 202.956 214.379 202.679 214.016C202.402 213.653 201.964 213.472 201.367 213.472C200.78 213.472 200.29 213.669 199.895 214.064C199.511 214.459 199.319 215.029 199.319 215.776V220H197.623ZM207.265 220V208.8H208.961V218.48H214.481V220H207.265ZM219.643 220.192C219.013 220.192 218.485 220.085 218.059 219.872C217.632 219.648 217.312 219.355 217.099 218.992C216.885 218.619 216.779 218.213 216.779 217.776C216.779 216.997 217.061 216.389 217.627 215.952C218.203 215.515 219.013 215.296 220.059 215.296H222.107V215.12C222.107 213.925 221.552 213.328 220.443 213.328C219.984 213.328 219.595 213.429 219.275 213.632C218.965 213.824 218.757 214.139 218.651 214.576H216.955C217.04 213.744 217.397 213.088 218.027 212.608C218.667 212.117 219.472 211.872 220.443 211.872C221.616 211.872 222.469 212.16 223.003 212.736C223.536 213.312 223.803 214.107 223.803 215.12V220H222.363L222.219 218.832H222.107C221.872 219.205 221.579 219.525 221.227 219.792C220.875 220.059 220.347 220.192 219.643 220.192ZM219.963 218.768C220.656 218.768 221.173 218.56 221.515 218.144C221.867 217.717 222.059 217.179 222.091 216.528H220.235C219.627 216.528 219.195 216.629 218.939 216.832C218.693 217.024 218.571 217.296 218.571 217.648C218.571 218 218.693 218.277 218.939 218.48C219.195 218.672 219.536 218.768 219.963 218.768ZM227.444 223.52L229.332 219.344H228.868L225.78 212.064H227.62L229.988 217.872L232.5 212.064H234.276L229.236 223.52H227.444ZM239.646 220.192C238.878 220.192 238.201 220.021 237.614 219.68C237.027 219.328 236.569 218.843 236.238 218.224C235.907 217.605 235.742 216.885 235.742 216.064C235.742 215.232 235.902 214.501 236.222 213.872C236.553 213.243 237.011 212.752 237.598 212.4C238.195 212.048 238.883 211.872 239.662 211.872C240.43 211.872 241.091 212.048 241.646 212.4C242.201 212.741 242.627 213.2 242.926 213.776C243.235 214.352 243.39 214.987 243.39 215.68C243.39 215.787 243.39 215.904 243.39 216.032C243.39 216.149 243.385 216.283 243.374 216.432H237.406C237.459 217.168 237.699 217.728 238.126 218.112C238.553 218.485 239.054 218.672 239.63 218.672C240.131 218.672 240.526 218.571 240.814 218.368C241.113 218.155 241.331 217.867 241.47 217.504H243.182C242.99 218.261 242.59 218.901 241.982 219.424C241.374 219.936 240.595 220.192 239.646 220.192ZM239.646 213.344C239.123 213.344 238.659 213.504 238.254 213.824C237.849 214.133 237.587 214.571 237.47 215.136H241.694C241.651 214.603 241.443 214.171 241.07 213.84C240.697 213.509 240.222 213.344 239.646 213.344ZM245.576 220V218.528H247.512V214.064C247.512 213.712 247.341 213.536 247 213.536H245.736V212.064H247.64C248.077 212.064 248.434 212.192 248.712 212.448C248.989 212.693 249.128 213.04 249.128 213.488V213.68H249.208C249.325 213.083 249.576 212.635 249.96 212.336C250.354 212.027 250.925 211.872 251.672 211.872H252.904V213.664H251.176C250.546 213.664 250.061 213.883 249.72 214.32C249.378 214.757 249.208 215.28 249.208 215.888V218.528H251.672V220H245.576Z" fill="#13181B"/>
<g clip-path="url(#clip0_8731_4606)">
<path d="M28.6459 35.4113L18.2773 29.2865L28.6445 43.9016L39.0216 29.2865L28.6417 35.4113H28.6459ZM28.8036 10.1094L18.4322 27.3195L28.8022 33.45L39.1722 27.3251L28.8036 10.1094Z" fill="#13181B"/>
</g>
<g clip-path="url(#clip1_8731_4606)">
<path d="M28.6459 153.684L18.2773 147.559L28.6445 162.174L39.0216 147.559L28.6417 153.684H28.6459ZM28.8036 128.382L18.4322 145.592L28.8022 151.722L39.1722 145.598L28.8036 128.382Z" fill="#13181B"/>
</g>
<g clip-path="url(#clip2_8731_4606)">
<path d="M28.6459 256.75L18.2773 250.625L28.6445 265.24L39.0216 250.625L28.6417 256.75H28.6459ZM28.8036 231.448L18.4322 248.658L28.8022 254.789L39.1722 248.664L28.8036 231.448Z" fill="#13181B"/>
</g>
<defs>
<clipPath id="clip0_8731_4606">
<rect width="33.7923" height="33.7923" fill="white" transform="translate(11.8291 10.1094)"/>
</clipPath>
<clipPath id="clip1_8731_4606">
<rect width="33.7923" height="33.7923" fill="white" transform="translate(11.8291 128.382)"/>
</clipPath>
<clipPath id="clip2_8731_4606">
<rect width="33.7923" height="33.7923" fill="white" transform="translate(11.8291 231.448)"/>
</clipPath>
</defs>
</svg>
