<svg width="298" height="182" viewBox="0 0 298 182" fill="none" xmlns="http://www.w3.org/2000/svg">
<g opacity="0.6" clip-path="url(#clip0_10356_12208)">
<path fill-rule="evenodd" clip-rule="evenodd" d="M0 13H17.8497V30.7904H0V13Z" fill="#F7DF1E"/>
<path fill-rule="evenodd" clip-rule="evenodd" d="M4.69336 27.8667L6.05881 27.0429C6.32173 27.5091 6.56142 27.9029 7.13665 27.9029C7.68719 27.9029 8.03581 27.6886 8.03581 26.8518V21.1664H9.71358V26.875C9.71358 28.6065 8.6953 29.3941 7.20928 29.3941C5.86707 29.3941 5.08847 28.7021 4.69336 27.8667ZM10.6244 27.6872L11.9898 26.8996C12.3501 27.4845 12.8164 27.9145 13.6429 27.9145C14.3372 27.9145 14.7817 27.5685 14.7817 27.0907C14.7817 26.5174 14.3271 26.3147 13.5601 25.9803L13.1403 25.8007C11.9303 25.2868 11.127 24.6425 11.127 23.2816C11.127 22.0278 12.0857 21.0723 13.5833 21.0723C14.6495 21.0723 15.4165 21.4429 15.9671 22.41L14.6612 23.2454C14.3736 22.7314 14.0627 22.5287 13.5833 22.5287C13.0924 22.5287 12.78 22.8386 12.78 23.2454C12.78 23.7463 13.0909 23.9505 13.8099 24.2603L14.2297 24.4398C15.6562 25.0493 16.458 25.6704 16.458 27.0675C16.458 28.5718 15.2713 29.3956 13.6778 29.3956C12.122 29.3956 11.1153 28.6543 10.6244 27.6872Z" fill="black"/>
</g>
<path d="M98.791 50.5H97.1194V52.1667H96.2836V53.8333H97.1194V55.5H98.791V57.1667H100.463V58H102.134V57.1667H103.806V55.5H105.477V53.8333H106.313V52.1667H105.477V50.5H103.806V48.8333H102.134V48H100.463V48.8333H98.791V50.5Z" fill="#003A6C"/>
<path d="M105.812 115.5H103.471V117.833H102.301V120.167H103.471V122.5H105.812V124.833H108.152V126H110.492V124.833H112.832V122.5H115.173V120.167H116.343V117.833H115.173V115.5H112.832V113.167H110.492V112H108.152V113.167H105.812V115.5Z" fill="#003A6C"/>
<path d="M191.063 53.5H188.054V56.5H186.549V59.5H188.054V62.5H191.063V65.5H194.072V67H197.08V65.5H200.089V62.5H203.098V59.5H204.603V56.5H203.098V53.5H200.089V50.5H197.08V49H194.072V50.5H191.063V53.5Z" fill="#003A6C"/>
<path d="M208.113 42.5H205.773V44.8333H204.603V47.1667H205.773V49.5H208.113V51.8333H210.453V53H212.793V51.8333H215.134V49.5H217.474V47.1667H218.644V44.8333H217.474V42.5H215.134V40.1667H212.793V39H210.453V40.1667H208.113V42.5Z" fill="#003A6C"/>
<path d="M92.7731 128.5H91.1015V130.167H90.2657V131.833H91.1015V133.5H92.7731V135.167H94.4447V136H96.1163V135.167H97.7879V133.5H99.4595V131.833H100.295V130.167H99.4595V128.5H97.7879V126.833H96.1163V126H94.4447V126.833H92.7731V128.5Z" fill="#003A6C"/>
<path d="M82.2422 138H80.905V139.333H80.2363V140.667H80.905V142H82.2422V143.333H83.5795V144H84.9168V143.333H86.2541V142H87.5913V140.667H88.26V139.333H87.5913V138H86.2541V136.667H84.9168V136H83.5795V136.667H82.2422V138Z" fill="#003A6C"/>
<path d="M83.4959 47.25H81.9915V48.75H81.2393V50.25H81.9915V51.75H83.4959V53.25H85.0003V54H86.5048V53.25H88.0092V51.75H89.5136V50.25H90.2658V48.75H89.5136V47.25H88.0092V45.75H86.5048V45H85.0003V45.75H83.4959V47.25Z" fill="#003A6C"/>
<path d="M70.2068 44H68.8696V45.3333H68.2009V46.6667H68.8696V48H70.2068V49.3333H71.5441V50H72.8814V49.3333H74.2187V48H75.5559V46.6667H76.2246V45.3333H75.5559V44H74.2187V42.6667H72.8814V42H71.5441V42.6667H70.2068V44Z" fill="#003A6C"/>
<path d="M58.9236 41.75H57.7535V42.9167H57.1685V44.0833H57.7535V45.25H58.9236V46.4167H60.0937V47H61.2639V46.4167H62.434V45.25H63.6041V44.0833H64.1891V42.9167H63.6041V41.75H62.434V40.5833H61.2639V40H60.0937V40.5833H58.9236V41.75Z" fill="#003A6C"/>
<path d="M49.6462 39.5H48.6432V40.5H48.1417V41.5H48.6432V42.5H49.6462V43.5H50.6491V44H51.6521V43.5H52.655V42.5H53.658V41.5H54.1594V40.5H53.658V39.5H52.655V38.5H51.6521V38H50.6491V38.5H49.6462V39.5Z" fill="#003A6C"/>
<path d="M42.3748 38.25H41.539V39.0833H41.1211V39.9167H41.539V40.75H42.3748V41.5833H43.2106V42H44.0464V41.5833H44.8822V40.75H45.718V39.9167H46.1359V39.0833H45.718V38.25H44.8822V37.4167H44.0464V37H43.2106V37.4167H42.3748V38.25Z" fill="#003A6C"/>
<path d="M36.1063 37H35.4377V37.6667H35.1034V38.3333H35.4377V39H36.1063V39.6667H36.775V40H37.4436V39.6667H38.1123V39H38.7809V38.3333H39.1152V37.6667H38.7809V37H38.1123V36.3333H37.4436V36H36.775V36.3333H36.1063V37Z" fill="#003A6C"/>
<path d="M30.8408 35.75H30.3394V36.25H30.0886V36.75H30.3394V37.25H30.8408V37.75H31.3423V38H31.8438V37.75H32.3453V37.25H32.8467V36.75H33.0975V36.25H32.8467V35.75H32.3453V35.25H31.8438V35H31.3423V35.25H30.8408V35.75Z" fill="#003A6C"/>
<path d="M26.5785 35.5H26.244V35.8333H26.0768V36.1667H26.244V36.5H26.5785V36.8333H26.9129V37H27.2474V36.8333H27.5818V36.5H27.9163V36.1667H28.0835V35.8333H27.9163V35.5H27.5818V35.1667H27.2474V35H26.9129V35.1667H26.5785V35.5Z" fill="#003A6C"/>
<rect x="114.337" y="52" width="58.1713" height="57" fill="#003A6C"/>
<mask id="path-18-inside-1_10356_12208" fill="white">
<path d="M157.918 68C158.019 68 158.117 68.0316 158.198 68.0904C158.28 68.1491 158.341 68.232 158.372 68.3273C158.404 68.4225 158.405 68.5252 158.374 68.6208C158.344 68.7163 158.284 68.7999 158.203 68.8595L147.259 76.9255L143.579 79.6399V76.9255H128.857C128.73 76.9255 128.608 76.8753 128.518 76.786C128.428 76.6966 128.378 76.5754 128.378 76.449V68.4765C128.378 68.3501 128.428 68.2289 128.518 68.1396C128.608 68.0502 128.73 68 128.857 68H157.918Z"/>
</mask>
<path d="M157.918 68C158.019 68 158.117 68.0316 158.198 68.0904C158.28 68.1491 158.341 68.232 158.372 68.3273C158.404 68.4225 158.405 68.5252 158.374 68.6208C158.344 68.7163 158.284 68.7999 158.203 68.8595L147.259 76.9255L143.579 79.6399V76.9255H128.857C128.73 76.9255 128.608 76.8753 128.518 76.786C128.428 76.6966 128.378 76.5754 128.378 76.449V68.4765C128.378 68.3501 128.428 68.2289 128.518 68.1396C128.608 68.0502 128.73 68 128.857 68H157.918Z" fill="#FDF5E6"/>
<path d="M157.918 68V69H157.918L157.918 68ZM158.203 68.8595L157.609 68.0545L157.609 68.0545L158.203 68.8595ZM147.259 76.9255L146.665 76.1206L146.665 76.1208L147.259 76.9255ZM143.579 79.6399H142.579V81.6201L144.172 80.4446L143.579 79.6399ZM143.579 76.9255H144.579V75.9255H143.579V76.9255ZM128.857 76.9255V77.9255V76.9255ZM128.378 68.4765H127.378H128.378ZM128.857 68V69V68ZM157.918 69C157.809 69 157.703 68.9659 157.614 68.9019L158.783 67.2789C158.531 67.0974 158.228 67 157.918 67L157.918 69ZM157.614 68.9019C157.525 68.8378 157.458 68.747 157.423 68.6417L159.322 68.0128C159.224 67.7171 159.035 67.4604 158.783 67.2789L157.614 68.9019ZM157.423 68.6417C157.388 68.5363 157.388 68.4226 157.421 68.3169L159.327 68.9246C159.421 68.6278 159.42 68.3086 159.322 68.0128L157.423 68.6417ZM157.421 68.3169C157.455 68.2112 157.521 68.1196 157.609 68.0545L158.796 69.6645C159.046 69.4802 159.232 69.2214 159.327 68.9246L157.421 68.3169ZM157.609 68.0545L146.665 76.1206L147.852 77.7305L158.796 69.6645L157.609 68.0545ZM146.665 76.1208L142.985 78.8351L144.172 80.4446L147.852 77.7303L146.665 76.1208ZM144.579 79.6399V76.9255H142.579V79.6399H144.579ZM143.579 75.9255H128.857V77.9255H143.579V75.9255ZM128.857 75.9255C128.994 75.9255 129.126 75.9797 129.224 76.0774L127.813 77.4946C128.09 77.771 128.466 77.9255 128.857 77.9255V75.9255ZM129.224 76.0774C129.322 76.1752 129.378 76.3088 129.378 76.449H127.378C127.378 76.842 127.535 77.218 127.813 77.4946L129.224 76.0774ZM129.378 76.449V68.4765H127.378V76.449H129.378ZM129.378 68.4765C129.378 68.6167 129.322 68.7503 129.224 68.8482L127.813 67.431C127.535 67.7075 127.378 68.0836 127.378 68.4765H129.378ZM129.224 68.8482C129.126 68.9459 128.994 69 128.857 69V67C128.466 67 128.09 67.1545 127.813 67.431L129.224 68.8482ZM128.857 69H157.918V67H128.857V69Z" fill="#FDF5E6" mask="url(#path-18-inside-1_10356_12208)"/>
<path d="M158.1 90.7746H129.31L140.195 82.7515L140.195 82.7515L143.078 80.6249V82.3491V82.8491H143.578H158.1V90.7746Z" fill="#FDF5E6" stroke="#FDF5E6"/>
<path d="M164.039 44H123.523V52.0794H115.419V60.1589H107.316V100.556H115.419V108.635H123.523V116.715H164.039V108.635H172.142V100.556H180.246V60.1589H172.142V52.0794H164.039V44ZM164.039 52.0794V60.1589H172.142V100.556H164.039V108.635H123.523V100.556H115.419V60.1589H123.523V52.0794H164.039Z" fill="#003A6C"/>
<path d="M203.304 11.508C203.104 11.508 203.054 11.409 203.154 11.2604L204.201 9.92338C204.301 9.77482 204.55 9.67578 204.75 9.67578H222.552C222.752 9.67578 222.802 9.82434 222.702 9.9729L221.854 11.2604C221.755 11.409 221.505 11.5576 221.356 11.5576L203.304 11.508Z" fill="#2DBCAF"/>
<path d="M195.775 16.0647C195.576 16.0647 195.526 15.9656 195.626 15.8171L196.673 14.48C196.773 14.3315 197.022 14.2324 197.222 14.2324H219.961C220.161 14.2324 220.26 14.381 220.21 14.5295L219.812 15.718C219.762 15.9161 219.562 16.0152 219.363 16.0152L195.775 16.0647Z" fill="#2DBCAF"/>
<path d="M207.849 20.6155C207.649 20.6155 207.599 20.4669 207.699 20.3183L208.397 19.0803C208.497 18.9318 208.696 18.7832 208.896 18.7832H218.869C219.069 18.7832 219.169 18.9318 219.169 19.1298L219.069 20.3183C219.069 20.5164 218.869 20.665 218.72 20.665L207.849 20.6155Z" fill="#2DBCAF"/>
<path d="M259.607 10.6144C256.465 11.4067 254.321 12.001 251.229 12.7933C250.481 12.9914 250.431 13.0409 249.783 12.2981C249.035 11.4563 248.486 10.9115 247.439 10.4163C244.297 8.8812 241.255 9.32688 238.413 11.1591C235.022 13.3381 233.277 16.5569 233.326 20.5681C233.376 24.5297 236.119 27.7981 240.059 28.3428C243.45 28.7885 246.292 27.6 248.536 25.0744C248.985 24.5297 249.384 23.9355 249.882 23.2422C248.087 23.2422 245.843 23.2422 240.258 23.2422C239.211 23.2422 238.961 22.5984 239.311 21.7566C239.959 20.2214 241.156 17.6463 241.854 16.3588C242.003 16.0617 242.352 15.5665 243.1 15.5665C245.644 15.5665 255.019 15.5665 261.252 15.5665C261.152 16.9035 261.152 18.2406 260.953 19.5777C260.404 23.1431 259.058 26.4115 256.864 29.2837C253.273 33.9882 248.586 36.9099 242.652 37.7022C237.765 38.346 233.227 37.4051 229.237 34.4338C225.547 31.6607 223.453 27.9962 222.904 23.4403C222.256 18.0425 223.852 13.1895 227.143 8.93072C230.683 4.3253 235.371 1.40358 241.106 0.363643C245.793 -0.478208 250.281 0.06652 254.321 2.79016C256.964 4.52338 258.859 6.90037 260.105 9.77257C260.404 10.2183 260.205 10.4659 259.607 10.6144Z" fill="#2DBCAF"/>
<path d="M276.114 37.9998C271.576 37.9007 267.437 36.6132 263.947 33.642C261.004 31.1164 259.159 27.8976 258.561 24.0845C257.663 18.4886 259.209 13.5366 262.6 9.12923C266.241 4.37525 270.629 1.89921 276.563 0.859281C281.65 -0.0320904 286.437 0.463115 290.775 3.38483C294.715 6.05895 297.158 9.67396 297.807 14.4279C298.654 21.1132 296.71 26.5605 292.072 31.2154C288.781 34.5333 284.741 36.6132 280.104 37.5541C278.757 37.8017 277.411 37.8512 276.114 37.9998ZM287.983 17.9934C287.933 17.3497 287.933 16.8545 287.833 16.3592C286.936 11.4567 282.398 8.68354 277.66 9.773C273.023 10.8129 270.03 13.7347 268.933 18.3896C268.036 22.2522 269.931 26.1643 273.521 27.749C276.264 28.9375 279.007 28.7889 281.65 27.4519C285.589 25.4215 287.733 22.2522 287.983 17.9934Z" fill="#2DBCAF"/>
<path d="M58.7536 144C57.1981 144.007 55.7129 144.14 54.4061 144.37C50.5561 145.048 49.8571 146.467 49.8571 149.083V152.538H58.9552V153.69H46.4424C43.7984 153.69 41.4828 155.273 40.7587 158.286C39.9233 161.739 39.8863 163.894 40.7587 167.499C41.4054 170.183 42.9501 172.096 45.5941 172.096H48.7224V167.954C48.7224 164.962 51.3206 162.322 54.4061 162.322H63.4937C66.0234 162.322 68.0427 160.247 68.0427 157.715V149.082C68.0427 146.626 65.9626 144.78 63.4937 144.37C61.9304 144.111 60.3091 143.993 58.7536 144ZM53.8333 146.779C54.7733 146.779 55.5405 147.556 55.5405 148.512C55.5405 149.464 54.7729 150.234 53.8333 150.234C52.8903 150.234 52.1262 149.464 52.1262 148.512C52.1262 147.556 52.8903 146.779 53.8333 146.779Z" fill="url(#paint0_linear_10356_12208)"/>
<path d="M71.7704 153.689V157.715C71.7704 160.836 69.1148 163.463 66.0867 163.463H56.9991C54.5098 163.463 52.4501 165.586 52.4501 168.07V176.702C52.4501 179.159 54.594 180.604 56.9991 181.309C59.879 182.153 62.6408 182.305 66.0867 181.309C68.3771 180.648 70.6357 179.318 70.6357 176.702V173.247H61.5481V172.096H75.1847C77.8291 172.096 78.8142 170.258 79.7338 167.499C80.6839 164.66 80.6435 161.929 79.7338 158.286C79.0802 155.663 77.8322 153.689 75.1847 153.689H71.7704ZM66.6591 175.55C67.6021 175.55 68.3663 176.32 68.3663 177.273C68.3663 178.228 67.6021 179.006 66.6591 179.006C65.7192 179.006 64.952 178.228 64.952 177.273C64.952 176.321 65.7195 175.55 66.6591 175.55Z" fill="url(#paint1_linear_10356_12208)"/>
<defs>
<linearGradient id="paint0_linear_10356_12208" x1="39.2208" y1="145.079" x2="60.1375" y2="162.965" gradientUnits="userSpaceOnUse">
<stop stop-color="#5A9FD4"/>
<stop offset="1" stop-color="#306998"/>
</linearGradient>
<linearGradient id="paint1_linear_10356_12208" x1="70.6663" y1="173.995" x2="63.1748" y2="163.46" gradientUnits="userSpaceOnUse">
<stop stop-color="#FFD43B"/>
<stop offset="1" stop-color="#FFE873"/>
</linearGradient>
<clipPath id="clip0_10356_12208">
<rect width="17.8497" height="17.7904" fill="white" transform="translate(0 13)"/>
</clipPath>
</defs>
</svg>
