<svg width="649" height="110" viewBox="0 0 649 110" fill="none" xmlns="http://www.w3.org/2000/svg">
<path d="M87.3671 32.999C87.6649 32.999 87.9551 33.1029 88.1965 33.2959C88.4378 33.4889 88.6179 33.7611 88.7112 34.0739C88.8045 34.3867 88.8062 34.724 88.716 35.0379C88.6259 35.3518 88.4485 35.6263 88.2091 35.8222L55.8411 62.3153L44.9577 71.2306V62.3153H1.41529C1.03993 62.3153 0.679946 62.1504 0.414528 61.8569C0.14911 61.5634 0 61.1653 0 60.7502L0 34.5641C0 34.1491 0.14911 33.751 0.414528 33.4574C0.679946 33.1639 1.03993 32.999 1.41529 32.999H87.3671Z" fill="#003A6C"/>
<path d="M1.91181 109.448C1.65856 109.448 1.41185 109.359 1.20672 109.195C1.0016 109.031 0.848488 108.799 0.769148 108.533C0.689807 108.267 0.688271 107.981 0.764756 107.714C0.841242 107.447 0.99186 107.213 1.19521 107.046L34.0737 80.132L44.9571 71.2168V80.132H88.1816C88.5007 80.1334 88.8065 80.2741 89.0322 80.5237C89.2579 80.7733 89.3852 81.1114 89.3864 81.4644V108.116C89.3852 108.469 89.2579 108.807 89.0322 109.057C88.8065 109.306 88.5007 109.447 88.1816 109.448H1.91181Z" fill="#003A6C"/>
<path d="M200.799 33.2695C212.887 33.2695 218.668 40.2441 218.668 50.8461C218.668 60.2908 214.07 66.4143 206.843 69.2996L167.036 85.2778C164.689 86.3157 163.361 88.0386 163.361 90.5087C163.361 93.4148 165.065 95.1792 168.612 95.1792H217.223V110H167.834C155.881 110 149.969 103.026 149.969 92.4184C149.969 83.8507 153.779 77.0214 161.794 73.8248L201.738 57.9659C204.628 56.8035 205.417 54.6239 205.417 52.5897C205.417 49.6836 203.708 48.0905 200.029 48.0905H152.465V33.2695H200.799Z" fill="#003A6C"/>
<path d="M278.84 33.2695C295.264 33.2695 302.223 41.9877 302.223 56.8035C302.223 70.8979 295.785 78.8844 278.709 78.8844H245.734V84.406C245.734 90.5087 248.756 95.0131 256.372 95.0131H298.807V109.979H256.372C239.009 109.979 232.2 99.2269 232.2 84.6966V58.5471C232.2 44.0168 239.033 33.2695 256.372 33.2695H278.84ZM245.734 66.8294H278.314C285.823 66.8294 288.563 63.3422 288.563 57.6753C288.563 51.8632 285.541 48.0905 278.709 48.0905H256.372C248.756 48.0905 245.734 52.761 245.734 58.6924V66.8294Z" fill="#003A6C"/>
<path d="M333.23 7.70108V87.3948C333.23 88.4059 333.05 89.4071 332.7 90.3411C332.35 91.2752 331.837 92.1238 331.19 92.8385C330.544 93.5532 329.776 94.1199 328.931 94.5064C328.086 94.8928 327.181 95.0914 326.267 95.0907C324.42 95.0907 322.65 94.2801 321.344 92.837C320.038 91.3938 319.304 89.4364 319.303 87.3948V7.70108C319.303 5.65863 320.036 3.69983 321.342 2.2556C322.648 0.811363 324.42 1.75097e-06 326.267 1.75097e-06C327.181 -0.000680551 328.087 0.198048 328.932 0.584822C329.777 0.971596 330.545 1.53883 331.192 2.25407C331.839 2.96932 332.352 3.81855 332.702 4.7532C333.051 5.68785 333.231 6.68957 333.23 7.70108Z" fill="#003A6C"/>
<path d="M367.134 7.70108V87.3948C367.134 88.4059 366.954 89.4071 366.604 90.3411C366.254 91.2752 365.74 92.1238 365.094 92.8385C364.447 93.5532 363.679 94.1199 362.834 94.5064C361.99 94.8928 361.084 95.0914 360.17 95.0907C358.324 95.0907 356.553 94.2801 355.247 92.837C353.942 91.3938 353.207 89.4364 353.206 87.3948V7.70108C353.206 5.65863 353.94 3.69983 355.246 2.2556C356.552 0.811363 358.323 1.75097e-06 360.17 1.75097e-06C361.085 -0.000680551 361.99 0.198048 362.836 0.584822C363.681 0.971596 364.449 1.53883 365.095 2.25407C365.742 2.96932 366.255 3.81855 366.605 4.7532C366.955 5.68785 367.134 6.68957 367.134 7.70108Z" fill="#003A6C"/>
<path d="M400.756 33.2695V79.1802C400.756 88.1839 406.8 95.0131 417.833 95.0131H429.133C440.17 95.0131 446.082 88.1839 446.082 79.1802V33.2695H459.742V79.7563C459.742 97.4833 449.494 109.979 429.658 109.979H416.782C396.946 109.979 386.697 97.4833 386.697 79.7563V33.2695H400.756Z" fill="#003A6C"/>
<path d="M493.237 7.70108V87.3948C493.237 88.4059 493.057 89.4071 492.707 90.3411C492.357 91.2752 491.844 92.1238 491.197 92.8385C490.551 93.5532 489.783 94.1199 488.938 94.5064C488.093 94.8928 487.188 95.0914 486.274 95.0907C484.428 95.0907 482.658 94.2799 481.353 92.8366C480.048 91.3934 479.314 89.4359 479.314 87.3948V7.70108C479.314 6.69001 479.493 5.68871 479.843 4.7544C480.192 3.82009 480.705 2.97109 481.351 2.25591C481.997 1.54073 482.765 0.973392 483.609 0.586313C484.454 0.199233 485.359 1.52111e-06 486.274 1.75097e-06C487.188 -0.000680551 488.094 0.198048 488.939 0.584822C489.784 0.971596 490.552 1.53883 491.199 2.25407C491.846 2.96932 492.359 3.81855 492.709 4.7532C493.058 5.68785 493.238 6.68957 493.237 7.70108Z" fill="#003A6C"/>
<path d="M557.612 33.2695C574.951 33.2695 581.784 44.022 581.784 58.5471V94.5772C581.784 105.62 579.156 109.979 567.462 109.979H535.017C518.593 109.979 511.761 101.116 511.761 86.5855C511.761 72.6416 518.068 64.5046 535.144 64.5046H568.119V58.6924C568.119 52.735 565.102 48.0905 557.481 48.0905H515.965V33.2695H557.612ZM568.119 91.0899V76.7101H535.411C528.053 76.7101 525.426 80.0521 525.426 85.7137C525.426 91.3753 528.185 95.0131 535.144 95.0131H564.313C567.072 95.0131 568.119 93.8507 568.119 91.0899Z" fill="#003A6C"/>
<path d="M648.661 33.2695V48.0905H624.226C618.051 48.0905 615.31 51.282 615.31 57.9504V109.979H601.383V55.6411C601.383 40.2441 606.512 33.2695 620.153 33.2695H648.661Z" fill="#003A6C"/>
</svg>
