<svg width="266" height="53" viewBox="0 0 266 53" fill="none" xmlns="http://www.w3.org/2000/svg">
<path d="M27.0577 15.9004C33.4924 15.9004 36.5699 19.2727 36.5699 24.3988C36.5699 28.9654 34.1219 31.9262 30.2751 33.3212L9.08502 41.0468C7.83605 41.5486 7.12913 42.3817 7.12913 43.576C7.12913 44.9811 8.03589 45.8342 9.92433 45.8342H35.8005V53.0003H9.50967C3.14741 53.0003 0 49.628 0 44.4994C0 40.3568 2.02833 37.0548 6.29482 35.5092L27.5573 27.8413C29.096 27.2793 29.5157 26.2254 29.5157 25.2419C29.5157 23.8367 28.6064 23.0664 26.6481 23.0664H1.32891V15.9004H27.0577Z" fill="#003A6C"/>
<path d="M68.7011 15.9004C77.403 15.9004 81.0901 20.1169 81.0901 27.2823C81.0901 34.099 77.679 37.9615 68.6315 37.9615H51.1606V40.632C51.1606 43.5835 52.7617 45.762 56.7969 45.762H79.2801V53.0003H56.7969C47.5978 53.0003 43.9902 47.8 43.9902 40.7725V28.1256C43.9902 21.0982 47.6102 15.9004 56.7969 15.9004H68.7011ZM51.1606 32.1313H68.4227C72.4007 32.1313 73.8526 30.4447 73.8526 27.704C73.8526 24.893 72.2515 23.0684 68.6315 23.0684H56.7969C52.7617 23.0684 51.1606 25.3272 51.1606 28.1959V32.1313Z" fill="#003A6C"/>
<path d="M97.5196 3.73429V42.3781C97.5196 42.8684 97.4236 43.3538 97.2371 43.8068C97.0507 44.2597 96.7773 44.6712 96.4328 45.0177C96.0883 45.3643 95.6793 45.6391 95.2292 45.8265C94.7791 46.0139 94.2967 46.1102 93.8096 46.1099C92.8261 46.1099 91.8828 45.7168 91.1871 45.017C90.4914 44.3172 90.1003 43.3681 90.0996 42.3781V3.73429C90.0996 2.74389 90.4905 1.79406 91.1862 1.09375C91.882 0.393433 92.8257 8.49054e-07 93.8096 8.49054e-07C94.2969 -0.000330002 94.7795 0.0960343 95.2298 0.283583C95.68 0.471131 96.0891 0.746183 96.4337 1.09301C96.7783 1.43984 97.0515 1.85163 97.2379 2.30485C97.4242 2.75806 97.5199 3.2438 97.5196 3.73429Z" fill="#003A6C"/>
<path d="M115.541 3.73429V42.3781C115.541 42.8684 115.445 43.3538 115.259 43.8068C115.072 44.2597 114.799 44.6712 114.454 45.0177C114.11 45.3643 113.701 45.6391 113.251 45.8265C112.801 46.0139 112.318 46.1102 111.831 46.1099C110.848 46.1099 109.904 45.7168 109.209 45.017C108.513 44.3172 108.122 43.3681 108.121 42.3781V3.73429C108.121 2.74389 108.512 1.79406 109.208 1.09375C109.903 0.393433 110.847 8.49054e-07 111.831 8.49054e-07C112.318 -0.000330002 112.801 0.0960343 113.251 0.283583C113.701 0.471131 114.111 0.746183 114.455 1.09301C114.8 1.43984 115.073 1.85163 115.259 2.30485C115.446 2.75806 115.541 3.2438 115.541 3.73429Z" fill="#003A6C"/>
<path d="M133.585 15.9004V38.1046C133.585 42.4591 136.787 45.762 142.63 45.762H148.615C154.461 45.762 157.593 42.4591 157.593 38.1046V15.9004H164.829V38.3832C164.829 46.9567 159.4 53.0003 148.894 53.0003H142.073C131.567 53.0003 126.139 46.9567 126.139 38.3832V15.9004H133.585Z" fill="#003A6C"/>
<path d="M182.85 3.73429V42.3781C182.85 42.8684 182.754 43.3538 182.567 43.8068C182.381 44.2597 182.107 44.6712 181.763 45.0177C181.418 45.3643 181.009 45.6391 180.558 45.8265C180.108 46.0139 179.626 46.1102 179.138 46.1099C178.155 46.1099 177.211 45.7167 176.516 45.0169C175.82 44.317 175.43 43.3678 175.43 42.3781V3.73429C175.429 3.24401 175.525 2.75848 175.711 2.30543C175.898 1.85238 176.171 1.44069 176.515 1.0939C176.859 0.747107 177.268 0.472002 177.719 0.284305C178.169 0.0966091 178.651 7.37592e-07 179.138 8.49054e-07C179.626 -0.000330002 180.109 0.0960343 180.559 0.283583C181.009 0.471131 181.419 0.746183 181.763 1.09301C182.108 1.43984 182.381 1.85163 182.568 2.30485C182.754 2.75806 182.85 3.2438 182.85 3.73429Z" fill="#003A6C"/>
<path d="M217.029 15.9004C226.347 15.9004 230.019 21.1007 230.019 28.1256V45.5512C230.019 50.892 228.606 53.0003 222.322 53.0003H204.887C196.06 53.0003 192.389 48.7135 192.389 41.6861C192.389 34.9423 195.778 31.0069 204.955 31.0069H222.675V28.1959C222.675 25.3147 221.054 23.0684 216.958 23.0684H194.648V15.9004H217.029ZM222.675 43.8646V36.9099H205.098C201.144 36.9099 199.732 38.5263 199.732 41.2644C199.732 44.0026 201.215 45.762 204.955 45.762H220.63C222.113 45.762 222.675 45.1998 222.675 43.8646Z" fill="#003A6C"/>
<path d="M265.528 15.9004V23.0684H252.38C249.057 23.0684 247.582 24.6119 247.582 27.837V53.0003H240.088V26.7201C240.088 19.2736 242.848 15.9004 250.188 15.9004H265.528Z" fill="#003A6C"/>
</svg>
