<svg width="552" height="110" viewBox="0 0 552 110" fill="none" xmlns="http://www.w3.org/2000/svg">
<path d="M56.2639 33.2705C69.6442 33.2705 76.0435 40.2453 76.0435 50.8477C76.0435 60.2927 70.9532 66.4164 62.954 69.3018L18.8914 85.2806C16.2943 86.3185 14.8243 88.0415 14.8243 90.5117C14.8243 93.4179 16.7098 95.1823 20.6367 95.1823H74.4437V110.004H19.7744C6.54473 110.004 0 103.029 0 92.4215C0 83.8535 4.21772 77.0239 13.0895 73.8272L57.3027 57.9678C60.5024 56.8053 61.375 54.6257 61.375 52.5914C61.375 49.6852 59.4843 48.092 55.412 48.092H2.76333V33.2705H56.2639Z" fill="#003A6C"/>
<path d="M142.647 33.2705C160.827 33.2705 168.53 41.989 168.53 56.8053C168.53 70.9002 161.404 78.887 142.502 78.887H106.002V84.4087C106.002 90.5117 109.347 95.0163 117.777 95.0163H164.749V109.983H117.777C98.5588 109.983 91.022 99.2302 91.022 84.6994V58.549C91.022 44.0181 98.5848 33.2705 117.777 33.2705H142.647ZM106.002 66.8316H142.066C150.376 66.8316 153.41 63.3442 153.41 57.6772C153.41 51.8648 150.065 48.092 142.502 48.092H117.777C109.347 48.092 106.002 52.7626 106.002 58.6943V66.8316Z" fill="#003A6C"/>
<path d="M202.852 7.70135V87.3979C202.852 88.409 202.652 89.4102 202.265 90.3443C201.877 91.2784 201.309 92.127 200.594 92.8417C199.878 93.5564 199.028 94.1232 198.093 94.5097C197.158 94.8962 196.155 95.0947 195.143 95.094C193.1 95.094 191.14 94.2834 189.695 92.8402C188.249 91.397 187.436 89.4395 187.435 87.3979V7.70135C187.435 5.65883 188.247 3.69996 189.693 2.25568C191.138 0.811392 193.099 1.75103e-06 195.143 1.75103e-06C196.156 -0.000680575 197.158 0.198055 198.094 0.584843C199.029 0.97163 199.879 1.53888 200.595 2.25415C201.311 2.96943 201.879 3.81869 202.266 4.75337C202.653 5.68805 202.852 6.68981 202.852 7.70135Z" fill="#003A6C"/>
<path d="M240.379 7.70135V87.3979C240.379 88.409 240.179 89.4102 239.792 90.3443C239.405 91.2784 238.837 92.127 238.121 92.8417C237.405 93.5564 236.555 94.1232 235.62 94.5097C234.685 94.8962 233.683 95.0947 232.671 95.094C230.627 95.094 228.667 94.2834 227.222 92.8402C225.776 91.397 224.964 89.4395 224.962 87.3979V7.70135C224.962 5.65883 225.774 3.69996 227.22 2.25568C228.666 0.811392 230.626 1.75103e-06 232.671 1.75103e-06C233.683 -0.000680575 234.686 0.198055 235.621 0.584843C236.557 0.97163 237.407 1.53888 238.123 2.25415C238.839 2.96943 239.406 3.81869 239.794 4.75337C240.181 5.68805 240.38 6.68981 240.379 7.70135Z" fill="#003A6C"/>
<path d="M277.596 33.2705V79.1828C277.596 88.1868 284.286 95.0163 296.497 95.0163H309.005C321.222 95.0163 327.767 88.1868 327.767 79.1828V33.2705H342.887V79.7589C342.887 97.4865 331.543 109.983 309.587 109.983H295.334C273.378 109.983 262.034 97.4865 262.034 79.7589V33.2705H277.596Z" fill="#003A6C"/>
<path d="M379.963 7.70135V87.3979C379.963 88.409 379.764 89.4102 379.377 90.3443C378.989 91.2784 378.421 92.127 377.706 92.8417C376.99 93.5564 376.14 94.1232 375.205 94.5097C374.269 94.8962 373.267 95.0947 372.255 95.094C370.212 95.094 368.253 94.2832 366.808 92.8399C365.364 91.3966 364.552 89.439 364.552 87.3979V7.70135C364.552 6.69024 364.75 5.68891 365.137 4.75457C365.524 3.82023 366.091 2.97119 366.807 2.25599C367.522 1.54079 368.371 0.973426 369.306 0.586333C370.241 0.19924 371.243 1.52116e-06 372.255 1.75103e-06C373.268 -0.000680575 374.27 0.198055 375.206 0.584843C376.141 0.97163 376.991 1.53888 377.707 2.25415C378.423 2.96943 378.991 3.81869 379.378 4.75337C379.765 5.68805 379.964 6.68981 379.963 7.70135Z" fill="#003A6C"/>
<path d="M451.22 33.2705C470.412 33.2705 477.975 44.0233 477.975 58.549V94.5803C477.975 105.624 475.066 109.983 462.122 109.983H426.209C408.03 109.983 400.467 101.119 400.467 86.5884C400.467 72.6439 407.448 64.5067 426.35 64.5067H462.849V58.6943C462.849 52.7367 459.51 48.092 451.074 48.092H405.121V33.2705H451.22ZM462.849 91.0929V76.7126H426.646C418.501 76.7126 415.592 80.0547 415.592 85.7165C415.592 91.3783 418.647 95.0163 426.35 95.0163H458.637C461.691 95.0163 462.849 93.8538 462.849 91.0929Z" fill="#003A6C"/>
<path d="M552 33.2705V48.092H524.953C518.118 48.092 515.084 51.2836 515.084 57.9522V109.983H499.668V55.6428C499.668 40.2453 505.345 33.2705 520.445 33.2705H552Z" fill="#003A6C"/>
</svg>
