<svg width="49" height="38" viewBox="0 0 49 38" fill="none" xmlns="http://www.w3.org/2000/svg">
<path d="M47.3742 4.34797e-10C47.5357 -5.43159e-06 47.6931 0.0508868 47.8239 0.145431C47.9548 0.239976 48.0525 0.373353 48.103 0.526578C48.1536 0.679804 48.1545 0.845068 48.1057 0.998843C48.0568 1.15262 47.9606 1.28707 47.8308 1.38305L30.2795 14.3619L24.378 18.7294V14.3619H0.76743C0.563895 14.3619 0.368696 14.2811 0.224775 14.1373C0.080854 13.9935 0 13.7985 0 13.5951L0 0.766745C0 0.563392 0.080854 0.368366 0.224775 0.224574C0.368696 0.0807813 0.563895 4.34795e-10 0.76743 4.34797e-10H47.3742Z" fill="#003A6C"/>
<path d="M1.03677 37.4521C0.899445 37.4519 0.765667 37.4085 0.654438 37.328C0.54321 37.2476 0.460187 37.1341 0.417165 37.0039C0.374143 36.8736 0.37331 36.733 0.414784 36.6022C0.456258 36.4715 0.53793 36.357 0.648196 36.2753L18.4764 23.0902L24.3778 18.7227V23.0902H47.816C47.989 23.0908 48.1548 23.1598 48.2772 23.2821C48.3996 23.4043 48.4686 23.57 48.4692 23.7429V36.7994C48.4686 36.9723 48.3996 37.1379 48.2772 37.2602C48.1548 37.3825 47.989 37.4514 47.816 37.4521H1.03677Z" fill="#003A6C"/>
</svg>
