<svg width="526" height="105" viewBox="0 0 526 105" fill="none" xmlns="http://www.w3.org/2000/svg">
<path d="M53.6 31.4971C66.3468 31.4971 72.4431 38.1774 72.4431 48.332C72.4431 57.3782 67.5938 63.2433 59.9734 66.0069L17.997 81.3109C15.5228 82.305 14.1225 83.9552 14.1225 86.3211C14.1225 89.1045 15.9187 90.7945 19.6596 90.7945H70.919V104.99H18.8382C6.23486 104.99 0 98.3098 0 88.1502C0 79.944 4.01803 73.4029 12.4697 70.3411L54.5897 55.1514C57.6378 54.038 58.4691 51.9505 58.4691 50.002C58.4691 47.2186 56.6679 45.6927 52.7885 45.6927H2.6325V31.4971H53.6Z" fill="#003A6C"/>
<path d="M136.093 31.4971C153.331 31.4971 160.635 39.8497 160.635 54.0441C160.635 67.5475 153.877 75.1991 135.955 75.1991H101.346V80.4891C101.346 86.3359 104.518 90.6514 112.511 90.6514H157.049V104.99H112.511C94.288 104.99 87.1416 94.6885 87.1416 80.7675V55.7147C87.1416 41.7936 94.3126 31.4971 112.511 31.4971H136.093ZM101.346 63.6496H135.541C143.421 63.6496 146.298 60.3086 146.298 54.8794C146.298 49.311 143.126 45.6965 135.955 45.6965H112.511C104.518 45.6965 101.346 50.1711 101.346 55.8539V63.6496Z" fill="#003A6C"/>
<path d="M193.182 7.39743V83.9489C193.182 84.9201 192.992 85.8818 192.622 86.779C192.253 87.6762 191.712 88.4914 191.029 89.1779C190.347 89.8644 189.536 90.4088 188.645 90.78C187.753 91.1512 186.798 91.342 185.833 91.3413C183.884 91.3413 182.016 90.5626 180.638 89.1764C179.26 87.7902 178.485 85.9099 178.483 83.9489V7.39743C178.483 5.43551 179.258 3.55395 180.636 2.16666C182.014 0.779372 183.884 1.68193e-06 185.833 1.68193e-06C186.798 -0.000653717 187.754 0.190239 188.646 0.561763C189.538 0.933286 190.348 1.47815 191.031 2.1652C191.713 2.85224 192.255 3.66799 192.624 4.56578C192.993 5.46358 193.183 6.4258 193.182 7.39743Z" fill="#003A6C"/>
<path d="M228.878 7.39743V83.9489C228.878 84.9201 228.688 85.8818 228.319 86.779C227.949 87.6762 227.408 88.4914 226.725 89.1779C226.043 89.8644 225.233 90.4088 224.341 90.78C223.449 91.1512 222.494 91.342 221.529 91.3413C219.581 91.3413 217.712 90.5626 216.334 89.1764C214.956 87.7902 214.181 85.9099 214.18 83.9489V7.39743C214.18 5.43551 214.954 3.55395 216.332 2.16666C217.71 0.779372 219.58 1.68193e-06 221.529 1.68193e-06C222.494 -0.000653717 223.45 0.190239 224.342 0.561763C225.234 0.933286 226.045 1.47815 226.727 2.1652C227.41 2.85224 227.951 3.66799 228.32 4.56578C228.689 5.46358 228.879 6.4258 228.878 7.39743Z" fill="#003A6C"/>
<path d="M264.627 31.4971V75.4825C264.627 84.1086 270.969 90.6514 282.545 90.6514H294.401C305.982 90.6514 312.186 84.1086 312.186 75.4825V31.4971H326.519V76.0344C326.519 93.018 315.765 104.99 294.953 104.99H281.442C260.629 104.99 249.876 93.018 249.876 76.0344V31.4971H264.627Z" fill="#003A6C"/>
<path d="M362.215 7.39743V83.9489C362.215 84.9201 362.025 85.8818 361.656 86.779C361.286 87.6762 360.744 88.4914 360.062 89.1779C359.379 89.8644 358.568 90.4088 357.676 90.78C356.785 91.1512 355.829 91.342 354.863 91.3413C352.915 91.3413 351.046 90.5625 349.668 89.1761C348.291 87.7898 347.517 85.9095 347.517 83.9489V7.39743C347.516 6.42622 347.705 5.4644 348.074 4.56694C348.443 3.66947 348.984 2.85394 349.667 2.16696C350.349 1.47998 351.159 0.935011 352.051 0.563195C352.942 0.191378 353.898 1.46113e-06 354.863 1.68193e-06C355.829 -0.000653717 356.785 0.190239 357.678 0.561763C358.57 0.933286 359.381 1.47815 360.063 2.1652C360.746 2.85224 361.288 3.66799 361.657 4.56578C362.026 5.46358 362.216 6.4258 362.215 7.39743Z" fill="#003A6C"/>
<path d="M429.924 31.4971C448.383 31.4971 455.656 41.7986 455.656 55.7147V90.2338C455.656 100.814 452.859 104.99 440.41 104.99H405.871C388.387 104.99 381.113 96.4983 381.113 82.5773C381.113 69.2181 387.827 61.4223 406.006 61.4223H441.109V55.8539C441.109 50.1463 437.897 45.6965 429.784 45.6965H385.589V31.4971H429.924ZM441.109 86.8928V73.1159H406.291C398.458 73.1159 395.66 76.3178 395.66 81.742C395.66 87.1662 398.598 90.6514 406.006 90.6514H437.058C439.995 90.6514 441.109 89.5378 441.109 86.8928Z" fill="#003A6C"/>
<path d="M526 31.4971V45.6965H499.954C493.372 45.6965 490.45 48.7542 490.45 55.1429V104.99H475.604V52.9305C475.604 38.1792 481.072 31.4971 495.613 31.4971H526Z" fill="#003A6C"/>
</svg>
