<svg width="251" height="50" viewBox="0 0 251 50" fill="none" xmlns="http://www.w3.org/2000/svg">
<path d="M25.5211 14.9971C31.5904 14.9971 34.4931 18.1778 34.4931 23.0129C34.4931 27.3201 32.1842 30.1127 28.5558 31.4286L8.56909 38.7155C7.39105 39.1888 6.72428 39.9745 6.72428 41.101C6.72428 42.4263 7.57954 43.231 9.36074 43.231H33.7675V49.9901H8.96963C2.96867 49.9901 0 46.8093 0 41.9719C0 38.0646 1.91315 34.9501 5.93734 33.4923L25.9924 26.2599C27.4437 25.7297 27.8395 24.7358 27.8395 23.808C27.8395 22.4827 26.9819 21.7562 25.1347 21.7562H1.25344V14.9971H25.5211Z" fill="#003A6C"/>
<path d="M64.7988 14.9971C73.0065 14.9971 76.4842 18.9741 76.4842 25.7327C76.4842 32.1622 73.2668 35.8054 64.7331 35.8054H48.2544V38.3242C48.2544 41.1081 49.7646 43.1629 53.5706 43.1629H74.777V49.9901H53.5706C44.8939 49.9901 41.4912 45.0851 41.4912 38.4567V26.5281C41.4912 19.8997 44.9056 14.9971 53.5706 14.9971H64.7988ZM48.2544 30.3062H64.5361C68.2882 30.3062 69.6578 28.7154 69.6578 26.1304C69.6578 23.479 68.1475 21.758 64.7331 21.758H53.5706C49.7646 21.758 48.2544 23.8885 48.2544 26.5943V30.3062Z" fill="#003A6C"/>
<path d="M91.981 3.52222V39.9715C91.981 40.4339 91.8905 40.8918 91.7146 41.319C91.5387 41.7462 91.2809 42.1344 90.956 42.4612C90.631 42.7881 90.2452 43.0473 89.8207 43.2241C89.3961 43.4008 88.9412 43.4916 88.4817 43.4913C87.5541 43.4913 86.6644 43.1206 86.0082 42.4605C85.352 41.8005 84.983 40.9052 84.9824 39.9715V3.52222C84.9824 2.58807 85.3511 1.69218 86.0073 1.03163C86.6636 0.371091 87.5537 8.00837e-07 88.4817 8.00837e-07C88.9414 -0.000311261 89.3965 0.0905806 89.8212 0.267478C90.2459 0.444376 90.6318 0.703808 90.9568 1.03094C91.2818 1.35807 91.5396 1.74648 91.7153 2.17396C91.891 2.60143 91.9813 3.05959 91.981 3.52222Z" fill="#003A6C"/>
<path d="M108.979 3.52222V39.9715C108.979 40.4339 108.889 40.8918 108.713 41.319C108.537 41.7462 108.279 42.1344 107.954 42.4612C107.629 42.7881 107.243 43.0473 106.819 43.2241C106.394 43.4008 105.939 43.4916 105.48 43.4913C104.552 43.4913 103.662 43.1206 103.006 42.4605C102.35 41.8005 101.981 40.9052 101.98 39.9715V3.52222C101.98 2.58807 102.349 1.69218 103.005 1.03163C103.662 0.371091 104.552 8.00837e-07 105.48 8.00837e-07C105.939 -0.000311261 106.395 0.0905806 106.819 0.267478C107.244 0.444376 107.63 0.703808 107.955 1.03094C108.28 1.35807 108.538 1.74648 108.713 2.17396C108.889 2.60143 108.979 3.05959 108.979 3.52222Z" fill="#003A6C"/>
<path d="M126 14.9971V35.9403C126 40.0476 129.02 43.1629 134.532 43.1629H140.177C145.691 43.1629 148.645 40.0476 148.645 35.9403V14.9971H155.469V36.2031C155.469 44.2897 150.349 49.9901 140.439 49.9901H134.006C124.097 49.9901 118.977 44.2897 118.977 36.2031V14.9971H126Z" fill="#003A6C"/>
<path d="M172.465 3.52222V39.9715C172.465 40.4339 172.375 40.8918 172.199 41.319C172.023 41.7462 171.765 42.1344 171.44 42.4612C171.115 42.7881 170.729 43.0473 170.304 43.2241C169.88 43.4008 169.424 43.4916 168.965 43.4913C168.037 43.4913 167.147 43.1205 166.491 42.4604C165.835 41.8003 165.467 40.905 165.467 39.9715V3.52222C165.466 3.05979 165.557 2.60183 165.732 2.1745C165.908 1.74718 166.166 1.35888 166.491 1.03178C166.815 0.704679 167.201 0.445197 167.626 0.26816C168.05 0.0911228 168.505 6.95705e-07 168.965 8.00837e-07C169.425 -0.000311261 169.88 0.0905806 170.305 0.267478C170.73 0.444376 171.116 0.703808 171.441 1.03094C171.766 1.35807 172.024 1.74648 172.2 2.17396C172.375 2.60143 172.466 3.05959 172.465 3.52222Z" fill="#003A6C"/>
<path d="M204.705 14.9971C213.494 14.9971 216.957 19.9021 216.957 26.5281V42.964C216.957 48.0016 215.625 49.9901 209.697 49.9901H193.252C184.927 49.9901 181.464 45.9468 181.464 39.3184C181.464 32.9576 184.661 29.2457 193.316 29.2457H210.03V26.5943C210.03 23.8767 208.501 21.758 204.638 21.758H183.595V14.9971H204.705ZM210.03 41.3732V34.8135H193.452C189.722 34.8135 188.39 36.338 188.39 38.9207C188.39 41.5034 189.789 43.1629 193.316 43.1629H208.101C209.5 43.1629 210.03 42.6326 210.03 41.3732Z" fill="#003A6C"/>
<path d="M250.45 14.9971V21.758H238.049C234.915 21.758 233.524 23.2139 233.524 26.2558V49.9901H226.455V25.2024C226.455 18.1787 229.058 14.9971 235.982 14.9971H250.45Z" fill="#003A6C"/>
</svg>
