<svg width="387" height="230" viewBox="0 0 387 230" fill="none" xmlns="http://www.w3.org/2000/svg">
<circle cx="84.2468" cy="190.524" r="2.71291" transform="rotate(-12.8086 84.2468 190.524)" fill="#003A6C"/>
<path d="M221.5 104C221.5 134.648 196.432 159.5 165.5 159.5C134.568 159.5 109.5 134.648 109.5 104C109.5 73.3524 134.568 48.5 165.5 48.5C196.432 48.5 221.5 73.3524 221.5 104Z" fill="#003A6C" stroke="#003A6C"/>
<path d="M171.766 99.144L171.766 99.1442L166.997 102.673V99.5461V99.0461H166.497H144.228C144.168 99.0461 144.111 99.0224 144.069 98.9805C144.027 98.9386 144.004 98.8819 144.004 98.8229V86.7232C144.004 86.6641 144.027 86.6074 144.069 86.5655C144.111 86.5236 144.168 86.5 144.228 86.5H188.187C188.234 86.5 188.28 86.5149 188.318 86.5425C188.357 86.57 188.385 86.6089 188.4 86.6534C188.414 86.6979 188.415 86.7459 188.4 86.7906C188.386 86.8353 188.358 86.8745 188.32 86.9025L188.617 87.304L188.32 86.9025L171.766 99.144Z" fill="#FDF5E6" stroke="#FDF5E6"/>
<path d="M144.371 120.674C144.378 120.651 144.392 120.631 144.412 120.617C144.412 120.616 144.412 120.616 144.412 120.616L161.227 108.181L161.227 108.181L165.996 104.651V107.779V108.279H166.496H188.601C188.632 108.279 188.662 108.291 188.684 108.313L189.038 107.96L188.684 108.313C188.706 108.335 188.718 108.365 188.719 108.395C188.719 108.396 188.719 108.396 188.719 108.396V120.707C188.719 120.707 188.719 120.708 188.719 120.708C188.718 120.739 188.706 120.768 188.684 120.79C188.662 120.812 188.632 120.824 188.601 120.825H144.481C144.457 120.825 144.433 120.817 144.413 120.803C144.393 120.788 144.379 120.768 144.371 120.745C144.363 120.722 144.363 120.697 144.371 120.674Z" fill="#FDF5E6" stroke="#FDF5E6"/>
<path d="M230.725 34.0681C230.396 34.0681 230.314 33.9039 230.479 33.6576L232.203 31.4408C232.367 31.1945 232.777 31.0303 233.106 31.0303H262.417C262.745 31.0303 262.828 31.2766 262.663 31.5229L261.268 33.6576C261.103 33.9039 260.693 34.1502 260.447 34.1502L230.725 34.0681Z" fill="#2DBCAF"/>
<path d="M218.328 41.6257C218 41.6257 217.918 41.4615 218.082 41.2152L219.806 38.9984C219.97 38.7521 220.381 38.5879 220.709 38.5879H258.149C258.477 38.5879 258.641 38.8342 258.559 39.0805L257.903 41.051C257.82 41.3794 257.492 41.5436 257.164 41.5436L218.328 41.6257Z" fill="#2DBCAF"/>
<path d="M238.205 49.1755C237.877 49.1755 237.795 48.9292 237.959 48.6829L239.109 46.6303C239.273 46.384 239.601 46.1377 239.93 46.1377H256.35C256.679 46.1377 256.843 46.384 256.843 46.7124L256.679 48.6829C256.679 49.0113 256.35 49.2576 256.104 49.2576L238.205 49.1755Z" fill="#2DBCAF"/>
<path d="M323.424 32.5984C318.252 33.9121 314.721 34.8973 309.631 36.211C308.399 36.5394 308.317 36.6215 307.25 35.39C306.018 33.9942 305.115 33.0911 303.391 32.27C298.218 29.7248 293.21 30.4637 288.53 33.5016C282.947 37.1141 280.073 42.4509 280.155 49.1013C280.238 55.6696 284.753 61.0885 291.24 61.9916C296.823 62.7306 301.503 60.7601 305.197 56.5728C305.936 55.6696 306.593 54.6844 307.414 53.5349C304.458 53.5349 300.764 53.5349 291.568 53.5349C289.844 53.5349 289.433 52.4676 290.008 51.0718C291.075 48.5266 293.046 44.2572 294.195 42.1225C294.442 41.6299 295.016 40.8088 296.248 40.8088C300.435 40.8088 315.871 40.8088 326.134 40.8088C325.969 43.0256 325.969 45.2424 325.641 47.4592C324.738 53.3707 322.521 58.7896 318.909 63.5516C312.997 71.3515 305.279 76.1956 295.509 77.5093C287.463 78.5766 279.991 77.0166 273.423 72.0904C267.347 67.4926 263.899 61.4169 262.996 53.8633C261.928 44.914 264.556 36.8678 269.975 29.8069C275.804 22.1712 283.522 17.3271 292.964 15.6029C300.681 14.2071 308.071 15.1103 314.721 19.626C319.073 22.4996 322.193 26.4406 324.245 31.2027C324.738 31.9416 324.41 32.3521 323.424 32.5984Z" fill="#2DBCAF"/>
<path d="M350.603 77.9995C343.132 77.8352 336.317 75.7005 330.57 70.7743C325.726 66.587 322.688 61.2502 321.703 54.9282C320.225 45.6505 322.77 37.4401 328.353 30.1329C334.347 22.2509 341.572 18.1457 351.342 16.4215C359.717 14.9436 367.599 15.7647 374.742 20.6088C381.228 25.0424 385.251 31.036 386.318 38.918C387.714 50.002 384.512 59.0334 376.876 66.7512C371.458 72.2522 364.807 75.7005 357.171 77.2605C354.955 77.671 352.738 77.7531 350.603 77.9995ZM370.144 44.8295C370.062 43.7621 370.062 42.9411 369.898 42.12C368.42 33.9917 360.948 29.3939 353.148 31.2002C345.513 32.9244 340.586 37.7685 338.78 45.4863C337.302 51.8904 340.422 58.3766 346.334 61.0039C350.849 62.9744 355.365 62.7281 359.717 60.5113C366.203 57.1451 369.733 51.8904 370.144 44.8295Z" fill="#2DBCAF"/>
<g opacity="0.6" clip-path="url(#clip0_8804_1758)">
<path fill-rule="evenodd" clip-rule="evenodd" d="M0 0H27V27H0V0Z" fill="#F7DF1E"/>
<path fill-rule="evenodd" clip-rule="evenodd" d="M7.09961 22.5637L9.16504 21.3135C9.56274 22.021 9.92529 22.6187 10.7954 22.6187C11.6282 22.6187 12.1555 22.2935 12.1555 21.0234V12.3948H14.6934V21.0586C14.6934 23.6865 13.1531 24.8818 10.9053 24.8818C8.875 24.8818 7.69727 23.8315 7.09961 22.5637ZM16.071 22.2913L18.1365 21.0959C18.6814 21.9836 19.3867 22.6362 20.637 22.6362C21.6873 22.6362 22.3596 22.1111 22.3596 21.386C22.3596 20.5159 21.6719 20.2083 20.5117 19.7007L19.8767 19.4282C18.0464 18.6482 16.8313 17.6704 16.8313 15.605C16.8313 13.7021 18.2815 12.252 20.5469 12.252C22.1597 12.252 23.3198 12.8145 24.1526 14.2822L22.1772 15.55C21.7422 14.77 21.272 14.4624 20.5469 14.4624C19.8042 14.4624 19.3318 14.9326 19.3318 15.55C19.3318 16.3103 19.802 16.6201 20.8896 17.0903L21.5247 17.3628C23.6824 18.2878 24.8953 19.2305 24.8953 21.3508C24.8953 23.6338 23.1001 24.884 20.6897 24.884C18.3364 24.884 16.8137 23.759 16.071 22.2913Z" fill="black"/>
</g>
<circle cx="28.521" cy="28.3696" r="1" transform="rotate(-12.8086 28.521 28.3696)" fill="#003A6C"/>
<circle cx="30.9156" cy="29.8765" r="1" transform="rotate(-12.8086 30.9156 29.8765)" fill="#003A6C"/>
<circle cx="33.3081" cy="31.3833" r="1" transform="rotate(-12.8086 33.3081 31.3833)" fill="#003A6C"/>
<circle cx="35.7007" cy="32.8901" r="1" transform="rotate(-12.8086 35.7007 32.8901)" fill="#003A6C"/>
<circle cx="38.0952" cy="34.397" r="1" transform="rotate(-12.8086 38.0952 34.397)" fill="#003A6C"/>
<circle cx="41.0882" cy="36.2805" r="1.5" transform="rotate(-12.8086 41.0882 36.2805)" fill="#003A6C"/>
<circle cx="44.678" cy="38.5413" r="1.5" transform="rotate(-12.8086 44.678 38.5413)" fill="#003A6C"/>
<circle cx="48.8663" cy="41.1777" r="2" transform="rotate(-12.8086 48.8663 41.1777)" fill="#003A6C"/>
<circle cx="53.6553" cy="44.1914" r="2" transform="rotate(-12.8086 53.6553 44.1914)" fill="#003A6C"/>
<circle cx="59.0389" cy="47.5818" r="2.5" transform="rotate(-12.8086 59.0389 47.5818)" fill="#003A6C"/>
<circle cx="65.0233" cy="51.3494" r="2.5" transform="rotate(-12.8086 65.0233 51.3494)" fill="#003A6C"/>
<circle cx="71.6061" cy="55.4927" r="3" transform="rotate(-12.8086 71.6061 55.4927)" fill="#003A6C"/>
<circle cx="78.7857" cy="60.0132" r="3" transform="rotate(-12.8086 78.7857 60.0132)" fill="#003A6C"/>
<circle cx="86.5677" cy="64.9104" r="3.5" transform="rotate(-12.8086 86.5677 64.9104)" fill="#003A6C"/>
<circle cx="94.9427" cy="70.1848" r="3.5" transform="rotate(-12.8086 94.9427 70.1848)" fill="#003A6C"/>
<circle cx="104.518" cy="76.2117" r="4.5" transform="rotate(-12.8086 104.518 76.2117)" fill="#003A6C"/>
<circle cx="115.29" cy="82.9929" r="4.5" transform="rotate(-12.8086 115.29 82.9929)" fill="#003A6C"/>
<circle cx="105.95" cy="174.247" r="2.71291" transform="rotate(-12.8086 105.95 174.247)" fill="#003A6C"/>
<circle cx="112.032" cy="169.032" r="3.36874" transform="rotate(-12.8086 112.032 169.032)" fill="#003A6C"/>
<circle cx="118.732" cy="162.922" r="4.29641" transform="rotate(-12.8086 118.732 162.922)" fill="#003A6C"/>
<circle cx="127.937" cy="154.937" r="5.79603" transform="rotate(-12.8086 127.937 154.937)" fill="#003A6C"/>
<circle cx="225.937" cy="94.9372" r="5.79603" transform="rotate(-12.8086 225.937 94.9372)" fill="#003A6C"/>
<circle cx="237.937" cy="87.9372" r="5.79603" transform="rotate(-12.8086 237.937 87.9372)" fill="#003A6C"/>
<circle cx="250.937" cy="81.9372" r="5.79603" transform="rotate(-12.8086 250.937 81.9372)" fill="#003A6C"/>
<circle cx="264.937" cy="74.9372" r="5.79603" transform="rotate(-12.8086 264.937 74.9372)" fill="#003A6C"/>
<circle cx="100.524" cy="178.467" r="2.71291" transform="rotate(-12.8086 100.524 178.467)" fill="#003A6C"/>
<circle cx="95.0984" cy="182.084" r="2.71291" transform="rotate(-12.8086 95.0984 182.084)" fill="#003A6C"/>
<circle cx="89.6726" cy="186.305" r="2.71291" transform="rotate(-12.8086 89.6726 186.305)" fill="#003A6C"/>
<path d="M57.7857 158.001C54.8822 158.014 52.1098 158.262 49.6705 158.693C42.4839 159.963 41.1791 162.619 41.1791 167.519V173.99H58.1619V176.147H34.8051C29.8697 176.147 25.5473 179.113 24.1956 184.755C22.6362 191.223 22.5671 195.258 24.1956 202.011C25.4029 207.038 28.2861 210.619 33.2216 210.619H39.061V202.862C39.061 197.258 43.911 192.315 49.6705 192.315H66.6337C71.3558 192.315 75.1252 188.428 75.1252 183.687V167.519C75.1252 162.918 71.2424 159.461 66.6337 158.693C63.7156 158.208 60.6892 157.987 57.7857 158.001ZM48.6013 163.205C50.3559 163.205 51.788 164.66 51.788 166.45C51.788 168.233 50.3552 169.676 48.6013 169.676C46.8411 169.676 45.4147 168.234 45.4147 166.45C45.4147 164.66 46.8411 163.205 48.6013 163.205Z" fill="url(#paint0_linear_8804_1758)"/>
<path d="M82.0837 176.146V183.686C82.0837 189.531 77.1267 194.451 71.4742 194.451H54.511C49.8643 194.451 46.0195 198.426 46.0195 203.079V219.246C46.0195 223.848 50.0214 226.554 54.511 227.874C59.8867 229.454 65.0419 229.74 71.4742 227.874C75.7496 226.636 79.9656 224.145 79.9656 219.246V212.775H63.0024V210.619H88.457C93.3931 210.619 95.2319 207.176 96.9484 202.01C98.722 196.692 98.6466 191.577 96.9484 184.755C95.7285 179.843 93.3988 176.146 88.457 176.146H82.0837ZM72.5427 217.089C74.303 217.089 75.7294 218.531 75.7294 220.315C75.7294 222.104 74.303 223.56 72.5427 223.56C70.7882 223.56 69.3561 222.104 69.3561 220.315C69.3561 218.531 70.7888 217.089 72.5427 217.089Z" fill="url(#paint1_linear_8804_1758)"/>
<defs>
<linearGradient id="paint0_linear_8804_1758" x1="21.325" y1="160.021" x2="60.4786" y2="193.39" gradientUnits="userSpaceOnUse">
<stop stop-color="#5A9FD4"/>
<stop offset="1" stop-color="#306998"/>
</linearGradient>
<linearGradient id="paint1_linear_8804_1758" x1="80.0226" y1="214.175" x2="65.977" y2="194.49" gradientUnits="userSpaceOnUse">
<stop stop-color="#FFD43B"/>
<stop offset="1" stop-color="#FFE873"/>
</linearGradient>
<clipPath id="clip0_8804_1758">
<rect width="27" height="27" fill="white"/>
</clipPath>
</defs>
</svg>
