<svg width="1920" height="1196" viewBox="0 0 1920 1196" fill="none" xmlns="http://www.w3.org/2000/svg">
<rect x="1.25" y="1.25" width="1917.5" height="1193.5" fill="#003A6C" stroke="#003A6C" stroke-width="2.5"/>
<g opacity="0.7">
<line x1="22.0684" y1="1.24066" x2="22.0683" y2="1194.76" stroke="#FDF5E6" stroke-opacity="0.5" stroke-width="0.5"/>
<line x1="720.25" y1="1.24066" x2="720.25" y2="985.087" stroke="#FDF5E6" stroke-opacity="0.5" stroke-width="0.5"/>
<line x1="371.159" y1="1.24066" x2="371.159" y2="1194.76" stroke="#FDF5E6" stroke-opacity="0.5" stroke-width="0.5"/>
<line x1="196.613" y1="1.24066" x2="196.613" y2="1194.76" stroke="#FDF5E6" stroke-opacity="0.5" stroke-width="0.5"/>
<line x1="894.796" y1="1.24066" x2="894.796" y2="1182.35" stroke="#FDF5E6" stroke-opacity="0.5" stroke-width="0.5"/>
<line x1="545.705" y1="1.24066" x2="545.705" y2="1194.76" stroke="#FDF5E6" stroke-opacity="0.5" stroke-width="0.5"/>
<line x1="109.341" y1="1.12018e-08" x2="109.341" y2="1194.76" stroke="#FDF5E6" stroke-opacity="0.5" stroke-width="0.5"/>
<line x1="458.432" y1="1.24066" x2="458.432" y2="1194.76" stroke="#FDF5E6" stroke-opacity="0.5" stroke-width="0.5"/>
<line x1="1156.61" y1="173.693" x2="1156.61" y2="1194.76" stroke="#FDF5E6" stroke-opacity="0.5" stroke-width="0.5"/>
<line x1="1571.16" y1="148.88" x2="1571.16" y2="1194.76" stroke="#FDF5E6" stroke-opacity="0.5" stroke-width="0.5"/>
<line x1="283.886" y1="1.24066" x2="283.886" y2="1193.52" stroke="#FDF5E6" stroke-opacity="0.5" stroke-width="0.5"/>
<line x1="632.978" y1="1.24066" x2="632.977" y2="1194.76" stroke="#FDF5E6" stroke-opacity="0.5" stroke-width="0.5"/>
<line x1="1745.71" y1="1.24066" x2="1745.71" y2="1194.76" stroke="#FDF5E6" stroke-opacity="0.5" stroke-width="0.5"/>
<line x1="1832.98" y1="1.24066" x2="1832.98" y2="1194.76" stroke="#FDF5E6" stroke-opacity="0.5" stroke-width="0.5"/>
<line x1="65.7041" y1="1.24066" x2="65.704" y2="1194.76" stroke="#FDF5E6" stroke-opacity="0.5" stroke-width="0.5"/>
<line x1="763.887" y1="1.24066" x2="763.887" y2="1059.53" stroke="#FDF5E6" stroke-opacity="0.5" stroke-width="0.5"/>
<line x1="414.795" y1="1.24066" x2="414.795" y2="1194.76" stroke="#FDF5E6" stroke-opacity="0.5" stroke-width="0.5"/>
<line x1="1527.52" y1="50.8672" x2="1527.52" y2="961.514" stroke="#FDF5E6" stroke-opacity="0.5" stroke-width="0.5"/>
<line x1="240.25" y1="1.24066" x2="240.25" y2="1194.76" stroke="#FDF5E6" stroke-opacity="0.5" stroke-width="0.5"/>
<line x1="589.341" y1="1.24066" x2="589.341" y2="1194.76" stroke="#FDF5E6" stroke-opacity="0.5" stroke-width="0.5"/>
<line x1="152.978" y1="1.24066" x2="152.977" y2="1194.76" stroke="#FDF5E6" stroke-opacity="0.5" stroke-width="0.5"/>
<line x1="851.159" y1="75.6805" x2="851.159" y2="1084.34" stroke="#FDF5E6" stroke-opacity="0.5" stroke-width="0.5"/>
<line x1="502.068" y1="1.24066" x2="502.068" y2="1194.76" stroke="#FDF5E6" stroke-opacity="0.5" stroke-width="0.5"/>
<line x1="1200.25" y1="246.892" x2="1200.25" y2="961.515" stroke="#FDF5E6" stroke-opacity="0.5" stroke-width="0.5"/>
<line x1="1614.8" y1="1.24066" x2="1614.8" y2="1194.76" stroke="#FDF5E6" stroke-opacity="0.5" stroke-width="0.5"/>
<line x1="327.522" y1="1.24066" x2="327.523" y2="1193.52" stroke="#FDF5E6" stroke-opacity="0.5" stroke-width="0.5"/>
<path d="M1025.73 174.313L1025.73 1009.9" stroke="#FDF5E6" stroke-opacity="0.5" stroke-width="0.5"/>
<line x1="676.614" y1="1.24066" x2="676.614" y2="1194.76" stroke="#FDF5E6" stroke-opacity="0.5" stroke-width="0.5"/>
<line x1="1374.79" y1="296.519" x2="1374.79" y2="689.809" stroke="#FDF5E6" stroke-opacity="0.5" stroke-width="0.5"/>
<line x1="1789.34" y1="148.88" x2="1789.34" y2="1009.9" stroke="#FDF5E6" stroke-opacity="0.5" stroke-width="0.5"/>
<line x1="1876.61" y1="370.958" x2="1876.61" y2="1009.9" stroke="#FDF5E6" stroke-opacity="0.5" stroke-width="0.5"/>
<line x1="43.8867" y1="1.24066" x2="43.8867" y2="1194.76" stroke="#FDF5E6" stroke-opacity="0.5" stroke-width="0.5"/>
<line x1="742.068" y1="148.88" x2="742.068" y2="1194.76" stroke="#FDF5E6" stroke-opacity="0.5" stroke-width="0.5"/>
<line x1="392.977" y1="1.24066" x2="392.977" y2="1194.76" stroke="#FDF5E6" stroke-opacity="0.5" stroke-width="0.5"/>
<path d="M1505.46 246.892L1505.46 985.087" stroke="#FDF5E6" stroke-opacity="0.5" stroke-width="0.5"/>
<line x1="218.432" y1="1.24066" x2="218.432" y2="1194.76" stroke="#FDF5E6" stroke-opacity="0.5" stroke-width="0.5"/>
<line x1="916.613" y1="1.24066" x2="916.613" y2="911.888" stroke="#FDF5E6" stroke-opacity="0.5" stroke-width="0.5"/>
<line x1="567.523" y1="1.24066" x2="567.523" y2="1194.76" stroke="#FDF5E6" stroke-opacity="0.5" stroke-width="0.5"/>
<line x1="1265.7" y1="1.24066" x2="1265.7" y2="1194.76" stroke="#FDF5E6" stroke-opacity="0.5" stroke-width="0.5"/>
<line x1="1680.25" y1="1.24066" x2="1680.25" y2="1194.76" stroke="#FDF5E6" stroke-opacity="0.5" stroke-width="0.5"/>
<line x1="131.159" y1="1.24066" x2="131.159" y2="1194.76" stroke="#FDF5E6" stroke-opacity="0.5" stroke-width="0.5"/>
<line x1="829.341" y1="1.24066" x2="829.341" y2="1157.54" stroke="#FDF5E6" stroke-opacity="0.5" stroke-width="0.5"/>
<line x1="480.25" y1="1.24066" x2="480.25" y2="1194.76" stroke="#FDF5E6" stroke-opacity="0.5" stroke-width="0.5"/>
<line x1="1178.43" y1="1.24066" x2="1178.43" y2="1009.9" stroke="#FDF5E6" stroke-opacity="0.5" stroke-width="0.5"/>
<line x1="1592.98" y1="296.519" x2="1592.98" y2="1109.15" stroke="#FDF5E6" stroke-opacity="0.5" stroke-width="0.5"/>
<line x1="305.704" y1="1.24066" x2="305.704" y2="1193.52" stroke="#FDF5E6" stroke-opacity="0.5" stroke-width="0.5"/>
<line x1="1003.89" y1="296.519" x2="1003.89" y2="1194.76" stroke="#FDF5E6" stroke-opacity="0.5" stroke-width="0.5"/>
<line x1="1418.43" y1="296.519" x2="1418.43" y2="764.249" stroke="#FDF5E6" stroke-opacity="0.5" stroke-width="0.5"/>
<line x1="654.796" y1="1.24066" x2="654.796" y2="1194.76" stroke="#FDF5E6" stroke-opacity="0.5" stroke-width="0.5"/>
<line x1="1352.98" y1="148.88" x2="1352.98" y2="1107.91" stroke="#FDF5E6" stroke-opacity="0.5" stroke-width="0.5"/>
<line x1="1767.52" y1="370.958" x2="1767.52" y2="1194.76" stroke="#FDF5E6" stroke-opacity="0.5" stroke-width="0.5"/>
<line x1="87.5225" y1="1.24066" x2="87.5224" y2="1194.76" stroke="#FDF5E6" stroke-opacity="0.5" stroke-width="0.5"/>
<line x1="436.613" y1="1.24066" x2="436.613" y2="1194.76" stroke="#FDF5E6" stroke-opacity="0.5" stroke-width="0.5"/>
<line x1="262.068" y1="1.24066" x2="262.068" y2="1194.76" stroke="#FDF5E6" stroke-opacity="0.5" stroke-width="0.5"/>
<line x1="960.25" y1="26.054" x2="960.25" y2="1194.76" stroke="#FDF5E6" stroke-opacity="0.5" stroke-width="0.5"/>
<line x1="611.159" y1="1.24066" x2="611.159" y2="1194.76" stroke="#FDF5E6" stroke-opacity="0.5" stroke-width="0.5"/>
<line x1="1309.34" y1="1.24066" x2="1309.34" y2="1194.76" stroke="#FDF5E6" stroke-opacity="0.5" stroke-width="0.5"/>
<line x1="1723.89" y1="26.054" x2="1723.89" y2="1132.73" stroke="#FDF5E6" stroke-opacity="0.5" stroke-width="0.5"/>
<line x1="174.795" y1="1.24066" x2="174.795" y2="1194.76" stroke="#FDF5E6" stroke-opacity="0.5" stroke-width="0.5"/>
<line x1="872.978" y1="1.24066" x2="872.977" y2="1194.76" stroke="#FDF5E6" stroke-opacity="0.5" stroke-width="0.5"/>
<line x1="523.887" y1="1.24066" x2="523.887" y2="1194.76" stroke="#FDF5E6" stroke-opacity="0.5" stroke-width="0.5"/>
<path d="M1221.82 75.6805L1221.82 666.237" stroke="#FDF5E6" stroke-opacity="0.5" stroke-width="0.5"/>
<line x1="1636.61" y1="173.693" x2="1636.61" y2="1059.53" stroke="#FDF5E6" stroke-opacity="0.5" stroke-width="0.5"/>
<line x1="349.341" y1="1.24066" x2="349.341" y2="1193.52" stroke="#FDF5E6" stroke-opacity="0.5" stroke-width="0.5"/>
<line x1="1047.52" y1="124.066" x2="1047.52" y2="1157.54" stroke="#FDF5E6" stroke-opacity="0.5" stroke-width="0.5"/>
<line x1="1448.98" y1="99.2531" x2="1448.98" y2="1196" stroke="#FDF5E6" stroke-opacity="0.5" stroke-width="0.5"/>
<line x1="698.432" y1="1.24066" x2="698.432" y2="1194.76" stroke="#FDF5E6" stroke-opacity="0.5" stroke-width="0.5"/>
<line x1="1.09082" y1="961.265" x2="1592.73" y2="961.265" stroke="#FDF5E6" stroke-opacity="0.5" stroke-width="0.5"/>
<line x1="1.09082" y1="493.534" x2="1767.27" y2="493.534" stroke="#FDF5E6" stroke-opacity="0.5" stroke-width="0.5"/>
<line x1="1.09082" y1="1157.29" x2="1918.91" y2="1157.29" stroke="#FDF5E6" stroke-opacity="0.5" stroke-width="0.5"/>
<line x1="1.09082" y1="763.999" x2="1448.73" y2="763.999" stroke="#FDF5E6" stroke-opacity="0.5" stroke-width="0.5"/>
<line x1="1.09082" y1="296.269" x2="1592.73" y2="296.269" stroke="#FDF5E6" stroke-opacity="0.5" stroke-width="0.5"/>
<line x1="1.09082" y1="862.011" x2="1047.27" y2="862.011" stroke="#FDF5E6" stroke-opacity="0.5" stroke-width="0.5"/>
<line x1="1.09082" y1="394.281" x2="1592.73" y2="394.281" stroke="#FDF5E6" stroke-opacity="0.5" stroke-width="0.5"/>
<line x1="1.09082" y1="1059.28" x2="1636.36" y2="1059.28" stroke="#FDF5E6" stroke-opacity="0.5" stroke-width="0.5"/>
<line x1="1.79666e-08" y1="665.987" x2="1156.36" y2="665.987" stroke="#FDF5E6" stroke-opacity="0.5" stroke-width="0.5"/>
<line x1="1.09082" y1="198.256" x2="916.364" y2="198.256" stroke="#FDF5E6" stroke-opacity="0.5" stroke-width="0.5"/>
<line x1="1.09082" y1="99.0031" x2="1918.91" y2="99.0032" stroke="#FDF5E6" stroke-opacity="0.5" stroke-width="0.5"/>
<line x1="1.09082" y1="911.638" x2="1592.73" y2="911.638" stroke="#FDF5E6" stroke-opacity="0.5" stroke-width="0.5"/>
<line x1="1.09082" y1="443.908" x2="1918.91" y2="443.908" stroke="#FDF5E6" stroke-opacity="0.5" stroke-width="0.5"/>
<line x1="1.09082" y1="1108.9" x2="1680" y2="1108.9" stroke="#FDF5E6" stroke-opacity="0.5" stroke-width="0.5"/>
<line x1="1.09082" y1="714.372" x2="1680" y2="714.372" stroke="#FDF5E6" stroke-opacity="0.5" stroke-width="0.5"/>
<line x1="1.09082" y1="246.642" x2="1918.91" y2="246.642" stroke="#FDF5E6" stroke-opacity="0.5" stroke-width="0.5"/>
<line x1="1.09082" y1="813.625" x2="1614.55" y2="813.626" stroke="#FDF5E6" stroke-opacity="0.5" stroke-width="0.5"/>
<line x1="1.09082" y1="345.895" x2="1178.18" y2="345.895" stroke="#FDF5E6" stroke-opacity="0.5" stroke-width="0.5"/>
<line x1="1.09082" y1="1009.65" x2="1918.91" y2="1009.65" stroke="#FDF5E6" stroke-opacity="0.5" stroke-width="0.5"/>
<line x1="1.09082" y1="541.92" x2="1221.82" y2="541.92" stroke="#FDF5E6" stroke-opacity="0.5" stroke-width="0.5"/>
<line x1="1.79666e-08" y1="616.36" x2="1309.09" y2="616.36" stroke="#FDF5E6" stroke-opacity="0.5" stroke-width="0.5"/>
<line x1="1.09082" y1="148.63" x2="1789.09" y2="148.63" stroke="#FDF5E6" stroke-opacity="0.5" stroke-width="0.5"/>
<line x1="1.09082" y1="50.6172" x2="1527.27" y2="50.6173" stroke="#FDF5E6" stroke-opacity="0.5" stroke-width="0.5"/>
<line x1="1.09082" y1="936.451" x2="1025.45" y2="936.451" stroke="#FDF5E6" stroke-opacity="0.5" stroke-width="0.5"/>
<line x1="1.09082" y1="468.721" x2="1374.55" y2="468.721" stroke="#FDF5E6" stroke-opacity="0.5" stroke-width="0.5"/>
<line x1="1.09082" y1="1132.48" x2="1723.64" y2="1132.48" stroke="#FDF5E6" stroke-opacity="0.5" stroke-width="0.5"/>
<line x1="1.09082" y1="739.186" x2="1767.27" y2="739.186" stroke="#FDF5E6" stroke-opacity="0.5" stroke-width="0.5"/>
<line x1="1.09082" y1="271.455" x2="1309.09" y2="271.455" stroke="#FDF5E6" stroke-opacity="0.5" stroke-width="0.5"/>
<line x1="1.09082" y1="837.198" x2="1767.27" y2="837.198" stroke="#FDF5E6" stroke-opacity="0.5" stroke-width="0.5"/>
<line x1="1.09082" y1="370.708" x2="1918.91" y2="370.709" stroke="#FDF5E6" stroke-opacity="0.5" stroke-width="0.5"/>
<line x1="1.09082" y1="1034.46" x2="960" y2="1034.46" stroke="#FDF5E6" stroke-opacity="0.5" stroke-width="0.5"/>
<line x1="1.09082" y1="566.733" x2="960" y2="566.733" stroke="#FDF5E6" stroke-opacity="0.5" stroke-width="0.5"/>
<line x1="1.79666e-08" y1="641.173" x2="1918.91" y2="641.173" stroke="#FDF5E6" stroke-opacity="0.5" stroke-width="0.5"/>
<line x1="1.09082" y1="173.443" x2="1745.45" y2="173.443" stroke="#FDF5E6" stroke-opacity="0.5" stroke-width="0.5"/>
<line x1="1.09082" y1="75.4305" x2="1527.27" y2="75.4306" stroke="#FDF5E6" stroke-opacity="0.5" stroke-width="0.5"/>
<line x1="1.09082" y1="886.825" x2="1636.36" y2="886.825" stroke="#FDF5E6" stroke-opacity="0.5" stroke-width="0.5"/>
<line x1="1.09082" y1="419.094" x2="1680" y2="419.094" stroke="#FDF5E6" stroke-opacity="0.5" stroke-width="0.5"/>
<line x1="1.09082" y1="1084.09" x2="850.909" y2="1084.09" stroke="#FDF5E6" stroke-opacity="0.5" stroke-width="0.5"/>
<line x1="1.09082" y1="689.559" x2="1418.18" y2="689.559" stroke="#FDF5E6" stroke-opacity="0.5" stroke-width="0.5"/>
<line x1="1.09082" y1="223.07" x2="1789.09" y2="223.07" stroke="#FDF5E6" stroke-opacity="0.5" stroke-width="0.5"/>
<line x1="1.09082" y1="1182.1" x2="1156.36" y2="1182.1" stroke="#FDF5E6" stroke-opacity="0.5" stroke-width="0.5"/>
<line x1="1.09082" y1="788.812" x2="1178.18" y2="788.812" stroke="#FDF5E6" stroke-opacity="0.5" stroke-width="0.5"/>
<line x1="1.09082" y1="321.082" x2="1636.36" y2="321.082" stroke="#FDF5E6" stroke-opacity="0.5" stroke-width="0.5"/>
<line x1="1.09082" y1="984.837" x2="1505.45" y2="984.837" stroke="#FDF5E6" stroke-opacity="0.5" stroke-width="0.5"/>
<line x1="1.09082" y1="518.348" x2="1448.73" y2="518.348" stroke="#FDF5E6" stroke-opacity="0.5" stroke-width="0.5"/>
<line x1="1.79666e-08" y1="591.547" x2="1832.73" y2="591.547" stroke="#FDF5E6" stroke-opacity="0.5" stroke-width="0.5"/>
<line x1="1.09082" y1="123.816" x2="1265.45" y2="123.816" stroke="#FDF5E6" stroke-opacity="0.5" stroke-width="0.5"/>
<line x1="1.09082" y1="25.804" x2="1918.91" y2="25.8041" stroke="#FDF5E6" stroke-opacity="0.5" stroke-width="0.5"/>
</g>
</svg>
